<svg width="47" height="44" viewBox="0 0 47 44" fill="none" xmlns="http://www.w3.org/2000/svg">
<g clip-path="url(#clip0)">
<path d="M2.3916 30.2721L16.3876 26.7781L2.3916 30.2721ZM2.3916 30.2721L16.3876 26.7781L2.3916 30.2721ZM2.3916 30.2721L16.3876 26.7781L2.3916 30.2721ZM2.3916 30.2721L16.3876 26.7781L2.3916 30.2721ZM2.3916 30.2721L16.3876 26.7781L2.3916 30.2721Z" fill="#615BA3"/>
<path d="M33.1172 3.88532L32.5971 3.30298L33.1172 3.88532L28.4834 20.2099L33.1172 3.88532Z" fill="white"/>
<path d="M46.4689 28.9069L46.3366 28.506L42.081 27.4272L41.542 27.2936L41.5798 26.7399C41.6082 26.3389 41.6176 25.9379 41.6176 25.5084C41.6176 20.4964 39.575 15.7136 36.0003 12.2673L34.9979 13.4033C38.2605 16.5632 40.114 20.9356 40.114 25.5084C40.114 25.7279 40.114 25.9284 40.1046 26.1002L40.0762 26.9212L39.2913 26.7208L36.3029 25.9666L35.8112 25.8425L35.8017 25.327C35.7639 22.7399 34.9223 20.21 33.4092 18.1384L32.246 19.1122C33.3903 20.6969 34.0806 22.5585 34.2603 24.5346L34.3454 25.4702L33.4376 25.241L30.383 24.4678L29.9953 24.3723L29.9007 23.9809C29.6076 22.7303 28.9551 21.5943 28.0188 20.6969L27.7257 20.42L27.8392 20.0286L32.3784 4.05728L32.0947 3.74224C29.9764 1.36516 26.8462 0 23.508 0C20.1697 0 17.049 1.36515 14.9213 3.75179L14.6376 4.06683L15.848 8.30549L15.9993 8.8401L15.5076 9.08831C14.5146 9.58473 13.5595 10.1766 12.6706 10.8544C9.80516 13.0215 7.60174 16.0477 6.41019 19.4368L7.84761 19.8854C9.24721 15.9045 12.0086 12.6587 15.6967 10.6826L16.4154 10.3007L16.6424 11.0931L17.4935 14.1002L17.6353 14.5967L17.2003 14.864C16.3209 15.3986 15.517 16.0286 14.7983 16.7637L15.9237 17.7757C16.3492 17.3461 16.8126 16.9642 17.2949 16.611L18.0514 16.0668L18.3068 16.9737L19.1768 20.0286L19.2903 20.42L18.9971 20.6969C18.0703 21.5847 17.4178 22.7112 17.1247 23.9618L17.0301 24.3628L16.6424 24.4582L13.5879 25.222L12.6895 25.4511L12.7746 24.5155C12.8691 23.4845 13.1056 22.4726 13.4838 21.5084L12.1126 20.8592C11.5452 22.2721 11.2426 23.7613 11.2237 25.2983L11.2142 25.8138L10.7225 25.9379L0.660489 28.4487L0.528095 28.8496C-0.455406 31.895 -0.0676799 35.3126 1.58725 38.2339C3.24218 41.1551 5.98463 43.2076 9.08644 43.8854L9.49308 43.9714L12.5476 40.7924L12.9353 40.3914L13.3987 40.7064C16.3965 42.7399 19.886 43.8186 23.508 43.8186C24.5388 43.8186 25.5695 43.7327 26.572 43.5609L26.2599 42.0716C25.352 42.2243 24.4347 42.3007 23.508 42.3007C20.3873 42.3007 17.3422 41.4129 14.6943 39.7327L14.004 39.2936L14.5714 38.7017L16.7086 36.4678L17.0679 36.0955L17.5124 36.3437C19.1484 37.2697 20.9736 37.8043 22.846 37.9093V36.3914C21.4937 36.3055 20.1981 35.9714 18.9687 35.3986L18.1271 34.9976L18.7701 34.3198L20.9547 32.0382L21.2384 31.7422L21.6261 31.8568C22.2313 32.0382 22.8649 32.1337 23.508 32.1337C24.151 32.1337 24.7752 32.0382 25.3804 31.8568L25.7681 31.7422L26.0518 32.0382L37.4756 44L37.8822 43.9141C40.984 43.2554 43.7265 41.2029 45.3909 38.2912C47.0553 35.3795 47.4524 31.9618 46.4689 28.9069ZM16.4343 4.84964L16.3209 4.45823L16.6235 4.18138C18.4486 2.47255 20.8979 1.52745 23.508 1.52745C26.1275 1.52745 28.5768 2.47255 30.4019 4.18138L30.7046 4.45823L30.5911 4.84964L26.6192 18.8449L26.4207 19.5322L25.7492 19.284C25.0305 19.0167 24.2834 18.8831 23.508 18.8831C22.742 18.8831 21.9854 19.0167 21.2667 19.284L20.5953 19.5322L20.3967 18.8449L16.4343 4.84964ZM19.3281 31.5513L9.28504 42.0048L9.00133 42.3007L8.61361 42.1766C6.23997 41.432 4.20677 39.7613 2.90174 37.4702C1.59671 35.179 1.18061 32.5632 1.74801 30.1193L1.84258 29.7184L2.23977 29.6229L16.2357 26.1289L16.9261 25.957L17.049 26.6635C17.3138 28.1909 18.1082 29.5752 19.2808 30.5871L19.8198 31.0453L19.3281 31.5513ZM23.508 30.6253C20.7182 30.6253 18.4486 28.3341 18.4486 25.5179C18.4486 22.7017 20.7182 20.4105 23.508 20.4105C26.2977 20.4105 28.5673 22.7017 28.5673 25.5179C28.5673 28.3341 26.2977 30.6253 23.508 30.6253ZM44.0764 37.5274C42.7619 39.8186 40.7287 41.4797 38.3551 42.2148L37.9673 42.3389L37.6836 42.043L27.6784 31.5609L27.1866 31.0453L27.7257 30.5871C28.9078 29.5847 29.7021 28.2005 29.9764 26.673L30.0993 25.9666L30.7897 26.1384L44.7762 29.6706L45.1734 29.7661L45.2679 30.1671C45.807 32.6301 45.3909 35.2363 44.0764 37.5274Z" fill="#615BA3"/>
</g>
<defs>
<clipPath id="clip0">
<rect width="47" height="44" fill="white"/>
</clipPath>
</defs>
</svg>
