<svg width="39" height="39" viewBox="0 0 39 39" fill="none" xmlns="http://www.w3.org/2000/svg">
<g clip-path="url(#clip0)">
<path d="M0.123105 3.57751L2.72409 8.12898C2.81183 8.28278 2.95868 8.39405 3.1304 8.43711L5.55699 9.04376L13.8797 17.3664L14.7993 16.4471L6.34633 7.99443C6.26314 7.91098 6.15882 7.85187 6.04461 7.82325L3.71297 7.23826L1.49849 3.36085L3.39708 1.46227L7.27609 3.67889L7.86134 6.01052C7.8897 6.12501 7.94908 6.22959 8.03226 6.31278L16.4852 14.7657L17.4045 13.8461L9.08186 5.52344L8.47521 3.09819C8.43215 2.9262 8.32088 2.77908 8.16707 2.69108L3.61534 0.0903588C3.3615 -0.054081 3.04213 -0.011284 2.8351 0.194944L0.234377 2.79593C0.0252068 3.00163 -0.0202651 3.32153 0.123105 3.57751Z" fill="#615BA3"/>
<path d="M27.1569 12.8147L12.8522 27.1196L11.9326 26.2L26.2375 11.8954L27.1569 12.8147Z" fill="#615BA3"/>
<path d="M10.3485 27.6257C10.2308 27.4299 10.0195 27.3103 9.79107 27.3103H5.88985C5.66169 27.3103 5.45011 27.4299 5.33269 27.6257L3.38195 30.8766C3.2581 31.0826 3.2581 31.3402 3.38195 31.5464L5.33269 34.7974C5.45011 34.9929 5.66169 35.1127 5.88985 35.1127H9.79107C10.0195 35.1127 10.2308 34.9929 10.3485 34.7974L12.299 31.5464C12.4228 31.3402 12.4228 31.0826 12.299 30.8766L10.3485 27.6257ZM9.42328 33.8122H6.25791L4.69742 31.2115L6.25791 28.6105H9.42328L10.9838 31.2115L9.42328 33.8122Z" fill="#615BA3"/>
<path d="M31.2484 15.6067C35.5428 15.6211 39.0361 12.1514 39.0505 7.85696C39.0527 7.20323 38.9724 6.55218 38.8117 5.91852C38.725 5.56999 38.3722 5.35788 38.0237 5.44454C37.9092 5.47316 37.8049 5.53228 37.7214 5.61546L33.6739 9.66032L30.4625 8.59013L29.3915 5.37955L33.439 1.33122C33.6929 1.07711 33.6926 0.665455 33.4385 0.411615C33.3548 0.327894 33.2494 0.268513 33.1341 0.24016C28.9694 -0.814519 24.7387 1.70649 23.684 5.87091C23.5238 6.5027 23.4438 7.15214 23.4459 7.804C23.4475 8.31596 23.5002 8.82631 23.604 9.32757L9.36409 23.5672C8.86283 23.4637 8.35248 23.411 7.84079 23.4091C3.53139 23.4091 0.0380859 26.9024 0.0380859 31.2118C0.0380859 35.521 3.53139 39.0143 7.84079 39.0143C12.1499 39.0143 15.6432 35.521 15.6432 31.2118C15.6416 30.6999 15.5887 30.1895 15.4851 29.6883L18.8942 26.2792L20.3851 27.7701C20.6392 28.024 21.0506 28.024 21.3047 27.7701L21.6297 27.4449C21.9149 27.1616 22.3757 27.1616 22.6609 27.4449C22.9457 27.729 22.9463 28.1901 22.6622 28.475C22.6619 28.4752 22.6614 28.4758 22.6609 28.4763L22.3359 28.8013C22.082 29.0551 22.082 29.4668 22.3359 29.7206L30.0923 37.477C32.1324 39.5358 35.455 39.5508 37.5138 37.5107C39.5724 35.4707 39.5874 32.1477 37.5473 30.0892C37.5363 30.078 37.5251 30.0667 37.5138 30.0555L29.7574 22.2993C29.5036 22.0455 29.0919 22.0455 28.8381 22.2993L28.5131 22.6243C28.2277 22.9079 27.7671 22.9079 27.4817 22.6243C27.1971 22.3403 27.1963 21.8791 27.4803 21.5945C27.4809 21.594 27.4814 21.5937 27.4817 21.5932L27.8069 21.2679C28.0608 21.0141 28.0608 20.6024 27.8069 20.3486L26.316 18.8577L29.725 15.4486C30.2263 15.5521 30.7367 15.6051 31.2484 15.6067ZM33.8031 37.714C33.3307 37.7132 32.8623 37.6279 32.4202 37.4618L37.4983 32.3834C38.2647 34.4219 37.2335 36.6955 35.195 37.4618C34.7502 37.629 34.2787 37.7146 33.8031 37.714ZM26.4369 20.8148C25.7168 21.6737 25.8297 22.9539 26.6886 23.6737C27.4434 24.3063 28.5436 24.3057 29.2976 23.6718L36.5945 30.9751C36.6737 31.0545 36.7478 31.1383 36.8195 31.2233L31.2601 36.7827C31.1748 36.7112 31.0911 36.6371 31.0116 36.5577L23.7091 29.2547C24.4292 28.3958 24.3163 27.1156 23.4574 26.3958C22.7026 25.763 21.6022 25.7638 20.8481 26.3974L19.8079 25.3572L25.3964 19.777L26.4369 20.8148ZM29.0625 14.2752L14.3122 29.0225C14.1504 29.184 14.0854 29.4186 14.1405 29.6404C15.0326 33.1436 12.9157 36.7067 9.41224 37.5985C5.90904 38.4905 2.34592 36.3737 1.45387 32.8702C0.562082 29.367 2.67893 25.8039 6.1824 24.9118C7.24216 24.6422 8.35248 24.6422 9.41224 24.9118C9.63398 24.9661 9.86803 24.9011 10.0301 24.7404L24.7769 9.9928C24.9385 9.83124 25.0035 9.59666 24.9478 9.37518C24.0619 5.9129 26.1504 2.38804 29.6127 1.50187C30.267 1.33469 30.9437 1.2705 31.6178 1.31249L28.1878 4.74374C28.0137 4.91761 27.9527 5.17519 28.0306 5.4087L29.3308 9.31019C29.3958 9.50411 29.5482 9.65657 29.7424 9.72104L33.6439 11.0215C33.8772 11.0994 34.1348 11.0386 34.3089 10.8648L37.7388 7.43487C37.7466 7.55898 37.7506 7.68176 37.7506 7.804C37.7688 11.3767 34.8874 14.2877 31.3147 14.3062C30.7623 14.3089 30.2119 14.2409 29.6769 14.104C29.4552 14.0486 29.2206 14.1133 29.059 14.2749H29.0625V14.2752Z" fill="#615BA3"/>
<path d="M33.6589 32.7023L32.7392 33.6219L26.2373 27.1199L27.1566 26.2003L33.6589 32.7023Z" fill="#615BA3"/>
</g>
<defs>
<clipPath id="clip0">
<rect width="39" height="39" fill="white"/>
</clipPath>
</defs>
</svg>
