<svg width="44" height="44" viewBox="0 0 44 44" fill="none" xmlns="http://www.w3.org/2000/svg">
<g clip-path="url(#clip0)">
<path d="M21.6944 0C9.71296 0 0 9.71296 0 21.6944C0 33.6759 9.71296 43.3889 21.6944 43.3889C33.6759 43.3889 43.3889 33.6759 43.3889 21.6944C43.3753 9.71857 33.6703 0.013559 21.6944 0ZM41.1587 27.2583L39.7999 26.8165L39.3523 28.1905L40.7169 28.6338C40.1524 30.1733 39.4031 31.6385 38.4852 32.9973L37.3282 32.1584L36.4778 33.3285L37.6261 34.163C36.6155 35.4529 35.4535 36.6165 34.1651 37.629L33.3306 36.4807L32.1606 37.3311L32.9994 38.4881C31.6408 39.405 30.1758 40.1533 28.6367 40.7169L28.1934 39.3523L26.8194 39.7999L27.2612 41.1587C25.684 41.6103 24.0573 41.8675 22.4176 41.9245V40.4963H20.9713V41.9245C19.3326 41.8673 17.7069 41.6101 16.1305 41.1587L16.5724 39.7999L15.1984 39.3523L14.7522 40.7169C13.2127 40.1524 11.7475 39.4031 10.3887 38.4852L11.2276 37.3282L10.0575 36.4778L9.22303 37.6261C7.93375 36.6145 6.77075 35.4515 5.75915 34.1622L6.90751 33.3277L6.05709 32.1577L4.90005 32.9965C3.98491 31.6385 3.23799 30.1746 2.67565 28.6367L4.04023 28.1934L3.5926 26.8194L2.2338 27.2612C1.78093 25.6841 1.52259 24.0574 1.46438 22.4176H2.89259V20.9713H1.46438C1.52159 19.3326 1.77876 17.7069 2.23019 16.1305L3.58898 16.5724L4.03661 15.1984L2.67565 14.7522C3.24007 13.2127 3.98943 11.7475 4.90728 10.3887L6.06432 11.2276L6.91474 10.0575L5.75988 9.22375C6.77147 7.93447 7.93447 6.77147 9.22375 5.75988L10.0583 6.90823L11.2283 6.05781L10.3895 4.90077C11.7483 3.98518 13.2133 3.23799 14.7522 2.67565L15.1955 4.04023L16.5695 3.5926L16.1277 2.2338C17.7048 1.78093 19.3315 1.52259 20.9713 1.46438V2.89259H22.4176V1.46438C24.0563 1.52159 25.682 1.77876 27.2583 2.23019L26.8165 3.58898L28.1905 4.03661L28.6367 2.67565C30.1762 3.24007 31.6414 3.98943 33.0001 4.90728L32.1613 6.06432L33.3313 6.91474L34.1659 5.76638C35.4551 6.77798 36.6181 7.94098 37.6297 9.23026L36.4814 10.0648L37.3318 11.2348L38.4888 10.396C39.405 11.7526 40.1531 13.2154 40.7169 14.7522L39.3523 15.1955L39.7999 16.5695L41.1587 16.1277C41.6103 17.7049 41.8675 19.3316 41.9245 20.9713H40.4963V22.4176H41.9245C41.8673 24.0563 41.6101 25.682 41.1587 27.2583Z" fill="#615BA3"/>
<path d="M21.6944 5.78516C12.908 5.78516 5.78516 12.908 5.78516 21.6944C5.78516 30.4808 12.908 37.6037 21.6944 37.6037C30.4809 37.6037 37.6037 30.4808 37.6037 21.6944C37.5937 12.9121 30.4767 5.7951 21.6944 5.78516ZM21.6944 36.1574C13.7067 36.1574 7.23145 29.6821 7.23145 21.6944C7.23145 13.7067 13.7067 7.23145 21.6944 7.23145C29.6821 7.23145 36.1574 13.7067 36.1574 21.6944C36.1483 29.6782 29.6783 36.1482 21.6944 36.1574Z" fill="#615BA3"/>
<path d="M21.6949 9.40088C14.9053 9.40088 9.40137 14.9049 9.40137 21.6944C9.40137 28.4839 14.9053 33.9879 21.6949 33.9879C28.4844 33.9879 33.9884 28.4839 33.9884 21.6944C33.9808 14.908 28.4813 9.40847 21.6949 9.40088ZM30.9938 16.1385C31.8346 17.5341 32.3472 19.1025 32.4929 20.7254L27.9639 20.3595C27.5659 20.326 27.2704 19.9762 27.3039 19.5783C27.3198 19.3896 27.409 19.2147 27.5524 19.0911L30.9938 16.1385ZM24.1095 11.1278L22.3624 15.322C22.2087 15.6906 21.7853 15.8649 21.4167 15.7113C21.2407 15.6379 21.1008 15.498 21.0274 15.322L19.2803 11.1278C20.8683 10.7536 22.5214 10.7536 24.1095 11.1278ZM12.3959 16.1383L15.8374 19.0911C16.1407 19.3509 16.1757 19.8075 15.9158 20.1107C15.7917 20.2555 15.6154 20.3455 15.4252 20.3609L10.8961 20.7268C11.0418 19.1034 11.5547 17.5343 12.3959 16.1383ZM18.4856 27.2438L17.4355 31.6681C15.9394 31.0222 14.6073 30.0491 13.5371 28.8203H13.5349L17.4052 26.4592C17.746 26.251 18.1911 26.3586 18.3992 26.6995C18.4988 26.8625 18.5298 27.0581 18.4856 27.2438ZM25.9542 31.6681H25.9521L24.8999 27.2438C24.8074 26.8553 25.0474 26.4654 25.4359 26.3729C25.6217 26.3287 25.8173 26.3597 25.9803 26.4592L29.8505 28.8203C28.7809 30.0488 27.4495 31.0219 25.9542 31.6681ZM26.7352 25.2241C25.7124 24.6 24.3774 24.9232 23.7533 25.946C23.4551 26.4347 23.3621 27.0217 23.4948 27.5787L24.5795 32.1403C22.6932 32.6754 20.6951 32.6754 18.8088 32.1403H18.8074L19.8921 27.5787C20.1692 26.413 19.449 25.2433 18.2833 24.9662C17.7265 24.8339 17.1401 24.9268 16.6516 25.2248L12.6497 27.6676C11.5692 26.0334 10.9547 24.1356 10.8723 22.1782L15.5423 21.8007C16.7364 21.7028 17.6251 20.6553 17.5272 19.4612C17.4805 18.8918 17.2111 18.3638 16.7775 17.9919L13.2196 14.9402C14.4422 13.4106 16.0548 12.2391 17.8875 11.5494L19.6896 15.8759C20.1501 16.982 21.4202 17.5054 22.5263 17.0447C23.0549 16.8246 23.475 16.4045 23.6951 15.8759L25.4979 11.5494C27.3305 12.2393 28.9431 13.4107 30.1658 14.9402L26.6123 17.9919C25.7029 18.7721 25.5983 20.1417 26.3784 21.051C26.7509 21.485 27.2796 21.7544 27.8496 21.8007L32.5197 22.1782C32.4373 24.1356 31.8228 26.0334 30.7422 27.6676L26.7352 25.2241Z" fill="#615BA3"/>
<path d="M21.6944 18.8019C20.0968 18.8019 18.8018 20.0969 18.8018 21.6945C18.8018 23.292 20.0968 24.5871 21.6944 24.5871C23.2919 24.5871 24.587 23.292 24.587 21.6945C24.587 20.0969 23.2919 18.8019 21.6944 18.8019ZM21.6944 23.1408C20.8955 23.1408 20.2481 22.4933 20.2481 21.6945C20.2481 20.8957 20.8955 20.2482 21.6944 20.2482C22.4932 20.2482 23.1407 20.8957 23.1407 21.6945C23.1407 22.4933 22.4932 23.1408 21.6944 23.1408Z" fill="#615BA3"/>
</g>
<defs>
<clipPath id="clip0">
<rect width="43.3889" height="43.3889" fill="white"/>
</clipPath>
</defs>
</svg>
