<svg width="51" height="43" viewBox="0 0 51 43" fill="none" xmlns="http://www.w3.org/2000/svg">
<path d="M10.1323 30.3918C10.5985 30.3918 10.9765 30.0138 10.9765 29.5476C10.9765 29.0813 10.5985 28.7034 10.1323 28.7034C9.66605 28.7034 9.28809 29.0813 9.28809 29.5476C9.28809 30.0138 9.66605 30.3918 10.1323 30.3918Z" fill="#615BA3"/>
<path d="M11.8208 32.0803C12.287 32.0803 12.665 31.7023 12.665 31.2361C12.665 30.7698 12.287 30.3918 11.8208 30.3918C11.3545 30.3918 10.9766 30.7698 10.9766 31.2361C10.9766 31.7023 11.3545 32.0803 11.8208 32.0803Z" fill="#615BA3"/>
<path d="M10.1323 33.7688C10.5985 33.7688 10.9765 33.3908 10.9765 32.9245C10.9765 32.4583 10.5985 32.0803 10.1323 32.0803C9.66605 32.0803 9.28809 32.4583 9.28809 32.9245C9.28809 33.3908 9.66605 33.7688 10.1323 33.7688Z" fill="#615BA3"/>
<path d="M8.44383 32.0803C8.91007 32.0803 9.28804 31.7023 9.28804 31.2361C9.28804 30.7698 8.91007 30.3918 8.44383 30.3918C7.97758 30.3918 7.59961 30.7698 7.59961 31.2361C7.59961 31.7023 7.97758 32.0803 8.44383 32.0803Z" fill="#615BA3"/>
<path d="M10.1317 26.1707C9.12988 26.1707 8.15056 26.4677 7.31758 27.0243C6.48459 27.5809 5.83536 28.372 5.45198 29.2975C5.0686 30.2231 4.96829 31.2416 5.16374 32.2241C5.35918 33.2067 5.8416 34.1093 6.55 34.8177C7.25839 35.526 8.16094 36.0085 9.14351 36.2039C10.1261 36.3994 11.1445 36.2991 12.0701 35.9157C12.9957 35.5323 13.7868 34.8831 14.3433 34.0501C14.8999 33.2171 15.197 32.2378 15.197 31.2359C15.1955 29.893 14.6614 28.6055 13.7118 27.6559C12.7622 26.7063 11.4746 26.1722 10.1317 26.1707ZM10.1317 34.6128C9.46382 34.6128 8.81094 34.4148 8.25562 34.0437C7.7003 33.6727 7.26748 33.1453 7.01189 32.5282C6.7563 31.9112 6.68943 31.2322 6.81973 30.5772C6.95002 29.9221 7.27164 29.3204 7.7439 28.8481C8.21616 28.3759 8.81786 28.0543 9.47291 27.924C10.128 27.7937 10.8069 27.8605 11.424 28.1161C12.041 28.3717 12.5684 28.8045 12.9395 29.3599C13.3105 29.9152 13.5086 30.5681 13.5086 31.2359C13.5075 32.1312 13.1514 32.9896 12.5184 33.6226C11.8853 34.2557 11.027 34.6118 10.1317 34.6128Z" fill="#615BA3"/>
<path d="M43.9008 32.9243C43.3999 32.9243 42.9102 33.0729 42.4938 33.3511C42.0773 33.6294 41.7526 34.025 41.561 34.4878C41.3693 34.9505 41.3191 35.4598 41.4168 35.9511C41.5146 36.4423 41.7558 36.8936 42.11 37.2478C42.4642 37.602 42.9154 37.8432 43.4067 37.941C43.898 38.0387 44.4072 37.9885 44.87 37.7968C45.3328 37.6051 45.7283 37.2805 46.0066 36.864C46.2849 36.4475 46.4335 35.9579 46.4335 35.457C46.4327 34.7855 46.1656 34.1418 45.6908 33.667C45.216 33.1922 44.5723 32.9251 43.9008 32.9243ZM43.9008 36.3012C43.7338 36.3012 43.5706 36.2517 43.4318 36.1589C43.293 36.0661 43.1848 35.9343 43.1209 35.78C43.057 35.6258 43.0402 35.456 43.0728 35.2923C43.1054 35.1285 43.1858 34.9781 43.3039 34.86C43.4219 34.7419 43.5724 34.6615 43.7361 34.629C43.8999 34.5964 44.0696 34.6131 44.2239 34.677C44.3781 34.7409 44.51 34.8491 44.6028 34.9879C44.6955 35.1268 44.745 35.29 44.745 35.457C44.7448 35.6808 44.6558 35.8954 44.4975 36.0536C44.3392 36.2119 44.1246 36.3009 43.9008 36.3012Z" fill="#615BA3"/>
<path d="M49.5816 31.8122C49.7159 31.6694 49.796 31.4843 49.8083 31.2887L50.6525 17.7812C50.6595 17.669 50.644 17.5564 50.6069 17.4503C50.5699 17.3441 50.512 17.2464 50.4366 17.1629C50.3613 17.0794 50.27 17.0118 50.1682 16.9641C50.0663 16.9164 49.956 16.8895 49.8436 16.885L40.5235 16.5122V8.44216C40.5235 8.21826 40.4346 8.00354 40.2762 7.84522C40.1179 7.6869 39.9032 7.59796 39.6793 7.59794H38.8848C39.0334 6.54447 39.522 5.56837 40.2763 4.81807L39.0823 3.62409C38.0104 4.69031 37.3398 6.09411 37.1839 7.59794H36.3024C36.0785 7.59796 35.8638 7.6869 35.7055 7.84522C35.5472 8.00354 35.4582 8.21826 35.4582 8.44216V16.3096L32.7413 16.2009L31.3489 5.06247C32.0103 5.03334 32.634 4.74638 33.0864 4.26304C33.5388 3.77971 33.7839 3.13843 33.7693 2.47657C33.7547 1.8147 33.4815 1.18487 33.0082 0.721969C32.5349 0.25907 31.8992 -8.81974e-05 31.2371 2.25158e-08H8.44331C7.84589 -5.29529e-05 7.26769 0.211106 6.8109 0.596152C6.35412 0.981199 6.04817 1.51534 5.94714 2.10415C5.84611 2.69297 5.9565 3.29855 6.25879 3.81384C6.56109 4.32913 7.03583 4.72096 7.5991 4.92007V15.3979C5.66564 15.705 3.80502 16.3647 2.10984 17.3439C1.91619 17.456 1.77496 17.6404 1.71718 17.8565C1.6594 18.0727 1.6898 18.3029 1.80171 18.4967L3.49014 21.421C3.5456 21.517 3.61945 21.6012 3.70747 21.6687C3.79549 21.7363 3.89596 21.7858 4.00313 21.8144C4.1103 21.8431 4.22206 21.8503 4.33203 21.8357C4.442 21.8212 4.54802 21.7851 4.64403 21.7295C5.56654 21.1965 6.56213 20.8015 7.5991 20.557V21.426C5.79912 21.8905 4.16167 22.8414 2.86604 24.1745C1.5704 25.5076 0.666523 27.1715 0.253374 28.9839C-0.159776 30.7964 -0.0662699 32.6876 0.523653 34.4505C1.11358 36.2134 2.17717 37.78 3.59799 38.9787C5.01881 40.1775 6.74206 40.9622 8.57909 41.247C10.4161 41.5318 12.2961 41.3056 14.0132 40.5933C15.7302 39.881 17.2182 38.7099 18.3142 37.2084C19.4102 35.7068 20.0719 33.9327 20.2269 32.0802H24.4834V35.4571C24.4834 35.681 24.5724 35.8957 24.7307 36.054C24.889 36.2123 25.1037 36.3013 25.3276 36.3013H30.3929C30.6168 36.3013 30.8316 36.2123 30.9899 36.054C31.1482 35.8957 31.2371 35.681 31.2371 35.4571V32.0802H38.0552C37.4542 33.1183 37.1405 34.2978 37.1464 35.4973C37.1523 36.6969 37.4776 37.8732 38.0888 38.9054C38.7 39.9375 39.575 40.7883 40.624 41.3702C41.673 41.9521 42.858 42.2441 44.0572 42.2162C45.2564 42.1884 46.4266 41.8416 47.4474 41.2116C48.4682 40.5816 49.3028 39.691 49.8653 38.6316C50.4279 37.5721 50.6981 36.3819 50.6483 35.1834C50.5984 33.9849 50.2303 32.8213 49.5816 31.8122H49.5816ZM43.9004 28.7033C43.2289 28.7026 42.5852 28.4355 42.1104 27.9607C41.6356 27.4859 41.3685 26.8422 41.3677 26.1707V24.4823C41.3685 23.8108 41.6356 23.1671 42.1104 22.6923C42.5852 22.2175 43.2289 21.9504 43.9004 21.9496H48.7002L48.6474 22.7938H43.9004V24.4823H48.5419L48.4364 26.1707H43.9004V27.8591H48.3309L48.1822 30.2382C46.9766 29.2446 45.4626 28.7019 43.9004 28.7033ZM37.1467 9.28638H38.8351V16.4447L37.1467 16.3772V9.28638ZM26.1719 29.5476H29.5487V31.236H26.1719V29.5476ZM26.1719 27.8591V26.1707H29.5487V27.8591H26.1719ZM25.3276 24.4823C25.1241 24.4822 24.9274 24.556 24.7742 24.69C23.7189 22.3439 22.1179 20.2841 20.1047 18.6826L18.5487 12.4585C18.503 12.2758 18.3976 12.1137 18.2492 11.9978C18.1008 11.8819 17.918 11.819 17.7297 11.819H14.3528C14.1289 11.819 13.9142 11.908 13.7559 12.0663C13.5976 12.2246 13.5086 12.4393 13.5086 12.6632V15.5547C13.2298 15.4947 12.9484 15.442 12.6644 15.3965V5.0653H26.277L27.8603 16.9403V17.9259L25.6704 16.612L26.1115 15.5094L24.5438 14.8824L22.8554 19.1035L24.423 19.7305L25.0352 18.2L27.8603 19.895V24.4823H25.3276ZM18.0109 17.2689C17.1156 16.7616 16.1732 16.342 15.197 16.0161V13.5075H17.0706L18.0109 17.2689ZM29.4475 16.0692L27.9803 5.0653H29.6476L31.0311 16.1325L29.4475 16.0692ZM8.44331 1.68843H31.2371C31.461 1.68843 31.6758 1.77738 31.8341 1.9357C31.9924 2.09402 32.0814 2.30875 32.0814 2.53265C32.0814 2.75655 31.9924 2.97128 31.8341 3.1296C31.6758 3.28792 31.461 3.37686 31.2371 3.37686H8.44331C8.21941 3.37686 8.00468 3.28792 7.84636 3.1296C7.68804 2.97128 7.5991 2.75655 7.5991 2.53265C7.5991 2.30875 7.68804 2.09402 7.84636 1.9357C8.00468 1.77738 8.21941 1.68843 8.44331 1.68843ZM9.28753 5.0653H10.976V15.2181C10.6964 15.2035 10.4149 15.1961 10.1317 15.1959C9.84971 15.1959 9.56835 15.2054 9.28753 15.2202V5.0653ZM9.28753 20.2949C9.56786 20.2734 9.84938 20.2612 10.1317 20.2612C12.8954 20.2645 15.5563 21.309 17.5843 23.1865C19.6122 25.064 20.8584 27.6366 21.0744 30.3918H20.2269C20.0121 27.8611 18.856 25.5031 16.9868 23.7837C15.1176 22.0643 12.6715 21.1085 10.1317 21.1054C9.84742 21.1054 9.56598 21.1178 9.28753 21.1409V20.2949ZM15.0601 38.0839L14.2397 36.6628L12.7775 37.507L13.5992 38.9301C12.769 39.3066 11.883 39.545 10.976 39.6358V37.9897H9.28753V39.6358C8.38053 39.545 7.49445 39.3066 6.6643 38.9301L7.48594 37.507L6.02382 36.6628L5.20336 38.0839C4.46496 37.5508 3.81689 36.9028 3.28388 36.1644L4.70494 35.3439L3.86072 33.8818L2.4376 34.7034C2.06111 33.8733 1.82274 32.9872 1.73189 32.0802H3.37802V30.3918H1.73189C1.82274 29.4848 2.06111 28.5987 2.4376 27.7685L3.86072 28.5902L4.70494 27.1281L3.28388 26.3076C3.81689 25.5692 4.46496 24.9211 5.20336 24.3881L6.02382 25.8092L7.48594 24.965L6.6643 23.5418C7.49445 23.1653 8.38053 22.927 9.28753 22.8361V24.4823H10.976V22.8361C11.883 22.927 12.769 23.1653 13.5992 23.5418L12.7775 24.965L14.2397 25.8092L15.0601 24.3881C15.7985 24.9211 16.4466 25.5692 16.9796 26.3076L15.5586 27.1281L16.4028 28.5902L17.8259 27.7685C18.2024 28.5987 18.4408 29.4848 18.5316 30.3918H16.8855V32.0802H18.5316C18.4408 32.9872 18.2024 33.8733 17.8259 34.7034L16.4028 33.8818L15.5586 35.3439L16.9796 36.1644C16.4466 36.9028 15.7985 37.5508 15.0601 38.0839ZM22.7672 30.3918C22.6278 28.3167 21.9797 26.3079 20.8801 24.5427C19.7805 22.7775 18.2632 21.3101 16.4621 20.2702C14.6611 19.2303 12.6317 18.6497 10.5532 18.5799C8.47463 18.51 6.41086 18.953 4.54407 19.8697L3.6981 18.4046C5.69519 17.4043 7.89814 16.8837 10.1317 16.8843C17.7617 16.8843 24.0202 22.8699 24.4589 30.3918H22.7672ZM26.1719 34.6129V32.9244H29.5487V34.6129H26.1719ZM30.3929 24.4823H29.5487V17.763L48.9134 18.5376L48.8057 20.2612H43.9004C42.7813 20.2625 41.7084 20.7076 40.917 21.4989C40.1257 22.2903 39.6806 23.3632 39.6793 24.4823V26.1707C39.6792 26.7652 39.8049 27.353 40.0483 27.8954C40.2916 28.4378 40.6471 28.9225 41.0912 29.3177C40.4915 29.5934 39.9353 29.9552 39.4403 30.3918H31.2371V25.3265C31.2371 25.1026 31.1482 24.8879 30.9899 24.7295C30.8316 24.5712 30.6168 24.4823 30.3929 24.4823ZM46.4011 39.8593L45.8486 38.3415L44.262 38.9191L44.8149 40.4381C44.2104 40.5505 43.5904 40.5505 42.9859 40.4381L43.5388 38.9191L41.9522 38.3415L41.3997 39.8593C40.8659 39.5552 40.3915 39.1571 39.9992 38.6842L41.398 37.8766L40.5538 36.4144L39.1533 37.2231C38.9424 36.6582 38.8347 36.06 38.8351 35.4571C38.8351 35.4451 38.8359 35.4333 38.836 35.4214L40.4282 35.7021L40.7215 34.0393L39.129 33.7584C39.336 33.1799 39.6466 32.6438 40.0456 32.1765L41.0831 33.4129L42.3764 32.3275L41.3382 31.0902C41.8677 30.7781 42.45 30.5657 43.0562 30.4635V32.0802H44.7446V30.4635C45.3508 30.5657 45.933 30.7781 46.4626 31.0902L45.4243 32.3275L46.7177 33.4129L47.7552 32.1765C48.1541 32.6438 48.4647 33.1799 48.6718 33.7584L47.0793 34.0393L47.3726 35.7021L48.9648 35.4214C48.9649 35.4333 48.9657 35.4451 48.9657 35.4571C48.9661 36.06 48.8583 36.6582 48.6475 37.2231L47.247 36.4144L46.4027 37.8766L47.8016 38.6842C47.4093 39.1571 46.9349 39.5552 46.4011 39.8593Z" fill="#615BA3"/>
<path d="M35.4589 19.417H32.082V21.1054H35.4589V19.417Z" fill="#615BA3"/>
<path d="M35.4589 21.9497H32.082V23.6381H35.4589V21.9497Z" fill="#615BA3"/>
<path d="M35.4589 24.4822H32.082V26.1706H35.4589V24.4822Z" fill="#615BA3"/>
</svg>
