<svg width="34" height="30" viewBox="0 0 34 30" fill="none" xmlns="http://www.w3.org/2000/svg">
<path d="M23.3753 11.7499L10.6253 5.26245" stroke="black" stroke-width="2" stroke-linecap="round" stroke-linejoin="round"/>
<path d="M29.7499 19.9999V9.99988C29.7494 9.56147 29.6182 9.13089 29.3696 8.75133C29.1209 8.37177 28.7635 8.05658 28.3332 7.83738L18.4165 2.83738C17.9858 2.61796 17.4972 2.50244 16.9999 2.50244C16.5025 2.50244 16.0139 2.61796 15.5832 2.83738L5.66654 7.83738C5.23625 8.05658 4.87885 8.37177 4.6302 8.75133C4.38155 9.13089 4.25039 9.56147 4.24988 9.99988V19.9999C4.25039 20.4383 4.38155 20.8689 4.6302 21.2484C4.87885 21.628 5.23625 21.9432 5.66654 22.1624L15.5832 27.1624C16.0139 27.3818 16.5025 27.4973 16.9999 27.4973C17.4972 27.4973 17.9858 27.3818 18.4165 27.1624L28.3332 22.1624C28.7635 21.9432 29.1209 21.628 29.3696 21.2484C29.6182 20.8689 29.7494 20.4383 29.7499 19.9999Z" stroke="black" stroke-width="2" stroke-linecap="round" stroke-linejoin="round"/>
<path d="M4.63232 8.69995L16.9998 15.0125L29.3673 8.69995" stroke="black" stroke-width="2" stroke-linecap="round" stroke-linejoin="round"/>
<path d="M17.0001 27.6V15" stroke="black" stroke-width="2" stroke-linecap="round" stroke-linejoin="round"/>
</svg>
