<svg width="72" height="72" viewBox="0 0 72 72" fill="none" xmlns="http://www.w3.org/2000/svg">
<path d="M17.1386 53.3307C15.6022 52.454 13.8724 53.0483 12.877 54.3315C12.4381 54.716 12.0805 55.2154 11.841 55.8317C11.1385 57.6362 11.8355 59.5259 13.6933 60.2054C15.5572 60.8865 17.5413 59.8576 18.3098 58.0834C19.0091 56.4706 18.7877 54.2716 17.1386 53.3307ZM16.1323 58.792C14.6783 59.7637 12.5442 58.8189 12.6826 56.9803C12.7425 56.1844 13.127 55.456 13.6906 54.9061C14.5596 54.2024 15.8076 53.8811 16.7256 54.6897C17.9329 55.7542 17.3309 57.9911 16.1323 58.792Z" fill="white"/>
<path d="M50.9771 53.3307C49.4406 52.454 47.7108 53.0483 46.716 54.3315C46.2771 54.716 45.9195 55.2154 45.68 55.8317C44.9775 57.6362 45.6745 59.5259 47.5323 60.2054C49.3961 60.8865 51.3803 59.8576 52.1488 58.0834C52.8481 56.4706 52.6267 54.2716 50.9771 53.3307ZM49.9713 58.792C48.5172 59.7637 46.3832 58.8189 46.5216 56.9803C46.5815 56.1844 46.966 55.456 47.529 54.9061C48.398 54.2024 49.6461 53.8811 50.564 54.6897C51.7719 55.7542 51.1699 57.9911 49.9713 58.792Z" fill="white"/>
<path d="M57.0223 27.4405C56.5027 26.3012 55.9863 25.146 55.3716 24.054C54.8553 23.1366 54.3362 22.283 53.1777 22.3165C52.0532 22.3484 50.9205 22.4648 49.7955 22.5653C48.8485 22.5895 47.9075 22.6637 47.0055 22.7724C46.1426 22.8757 45.0588 22.9444 44.4188 23.609C43.836 24.2144 43.7915 25.1252 43.6926 25.9134C43.396 28.2782 43.3043 30.6579 43.196 33.037C43.14 34.2691 43.0774 35.5012 43.0285 36.7339C42.9994 37.459 43.0774 38.2599 43.8607 38.5516C44.2974 38.7136 44.8105 38.6504 45.2648 38.64C45.902 38.6252 46.5392 38.6048 47.1764 38.5818C48.4019 38.5373 49.6269 38.4807 50.8513 38.4175C53.3232 38.2895 55.8352 38.2489 58.294 37.9539C59.0454 37.8638 59.8848 37.821 59.8826 36.8783C59.8799 35.816 59.5997 34.6965 59.3393 33.6736C58.7911 31.5214 57.9413 29.4582 57.0223 27.4405ZM57.2904 36.9635C56.6631 37.0179 56.0341 37.0558 55.4057 37.0981C54.1818 37.1805 52.9574 37.2574 51.733 37.3282C50.5085 37.3991 49.2841 37.4645 48.0586 37.5188C47.4708 37.5452 46.8825 37.5688 46.2942 37.5897C45.7723 37.6078 44.9396 37.7973 44.4435 37.6419C43.7915 37.4375 44.0299 36.4949 44.048 35.9945C44.0716 35.354 44.0947 34.7129 44.1183 34.0724C44.1645 32.8128 44.2057 31.5538 44.2595 30.2948C44.3007 29.3335 44.3403 28.3678 44.4353 27.4098C44.5215 26.5418 44.4847 25.5696 44.8495 24.7604C45.3757 23.5915 47.4192 23.9095 48.4739 23.8442C49.4302 23.7848 50.3855 23.7107 51.3413 23.6398C51.8192 23.6047 52.2971 23.5678 52.775 23.5338C53.3694 23.4909 53.6709 23.5755 54.0022 24.0842C54.5108 24.8664 54.8987 25.7278 55.298 26.5688C56.0918 28.2398 56.868 29.9212 57.4892 31.6648C57.7914 32.5124 58.0583 33.3731 58.2737 34.2466C58.3808 34.6827 58.4747 35.1211 58.5544 35.5633C58.6087 35.867 58.7774 36.4262 58.7697 36.8108C58.3374 36.9624 57.6908 36.9289 57.2904 36.9635Z" fill="white"/>
<path d="M48.3557 40.1401C47.9311 39.9314 47.5004 39.9457 47.0346 39.9363C46.5353 39.9264 46.0316 39.9056 45.5333 39.9352C44.8121 39.9781 44.8439 40.9487 45.5333 41.0333C45.9942 41.0899 46.4639 41.1009 46.9269 41.1223C47.3631 41.1426 47.8267 41.2113 48.2376 41.0415C48.5881 40.8971 48.7787 40.3478 48.3557 40.1401Z" fill="white"/>
</svg>
