<svg width="70" height="70" viewBox="0 0 70 70" fill="none" xmlns="http://www.w3.org/2000/svg">
<path d="M67.625 29.375C68.8659 29.375 69.875 28.3659 69.875 27.125V15.875C69.875 14.6341 68.8659 13.625 67.625 13.625H41.3596C38.1444 5.52163 30.2739 0.125 21.5 0.125C9.71338 0.125 0.125 9.71338 0.125 21.5C0.125 31.4484 6.96725 39.8071 16.1855 42.1786C15.9864 42.7603 15.875 43.3722 15.875 44V66.5C15.875 68.3607 17.3892 69.875 19.25 69.875H23.75C25.6108 69.875 27.125 68.3607 27.125 66.5V44C27.125 43.3756 27.0159 42.767 26.8179 42.1876C29.3446 41.5385 31.7341 40.4338 33.875 38.9105V47.375C33.875 48.6159 34.8841 49.625 36.125 49.625H67.625C68.8659 49.625 69.875 48.6159 69.875 47.375V36.125C69.875 34.8841 68.8659 33.875 67.625 33.875H38.9161C39.9106 32.48 40.7184 30.9714 41.3506 29.375H67.625ZM27.125 29.375H33.8165C31.1514 33.524 26.4984 36.125 21.5 36.125C13.436 36.125 6.875 29.564 6.875 21.5C6.875 13.436 13.436 6.875 21.5 6.875C26.4984 6.875 31.1514 9.476 33.8165 13.625H27.125C25.8841 13.625 24.875 14.6341 24.875 15.875V27.125C24.875 28.3659 25.8841 29.375 27.125 29.375ZM27.125 27.125V15.875H40.625V27.125H27.125ZM67.6261 27.125H42.875V15.875H67.625L67.6261 27.125ZM23.75 67.625H19.25C18.6301 67.625 18.125 67.1199 18.125 66.5V49.625H24.875V66.5C24.875 67.1199 24.3699 67.625 23.75 67.625ZM24.875 44V47.375H18.125V44C18.125 43.5207 18.2319 43.0572 18.4231 42.6275C19.4311 42.7738 20.4526 42.875 21.5 42.875C22.5384 42.875 23.5632 42.7783 24.578 42.6309C24.7693 43.0595 24.875 43.5219 24.875 44ZM36.125 36.125H51.875V47.375H36.125V36.125ZM67.625 47.375H54.125V36.125H67.625V47.375ZM36.0541 33.8818C34.8706 33.92 33.92 34.8706 33.8829 36.0552C30.4269 38.9971 26.054 40.625 21.5 40.625C10.9543 40.625 2.375 32.0457 2.375 21.5C2.375 10.9543 10.9543 2.375 21.5 2.375C29.0499 2.375 35.8606 6.83563 38.9296 13.625H36.4164C33.5105 8.13838 27.7393 4.625 21.5 4.625C12.1951 4.625 4.625 12.1951 4.625 21.5C4.625 30.8049 12.1951 38.375 21.5 38.375C27.7393 38.375 33.5105 34.8616 36.4164 29.375H38.9229C38.1882 31.0029 37.223 32.5093 36.0541 33.8818Z" fill="#615BA3"/>
<path d="M63.125 20.375H65.375V22.625H63.125V20.375Z" fill="#615BA3"/>
<path d="M58.625 20.375H60.875V22.625H58.625V20.375Z" fill="#615BA3"/>
<path d="M54.125 20.375H56.375V22.625H54.125V20.375Z" fill="#615BA3"/>
<path d="M49.625 20.375H51.875V22.625H49.625V20.375Z" fill="#615BA3"/>
<path d="M45.125 20.375H47.375V22.625H45.125V20.375Z" fill="#615BA3"/>
<path d="M37.5796 17.3296L31.625 23.2842L30.1704 21.8296L28.5796 23.4203L31.625 26.4657L39.1704 18.9203L37.5796 17.3296Z" fill="#615BA3"/>
<path d="M63.125 54.125H31.625C30.3841 54.125 29.375 55.1341 29.375 56.375V67.625C29.375 68.8659 30.3841 69.875 31.625 69.875H63.125C64.3659 69.875 65.375 68.8659 65.375 67.625V56.375C65.375 55.1341 64.3659 54.125 63.125 54.125ZM31.625 56.375H45.125V67.625H31.625V56.375ZM47.375 67.625V56.375H63.125L63.1261 67.625H47.375Z" fill="#615BA3"/>
<path d="M58.625 60.875H60.875V63.125H58.625V60.875Z" fill="#615BA3"/>
<path d="M54.125 60.875H56.375V63.125H54.125V60.875Z" fill="#615BA3"/>
<path d="M49.625 60.875H51.875V63.125H49.625V60.875Z" fill="#615BA3"/>
<path d="M38.375 40.625H40.625V42.875H38.375V40.625Z" fill="#615BA3"/>
<path d="M42.875 40.625H45.125V42.875H42.875V40.625Z" fill="#615BA3"/>
<path d="M47.375 40.625H49.625V42.875H47.375V40.625Z" fill="#615BA3"/>
<path d="M42.0796 57.8296L36.125 63.7842L34.6704 62.3296L33.0796 63.9203L36.125 66.9657L43.6704 59.4203L42.0796 57.8296Z" fill="#615BA3"/>
<path d="M56.7047 44.3296L58.2954 45.9203L60.875 43.3407L63.4546 45.9203L65.0454 44.3296L62.4658 41.75L65.0454 39.1703L63.4546 37.5796L60.875 40.1592L58.2954 37.5796L56.7047 39.1703L59.2843 41.75L56.7047 44.3296Z" fill="#615BA3"/>
</svg>
