<svg width="74" height="69" viewBox="0 0 74 69" fill="none" xmlns="http://www.w3.org/2000/svg">
<path d="M64.7615 24.1804C64.8591 24.1804 64.9323 24.1804 65.0055 24.156C65.0299 24.156 65.0543 24.156 65.0543 24.156C65.1275 24.1316 65.2007 24.1072 65.2739 24.0828C65.3471 24.0584 65.3959 24.0096 65.4691 23.9852C65.4935 23.9852 65.4935 23.9608 65.5179 23.9608C65.5667 23.912 65.6399 23.8632 65.6887 23.8144C65.7375 23.7656 65.7863 23.6924 65.8351 23.6436C65.8351 23.6192 65.8595 23.6192 65.8595 23.5948C65.8839 23.5704 65.8839 23.546 65.9083 23.546L72.0327 12.7124C73.9847 9.394 73.4479 5.1972 70.7395 2.4644C69.1535 0.878399 67.0307 0 64.7859 0C62.5411 0 60.4183 0.878399 58.8323 2.4644C56.1239 5.1728 55.5871 9.394 57.5147 12.688L62.5899 21.6428C57.3195 21.9112 44.2411 23.3508 39.9223 30.6464C39.0195 32.1592 38.8243 33.672 39.3123 35.1116C40.5567 38.796 45.9979 40.9676 51.7563 43.2856C55.9287 44.9692 60.6623 46.8724 61.6871 48.8976C61.7603 49.0196 61.9067 49.3368 61.5407 49.9712C58.6371 55.2172 36.3111 63.0984 18.3527 65.4164L29.6499 45.4328C33.3343 39.1864 32.3339 31.232 27.1855 26.108C24.1599 23.0824 20.1583 21.4476 15.9127 21.4476C11.6671 21.4476 7.66554 23.1068 4.66434 26.108C-0.45966 31.232 -1.48446 39.1864 2.19994 45.4084L14.7903 67.6612C14.8147 67.71 14.8635 67.7588 14.8879 67.8076L14.9123 67.832C14.9611 67.8808 14.9855 67.9296 15.0343 67.954C15.0587 67.9784 15.0587 67.9784 15.0831 68.0028C15.1319 68.0272 15.1807 68.076 15.2051 68.1004C15.2295 68.1004 15.2295 68.1248 15.2539 68.1248C15.3027 68.1492 15.3759 68.198 15.4491 68.2224C15.4735 68.2224 15.4735 68.2224 15.4979 68.2468C15.5467 68.2712 15.5955 68.2712 15.6443 68.2956C15.6687 68.2956 15.6931 68.2956 15.7175 68.32C15.7907 68.32 15.8639 68.3444 15.9127 68.3444C15.9615 68.3444 16.0103 68.3444 16.0347 68.3444C34.3103 66.49 59.9303 58.2672 63.7855 51.2644C64.6151 49.7272 64.3467 48.5072 63.9807 47.7508C62.5167 44.8472 57.7343 42.9196 52.6835 40.87C47.9499 38.9668 42.6063 36.8196 41.7523 34.282C41.6059 33.8428 41.4839 33.1352 42.1427 31.9884C46.7055 24.2536 64.4199 24.1804 64.7615 24.1804ZM64.7615 5.124C66.6159 5.124 68.1287 6.6368 68.1287 8.4912C68.1287 10.3456 66.6159 11.8584 64.7615 11.8584C62.9071 11.8584 61.3943 10.3456 61.3943 8.4912C61.3943 6.6368 62.9071 5.124 64.7615 5.124ZM7.64114 37.5516C7.64114 32.9888 11.3499 29.28 15.9127 29.28C20.4755 29.28 24.1843 32.9888 24.1843 37.5516C24.1843 42.1144 20.4755 45.8232 15.9127 45.8232C11.3499 45.8476 7.64114 42.1388 7.64114 37.5516Z" fill="#615BA3"/>
</svg>
