<svg width="13" height="16" viewBox="0 0 13 16" fill="none" xmlns="http://www.w3.org/2000/svg">
<path fill-rule="evenodd" clip-rule="evenodd" d="M1.75928 1.92335C2.88565 0.691851 4.41334 0 6.00627 0C7.5992 0 9.12688 0.691851 10.2533 1.92335C11.3796 3.15486 12.0124 4.82513 12.0124 6.56674C12.0124 8.30835 11.3796 9.97863 10.2533 11.2101L6.00627 15.8535L1.75928 11.2101C1.20153 10.6004 0.759085 9.87647 0.457225 9.07975C0.155366 8.28303 0 7.42911 0 6.56674C0 5.70437 0.155366 4.85045 0.457225 4.05373C0.759085 3.25702 1.20153 2.53311 1.75928 1.92335ZM6.00627 8.44286C6.46137 8.44286 6.89783 8.2452 7.21963 7.89336C7.54143 7.54152 7.72222 7.06432 7.72222 6.56674C7.72222 6.06916 7.54143 5.59197 7.21963 5.24013C6.89783 4.88829 6.46137 4.69063 6.00627 4.69063C5.55117 4.69063 5.11471 4.88829 4.79291 5.24013C4.4711 5.59197 4.29031 6.06916 4.29031 6.56674C4.29031 7.06432 4.4711 7.54152 4.79291 7.89336C5.11471 8.2452 5.55117 8.44286 6.00627 8.44286Z" fill="white"/>
</svg>
