<svg width="40" height="35" viewBox="0 0 40 35" fill="none" xmlns="http://www.w3.org/2000/svg">
<g clip-path="url(#clip0)">
<path d="M39.1873 27.0688H33.8167V3.67561C33.8167 1.64994 32.2072 0 30.2311 0H3.58566C1.60956 0 0 1.64994 0 3.67561V27.8938C0 28.3512 0.366534 28.727 0.812749 28.727H11.6653L11.6255 29.168C11.498 30.6873 11.9841 32.1412 12.988 33.2602C13.9761 34.3629 15.3865 35 16.8446 35C18.3028 35 19.7052 34.3629 20.7012 33.2602C21.7052 32.1412 22.1912 30.6873 22.0637 29.168L22.0239 28.727H39.1952C39.6414 28.727 40.008 28.3512 40.008 27.8938C40 27.4364 39.6335 27.0688 39.1873 27.0688ZM16.8446 33.3419C14.8526 33.3419 13.2271 31.6756 13.2271 29.6336C13.2271 27.5916 14.8446 25.9253 16.8446 25.9253C18.8446 25.9253 20.4622 27.5834 20.4622 29.6336C20.4622 31.6838 18.8367 33.3419 16.8446 33.3419ZM32.1992 27.0688H21.4422L21.3227 26.8728C20.8606 26.0969 20.2151 25.4434 19.4502 24.986C18.6614 24.5204 17.761 24.2672 16.8446 24.2672C15.9283 24.2672 15.0279 24.5123 14.239 24.986C13.4741 25.4434 12.8207 26.0887 12.3665 26.8728L12.247 27.0688H1.61753V20.7468H32.1992V27.0688ZM32.1992 19.0887H1.61753V3.67561C1.61753 2.56476 2.50199 1.65811 3.58566 1.65811H30.2311C31.3147 1.65811 32.1992 2.56476 32.1992 3.67561V19.0887Z" fill="#615BA3"/>
<path d="M11.6341 3.96143H7.68987C6.24764 3.96143 5.06836 5.17029 5.06836 6.64871V10.6919C5.06836 12.1703 6.24764 13.3792 7.68987 13.3792H11.6341C13.0763 13.3792 14.2556 12.1703 14.2556 10.6919V6.64871C14.2556 5.17029 13.0843 3.96143 11.6341 3.96143ZM12.6381 10.6919C12.6381 11.2555 12.1839 11.7211 11.6341 11.7211H7.68987C7.14007 11.7211 6.68589 11.2636 6.68589 10.6919V6.64871C6.68589 6.08511 7.1321 5.61954 7.68987 5.61954H11.6341C12.1839 5.61954 12.6381 6.07695 12.6381 6.64871V10.6919Z" fill="#615BA3"/>
<path d="M26.1273 3.96143H22.183C20.7408 3.96143 19.5615 5.17029 19.5615 6.64871V10.6919C19.5615 12.1703 20.7408 13.3792 22.183 13.3792H26.1273C27.5695 13.3792 28.7488 12.1703 28.7488 10.6919V6.64871C28.7488 5.17029 27.5695 3.96143 26.1273 3.96143ZM27.1312 10.6919C27.1312 11.2555 26.685 11.7211 26.1273 11.7211H22.183C21.6332 11.7211 21.1791 11.2636 21.1791 10.6919V6.64871C21.1791 6.08511 21.6253 5.61954 22.183 5.61954H26.1273C26.6771 5.61954 27.1312 6.07695 27.1312 6.64871V10.6919Z" fill="#615BA3"/>
<path d="M16.8447 30.965C17.562 30.965 18.1435 30.3689 18.1435 29.6336C18.1435 28.8983 17.562 28.3022 16.8447 28.3022C16.1274 28.3022 15.5459 28.8983 15.5459 29.6336C15.5459 30.3689 16.1274 30.965 16.8447 30.965Z" fill="#615BA3"/>
</g>
<defs>
<clipPath id="clip0">
<rect width="40" height="35" fill="white"/>
</clipPath>
</defs>
</svg>
