<svg width="46" height="41" viewBox="0 0 46 41" fill="none" xmlns="http://www.w3.org/2000/svg">
<path d="M43.9785 36.8632H33.6016C33.2332 36.8632 32.9277 37.1758 32.9277 37.5527C32.9277 37.9296 33.2332 38.2422 33.6016 38.2422H43.9785C44.3469 38.2422 44.6523 38.5547 44.6523 38.9316C44.6523 39.3085 44.3469 39.6211 43.9785 39.6211H2.02148C1.65313 39.6211 1.34766 39.3085 1.34766 38.9316C1.34766 38.5547 1.65313 38.2422 2.02148 38.2422H34.518C34.8863 38.2422 35.1918 37.9296 35.1918 37.5527C35.1918 37.1758 34.8863 36.8632 34.518 36.8632H31.3105V33.5354L43.6461 22.0904C44.3109 21.4744 44.7062 20.6287 44.7512 19.7002C44.7961 18.7809 44.4906 17.8984 43.8797 17.2182C43.8258 17.163 31.3105 4.863 31.3105 4.863V2.96928C31.3105 1.33296 30.0078 0 28.4086 0H26.9441C26.5758 0 26.2703 0.312556 26.2703 0.689462C26.2703 1.06637 26.5758 1.37892 26.9441 1.37892H28.4086C29.2711 1.37892 29.9629 2.09596 29.9629 2.96928V6.49013C29.9629 7.37265 29.2621 8.08049 28.4086 8.08049H17.5914C16.7289 8.08049 16.0371 7.36345 16.0371 6.49013V2.96928C16.0371 2.08677 16.7379 1.37892 17.5914 1.37892H27.5102C27.8785 1.37892 28.184 1.06637 28.184 0.689462C28.184 0.312556 27.8875 0 27.5191 0H17.5914C15.9922 0 14.6895 1.33296 14.6895 2.96928V4.863C14.6895 4.863 2.16523 17.163 2.12031 17.2182C1.51836 17.8984 1.20391 18.7809 1.24883 19.7002C1.29375 20.6195 1.68906 21.4652 2.35391 22.0904L4.7168 24.2874C4.99531 24.5448 5.41758 24.5173 5.66914 24.2415C5.9207 23.9565 5.90273 23.5244 5.62422 23.267L3.26133 21.07C2.85703 20.7022 2.62344 20.1874 2.59648 19.6359C2.56953 19.0843 2.7582 18.5511 3.11758 18.1466C3.86328 17.3009 5.14805 17.2365 5.97461 17.9996L17.6004 28.7919C16.091 28.9482 14.8871 30.1617 14.7074 31.6969L5.09414 22.7614C4.81563 22.504 4.39336 22.5316 4.1418 22.8074C3.89023 23.0832 3.9082 23.5244 4.18672 23.7818L14.6805 33.5354V36.8632H2.0125C0.907422 36.8632 0 37.7917 0 38.9316C0 40.0715 0.907422 41 2.02148 41H43.9785C45.0926 41 46 40.0715 46 38.9316C46 37.7917 45.0926 36.8632 43.9785 36.8632ZM43.4035 19.6359C43.3766 20.1874 43.143 20.693 42.7387 21.07L31.2836 31.6969C31.1039 30.1617 29.9 28.9482 28.3906 28.7919L40.0164 17.9996C40.843 17.2365 42.1277 17.3009 42.8734 18.1466C43.2418 18.5511 43.4305 19.0843 43.4035 19.6359ZM19.5949 28.7735L9.55039 19.4612L19.7297 9.46861H26.2613L36.4406 19.4612L26.4051 28.7735H19.5949ZM31.3016 6.76592L40.843 16.1334C40.223 16.2345 39.6211 16.5195 39.127 16.9791L37.4559 18.5327L28.2109 9.46861H28.3996C29.918 9.46861 31.1668 8.27354 31.3016 6.76592ZM5.15703 16.1334L14.6984 6.76592C14.8332 8.27354 16.082 9.46861 17.5914 9.46861H17.7801L8.55312 18.5327L6.88203 16.9791C6.37891 16.5195 5.77695 16.2345 5.15703 16.1334ZM16.0371 32.0922C16.0371 31.0258 16.8906 30.1525 17.9328 30.1525H28.0762C29.1184 30.1525 29.9719 31.0258 29.9719 32.0922V36.8632H16.0461V32.0922H16.0371Z" fill="#615BA3"/>
<path d="M4.93226 18.8637C4.65375 18.6155 4.2225 18.6431 3.97992 18.9372C3.73734 19.2222 3.77328 19.6635 4.05179 19.9117L4.42015 20.2334C4.54593 20.3437 4.70765 20.3989 4.86039 20.3989C5.04906 20.3989 5.23773 20.3162 5.3725 20.1599C5.61507 19.8749 5.57914 19.4337 5.30062 19.1854L4.93226 18.8637Z" fill="#615BA3"/>
<path d="M41.0676 18.8637L40.6993 19.1854C40.4207 19.4336 40.3848 19.8657 40.6274 20.1599C40.7621 20.3161 40.9508 20.3989 41.1395 20.3989C41.2922 20.3989 41.4539 20.3437 41.5797 20.2334L41.9481 19.9117C42.2266 19.6634 42.2625 19.2314 42.02 18.9372C41.7774 18.6522 41.3461 18.6155 41.0676 18.8637Z" fill="#615BA3"/>
<path d="M19.5947 31.4578C18.4807 31.4578 17.5732 32.3862 17.5732 33.5261C17.5732 34.6661 18.4807 35.5945 19.5947 35.5945C20.7088 35.5945 21.6162 34.6661 21.6162 33.5261C21.6162 32.3862 20.7088 31.4578 19.5947 31.4578ZM19.5947 34.2156C19.2264 34.2156 18.9209 33.9031 18.9209 33.5261C18.9209 33.1492 19.2264 32.8367 19.5947 32.8367C19.9631 32.8367 20.2686 33.1492 20.2686 33.5261C20.2686 33.9031 19.9631 34.2156 19.5947 34.2156Z" fill="#615BA3"/>
<path d="M26.4053 31.4578C25.2912 31.4578 24.3838 32.3862 24.3838 33.5261C24.3838 34.6661 25.2912 35.5945 26.4053 35.5945C27.5193 35.5945 28.4268 34.6661 28.4268 33.5261C28.4268 32.3862 27.5193 31.4578 26.4053 31.4578ZM26.4053 34.2156C26.0369 34.2156 25.7314 33.9031 25.7314 33.5261C25.7314 33.1492 26.0369 32.8367 26.4053 32.8367C26.7736 32.8367 27.0791 33.1492 27.0791 33.5261C27.0791 33.9031 26.7736 34.2156 26.4053 34.2156Z" fill="#615BA3"/>
<path d="M17.5732 4.73428C17.5732 5.87419 18.4807 6.80267 19.5947 6.80267C20.7088 6.80267 21.6162 5.87419 21.6162 4.73428C21.6162 3.59437 20.7088 2.66589 19.5947 2.66589C18.4807 2.66589 17.5732 3.59437 17.5732 4.73428ZM20.2686 4.73428C20.2686 5.11119 19.9631 5.42374 19.5947 5.42374C19.2264 5.42374 18.9209 5.11119 18.9209 4.73428C18.9209 4.35737 19.2264 4.04482 19.5947 4.04482C19.9631 4.04482 20.2686 4.35737 20.2686 4.73428Z" fill="#615BA3"/>
<path d="M26.4053 6.80267C27.5193 6.80267 28.4268 5.87419 28.4268 4.73428C28.4268 3.59437 27.5193 2.66589 26.4053 2.66589C25.2912 2.66589 24.3838 3.59437 24.3838 4.73428C24.3838 5.87419 25.2912 6.80267 26.4053 6.80267ZM26.4053 4.04482C26.7736 4.04482 27.0791 4.35737 27.0791 4.73428C27.0791 5.11119 26.7736 5.42374 26.4053 5.42374C26.0369 5.42374 25.7314 5.11119 25.7314 4.73428C25.7314 4.35737 26.0369 4.04482 26.4053 4.04482Z" fill="#615BA3"/>
</svg>
