<svg width="42" height="36" viewBox="0 0 42 36" fill="none" xmlns="http://www.w3.org/2000/svg">
<path d="M16.0672 21.7641H19.1398V27.2557C19.1398 27.6196 19.3835 27.9384 19.7347 28.0339C19.805 28.053 19.8761 28.0623 19.9464 28.0623C20.2271 28.0623 20.4944 27.9151 20.6418 27.6641L25.9208 18.6751C26.0672 18.4257 26.069 18.1171 25.9253 17.866C25.7817 17.615 25.5146 17.4602 25.2254 17.4602H22.1528V11.9687C22.1528 11.6048 21.9092 11.286 21.558 11.1905C21.2068 11.0949 20.8353 11.2464 20.6509 11.5603L15.3718 20.5492C15.2254 20.7986 15.2236 21.1072 15.3673 21.3583C15.5109 21.6093 15.778 21.7641 16.0672 21.7641ZM20.5398 14.9345V18.2667C20.5398 18.7121 20.9009 19.0732 21.3463 19.0732H23.8165L20.7528 24.2899V20.9576C20.7528 20.5122 20.3917 20.1511 19.9463 20.1511H17.4762L20.5398 14.9345Z" fill="#615BA3"/>
<path d="M30.2186 20.4187H31.0729V21.273C31.0729 21.7184 31.434 22.0795 31.8794 22.0795C32.3247 22.0795 32.6859 21.7184 32.6859 21.273V20.4187H33.5402C33.9855 20.4187 34.3467 20.0577 34.3467 19.6122C34.3467 19.1668 33.9855 18.8057 33.5402 18.8057H32.6859V17.9514C32.6859 17.506 32.3247 17.1449 31.8794 17.1449C31.434 17.1449 31.0729 17.506 31.0729 17.9514V18.8057H30.2186C29.7733 18.8057 29.4121 19.1668 29.4121 19.6122C29.4121 20.0577 29.7732 20.4187 30.2186 20.4187Z" fill="#615BA3"/>
<path d="M7.75377 20.4184H11.0753C11.5208 20.4184 11.8819 20.0574 11.8819 19.6119C11.8819 19.1665 11.5208 18.8054 11.0753 18.8054H7.75377C7.30842 18.8054 6.94727 19.1665 6.94727 19.6119C6.94727 20.0574 7.30834 20.4184 7.75377 20.4184Z" fill="#615BA3"/>
<path d="M40.4864 9.47842C40.9318 9.47842 41.2929 9.11735 41.2929 8.67192V4.45568C41.2929 4.01025 40.9318 3.64918 40.4864 3.64918H36.7032V0.806502C36.7032 0.361071 36.3421 0 35.8967 0H27.8616C27.4162 0 27.0551 0.361071 27.0551 0.806502V3.64918H24.2923C23.847 3.64918 23.4858 4.01025 23.4858 4.45568C23.4858 4.90111 23.847 5.26219 24.2923 5.26219H39.6799V7.86541H1.61301V5.26219H17.0006C17.446 5.26219 17.8071 4.90111 17.8071 4.45568C17.8071 4.01025 17.446 3.64918 17.0006 3.64918H14.2378V0.806502C14.2378 0.361071 13.8767 0 13.4313 0H5.39623C4.9508 0 4.58973 0.361071 4.58973 0.806502V3.64918H0.806503C0.361071 3.64918 0 4.01025 0 4.45568V8.67192C0 9.11735 0.361071 9.47842 0.806503 9.47842H2.39878V29.7457H0.806503C0.361071 29.7457 0 30.1067 0 30.5522V34.7685C0 35.2139 0.361071 35.575 0.806503 35.575H40.4864C40.9318 35.575 41.2929 35.2139 41.2929 34.7685V30.5522C41.2929 30.1067 40.9318 29.7457 40.4864 29.7457H38.8941V9.47842H40.4864ZM28.6681 3.64918V1.613H35.0902V3.64918H28.6681ZM6.20273 1.613H12.6248V3.64918H6.20273V1.613ZM39.6799 33.962H1.61301V31.3587H39.6799V33.962ZM37.2811 29.7457H4.01179V9.47842H37.2811V29.7457Z" fill="#615BA3"/>
<path d="M19.9167 4.7641C20.0441 5.06985 20.355 5.27357 20.6873 5.26204C21.0193 5.25051 21.3178 5.02936 21.4248 4.71499C21.5331 4.39666 21.4267 4.03236 21.1623 3.82413C20.8972 3.6154 20.523 3.59298 20.2355 3.77082C19.9047 3.97567 19.767 4.40481 19.9167 4.7641Z" fill="#615BA3"/>
</svg>
