<svg width="30" height="45" viewBox="0 0 30 45" fill="none" xmlns="http://www.w3.org/2000/svg">
<path d="M6 9.00003C5.80109 9.00003 5.61032 9.07904 5.46967 9.2197C5.32902 9.36035 5.25 9.55111 5.25 9.75003V12H3.75C3.65151 12 3.55398 12.0194 3.46298 12.0571C3.37199 12.0948 3.2893 12.15 3.21966 12.2197L0.219656 15.2197C0.150013 15.2893 0.0947704 15.372 0.0570817 15.463C0.019393 15.554 -3.58832e-06 15.6515 4.9792e-10 15.75V41.25C0.00111661 42.2442 0.396563 43.1974 1.09958 43.9004C1.8026 44.6035 2.75578 44.9989 3.75 45H26.25C27.2442 44.9989 28.1974 44.6035 28.9004 43.9004C29.6034 43.1974 29.9989 42.2442 30 41.25V12.75C29.9989 11.7558 29.6034 10.8026 28.9004 10.0996C28.1974 9.39659 27.2442 9.00114 26.25 9.00003H16.5C16.4015 9.00002 16.304 9.01942 16.213 9.05711C16.122 9.0948 16.0393 9.15004 15.9697 9.21968L13.1893 12H12.75V9.75003C12.75 9.55111 12.671 9.36035 12.5303 9.2197C12.3897 9.07904 12.1989 9.00003 12 9.00003H11.25V4.50003C11.25 4.40153 11.2306 4.30401 11.1929 4.21301C11.1552 4.12201 11.1 4.03933 11.0303 3.96968L7.28034 0.219684C7.2107 0.150036 7.12802 0.0947875 7.03702 0.057094C6.94603 0.0194006 6.84849 0 6.75 0C6.65151 0 6.55397 0.0194006 6.46298 0.057094C6.37198 0.0947875 6.2893 0.150036 6.21966 0.219684L3.96966 2.46968C3.90001 2.53933 3.84476 2.62201 3.80707 2.71301C3.76937 2.804 3.74997 2.90153 3.74997 3.00003C3.74997 3.09852 3.76937 3.19605 3.80707 3.28705C3.84476 3.37804 3.90001 3.46073 3.96966 3.53037L6.75 6.31062V9.00003H6ZM13.5 13.5C13.5985 13.5 13.696 13.4806 13.787 13.4429C13.878 13.4053 13.9607 13.35 14.0303 13.2804L16.8107 10.5H26.25C26.8465 10.5007 27.4184 10.738 27.8403 11.1598C28.2621 11.5816 28.4993 12.1535 28.5 12.75V41.25C28.4993 41.8466 28.2621 42.4185 27.8403 42.8403C27.4184 43.2621 26.8465 43.4994 26.25 43.5H3.75C3.15347 43.4994 2.58156 43.2621 2.15975 42.8403C1.73794 42.4185 1.50067 41.8466 1.5 41.25V16.0607L4.06069 13.5H13.5ZM6.75 12V10.5H11.25V12H6.75ZM8.03034 5.46968L5.56059 3.00003L6.75 1.81062L9.75 4.81062V9.00003H8.25V6.00003C8.25 5.90153 8.23061 5.804 8.19292 5.71301C8.15523 5.62201 8.09999 5.53933 8.03034 5.46968Z" fill="#615BA3"/>
<path d="M15.75 17.2498H26.25C26.4489 17.2498 26.6397 17.1707 26.7803 17.0301C26.921 16.8894 27 16.6987 27 16.4998V12.7498C27 12.5508 26.921 12.3601 26.7803 12.2194C26.6397 12.0788 26.4489 11.9998 26.25 11.9998H18C17.9015 11.9998 17.804 12.0191 17.713 12.0568C17.622 12.0945 17.5393 12.1498 17.4697 12.2194L15.2197 14.4694C15.15 14.5391 15.0948 14.6217 15.0571 14.7127C15.0194 14.8037 15 14.9013 15 14.9998V16.4998C15 16.6987 15.079 16.8894 15.2197 17.0301C15.3603 17.1707 15.5511 17.2498 15.75 17.2498ZM16.5 15.3104L18.3107 13.4998H25.5V15.7498H16.5V15.3104Z" fill="#615BA3"/>
<path d="M6.53041 19.7198L5.46973 20.7805L9.75007 25.0608V33.4396L5.46973 37.7198L6.53041 38.7805L10.8107 34.5002H19.1895L23.4697 38.7805L24.5304 37.7198L20.2501 33.4396V25.0608L24.5304 20.7805L23.4697 19.7198L19.1895 24.0002H10.8107L6.53041 19.7198ZM11.2501 25.5002H18.7501V33.0002H11.2501V25.5002Z" fill="#615BA3"/>
</svg>
