<svg width="56" height="56" viewBox="0 0 56 56" fill="none" xmlns="http://www.w3.org/2000/svg">
<g clip-path="url(#clip0)">
<path d="M55.5807 25.0132L52.6951 18.6535C51.656 16.3921 49.3979 14.9402 46.9091 14.9333H5.53483C2.47917 14.9365 0.00319011 17.4125 0 20.4682V34.3C0.00227864 35.9744 1.35898 37.3311 3.03333 37.3333H7.56009C8.00169 39.5085 9.91393 41.0712 12.1333 41.0712C14.3527 41.0712 16.265 39.5085 16.7066 37.3333H39.2934C39.735 39.5085 41.6473 41.0712 43.8667 41.0712C46.0861 41.0712 47.9983 39.5085 48.4399 37.3333H53.4055C54.8379 37.332 55.9986 36.1712 56 34.7389V26.9455C56.0005 26.2787 55.8574 25.6197 55.5807 25.0132ZM53.5573 25.0742L44.8 24.3414V20.4212L51.0927 19.6347L53.5573 25.0742ZM12.1333 39.2C10.587 39.2 9.33333 37.9463 9.33333 36.4C9.33333 34.8537 10.587 33.6 12.1333 33.6C13.6796 33.6 14.9333 34.8537 14.9333 36.4C14.9333 37.9463 13.6796 39.2 12.1333 39.2ZM43.8667 39.2C42.3204 39.2 41.0667 37.9463 41.0667 36.4C41.0667 34.8537 42.3204 33.6 43.8667 33.6C45.413 33.6 46.6667 34.8537 46.6667 36.4C46.6667 37.9463 45.413 39.2 43.8667 39.2ZM53.4055 35.4667H48.4399C47.9983 33.2915 46.0861 31.7288 43.8667 31.7288C41.6473 31.7288 39.735 33.2915 39.2934 35.4667H16.7066C16.265 33.2915 14.3527 31.7288 12.1333 31.7288C9.91393 31.7288 8.00169 33.2915 7.56009 35.4667H3.03333C2.38939 35.4658 1.86758 34.944 1.86667 34.3V20.4682C1.86895 18.4429 3.50957 16.8023 5.53483 16.8H46.9091C47.9947 16.8023 49.0424 17.197 49.8595 17.9106L43.8088 18.6667H7.46667C6.95124 18.6667 6.53333 19.0846 6.53333 19.6V25.2C6.53333 25.7154 6.95124 26.1333 7.46667 26.1333H43.8275L54.1333 26.9919V34.7389C54.1329 35.1404 53.807 35.4662 53.4055 35.4667ZM8.4 24.2667V20.5333H14.9333V24.2667H8.4ZM16.8 20.5333H24.2667V24.2667H16.8V20.5333ZM26.1333 20.5333H32.6667V24.2667H26.1333V20.5333ZM34.5333 20.5333H42.9333V24.2667H34.5333V20.5333Z" fill="#615BA3"/>
</g>
<defs>
<clipPath id="clip0">
<rect width="56" height="56" fill="white"/>
</clipPath>
</defs>
</svg>
