<svg width="60" height="60" viewBox="0 0 60 60" fill="none" xmlns="http://www.w3.org/2000/svg">
<g clip-path="url(#clip0)">
<path d="M4.42383 43.25C5.21631 45.0718 7.01367 46.25 9 46.25C10.9863 46.25 12.7837 45.0718 13.5762 43.25H16.4238C17.2163 45.0718 19.0137 46.25 21 46.25C22.9863 46.25 24.7837 45.0718 25.5762 43.25H49.4238C50.2163 45.0718 52.0137 46.25 54 46.25C55.9863 46.25 57.7837 45.0718 58.5762 43.25H59C59.5522 43.25 60 42.8023 60 42.25V30.25C60.002 29.731 59.6069 29.2969 59.0898 29.25L48.7158 28.3071L45.937 20.895C45.7891 20.5059 45.416 20.249 45 20.25H37V17.25C37.0015 17.0952 36.9673 16.9424 36.8999 16.8032L34.8999 12.8032C34.73 12.4624 34.3809 12.2481 34 12.25H29C28.6396 12.25 28.3071 12.4439 28.1299 12.7578C27.9521 13.0713 27.9575 13.4561 28.1431 13.7651L31 18.5269V35.25H1C0.447754 35.25 0 35.6978 0 36.25V42.25C0 42.8023 0.447754 43.25 1 43.25H4.42383ZM54 44.25C52.3433 44.25 51 42.9067 51 41.25C51 39.5933 52.3433 38.25 54 38.25C55.6567 38.25 57 39.5933 57 41.25C57 42.9067 55.6567 44.25 54 44.25ZM49 30.3501L58 31.168V32.25H49V30.3501ZM49 36.25V34.25H58V38.2813C56.7217 36.544 54.4712 35.8262 52.4233 36.5015C50.375 37.1773 48.9937 39.0933 49 41.25V36.25ZM44.3071 22.25L46.5571 28.25H43.6929L41.4429 22.25H44.3071ZM37 22.25H39.3071L42.063 29.6011C42.2095 29.9917 42.583 30.2505 43 30.25H47V35.25H37V22.25ZM37 37.25H47V41.25H45V40.25C45 39.6978 44.5522 39.25 44 39.25C43.4478 39.25 43 39.6978 43 40.25V41.25H41V40.25C41 39.6978 40.5522 39.25 40 39.25C39.4478 39.25 39 39.6978 39 40.25V41.25H37V37.25ZM30.7661 14.25H33.3818L35 17.4859V35.25H33V18.25C33 18.0684 32.9507 17.8906 32.8569 17.7349L30.7661 14.25ZM31 37.25H35V41.25H31V37.25ZM29 37.25V41.25H26C25.9956 39.6699 25.2422 38.186 23.9692 37.25H29ZM21 38.25C22.6567 38.25 24 39.5933 24 41.25C24 42.9067 22.6567 44.25 21 44.25C19.3433 44.25 18 42.9067 18 41.25C18 39.5933 19.3433 38.25 21 38.25ZM18.0308 37.25C16.7578 38.186 16.0044 39.6699 16 41.25H14C13.9956 39.6699 13.2422 38.186 11.9692 37.25H18.0308ZM9 38.25C10.6567 38.25 12 39.5933 12 41.25C12 42.9067 10.6567 44.25 9 44.25C7.34326 44.25 6 42.9067 6 41.25C6 39.5933 7.34326 38.25 9 38.25ZM2 37.25H6.03076C4.75781 38.186 4.00439 39.6699 4 41.25H2V37.25Z" fill="#615BA3"/>
<path d="M9 42.75C9.82861 42.75 10.5 42.0786 10.5 41.25C10.5 40.4214 9.82861 39.75 9 39.75C8.17139 39.75 7.5 40.4214 7.5 41.25C7.5 42.0786 8.17139 42.75 9 42.75ZM9 40.75C9.27637 40.75 9.5 40.9741 9.5 41.25C9.5 41.5264 9.27637 41.75 9 41.75C8.72363 41.75 8.5 41.5264 8.5 41.25C8.5 40.9741 8.72363 40.75 9 40.75Z" fill="#615BA3"/>
<path d="M21 42.75C21.8286 42.75 22.5 42.0786 22.5 41.25C22.5 40.4214 21.8286 39.75 21 39.75C20.1714 39.75 19.5 40.4214 19.5 41.25C19.5 42.0786 20.1714 42.75 21 42.75ZM21 40.75C21.2764 40.75 21.5 40.9741 21.5 41.25C21.5 41.5264 21.2764 41.75 21 41.75C20.7236 41.75 20.5 41.5264 20.5 41.25C20.5 40.9741 20.7236 40.75 21 40.75Z" fill="#615BA3"/>
<path d="M54 39.75C53.1714 39.75 52.5 40.4214 52.5 41.25C52.5 42.0786 53.1714 42.75 54 42.75C54.8286 42.75 55.5 42.0786 55.5 41.25C55.5 40.4214 54.8286 39.75 54 39.75ZM54 41.75C53.7236 41.75 53.5 41.5264 53.5 41.25C53.5 40.9741 53.7236 40.75 54 40.75C54.2764 40.75 54.5 40.9741 54.5 41.25C54.5 41.5264 54.2764 41.75 54 41.75Z" fill="#615BA3"/>
<path d="M39 31.25H41V33.25H39V31.25Z" fill="#615BA3"/>
</g>
<defs>
<clipPath id="clip0">
<rect width="60" height="60" fill="white"/>
</clipPath>
</defs>
</svg>
