<svg width="54" height="54" viewBox="0 0 54 54" fill="none" xmlns="http://www.w3.org/2000/svg">
<path d="M52.6673 29.0462L50.2671 28.2833V21.1394C50.2671 20.0041 49.3434 19.0805 48.2082 19.0805H42.9399C42.5029 19.0805 42.1489 19.4346 42.1489 19.8715C42.1489 20.3084 42.5029 20.6625 42.9399 20.6625H48.2082C48.471 20.6625 48.685 20.8764 48.685 21.1394V22.2561H42.8319C41.2309 22.2561 39.9285 23.5585 39.9285 25.1595V26.7495C39.9285 28.3504 41.2311 29.6529 42.8319 29.6529H49.3534L52.1881 30.554C52.3256 30.5976 52.4179 30.7238 52.4179 30.8681V32.105H51.6594C51.2224 32.105 50.8683 32.459 50.8683 32.896C50.8683 33.3329 51.2224 33.687 51.6594 33.687H52.4179V34.7025C52.4179 34.8843 52.2701 35.0322 52.0881 35.0322H49.3409C48.304 32.754 46.0265 31.2442 43.468 31.2442C40.9136 31.2442 38.6336 32.7503 37.5951 35.0322H35.3054C35.3054 31.3691 35.3054 28.3116 35.3054 24.6191C35.3054 22.4375 37.0802 20.6626 39.2618 20.6626H39.7772C40.2142 20.6626 40.5683 20.3085 40.5683 19.8716C40.5683 19.4347 40.2142 19.0806 39.7772 19.0806H39.2618C36.2079 19.0806 33.7233 21.5652 33.7233 24.6191V25.9946H31.9988C31.1079 25.9946 30.3831 26.7195 30.3831 27.6104V32.1051H25.0909V30.8224H26.3528C26.6174 30.8224 26.8646 30.6902 27.0112 30.4699L35.5626 17.6324H36.4454C37.0805 17.6324 37.6845 17.3921 38.1461 16.956L40.5125 14.7203L44.0914 13.6337C44.4247 13.5326 44.6526 13.2252 44.6526 12.8768V10.6465C44.6526 10.2096 44.2986 9.85547 43.8616 9.85547H39.434C38.7988 9.85547 38.1948 10.0957 37.7332 10.5319L35.4605 12.6793H24.837C24.4 12.6793 24.046 13.0335 24.046 13.4704C24.046 13.9072 24.4 14.2614 24.837 14.2614H35.7753C35.9773 14.2614 36.1717 14.1841 36.3185 14.0454L38.82 11.6818C38.9866 11.5243 39.2047 11.4376 39.4341 11.4376H43.0707V12.2904L39.8748 13.2606C39.7577 13.2961 39.6504 13.3585 39.5613 13.4425L37.0597 15.806C36.893 15.9636 36.6749 16.0503 36.4455 16.0503C35.5938 16.0503 9.89177 16.0503 7.39433 16.0503C7.1702 16.0503 6.95673 16.1453 6.80675 16.3118L3.13984 20.3808C2.79896 20.759 2.23269 20.7675 1.87662 20.4466C1.51011 20.1164 1.48068 19.5497 1.8107 19.1833L5.97975 14.5568C6.14903 14.369 6.3913 14.2612 6.64432 14.2612H21.6741C22.1111 14.2612 22.4652 13.907 22.4652 13.4702C22.4652 13.0333 22.1111 12.6791 21.6741 12.6791H6.64432C5.94389 12.6791 5.27331 12.9775 4.80459 13.4978L0.635438 18.1243C-0.278467 19.1387 -0.196832 20.7077 0.817481 21.6218C1.83686 22.5403 3.40331 22.4517 4.3151 21.4399L4.39969 21.3461L5.4042 22.566V32.1048H4.97904C3.32157 32.1048 1.81302 33.0164 1.04203 34.4837L0.531655 35.4552C0.402769 35.7004 0.411629 35.9951 0.554964 36.2322C0.698193 36.4692 0.955015 36.6141 1.23198 36.6141H5.91837C5.85888 36.9657 5.82608 37.3262 5.82608 37.6944C5.82608 41.248 8.72168 44.1447 12.2765 44.1447C15.8302 44.1447 18.7267 41.2491 18.7267 37.6944C18.7267 37.3262 18.694 36.9657 18.6345 36.6141H21.0447V37.7896C21.0447 38.74 21.8178 39.5131 22.7681 39.5131H24.2999C24.7369 39.5131 25.091 39.159 25.091 38.7221C25.091 38.2851 24.7369 37.9311 24.2999 37.9311H22.768C22.69 37.9311 22.6266 37.8676 22.6266 37.7896V36.6141H31.6139V37.7896C31.6139 37.8676 31.5505 37.9311 31.4726 37.9311H27.4625C27.0255 37.9311 26.6714 38.2851 26.6714 38.7221C26.6714 39.159 27.0255 39.5131 27.4625 39.5131H31.4726C32.4229 39.5131 33.196 38.74 33.196 37.7896V36.6141H37.1099C37.0503 36.9657 37.0176 37.3262 37.0176 37.6944C37.0176 41.2481 39.9132 44.1447 43.4679 44.1447C47.0216 44.1447 49.9182 41.2491 49.9182 37.6944C49.9182 37.3262 49.8855 36.9657 49.8259 36.6141H52.0879C53.1421 36.6141 53.9998 35.7566 53.9998 34.7024V30.8681C54 30.0314 53.4642 29.2993 52.6673 29.0462ZM41.5106 26.7494V25.1594C41.5106 24.4308 42.1033 23.838 42.8319 23.838H48.685V28.0708H42.8319C42.1033 28.0708 41.5106 27.4779 41.5106 26.7494ZM31.9652 27.6101C31.9652 27.5914 31.9804 27.5764 31.9989 27.5764H33.7234V32.1048H31.9652V27.6101ZM23.5089 32.1048H15.4893C15.3288 32.0121 15.1641 31.926 14.9953 31.8472V30.8222H23.5089V32.1048ZM17.0083 38.4854H17.0793C16.9556 39.2388 16.6584 39.9339 16.2301 40.5294L16.1817 40.481C15.8727 40.1722 15.3719 40.1722 15.063 40.481C14.7541 40.79 14.7541 41.2908 15.063 41.5997L15.1114 41.6482C14.5159 42.0764 13.8208 42.3737 13.0674 42.4973V42.4263C13.0674 41.9894 12.7133 41.6353 12.2764 41.6353C11.8394 41.6353 11.4853 41.9894 11.4853 42.4263V42.4973C10.7319 42.3737 10.0368 42.0764 9.4413 41.6482L9.48971 41.5997C9.79864 41.2907 9.79864 40.7899 9.48971 40.481C9.18068 40.1722 8.67991 40.1722 8.37098 40.481L8.32257 40.5294C7.89436 39.9339 7.59704 39.2387 7.47332 38.4854H7.54441C7.98138 38.4854 8.33544 38.1313 8.33544 37.6944C8.33544 37.2574 7.98138 36.9033 7.54441 36.9033H7.47332C7.59704 36.15 7.89426 35.4548 8.32257 34.8593L8.37098 34.9078C8.68012 35.2168 9.18079 35.2167 9.48971 34.9078C9.79864 34.5988 9.79864 34.098 9.48971 33.7891L9.4413 33.7407C10.0368 33.3125 10.7319 33.0153 11.4853 32.8916V32.9625C11.4853 33.3995 11.8394 33.7536 12.2764 33.7536C12.7133 33.7536 13.0674 33.3995 13.0674 32.9625V32.8916C13.8208 33.0152 14.5159 33.3125 15.1114 33.7407L15.063 33.7891C14.7541 34.0981 14.7541 34.5989 15.063 34.9078C15.2175 35.0622 15.42 35.1395 15.6224 35.1395C15.8248 35.1395 16.0273 35.0622 16.1818 34.9078L16.2302 34.8594C16.6585 35.4549 16.9558 36.1501 17.0794 36.9035H17.0084C16.5714 36.9035 16.2174 37.2575 16.2174 37.6945C16.2174 38.1314 16.5713 38.4854 17.0083 38.4854ZM18.783 17.632L12.262 28.4055C11.2789 27.2115 10.2903 26.0111 9.28942 24.7955L13.5896 17.6321H18.783V17.632ZM25.8474 17.632L18.8791 29.24C17.888 29.24 14.7066 29.24 13.6061 29.24L20.6324 17.632H25.8474ZM11.9653 30.534C12.1156 30.7164 12.3396 30.8221 12.576 30.8221H13.4132V31.3464C13.0439 31.2804 12.6644 31.244 12.2764 31.244C11.3533 31.244 10.4757 31.4403 9.68093 31.7911V27.7597L11.9653 30.534ZM25.9293 29.2402C24.8335 29.2402 21.8197 29.2402 20.7245 29.2402L27.6926 17.6321H33.6617L25.9293 29.2402ZM7.74639 17.632H11.7444L8.22227 23.4993C7.19699 22.2541 6.39098 21.2754 5.47064 20.1575L7.74639 17.632ZM6.98615 24.4872L8.09887 25.8385V32.1048H6.98615V24.4872ZM2.54994 35.0321C3.0715 34.1972 3.9835 33.6869 4.97883 33.6869H7.22747C6.90072 34.0977 6.62323 34.5489 6.40332 35.0321H2.54994ZM18.1492 35.0321C17.9293 34.5489 17.6519 34.0977 17.3251 33.6869H33.7234V35.0321C31.8307 35.0321 19.7772 35.0321 18.1492 35.0321ZM48.1999 38.4854H48.2709C48.1472 39.2388 47.85 39.9339 47.4218 40.5294L47.3734 40.481C47.0643 40.1722 46.5635 40.1722 46.2546 40.481C45.9457 40.79 45.9457 41.2908 46.2546 41.5997L46.303 41.6482C45.7076 42.0764 45.0124 42.3737 44.259 42.4973V42.4263C44.259 41.9894 43.9049 41.6353 43.468 41.6353C43.031 41.6353 42.677 41.9894 42.677 42.4263V42.4973C41.9236 42.3736 41.2284 42.0764 40.6329 41.6482L40.6813 41.5997C40.9903 41.2907 40.9903 40.7899 40.6813 40.481C40.3723 40.1722 39.8715 40.1722 39.5626 40.481L39.5142 40.5294C39.086 39.9339 38.7888 39.2388 38.6651 38.4854H38.736C39.173 38.4854 39.5271 38.1313 39.5271 37.6944C39.5271 37.2574 39.173 36.9033 38.736 36.9033H38.6651C38.7887 36.15 39.086 35.4548 39.5142 34.8593L39.5626 34.9077C39.7171 35.0621 39.9196 35.1393 40.122 35.1393C40.3244 35.1393 40.5269 35.0621 40.6814 34.9077C40.9904 34.5987 40.9904 34.0979 40.6814 33.789L40.633 33.7406C41.2285 33.3124 41.9237 33.0151 42.6771 32.8914V32.9624C42.6771 33.3994 43.0311 33.7535 43.4681 33.7535C43.9051 33.7535 44.2591 33.3994 44.2591 32.9624V32.8914C45.0125 33.0151 45.7077 33.3124 46.3031 33.7406L46.2547 33.789C45.9458 34.098 45.9458 34.5988 46.2547 34.9077C46.4092 35.0621 46.6118 35.1393 46.8142 35.1393C47.0166 35.1393 47.2191 35.0621 47.3736 34.9077L47.422 34.8593C47.8502 35.4548 48.1475 36.15 48.2711 36.9033H48.2001C47.7632 36.9033 47.4091 37.2574 47.4091 37.6944C47.4091 38.1313 47.7631 38.4854 48.1999 38.4854Z" fill="#615BA3"/>
<path d="M43.4683 35.0959C42.0357 35.0959 40.8701 36.2615 40.8701 37.6942C40.8701 39.1269 42.0357 40.2924 43.4683 40.2924C44.901 40.2924 46.0666 39.1269 46.0666 37.6942C46.0666 36.2615 44.901 35.0959 43.4683 35.0959ZM43.4683 38.7104C42.9081 38.7104 42.4521 38.2545 42.4521 37.6942C42.4521 37.1338 42.908 36.678 43.4683 36.678C44.0287 36.678 44.4845 37.1338 44.4845 37.6942C44.4845 38.2545 44.0287 38.7104 43.4683 38.7104Z" fill="#615BA3"/>
<path d="M12.2761 35.0959C10.8434 35.0959 9.67773 36.2615 9.67773 37.6942C9.67773 39.1269 10.8434 40.2924 12.2761 40.2924C13.7088 40.2924 14.8743 39.1269 14.8743 37.6942C14.8743 36.2615 13.7088 35.0959 12.2761 35.0959ZM12.2761 38.7104C11.7157 38.7104 11.2598 38.2545 11.2598 37.6942C11.2598 37.1338 11.7156 36.678 12.2761 36.678C12.8363 36.678 13.2923 37.1338 13.2923 37.6942C13.2923 38.2545 12.8363 38.7104 12.2761 38.7104Z" fill="#615BA3"/>
</svg>
