<svg width="51" height="51" viewBox="0 0 51 51" fill="none" xmlns="http://www.w3.org/2000/svg">
<path d="M11.1563 35.4609C10.7162 35.4609 10.3594 35.8177 10.3594 36.2578C10.3594 36.6972 10.0019 37.0547 9.5625 37.0547C9.12312 37.0547 8.76563 36.6972 8.76563 36.2578C8.76563 35.8184 9.12312 35.4609 9.5625 35.4609C10.0026 35.4609 10.3594 35.1041 10.3594 34.6641C10.3594 34.224 10.0026 33.8672 9.5625 33.8672C8.24427 33.8672 7.17188 34.9397 7.17188 36.2578C7.17188 37.5759 8.24427 38.6484 9.5625 38.6484C10.8807 38.6484 11.9531 37.5759 11.9531 36.2578C11.9531 35.8177 11.5963 35.4609 11.1563 35.4609Z" fill="#615BA3"/>
<path d="M43.0312 35.4609C42.5912 35.4609 42.2344 35.8177 42.2344 36.2578C42.2344 36.6972 41.8769 37.0547 41.4375 37.0547C40.9981 37.0547 40.6406 36.6972 40.6406 36.2578C40.6406 35.8184 40.9981 35.4609 41.4375 35.4609C41.8776 35.4609 42.2344 35.1041 42.2344 34.6641C42.2344 34.224 41.8776 33.8672 41.4375 33.8672C40.1193 33.8672 39.0469 34.9397 39.0469 36.2578C39.0469 37.5759 40.1193 38.6484 41.4375 38.6484C42.7557 38.6484 43.8281 37.5759 43.8281 36.2578C43.8281 35.8177 43.4713 35.4609 43.0312 35.4609Z" fill="#615BA3"/>
<path d="M51 25.1016C51 24.8793 50.9089 24.6785 50.7621 24.534C50.4214 23.5922 49.731 22.8014 48.7975 22.3346C48.7726 22.3222 48.7472 22.3111 48.7211 22.3013L46.0876 21.3127L44.4833 15.2171C44.481 15.2084 44.4786 15.1996 44.4759 15.1909C43.9665 13.4927 42.4328 12.3516 40.6597 12.3516H35.0625V10.7578C35.0625 9.87906 34.3475 9.16406 33.4688 9.16406H1.59375C0.714996 9.16406 0 9.87906 0 10.7578V33.0703C0 33.9491 0.714996 34.6641 1.59375 34.6641H4.21756C4.14036 34.9224 4.0813 35.1885 4.04215 35.4609H0.796875C0.356801 35.4609 0 35.8177 0 36.2578C0 36.6979 0.356801 37.0547 0.796875 37.0547H4.04225C4.43023 39.7543 6.7574 41.8359 9.5625 41.8359C12.3676 41.8359 14.6949 39.7543 15.0828 37.0547H16.7344C16.7344 38.3728 17.8068 39.4453 19.125 39.4453H23.9062C25.2245 39.4453 26.2969 38.3728 26.2969 37.0547H35.9172C36.3052 39.7543 38.6324 41.8359 41.4375 41.8359C44.2426 41.8359 46.5699 39.7543 46.9578 37.0547H50.2031C50.6432 37.0547 51 36.6979 51 36.2578C51 35.8177 50.6432 35.4609 50.2031 35.4609H46.9578C46.9186 35.1885 46.8595 34.9224 46.7823 34.6641H49.4062C50.285 34.6641 51 33.9491 51 33.0703V25.8984C51 25.7112 50.9869 25.5264 50.9618 25.3448C50.9865 25.2681 51 25.1864 51 25.1016ZM49.4062 29.8828H48.6094V29.0859H49.4062V29.8828ZM48.7985 24.3047H35.0625V22.7109H45.2773L48.1193 23.7778C48.3811 23.9139 48.6092 24.0936 48.7985 24.3047ZM40.6597 13.9453C41.7193 13.9453 42.6365 14.6245 42.9458 15.6369L44.3881 21.1172H35.0625V13.9453H40.6597ZM4.78135 33.0703H1.59375V29.0859H26.2973C26.7373 29.0859 27.0941 28.7291 27.0941 28.2891C27.0941 27.849 26.7373 27.4922 26.2973 27.4922H1.59375V10.7578H33.4688V33.0703H23.9062H19.125H14.3439C14.2781 33.0703 14.2145 33.0792 14.1532 33.0942C13.1459 31.6369 11.4642 30.6797 9.5625 30.6797C7.66076 30.6797 5.97915 31.6369 4.9718 33.0942C4.91064 33.0792 4.84709 33.0703 4.78135 33.0703ZM9.5625 40.2422C7.36552 40.2422 5.57812 38.4548 5.57812 36.2578C5.57812 34.0608 7.36552 32.2734 9.5625 32.2734C11.7595 32.2734 13.5469 34.0608 13.5469 36.2578C13.5469 38.4548 11.7595 40.2422 9.5625 40.2422ZM15.0828 35.4609C15.0436 35.1885 14.9845 34.9224 14.9073 34.6641H16.8714C16.783 34.9135 16.7344 35.1816 16.7344 35.4609H15.0828ZM24.7031 37.0547C24.7031 37.4941 24.3456 37.8516 23.9062 37.8516H19.125C18.6856 37.8516 18.3281 37.4941 18.3281 37.0547V36.2597C18.3281 36.259 18.3282 36.2584 18.3282 36.2578C18.3282 36.2572 18.3281 36.2565 18.3281 36.2559V35.4609C18.3281 35.0216 18.6856 34.6641 19.125 34.6641H23.9062C24.3456 34.6641 24.7031 35.0216 24.7031 35.4609V37.0547ZM26.1598 34.6641H34.2656H36.0926C36.0154 34.9224 35.9563 35.1885 35.9171 35.4609H26.2969C26.2969 35.1816 26.2483 34.9135 26.1598 34.6641ZM41.4375 40.2422C39.2405 40.2422 37.4531 38.4548 37.4531 36.2578C37.4531 34.0608 39.2405 32.2734 41.4375 32.2734C43.6345 32.2734 45.4219 34.0608 45.4219 36.2578C45.4219 38.4548 43.6345 40.2422 41.4375 40.2422ZM46.2188 33.0703C46.153 33.0703 46.0894 33.0792 46.0282 33.0942C45.0208 31.6369 43.3392 30.6797 41.4375 30.6797C39.5358 30.6797 37.8542 31.6369 36.8468 33.0942C36.7856 33.0792 36.7221 33.0703 36.6563 33.0703H35.0626V25.8984H49.4063V27.4922H48.6095C47.7307 27.4922 47.0157 28.2072 47.0157 29.0859V29.8828C47.0157 30.7616 47.7307 31.4766 48.6095 31.4766H49.4063V33.0703H46.2188Z" fill="#615BA3"/>
<path d="M19.9219 35.4609C19.7117 35.4609 19.5065 35.5465 19.3581 35.694C19.2097 35.8424 19.125 36.0486 19.125 36.2578C19.125 36.4679 19.2097 36.6732 19.3581 36.8216C19.5065 36.9699 19.7117 37.0547 19.9219 37.0547C20.132 37.0547 20.3372 36.9699 20.4857 36.8216C20.6341 36.6732 20.7187 36.4669 20.7187 36.2578C20.7187 36.0485 20.6341 35.8424 20.4857 35.694C20.3372 35.5465 20.132 35.4609 19.9219 35.4609Z" fill="#615BA3"/>
<path d="M29.4844 29.0859H31.0777C31.5178 29.0859 31.8746 28.7291 31.8746 28.2891C31.8746 27.849 31.5178 27.4922 31.0777 27.4922H29.4844C29.0443 27.4922 28.6875 27.849 28.6875 28.2891C28.6875 28.7291 29.0442 29.0859 29.4844 29.0859Z" fill="#615BA3"/>
</svg>
