<svg width="45" height="43" viewBox="0 0 45 43" fill="none" xmlns="http://www.w3.org/2000/svg">
<path d="M32.3168 9.01611H7.07352C3.58976 9.02018 0.766804 11.8123 0.762695 15.258V29.129C0.762695 29.512 1.07666 29.8226 1.4639 29.8226H4.32486C4.67135 32.2097 6.73901 33.9818 9.17713 33.9818C11.6152 33.9818 13.6829 32.2097 14.0294 29.8226H30.9706C31.3171 32.2097 33.3847 33.9818 35.8228 33.9818C38.261 33.9818 40.3286 32.2097 40.6751 29.8226H43.5361C43.9233 29.8226 44.2373 29.512 44.2373 29.129V20.8064C44.2301 14.298 38.8971 9.02322 32.3168 9.01611ZM41.9505 16.6451H32.3168V13.1774H39.3288C39.3607 13.1733 39.3918 13.1669 39.4227 13.1588C40.5005 14.1351 41.3612 15.3224 41.9505 16.6451ZM2.1651 20.8064H35.1216C39.3795 20.8115 42.8297 24.2241 42.8349 28.4355H40.6751C40.3286 26.0483 38.261 24.2762 35.8228 24.2762C33.3847 24.2762 31.3171 26.0483 30.9706 28.4355H14.0294C13.6829 26.0483 11.6152 24.2762 9.17713 24.2762C6.73901 24.2762 4.67135 26.0483 4.32486 28.4355H2.1651V20.8064ZM9.17713 32.5968C7.24095 32.5968 5.67111 31.0441 5.67111 29.129C5.67111 27.214 7.24095 25.6613 9.17713 25.6613C11.1133 25.6613 12.6831 27.214 12.6831 29.129C12.6807 31.0434 11.1126 32.5944 9.17713 32.5968ZM35.8228 32.5968C33.8867 32.5968 32.3168 31.0441 32.3168 29.129C32.3168 27.214 33.8867 25.6613 35.8228 25.6613C37.759 25.6613 39.3288 27.214 39.3288 29.129C39.3265 31.0434 37.7583 32.5944 35.8228 32.5968ZM35.1216 19.4193H2.1651V15.258C2.16818 12.578 4.36389 10.4063 7.07352 10.4032H32.3168C34.1513 10.4035 35.9533 10.8821 37.5416 11.7903H31.6156C31.2284 11.7903 30.9144 12.1008 30.9144 12.4839V17.3387C30.9144 17.7217 31.2284 18.0322 31.6156 18.0322H42.4435C42.7006 18.9351 42.8321 19.8684 42.8349 20.8064V23.6501C41.1716 21.0205 38.2575 19.422 35.1216 19.4193Z" fill="#615BA3"/>
<path fill-rule="evenodd" clip-rule="evenodd" d="M32.3172 8.86523C38.9816 8.87244 44.3827 14.2146 44.39 20.8063V29.129C44.39 29.5954 44.0078 29.9734 43.5363 29.9734H40.8058C40.3938 32.3692 38.2927 34.1327 35.823 34.1327C33.3533 34.1327 31.2523 32.3692 30.8403 29.9734H14.1601C13.7481 32.3692 11.647 34.1327 9.17733 34.1327C6.70762 34.1327 4.60655 32.3692 4.19458 29.9734H1.4641C0.992613 29.9734 0.610352 29.5954 0.610352 29.129V15.258C0.614559 11.7291 3.50567 8.8694 7.07354 8.86523L32.3172 8.86523ZM4.32506 29.8226C4.67155 32.2097 6.73921 33.9818 9.17733 33.9818C11.6154 33.9818 13.6831 32.2097 14.0296 29.8226H30.9708C31.3173 32.2097 33.3849 33.9818 35.823 33.9818C38.2612 33.9818 40.3288 32.2097 40.6753 29.8226H43.5363C43.9235 29.8226 44.2375 29.512 44.2375 29.129V20.8064C44.2303 14.298 38.8973 9.02322 32.317 9.01611H7.07372C3.58996 9.02018 0.767003 11.8123 0.762894 15.258V29.129C0.762894 29.512 1.07686 29.8226 1.4641 29.8226H4.32506ZM39.3291 13.1774H32.317V16.6451H41.9507C41.9282 16.5947 41.9053 16.5444 41.882 16.4943C41.2954 15.2321 40.4596 14.0978 39.4229 13.1588C39.3921 13.1669 39.3609 13.1733 39.3291 13.1774ZM39.3776 13.3228C39.368 13.3244 39.3584 13.3258 39.3486 13.327L39.3389 13.3283H32.4696V16.4943H41.7139C41.1485 15.299 40.3555 14.2221 39.3776 13.3228ZM35.122 19.2685C38.14 19.2711 40.9559 20.7273 42.6825 23.1505V20.8069C42.6799 19.9205 42.5607 19.0385 42.3275 18.1831H31.6158C31.1443 18.1831 30.7621 17.805 30.7621 17.3387V12.4839C30.7621 12.0175 31.1443 11.6394 31.6158 11.6394H36.9384C35.507 10.9273 33.9246 10.5544 32.317 10.5541H7.07389C4.44838 10.557 2.32083 12.6614 2.31784 15.2582V19.2685H35.122ZM2.1653 15.258C2.16838 12.578 4.36409 10.4063 7.07372 10.4032H32.317C34.0471 10.4035 35.7483 10.8291 37.2686 11.6394C37.3603 11.6883 37.4514 11.7386 37.5418 11.7903H31.6158C31.2286 11.7903 30.9146 12.1008 30.9146 12.4839V17.3387C30.9146 17.7217 31.2286 18.0322 31.6158 18.0322H42.4437C42.7009 18.9351 42.8323 19.8684 42.8351 20.8064V23.6501C42.7853 23.5714 42.7345 23.4937 42.6825 23.4169C40.9973 20.9263 38.164 19.422 35.1218 19.4193H2.1653V15.258ZM35.1217 20.9573H2.31784V28.2846H4.19458C4.60655 25.8888 6.70762 24.1253 9.17733 24.1253C11.647 24.1253 13.7481 25.8888 14.1601 28.2846H30.8403C31.2523 25.8888 33.3533 24.1253 35.823 24.1253C38.2927 24.1253 40.3938 25.8888 40.8058 28.2846H42.6808C42.5947 24.2261 39.2444 20.9622 35.1217 20.9573ZM35.1218 20.8064H2.1653V28.4355H4.32506C4.67155 26.0483 6.73921 24.2762 9.17733 24.2762C11.6154 24.2762 13.6831 26.0483 14.0296 28.4355H30.9708C31.3173 26.0483 33.3849 24.2762 35.823 24.2762C38.2612 24.2762 40.3288 26.0483 40.6753 28.4355H42.8345C42.8344 28.3851 42.8344 28.3348 42.8334 28.2846C42.7472 24.1429 39.3288 20.8115 35.1218 20.8064ZM5.82386 29.129C5.82386 30.9607 7.32529 32.4458 9.17714 32.4459C11.0285 32.4436 12.5285 30.96 12.5308 29.1288C12.5307 27.2972 11.0292 25.8122 9.17733 25.8122C7.32539 25.8122 5.82386 27.2973 5.82386 29.129ZM12.6833 29.129C12.6833 27.214 11.1135 25.6613 9.17733 25.6613C7.24115 25.6613 5.67131 27.214 5.67131 29.129C5.67131 31.0441 7.24115 32.5968 9.17733 32.5968C11.1128 32.5944 12.6809 31.0434 12.6833 29.129ZM32.4696 29.129C32.4696 30.9607 33.971 32.4458 35.8228 32.4459C37.6742 32.4436 39.1742 30.96 39.1765 29.1288C39.1764 27.2972 37.6749 25.8122 35.823 25.8122C33.9711 25.8122 32.4696 27.2973 32.4696 29.129ZM39.3291 29.129C39.3291 27.214 37.7592 25.6613 35.823 25.6613C33.8869 25.6613 32.317 27.214 32.317 29.129C32.317 31.0441 33.8869 32.5968 35.823 32.5968C37.7585 32.5944 39.3267 31.0434 39.3291 29.129Z" fill="#615BA3"/>
<path d="M9.17685 27.0486C8.01514 27.0486 7.07324 27.9802 7.07324 29.1292C7.07324 30.2783 8.01514 31.2099 9.17685 31.2099C10.3386 31.2099 11.2805 30.2783 11.2805 29.1292C11.2805 27.9802 10.3386 27.0486 9.17685 27.0486ZM9.17685 29.8228C8.78961 29.8228 8.47565 29.5122 8.47565 29.1292C8.47565 28.7462 8.78961 28.4357 9.17685 28.4357C9.56409 28.4357 9.87805 28.7462 9.87805 29.1292C9.87805 29.5122 9.56409 29.8228 9.17685 29.8228Z" fill="#615BA3"/>
<path fill-rule="evenodd" clip-rule="evenodd" d="M6.9209 29.129C6.9209 27.8966 7.93109 26.8975 9.17705 26.8975C10.423 26.8975 11.4332 27.8966 11.4332 29.129C11.4332 30.3613 10.423 31.3605 9.17705 31.3605C7.93109 31.3605 6.9209 30.3613 6.9209 29.129ZM8.62839 29.129C8.62839 29.4287 8.87406 29.6717 9.17705 29.6717C9.48004 29.6717 9.72571 29.4287 9.72571 29.129C9.72571 28.8293 9.48004 28.5863 9.17705 28.5863C8.87406 28.5863 8.62839 28.8293 8.62839 29.129ZM7.07344 29.129C7.07344 27.98 8.01534 27.0483 9.17705 27.0483C10.3388 27.0483 11.2807 27.98 11.2807 29.129C11.2807 30.278 10.3388 31.2096 9.17705 31.2096C8.01534 31.2096 7.07344 30.278 7.07344 29.129ZM8.47585 29.129C8.47585 29.512 8.78981 29.8225 9.17705 29.8225C9.56429 29.8225 9.87825 29.512 9.87825 29.129C9.87825 28.746 9.56429 28.4354 9.17705 28.4354C8.78981 28.4354 8.47585 28.746 8.47585 29.129Z" fill="#615BA3"/>
<path d="M35.8233 27.0486C34.6616 27.0486 33.7197 27.9802 33.7197 29.1292C33.7197 30.2783 34.6616 31.2099 35.8233 31.2099C36.985 31.2099 37.9269 30.2783 37.9269 29.1292C37.9269 27.9802 36.985 27.0486 35.8233 27.0486ZM35.8233 29.8228C35.4361 29.8228 35.1221 29.5122 35.1221 29.1292C35.1221 28.7462 35.4361 28.4357 35.8233 28.4357C36.2106 28.4357 36.5245 28.7462 36.5245 29.1292C36.5245 29.5122 36.2106 29.8228 35.8233 29.8228Z" fill="#615BA3"/>
<path fill-rule="evenodd" clip-rule="evenodd" d="M33.5664 29.129C33.5664 27.8966 34.5766 26.8975 35.8226 26.8975C37.0685 26.8975 38.0787 27.8966 38.0787 29.129C38.0787 30.3613 37.0685 31.3605 35.8226 31.3605C34.5766 31.3605 33.5664 30.3613 33.5664 29.129ZM35.2739 29.129C35.2739 29.4287 35.5196 29.6717 35.8226 29.6717C36.1255 29.6717 36.3712 29.4287 36.3712 29.129C36.3712 28.8293 36.1255 28.5863 35.8226 28.5863C35.5196 28.5863 35.2739 28.8293 35.2739 29.129ZM33.7189 29.129C33.7189 27.98 34.6608 27.0483 35.8226 27.0483C36.9843 27.0483 37.9262 27.98 37.9262 29.129C37.9262 30.278 36.9843 31.2096 35.8226 31.2096C34.6608 31.2096 33.7189 30.278 33.7189 29.129ZM35.1214 29.129C35.1214 29.512 35.4353 29.8225 35.8226 29.8225C36.2098 29.8225 36.5238 29.512 36.5238 29.129C36.5238 28.746 36.2098 28.4354 35.8226 28.4354C35.4353 28.4354 35.1214 28.746 35.1214 29.129Z" fill="#615BA3"/>
<path d="M29.512 11.7903H23.2012C22.814 11.7903 22.5 12.1008 22.5 12.4838V17.3387C22.5 17.7217 22.814 18.0322 23.2012 18.0322H29.512C29.8993 18.0322 30.2132 17.7217 30.2132 17.3387V12.4838C30.2132 12.1008 29.8993 11.7903 29.512 11.7903ZM28.8108 16.6451H23.9024V13.1774H28.8108V16.6451Z" fill="#615BA3"/>
<path fill-rule="evenodd" clip-rule="evenodd" d="M23.2014 11.6396H29.5122C29.9837 11.6396 30.366 12.0177 30.366 12.4841V17.3389C30.366 17.8053 29.9837 18.1833 29.5122 18.1833H23.2014C22.7299 18.1833 22.3477 17.8053 22.3477 17.3389V12.4841C22.3477 12.0177 22.7299 11.6396 23.2014 11.6396ZM24.0551 16.4945H28.6585V13.3285H24.0551V16.4945ZM23.2014 11.7905H29.5122C29.8995 11.7905 30.2134 12.1011 30.2134 12.4841V17.3389C30.2134 17.7219 29.8995 18.0325 29.5122 18.0325H23.2014C22.8142 18.0325 22.5002 17.7219 22.5002 17.3389V12.4841C22.5002 12.1011 22.8142 11.7905 23.2014 11.7905ZM28.811 16.6454V13.1776H23.9026V16.6454H28.811Z" fill="#615BA3"/>
<path d="M21.098 11.7903H14.7871C14.3999 11.7903 14.0859 12.1008 14.0859 12.4838V17.3387C14.0859 17.7217 14.3999 18.0322 14.7871 18.0322H21.098C21.4852 18.0322 21.7992 17.7217 21.7992 17.3387V12.4838C21.7992 12.1008 21.4852 11.7903 21.098 11.7903ZM20.3968 16.6451H15.4883V13.1774H20.3968V16.6451Z" fill="#615BA3"/>
<path fill-rule="evenodd" clip-rule="evenodd" d="M14.7864 11.6396H21.0972C21.5687 11.6396 21.9509 12.0177 21.9509 12.4841V17.3389C21.9509 17.8053 21.5687 18.1833 21.0972 18.1833H14.7864C14.3149 18.1833 13.9326 17.8053 13.9326 17.3389V12.4841C13.9326 12.0177 14.3149 11.6396 14.7864 11.6396ZM15.6401 16.4945H20.2434V13.3285H15.6401V16.4945ZM14.7864 11.7905H21.0972C21.4844 11.7905 21.7984 12.1011 21.7984 12.4841V17.3389C21.7984 17.7219 21.4844 18.0325 21.0972 18.0325H14.7864C14.3991 18.0325 14.0852 17.7219 14.0852 17.3389V12.4841C14.0852 12.1011 14.3991 11.7905 14.7864 11.7905ZM20.396 16.6454V13.1776H15.4876V16.6454H20.396Z" fill="#615BA3"/>
<path d="M12.6829 11.7903H6.3721C5.98486 11.7903 5.6709 12.1008 5.6709 12.4838V17.3387C5.6709 17.7217 5.98486 18.0322 6.3721 18.0322H12.6829C13.0702 18.0322 13.3841 17.7217 13.3841 17.3387V12.4838C13.3841 12.1008 13.0702 11.7903 12.6829 11.7903ZM11.9817 16.6451H7.0733V13.1774H11.9817V16.6451Z" fill="#615BA3"/>
<path fill-rule="evenodd" clip-rule="evenodd" d="M6.3723 11.6392H12.6831C13.1546 11.6392 13.5369 12.0172 13.5369 12.4836V17.3384C13.5369 17.8048 13.1546 18.1829 12.6831 18.1829H6.3723C5.90082 18.1829 5.51855 17.8048 5.51855 17.3384V12.4836C5.51855 12.0172 5.90082 11.6392 6.3723 11.6392ZM7.22605 16.494H11.8294V13.328H7.22605V16.494ZM6.3723 11.79H12.6831C13.0704 11.79 13.3843 12.1006 13.3843 12.4836V17.3384C13.3843 17.7214 13.0704 18.032 12.6831 18.032H6.3723C5.98506 18.032 5.6711 17.7214 5.6711 17.3384V12.4836C5.6711 12.1006 5.98506 11.79 6.3723 11.79ZM11.9819 16.6449V13.1771H7.0735V16.6449H11.9819Z" fill="#615BA3"/>
</svg>
