<svg width="116" height="100" viewBox="0 0 116 100" fill="none" xmlns="http://www.w3.org/2000/svg">
<path d="M55.8393 88.933L60.1511 86.4479L59.6675 86.1683L64.3815 83.4494L65.3182 83.4697L66.4433 82.8192C66.8709 82.5701 68.2708 82.3973 69.1515 82.5041L67.5581 83.4239L66.7131 82.9361L61.5511 85.9142V85.9905V86.8849L59.2704 88.1961C59.1381 88.2724 59.0413 88.3638 58.9752 88.4604L58.6901 88.6281C58.3134 88.8466 58.2217 89.1668 58.4203 89.4311V89.8631L58.4254 89.9342L58.4406 90.0054L58.4712 90.0765L58.5119 90.1426L58.5628 90.2087L58.629 90.2697L58.7054 90.3306L58.7919 90.3865L59.0923 90.5593L59.1228 90.5898L59.1635 90.6254L59.2093 90.661L59.2552 90.6966L59.3061 90.7321L59.357 90.7626L74.7921 99.6666L74.8481 99.6971L74.9041 99.7276L74.9652 99.753L75.0262 99.7784L75.0873 99.8038L75.1484 99.8242L75.1891 99.8343L73.2292 99.6005C72.0889 99.4633 72.0991 99.4684 71.2947 99.0009L55.9309 90.1426C55.3251 89.7919 55.2895 89.2532 55.8393 88.933Z" fill="#193F63" fill-opacity="0.102"/>
<path d="M31.0725 50.0187L35.5015 47.4827C35.5269 54.4859 35.5829 55.7107 35.4862 60.9352L35.5117 61.0165L35.5422 61.0978L35.5778 61.1792L35.6237 61.2605L35.6746 61.3367L35.7306 61.4129L35.7967 61.4892L35.868 61.5603L35.9444 61.6315L36.0309 61.7026L36.1225 61.7687L36.2193 61.8348L36.3262 61.9008L51.8987 70.815V70.8607L51.9344 70.876L51.9802 77.1677L52.4536 77.4879C51.7715 77.4218 46.7978 76.5833 44.9142 76.2224L43.4888 75.4042L42.9747 75.699L42.8983 73.3205L41.9922 72.7411L41.4831 72.797L40.3529 72.0652L40.2155 71.7806L39.6148 71.435L39.0854 71.4147L38.4439 70.9827L39.0294 70.6473L42.15 68.8685L40.5667 67.9537L28.4203 60.9403L27.5192 60.4219L30.0595 58.9481L30.0646 53.2764L29.5555 52.9003L29.5606 51.6196L30.0544 51.3299L30.0595 50.6031L31.0725 50.0187Z" fill="#193F63" fill-opacity="0.102"/>
<path d="M7.966 55.8025L7.95073 56.5496L7.42129 56.946L7.4162 62.6177L15.541 67.3035C14.7469 67.2272 10.0837 66.4802 9.28958 66.2769C9.08596 66.2261 8.89251 66.1549 8.71942 66.0583L0.314622 61.2099C0.126265 61.0981 0.0142708 60.9101 0.0142708 60.6916C0.0142708 60.473 0.126265 60.285 0.314622 60.1732C2.21856 59.0805 6.05697 56.8901 7.966 55.8025Z" fill="#193F63" fill-opacity="0.102"/>
<path d="M102.149 93.4766C101.06 93.3699 98.9626 93.0548 97.868 92.7804C97.5881 92.7092 97.3182 92.6177 97.0892 92.4805L95.5925 91.6166C88.0582 87.2713 82.6722 83.973 75.1379 79.6226C74.8783 79.4701 74.7256 79.2109 74.7256 78.9111C74.7256 78.6113 74.8783 78.3521 75.1379 78.1996C77.6578 76.7562 81.934 74.3168 84.79 72.6854C84.8867 72.6295 84.9732 72.5838 85.0598 72.533V73.5646L84.454 73.9509L84.4132 74.8047L81.2315 76.6394L82.0919 81.9198L102.149 93.4766Z" fill="#193F63" fill-opacity="0.102"/>
<path d="M36.7609 60.5798C36.7355 60.5645 36.7049 60.5595 36.6744 60.5595L37.3718 60.158V60.4172C37.3718 60.5086 37.4431 60.5798 37.5347 60.5798C37.6263 60.5798 37.6976 60.5086 37.6976 60.4172V59.9699L39.2147 59.0958V60.9965L38.3441 61.4997L36.7609 60.5798ZM57.9536 50.3544L79.4925 37.9387V61.3116L76.3006 63.1514L76.5704 63.6189L79.8845 61.708C79.9761 61.6623 80.0372 61.5708 80.0372 61.4641V37.4711C80.0372 37.4254 80.027 37.3796 80.0016 37.3339C79.9456 37.2373 79.8387 37.1865 79.7369 37.2017L57.8264 24.5725L57.6126 24.9486L66.7759 30.229L45.181 42.6753L35.9362 37.344L52.2062 27.9674L51.9873 27.5913L35.4781 37.1103C35.4679 37.1103 35.4577 37.1103 35.4475 37.1103C35.2999 37.1103 35.1777 37.2322 35.1777 37.3796V61.3624C35.1726 61.459 35.2235 61.5607 35.3101 61.6115L51.7837 71.105L52.0535 70.6374L50.5772 69.7836L51.9669 68.9857L51.8549 68.7926L50.3583 69.6566L48.7089 68.7062L51.9669 66.8309L51.8549 66.6378L48.49 68.5792L46.8406 67.6288L51.9669 64.676L51.8549 64.4829L46.6217 67.5017L44.9723 66.5514L51.9669 62.5212L51.8549 62.3281L44.7534 66.4243L43.104 65.4739L52.0077 60.3409V60.0868L42.88 65.3469L41.2306 64.3965L52.028 58.1759V57.9218L41.0117 64.2745L39.3623 63.3242L57.414 52.9209V54.8217L52.8425 57.4543V57.7084L57.414 55.0758V56.9765L56.574 57.4593V57.7134L57.414 57.2306V57.5915H57.9587V50.3544H57.9536ZM79.2787 37.4406L57.6838 49.8869L48.4951 44.5912L70.0849 32.1399L79.2787 37.4406ZM44.9061 43.1428V44.7844L35.7122 50.08V48.1793L44.6821 43.0107L44.9061 43.1428ZM44.9061 45.0436V46.9443L35.7122 52.245V50.3443L44.9061 45.0436ZM44.9061 47.1984V48.1335L45.237 48.906L35.7122 54.3948V52.494L44.9061 47.1984ZM45.3286 49.1093L45.3999 49.2719L45.7512 48.8654L45.9955 48.7231C46.1788 49.0941 46.3417 49.521 46.5046 49.9072L47.0442 49.277L47.0595 49.2973L47.0798 49.3278L47.0951 49.3583L47.3089 49.8615L35.7122 56.5445V54.6438L45.3286 49.1093ZM47.4006 50.0698L47.6042 50.5476L48.2202 49.8259V49.7446V49.5921L52.1553 47.3204L53.8047 48.2707L38.1558 57.2916L37.9063 56.4124C37.8962 56.3362 37.8605 56.2599 37.8198 56.1888C37.774 56.1176 37.7129 56.0516 37.6416 56.016L37.6213 56.0058C37.6162 56.0007 37.606 56.0007 37.6009 55.9957C37.5347 55.9703 37.4685 55.9652 37.4024 55.9855C37.3311 56.0058 37.2751 56.0566 37.2394 56.1329C37.0613 56.5191 36.9035 56.9511 36.7406 57.3526C36.7049 57.4339 36.7456 57.5305 36.8322 57.5661C36.9136 57.6016 37.0104 57.561 37.046 57.4746L37.382 56.6513V57.7541L35.7224 58.7095V56.8088L47.4006 50.0698ZM48.2202 49.338V47.4373L50.2921 46.248L51.9415 47.1984L48.2202 49.338ZM48.2202 47.1832V45.0537L50.0681 46.1159L48.2202 47.1832ZM46.6013 49.0483L46.7388 48.967L46.6268 49.0991L46.6013 49.0483ZM46.9984 48.8196L47.7874 48.3673V49.5921L47.6907 49.648L47.4973 49.1957C47.482 49.1652 47.4718 49.1398 47.4566 49.1144C47.4413 49.089 47.426 49.0636 47.4056 49.0432C47.3751 49.0026 47.3395 48.967 47.3089 48.9365C47.2427 48.8806 47.1664 48.845 47.0951 48.8247C47.0646 48.8196 47.0289 48.8145 46.9984 48.8196ZM47.7874 48.1081L46.5148 48.8399L46.3926 48.5553C46.3824 48.5299 46.3671 48.5045 46.3519 48.4791C46.3366 48.4537 46.3213 48.4283 46.301 48.4029C46.2704 48.3622 46.2348 48.3266 46.1991 48.2962C46.133 48.2402 46.0617 48.2047 45.9904 48.1894C45.8937 48.1691 45.797 48.1843 45.7206 48.2453C45.7002 48.2606 45.685 48.2758 45.6697 48.2962L45.5272 48.4639L45.4457 48.2758L47.7874 46.924V48.1081ZM47.7874 46.6699L45.3541 48.0725L45.3388 48.042V46.8986L47.7824 45.4908V46.6699H47.7874ZM47.7874 45.2367L45.3439 46.6444V45.4654L47.1358 44.4337L47.7874 44.8098V45.2367ZM46.9118 44.3016L45.3388 45.2062V44.0271L45.8886 43.712L46.9118 44.3016ZM45.6697 43.585L45.3439 43.773V43.3969L45.6697 43.585ZM46.2602 43.3004V42.5533L47.1562 42.04V43.1377L46.5657 43.4782L46.2602 43.3004ZM46.0668 42.6651V43.1886L45.6137 42.9243L46.0668 42.6651ZM47.3496 43.9255V43.646L48.2456 43.1327V44.2355L48.0623 44.3422L47.3496 43.9255ZM47.3496 43.0208V41.9282L48.2456 41.4149V42.5126L47.3496 43.0208ZM47.1562 43.7578V43.8137L47.1053 43.7832L47.1562 43.7578ZM48.434 44.1186V43.0158L49.3299 42.5025V43.6002L48.434 44.1186ZM48.434 42.3957V41.298L49.3299 40.7847V41.8824L48.434 42.3957ZM49.5234 43.4935V42.3957L50.4194 41.8824V42.9802L49.5234 43.4935ZM49.5234 41.7706V40.6729L50.4194 40.1596V41.2573L49.5234 41.7706ZM50.6077 42.8684V41.7706L51.5037 41.2573V42.3551L50.6077 42.8684ZM50.6077 41.1404V40.0478L51.5037 39.5345V40.6322L50.6077 41.1404ZM51.6971 42.2382V41.1404L52.5931 40.6271V41.7249L51.6971 42.2382ZM51.6971 40.5153V39.4176L52.5931 38.9043V40.002L51.6971 40.5153ZM52.7865 41.6131V40.5153L53.6825 40.002V41.0998L52.7865 41.6131ZM52.7865 39.8902V38.7925L53.6825 38.2792V39.3769L52.7865 39.8902ZM53.8709 40.988V39.8902L54.7668 39.3769V40.4747L53.8709 40.988ZM53.8709 39.2651V38.1674L54.7668 37.6541V38.7518L53.8709 39.2651ZM54.9603 40.3578V39.26L55.8563 38.7467V39.8445L54.9603 40.3578ZM54.9603 38.6349V37.5372L55.8563 37.0239V38.1216L54.9603 38.6349ZM56.0446 39.7327V38.6349L56.9406 38.1165V39.2143L56.0446 39.7327ZM56.0446 38.0098V36.9121L56.9406 36.3988V37.4965L56.0446 38.0098ZM57.134 39.1076V38.0098L58.03 37.4965V38.5943L57.134 39.1076ZM57.134 37.3847V36.2869L58.03 35.7736V36.8714L57.134 37.3847ZM58.2184 38.4774V37.3796L59.1143 36.8663V37.9641L58.2184 38.4774ZM58.2184 36.7545V35.6568L59.1143 35.1435V36.2412L58.2184 36.7545ZM59.3078 37.8523V36.7545L60.2037 36.2412V37.339L59.3078 37.8523ZM59.3078 36.1294V35.0316L60.2037 34.5183V35.6161L59.3078 36.1294ZM60.3972 37.2272V36.1294L61.2932 35.6161V36.7139L60.3972 37.2272ZM60.3972 35.5043V34.4065L61.2932 33.8932V34.991L60.3972 35.5043ZM61.4815 36.597V35.4992L62.3775 34.9859V36.0837L61.4815 36.597ZM61.4815 34.8741V33.7763L62.3775 33.263V34.3608L61.4815 34.8741ZM62.5709 35.9719V34.8741L63.4669 34.3608V35.4585L62.5709 35.9719ZM62.5709 34.249V33.1512L63.4669 32.6379V33.7357L62.5709 34.249ZM63.6553 35.3467V34.249L64.5512 33.7357V34.8334L63.6553 35.3467ZM63.6553 33.6239V32.5261L64.5512 32.0128V33.1106L63.6553 33.6239ZM64.7447 34.7166V33.6188L65.6406 33.1055V34.2033L64.7447 34.7166ZM64.7447 32.9988V31.901L65.6406 31.3877V32.4855L64.7447 32.9988ZM65.8341 34.0914V32.9937L66.7301 32.4804V33.5781L65.8341 34.0914ZM65.8341 32.3686V31.2708L66.7301 30.7575V31.8553L65.8341 32.3686ZM66.9184 33.4663V32.3686L67.8144 31.8553V32.953L66.9184 33.4663ZM66.9184 31.7435V30.6457L67.2035 30.4831L67.8144 30.8338V31.2302L66.9184 31.7435ZM68.0078 32.8361V31.7384L68.7002 31.342L68.9038 31.4589V32.3228L68.0078 32.8361ZM68.0078 31.1184V30.9456L68.1555 31.032L68.0078 31.1184ZM69.0922 32.211V31.5707L69.647 31.8909L69.0922 32.211ZM39.1383 63.192L37.4889 62.2417L38.2423 61.8097L39.8663 62.7448C39.8764 62.7499 39.8815 62.755 39.8917 62.755L39.1383 63.192ZM37.27 62.1146L35.7173 61.2201V61.1134L36.542 60.6357V60.6408C36.4962 60.717 36.5217 60.8187 36.6031 60.8644L38.0285 61.6826L37.27 62.1146ZM35.7122 60.8593V58.9586L37.3718 58.0031V59.9039L35.7122 60.8593ZM35.7173 47.9302V46.0295L42.8189 41.9383L44.4683 42.8887L35.7173 47.9302ZM35.7173 45.7754V43.8747L40.9455 40.8609L42.5949 41.8113L35.7173 45.7754ZM35.7173 43.6205V41.7198L39.0772 39.7835L40.7266 40.7339L35.7173 43.6205ZM35.7173 41.4657V39.565L37.2089 38.7061L38.8583 39.6564L35.7173 41.4657ZM35.7173 39.3108V37.8472L36.99 38.579L35.7173 39.3108ZM54.0287 48.4029L55.6781 49.3532L40.0241 58.3792L39.7746 57.4898C39.7594 57.4136 39.7288 57.3374 39.6881 57.2662C39.6423 57.1951 39.5812 57.1341 39.5099 57.0934C39.4896 57.0832 39.4743 57.0782 39.459 57.068C39.4488 57.0629 39.4386 57.0578 39.4234 57.0578C39.403 57.0528 39.3826 57.0477 39.3623 57.0477C39.3063 57.0426 39.2554 57.0578 39.2096 57.0832C39.1637 57.1087 39.1281 57.1493 39.1077 57.1951L39.0976 57.2154L38.6038 58.4249C38.5681 58.5063 38.6089 58.6028 38.6954 58.6384C38.7769 58.674 38.8736 58.6333 38.9092 58.5469L39.2299 57.7592V58.8468L37.7129 59.7209V57.8202L37.942 57.688L38.0947 58.2318C38.1201 58.3182 38.2067 58.369 38.2932 58.3436C38.3798 58.3182 38.4307 58.2318 38.4052 58.1454L38.2321 57.5254L54.0287 48.4029ZM55.897 49.4803L57.414 50.3544V50.5069L39.5506 60.8034V58.9027L39.795 58.7604L39.9426 59.294C39.9681 59.3804 40.0546 59.4312 40.1412 59.4058C40.2277 59.3804 40.2786 59.294 40.2532 59.2076L40.0801 58.5927L55.897 49.4803ZM57.414 50.761V52.6618L40.1106 62.633C40.1208 62.5669 40.0903 62.5009 40.0292 62.4653L38.5681 61.6216L39.2197 61.2456V61.4793C39.2197 61.5708 39.291 61.642 39.3826 61.642C39.4743 61.642 39.5456 61.5708 39.5456 61.4793V61.0575L57.414 50.761ZM39.5456 58.6486L39.7288 58.5418L39.5456 57.8913V58.6486ZM37.7027 57.561L37.8656 57.4644L37.7027 56.8749V57.561Z" fill="white"/>
<path d="M54.9875 29.2734C54.3002 28.755 53.5366 28.2214 52.7475 27.6725C50.92 26.3918 48.9804 25.0348 47.6568 23.6372C47.1274 23.0629 46.7201 22.3514 46.4452 21.5129C46.1703 20.6743 46.0329 19.7087 46.0329 18.616C46.0329 15.6989 47.0612 12.4615 48.7259 9.58498C50.3905 6.70846 52.6864 4.19786 55.2165 2.73928C56.6674 1.90071 58.0368 1.5043 59.2433 1.5043C60.0986 1.5043 60.8723 1.70251 61.5341 2.08367C62.201 2.46484 62.761 3.03404 63.1835 3.77604C63.7842 4.81789 64.1253 6.19516 64.1253 7.87228C64.1253 8.95987 63.9828 10.1186 63.6977 11.3028C63.4177 12.492 62.9952 13.7066 62.4505 14.9162C61.1167 17.8689 59.1619 21.4875 57.3241 24.8925C56.5045 26.4223 55.7052 27.9063 54.9875 29.2734ZM48.5426 8.8379L47.1885 8.05524C48.0386 6.66781 49.0517 5.37693 50.2582 4.13179C51.2916 3.13569 52.4268 2.19548 53.6791 1.51447C54.9162 0.838538 56.2652 0.416717 57.7314 0.431963C58.1539 0.467539 58.4848 0.51836 58.8004 0.604758C59.0957 0.686073 59.3808 0.802963 59.7218 0.980839C59.564 0.965593 59.4062 0.96051 59.2484 0.96051C57.9503 0.96051 56.4892 1.38233 54.9518 2.26663C52.4726 3.69473 50.2225 6.08335 48.5426 8.8379ZM47.0866 8.22295L48.4408 9.00561C48.3797 9.10725 48.3186 9.21398 48.2575 9.31562C48.171 9.46809 48.0793 9.62564 47.9979 9.7781L46.6437 9.00053C46.7761 8.75658 46.9135 8.51264 47.0561 8.27886L47.0866 8.22295ZM46.5521 9.16824L47.9062 9.94582C47.7637 10.2101 47.6313 10.4744 47.499 10.7437L46.1499 9.96614C46.2772 9.69171 46.4147 9.42743 46.5521 9.16824ZM46.0634 10.1389L47.4124 10.9165C47.2852 11.1859 47.1579 11.4603 47.0408 11.7347L45.6969 10.9623C45.819 10.6827 45.9361 10.4083 46.0634 10.1389ZM45.6256 11.1401L46.9695 11.9126C46.8525 12.1921 46.7405 12.4717 46.6387 12.7512L45.2998 11.9787C45.4016 11.6941 45.5085 11.4146 45.6256 11.1401ZM45.2285 12.1616L46.5674 12.9341C46.4656 13.2238 46.3688 13.5084 46.2772 13.7981L44.9333 13.0256C45.03 12.7359 45.1267 12.4463 45.2285 12.1616ZM44.8824 13.2187L46.2212 13.9912C46.1347 14.286 46.0532 14.5859 45.9769 14.8806L44.6482 14.1132C44.7194 13.8184 44.7958 13.5237 44.8824 13.2187ZM44.6024 14.3114L45.9259 15.0737C45.8547 15.3787 45.7885 15.6887 45.7325 15.9936L44.4089 15.2313C44.47 14.9162 44.5362 14.6163 44.6024 14.3114ZM44.3784 15.4346L45.702 16.1969C45.646 16.5171 45.6052 16.8373 45.5696 17.1524L44.2664 16.4002C44.2969 16.08 44.3376 15.7598 44.3784 15.4346ZM44.2511 16.6136L45.5492 17.3607C45.5187 17.6961 45.4983 18.0316 45.4932 18.3568L44.2053 17.6148C44.2104 17.2845 44.2256 16.9491 44.2511 16.6136ZM44.2104 17.8435L45.4932 18.5855V18.616C45.4932 18.9667 45.5085 19.3123 45.534 19.6375L44.2766 18.9159C44.2664 18.8142 44.2511 18.7126 44.246 18.6109C44.2256 18.3568 44.2104 18.0976 44.2104 17.8435ZM44.3122 19.1547L45.5594 19.8713C45.6001 20.2677 45.6663 20.6489 45.7529 21.0148L44.582 20.3389C44.4598 19.9476 44.3733 19.5562 44.3122 19.1547ZM44.6685 20.6133L45.8139 21.274C45.8496 21.4112 45.8903 21.5434 45.9361 21.6755C46.0379 21.9957 46.1601 22.2955 46.3027 22.5801L45.3914 22.0567C45.3049 21.9347 45.2234 21.8127 45.142 21.6806C44.9536 21.3299 44.7958 20.9742 44.6685 20.6133ZM45.702 22.4632L46.4656 22.9054C46.6539 23.2459 46.8728 23.5559 47.1172 23.8405L47.0663 23.7999C46.6845 23.4644 46.3281 23.1493 46.0125 22.8139C45.9056 22.697 45.8038 22.5852 45.702 22.4632ZM52.885 10.1898L51.4443 9.35628L51.485 9.30546L51.8312 8.91413L52.2028 8.54313L52.5795 8.21279L52.9766 7.91294L53.389 7.65375L53.7911 7.44538L54.1831 7.28783L54.5598 7.18111L54.9111 7.1252L55.242 7.12012L55.5576 7.16078L55.8478 7.24209L56.1176 7.36915L56.7998 7.76048C56.2398 7.7808 55.6187 7.96884 54.9722 8.34493C54.2086 8.78708 53.4959 9.42743 52.885 10.1898ZM51.3221 9.50875L52.7628 10.3371C52.5795 10.5709 52.4065 10.8149 52.2436 11.069L50.7978 10.2355L50.8385 10.1643L51.149 9.71712L51.3221 9.50875ZM50.7011 10.4032L52.1468 11.2367C52.101 11.3129 52.0552 11.3892 52.0094 11.4705C51.9076 11.6483 51.8057 11.8313 51.7141 12.0193L50.2683 11.1859L50.304 11.1147L50.5585 10.6421L50.7011 10.4032ZM50.1818 11.3587L51.6225 12.1921C51.4901 12.4666 51.3781 12.741 51.2712 13.0205L49.8305 12.1921L49.8611 12.1057L50.0647 11.6077L50.1818 11.3587ZM49.7695 12.3751L51.205 13.2035C51.1032 13.4983 51.0167 13.793 50.9505 14.0878L49.5251 13.2645L49.5556 13.1019L49.6931 12.5987L49.7695 12.3751ZM49.4895 13.4678L50.9149 14.286C50.8487 14.6113 50.808 14.9314 50.7876 15.2415L49.3876 14.4334L49.4029 14.0929L49.464 13.5948L49.4895 13.4678ZM49.3826 14.6621L50.7774 15.4651C50.7774 15.5108 50.7774 15.5565 50.7774 15.6023C50.7774 15.9428 50.808 16.2579 50.864 16.5476L49.5506 15.7903L49.464 15.4498L49.4029 15.0331L49.3826 14.6621ZM49.6524 16.0698L50.9251 16.8017C50.9912 17.0456 51.0778 17.2692 51.1847 17.4725L50.5025 17.0761L50.2582 16.9084L50.0444 16.7L49.856 16.4459L49.6931 16.1512L49.6524 16.0698ZM61.0149 6.34763L59.8542 5.68186C59.8287 5.61579 59.7982 5.55481 59.7727 5.48874C59.6862 5.29562 59.5844 5.10757 59.4673 4.92461C59.5844 4.97544 59.6913 5.02626 59.7982 5.09233C60.2767 5.36677 60.6789 5.77842 60.9894 6.31205L61.0149 6.34763ZM59.9662 5.96138L61.1727 6.65764C61.3407 7.02864 61.4731 7.44538 61.5545 7.90786L60.2462 7.15061C60.2309 7.00831 60.2105 6.86601 60.1902 6.71863L60.1851 6.70338C60.1189 6.43911 60.0476 6.19516 59.9662 5.96138ZM60.2716 7.39456L61.5952 8.15689C61.6461 8.49231 61.6716 8.85314 61.6716 9.23431L60.3175 8.45165C60.3175 8.11115 60.3022 7.76048 60.2716 7.39456ZM60.3124 8.67019L61.6716 9.45284C61.6665 9.7781 61.641 10.1084 61.6054 10.4439L60.236 9.65613C60.2462 9.59514 60.2513 9.53416 60.2564 9.47317C60.2869 9.2089 60.3073 8.94462 60.3124 8.67019ZM60.2055 9.8645L61.5749 10.6522C61.5341 10.9623 61.4781 11.2723 61.4069 11.5874L60.0222 10.7895C60.0986 10.4744 60.1596 10.1694 60.2055 9.8645ZM59.9815 10.9877L61.3661 11.7856C61.2949 12.0803 61.2134 12.3802 61.1218 12.6749L59.7269 11.872C59.8237 11.567 59.9051 11.2723 59.9815 10.9877ZM59.6709 12.06L61.0658 12.863C60.9742 13.1476 60.8723 13.4322 60.7604 13.7168L59.3604 12.9087C59.4622 12.6597 59.5589 12.4005 59.6506 12.1362V12.1312L59.6709 12.06ZM59.284 13.0917L60.6891 13.8998C60.5771 14.1742 60.4549 14.4486 60.3276 14.7231L58.9226 13.915C59.0448 13.6456 59.1669 13.3712 59.284 13.0917ZM58.8361 14.0878L60.2411 14.8959C60.1087 15.1652 59.9713 15.4295 59.8287 15.6887L58.4237 14.8806C58.5662 14.6214 58.7037 14.3572 58.8361 14.0878ZM58.327 15.0483L59.732 15.8564L59.7015 15.9072C59.564 16.1461 59.4164 16.3849 59.2637 16.6187L57.8586 15.8107C58.0215 15.5565 58.1793 15.3024 58.327 15.0483ZM57.7517 15.9682L59.1568 16.7763C58.9888 17.0253 58.8208 17.2692 58.6426 17.5081L57.2376 16.7C57.4208 16.4612 57.5888 16.2172 57.7517 15.9682ZM57.1205 16.8576L58.5255 17.6657C58.3423 17.9045 58.1488 18.1383 57.9554 18.367L56.5605 17.564C56.6063 17.5081 56.6572 17.4522 56.703 17.3963L56.7081 17.3912C56.8507 17.2133 56.9881 17.0355 57.1205 16.8576ZM56.4281 17.7114L57.823 18.5144C56.9474 19.4952 55.9751 20.3287 54.9416 20.9183C53.8828 21.5281 52.8901 21.8178 52.0094 21.8178C51.3934 21.8178 50.8334 21.6755 50.3549 21.4011C50.2531 21.3401 50.1513 21.274 50.0545 21.2029C50.4262 21.2232 50.7469 21.2029 51.0625 21.147C51.5512 21.0606 52.0247 20.8928 52.6508 20.6438L52.6661 20.6387C53.5315 20.1915 54.2238 19.7494 54.8551 19.231C55.4049 18.7939 55.8987 18.306 56.4281 17.7114ZM58.9684 4.7569C59.1822 5.05167 59.3451 5.32611 59.4775 5.62087C59.6404 5.97155 59.7575 6.34255 59.8746 6.7847C60.012 7.76556 60.0324 8.6092 59.9407 9.4376C59.8491 10.2711 59.6455 11.0944 59.3451 12.0295C59.2993 12.1566 59.2535 12.2785 59.2128 12.4005C59.3299 11.8872 59.3909 11.379 59.3909 10.886C59.3909 10.0932 59.228 9.42743 58.9328 8.91921C58.7139 8.54313 58.4288 8.25345 58.0877 8.05524C57.9503 7.97901 57.8077 7.91294 57.655 7.8672C57.1052 7.54194 56.5554 7.20652 55.9802 6.93716L55.9547 6.927L55.6391 6.83552L55.6136 6.83043L55.2776 6.78978L54.8958 6.79486H54.8755L54.4784 6.85585C53.674 7.08454 52.9003 7.52669 52.2028 8.12131C53.109 7.0693 54.1373 6.17991 55.2165 5.55989C56.2754 4.95003 57.2732 4.66034 58.1488 4.66034C58.4339 4.66542 58.7088 4.69592 58.9684 4.7569ZM56.4383 17.2083C55.8223 17.9248 55.2725 18.489 54.6616 18.987C54.0508 19.4851 53.3788 19.912 52.5337 20.3541C51.933 20.5981 51.4749 20.7556 51.0167 20.8369C50.6094 20.9081 50.1971 20.9132 49.6626 20.8522C49.4793 20.6591 49.3164 20.4354 49.1738 20.1864C48.736 19.4292 48.4917 18.4229 48.4917 17.2032C48.4917 16.0038 48.7309 14.7282 49.1535 13.4678C49.0364 14.1742 49.0262 14.8705 49.1484 15.521L49.2502 15.9123L49.3927 16.2833L49.4029 16.3036L49.576 16.6136L49.5913 16.634L49.7949 16.9033L49.8102 16.9237L50.0444 17.1524L50.0647 17.1676C50.584 17.5284 51.1541 17.8384 51.709 18.1485C51.8261 18.2552 51.9534 18.3467 52.0857 18.4229C52.4268 18.6211 52.8239 18.7228 53.2566 18.7228C53.842 18.7228 54.4987 18.5347 55.1911 18.1383C55.6238 17.8893 56.0412 17.5742 56.4383 17.2083ZM61.1574 1.31118L59.9916 0.640333C59.5895 0.431963 59.2586 0.289662 58.9124 0.1931C58.5662 0.0965389 58.2099 0.0406349 57.7619 0.00505958H57.7466C56.194 -0.0152692 54.7686 0.431963 53.4653 1.13839C52.1723 1.84481 51.0014 2.80534 49.9476 3.82686L49.9425 3.83195C48.6495 5.16348 47.5753 6.556 46.6794 8.05524C45.7834 9.55449 45.0758 11.1605 44.5107 12.9291L44.5056 12.9341C44.3936 13.3306 44.2918 13.7168 44.2002 14.103C44.1136 14.4791 44.0322 14.8705 43.9558 15.2872V15.2974C43.7929 16.4358 43.7115 17.5589 43.8082 18.6567C43.9049 19.7646 44.1849 20.8471 44.7551 21.9042L44.7602 21.9144C45.0453 22.3819 45.3558 22.7631 45.6918 23.1188C46.0278 23.4746 46.3892 23.7897 46.7761 24.1353C46.8576 24.1912 47.1783 24.4555 47.2445 24.5266C48.339 25.3957 49.4742 26.1986 50.6145 27.0016C51.4698 27.6064 52.3301 28.2112 53.1701 28.8465L53.1904 28.8617L54.5853 29.6647C54.6973 29.746 54.8042 29.8273 54.9111 29.9137L55.1656 30.1119L55.3133 29.8222C56.0616 28.3891 56.9168 26.8034 57.7975 25.172C59.6404 21.7568 61.6003 18.1281 62.9392 15.1601C63.4992 13.915 63.9319 12.6648 64.222 11.4451C64.5122 10.2203 64.6599 9.02594 64.6599 7.88753C64.6599 6.11385 64.2933 4.6451 63.6468 3.52193C63.1734 2.69862 62.5421 2.06334 61.7989 1.63136C61.6003 1.49922 61.3814 1.39758 61.1574 1.31118ZM52.381 11.689C53.1039 10.4388 54.0966 9.3512 55.1911 8.72101C55.8122 8.36526 56.3976 8.19246 56.9067 8.19246C57.263 8.19246 57.5888 8.27378 57.8637 8.43641C58.1386 8.59395 58.3728 8.83282 58.551 9.14283C58.8055 9.58498 58.9481 10.1745 58.9481 10.8911C58.9481 12.1515 58.5001 13.5542 57.7823 14.8044C57.0594 16.0546 56.0667 17.1371 54.9722 17.7724C54.3511 18.1332 53.7657 18.3009 53.2566 18.3009C52.9003 18.3009 52.5744 18.2196 52.2995 18.057C52.0246 17.8994 51.7905 17.6606 51.6123 17.3506C51.3578 16.9084 51.2152 16.3189 51.2152 15.6023C51.2101 14.3368 51.6581 12.9341 52.381 11.689ZM54.9467 5.09741C53.0072 6.21549 51.2559 8.12639 49.9934 10.3117C48.7259 12.4971 47.947 14.967 47.947 17.2032C47.947 18.5195 48.2219 19.6172 48.7055 20.4558C49.0618 21.0707 49.5302 21.5484 50.0953 21.8737C50.6552 22.199 51.3069 22.3667 52.0196 22.3667C52.9868 22.3667 54.0762 22.0516 55.2216 21.3909C57.1561 20.2728 58.9073 18.3619 60.1749 16.1766C61.4425 13.9912 62.2214 11.5213 62.2214 9.28513C62.2214 7.96884 61.9465 6.87109 61.4629 6.03253C61.1065 5.41759 60.6331 4.93986 60.0731 4.6146C59.508 4.28934 58.8615 4.12163 58.1488 4.12163C57.1765 4.12163 56.0921 4.43673 54.9467 5.09741Z" fill="white"/>
<path d="M79.696 40.1138C79.6451 40.1443 79.6248 40.2104 79.6553 40.2612C79.6859 40.312 79.752 40.3323 79.8029 40.3018L79.9302 40.2307C79.9811 40.2002 80.0015 40.1341 79.9709 40.0833C79.9404 40.0325 79.8742 40.0122 79.8233 40.0426L79.696 40.1138Z" fill="white"/>
<path d="M63.1487 74.6828C63.0927 74.7438 63.0774 74.8098 63.1028 74.8708C63.281 75.3689 65.5973 76.2176 66.1369 76.3396C68.2394 76.8122 70.7491 76.5886 72.6683 76.6038C70.7746 76.2328 68.7587 74.7539 68.6314 73.3716L65.0119 72.7058L63.1487 74.6828Z" fill="#193F63" fill-opacity="0.102"/>
<path d="M73.4719 64.0864C73.5534 64.0407 73.6297 64 73.7112 63.9543L73.8283 63.8933L74.0624 63.7866C74.1388 63.7561 74.2152 63.7256 74.2915 63.6951L74.4086 63.6545L74.5206 63.6189L74.6275 63.5884L74.7344 63.5579C74.8057 63.5426 74.877 63.5274 74.9482 63.5122L75.162 63.4817L75.2588 63.4715C75.33 63.4664 75.3962 63.4613 75.4624 63.4613H75.554L75.6507 63.4664C75.7118 63.4715 75.7729 63.4766 75.834 63.4817C75.8951 63.4918 75.9562 63.502 76.0173 63.5122L76.0987 63.5325L76.1904 63.5579L76.2667 63.5782C76.3227 63.5986 76.3736 63.6189 76.4296 63.6392L76.506 63.6748C76.5925 63.7154 76.6638 63.7561 76.7453 63.8069C76.674 63.8069 76.5976 63.812 76.5213 63.8222C76.4754 63.8273 76.4296 63.8323 76.3838 63.8374C74.5511 64.0712 72.8152 65.5349 71.568 67.4204C71.4051 67.6592 71.2523 67.9032 71.1098 68.1522L71.1047 68.1624C70.6516 68.945 70.2851 69.7785 70.0357 70.6171C69.7964 71.4251 69.6589 72.2434 69.6589 73.0158C69.6589 73.5596 69.7251 74.0526 69.8473 74.4846V74.4897V74.4948C69.9033 74.6828 69.9644 74.8607 70.0408 75.0233C70.0713 75.0894 70.1018 75.1554 70.1375 75.2215L69.9797 75.13L69.9135 75.0843L69.8422 75.0335L69.7709 74.9776L69.7099 74.9267L69.6437 74.8658L69.5877 74.8099L69.5215 74.7387L69.4655 74.6777L69.4044 74.6015C69.3688 74.5507 69.3331 74.5049 69.2975 74.4541L69.2466 74.3728C69.211 74.3118 69.1804 74.2559 69.1499 74.1949C69.1193 74.1339 69.0939 74.078 69.0684 74.017L69.0277 73.9154C69.0022 73.8493 68.9819 73.7883 68.9564 73.7172C68.9259 73.6054 68.8953 73.5037 68.8699 73.3919C68.8444 73.27 68.8241 73.1581 68.8037 73.0413L68.7884 72.9193L68.7732 72.7922C68.7579 72.6093 68.7528 72.4365 68.7477 72.2535V72.1163L68.7528 71.974L68.763 71.8317L68.7884 71.5471L68.8241 71.2574C68.8546 71.0592 68.8902 70.8712 68.931 70.673L68.9666 70.5256L69.0022 70.3731L69.0379 70.2308L69.0786 70.0834L69.1702 69.7887L69.2211 69.6413L69.323 69.3465L69.379 69.1991L69.496 68.9044L69.6233 68.6147L69.7608 68.325L69.9033 68.0404C70.0306 67.8015 70.1578 67.5728 70.3004 67.3441C70.3869 67.2069 70.4735 67.0748 70.5651 66.9376L70.6516 66.8105L70.7433 66.6784L70.8349 66.5513L71.0284 66.2972L71.1251 66.1752L71.3236 65.9313C71.4254 65.8144 71.5272 65.6975 71.6342 65.5857L71.848 65.3621L71.9549 65.2553L72.0669 65.1486L72.1789 65.047L72.4029 64.8488C72.5149 64.7522 72.6319 64.6607 72.749 64.5743L72.8661 64.4879C72.9425 64.432 73.0188 64.3812 73.1003 64.3253L73.3395 64.1728L73.4719 64.0864ZM74.093 70.1038L74.5562 70.3731L72.9068 72.6906L74.093 70.1038ZM74.7191 70.0885L74.2559 69.8192L75.9002 67.5068L74.7191 70.0885ZM76.6282 65.9262L73.8843 69.7785C73.8792 69.7887 73.869 69.7988 73.8639 69.8141L71.8887 74.1187C71.8531 74.2 71.8887 74.2966 71.9701 74.3321C72.0414 74.3626 72.128 74.3423 72.1687 74.2762L74.9177 70.4138C74.9228 70.4036 74.9329 70.3934 74.938 70.3782L76.9031 66.0888C76.9387 66.0075 76.9031 65.9109 76.8216 65.8754C76.7605 65.8398 76.674 65.8652 76.6282 65.9262ZM74.4901 66.5462C74.4901 66.5869 74.4748 66.6377 74.4493 66.6784L74.4442 66.6834C74.4188 66.7292 74.3832 66.7648 74.3475 66.7851C74.3373 66.7902 74.3271 66.7952 74.317 66.7952C74.317 66.7902 74.3119 66.78 74.3119 66.7698C74.3119 66.7292 74.3271 66.6784 74.3526 66.6377C74.3781 66.592 74.4137 66.5513 74.4544 66.531C74.4646 66.5259 74.4748 66.5208 74.485 66.5208C74.4901 66.5259 74.4901 66.5361 74.4901 66.5462ZM74.6377 66.7902C74.6784 66.7139 74.709 66.6326 74.709 66.5513V66.5411C74.709 66.4903 74.6937 66.4446 74.6733 66.409C74.6581 66.3785 74.6326 66.3582 74.6071 66.3379L74.597 66.3328C74.5664 66.3124 74.5308 66.3023 74.4901 66.3023C74.4442 66.3023 74.3984 66.3175 74.3475 66.3429C74.2762 66.3836 74.2152 66.4497 74.1693 66.531C74.1286 66.6072 74.0981 66.6885 74.0981 66.7698V66.78C74.0981 66.8257 74.1083 66.8715 74.1286 66.9071L74.1337 66.9172C74.1541 66.9477 74.1744 66.9731 74.205 66.9935H74.2101C74.2406 67.0138 74.2762 67.0189 74.317 67.0189C74.3628 67.0189 74.4086 67.0036 74.4595 66.9782C74.5308 66.9375 74.5919 66.8715 74.6326 66.8003L74.6377 66.7902ZM71.4713 71.6945C71.4814 71.6894 71.4916 71.6843 71.5018 71.6843C71.5069 71.6894 71.5069 71.6996 71.5069 71.7148C71.5069 71.7605 71.4916 71.8063 71.4662 71.852L71.4611 71.8571C71.4356 71.9028 71.4 71.9384 71.3643 71.9587C71.3542 71.9638 71.344 71.9689 71.3338 71.9689C71.3287 71.9638 71.3287 71.9537 71.3287 71.9384C71.3287 71.8927 71.344 71.8469 71.3694 71.8012L71.3745 71.7961C71.4 71.7555 71.4356 71.7148 71.4713 71.6945ZM71.5018 71.4658C71.456 71.4658 71.4102 71.481 71.3593 71.5064C71.288 71.5471 71.2269 71.6132 71.1862 71.6843L71.1811 71.6894C71.1353 71.7656 71.1098 71.8571 71.1098 71.9384C71.1098 71.9892 71.12 72.035 71.1404 72.0756L71.1454 72.0858C71.1607 72.1163 71.1862 72.1417 71.2116 72.157L71.2218 72.162C71.2523 72.1824 71.288 72.1874 71.3287 72.1874C71.3745 72.1874 71.4203 72.1722 71.4713 72.1468C71.5425 72.1061 71.6036 72.0401 71.6443 71.9689L71.6494 71.9638C71.6952 71.8876 71.7207 71.7961 71.7207 71.7148C71.7207 71.664 71.7105 71.6182 71.6902 71.5776L71.6851 71.5674C71.6698 71.5369 71.6443 71.5115 71.6189 71.4963L71.6087 71.4912C71.5782 71.4759 71.5425 71.4658 71.5018 71.4658ZM77.3307 68.5232C77.3205 68.5283 77.3103 68.5334 77.3052 68.5334C77.3001 68.5283 77.3001 68.5181 77.3001 68.5029C77.3001 68.4571 77.3154 68.4114 77.3409 68.3656C77.3663 68.3199 77.402 68.2792 77.4376 68.2589C77.4478 68.2538 77.458 68.2488 77.4681 68.2488C77.4732 68.2538 77.4732 68.264 77.4732 68.2793C77.4732 68.325 77.458 68.3707 77.4325 68.4165C77.407 68.4571 77.3714 68.4978 77.3307 68.5232ZM77.3001 68.7468C77.3409 68.7468 77.3867 68.7366 77.4325 68.7112L77.4376 68.7062C77.5089 68.6655 77.5699 68.5994 77.6158 68.5181C77.6616 68.4419 77.687 68.3504 77.687 68.2691C77.687 68.2183 77.6769 68.1725 77.6565 68.1319L77.6514 68.1268C77.6361 68.0963 77.6107 68.0709 77.5852 68.0556L77.575 68.0505C77.5445 68.0302 77.5089 68.0201 77.4681 68.0201C77.4223 68.0201 77.3765 68.0353 77.3256 68.0607C77.2543 68.1014 77.1932 68.1674 77.1474 68.2488C77.1016 68.325 77.0761 68.4165 77.0761 68.4978C77.0761 68.5486 77.0863 68.5943 77.1067 68.635L77.1118 68.6401C77.1321 68.6706 77.1525 68.696 77.1831 68.7163H77.1881C77.2289 68.7366 77.2645 68.7468 77.3001 68.7468ZM74.317 73.6613C74.317 73.6155 74.3322 73.5698 74.3577 73.5241C74.3831 73.4783 74.4188 73.4377 74.4595 73.4173C74.4697 73.4123 74.4799 73.4072 74.4901 73.4072C74.4951 73.4123 74.4951 73.4224 74.4951 73.4377C74.4951 73.4834 74.4799 73.5291 74.4544 73.5749C74.429 73.6206 74.3933 73.6613 74.3526 73.6816L74.3475 73.6867C74.3373 73.6918 74.3272 73.6969 74.3221 73.6969C74.317 73.6867 74.317 73.6765 74.317 73.6613ZM74.1693 73.4173C74.1235 73.4936 74.0981 73.585 74.0981 73.6664C74.0981 73.7223 74.1133 73.768 74.1337 73.8087C74.1541 73.8442 74.1795 73.8697 74.2101 73.8849C74.2406 73.9052 74.2762 73.9154 74.317 73.9154C74.3577 73.9154 74.4035 73.9052 74.4493 73.8798L74.4544 73.8747C74.5257 73.8341 74.5868 73.768 74.6326 73.6867C74.6784 73.6105 74.7039 73.519 74.7039 73.4377C74.7039 73.3818 74.6886 73.336 74.6682 73.2954C74.6479 73.2649 74.6275 73.2395 74.597 73.2191H74.5919C74.5613 73.1988 74.5257 73.1886 74.485 73.1886C74.4391 73.1886 74.3933 73.2039 74.3424 73.2293C74.2762 73.27 74.2152 73.3411 74.1693 73.4173ZM72.861 66.4751L72.9017 66.4293L73.1003 66.221L73.1868 66.1295L73.2174 66.099L73.2836 66.038L73.309 66.0126L73.3141 66.0075L73.3192 66.0024C73.4261 65.9008 73.533 65.8042 73.645 65.7026L73.8741 65.5095L73.9912 65.418L74.0981 65.3367L74.1032 65.3316L74.1184 65.3214L74.2202 65.2452L74.2253 65.2401L74.2355 65.235L74.3322 65.1639L74.3526 65.1537L74.3577 65.1486V65.1435L74.3628 65.1385L74.3679 65.1334C74.4748 65.0622 74.5817 64.9911 74.6937 64.925L74.8159 64.8539L74.938 64.7827C75.0551 64.7166 75.1722 64.6607 75.2944 64.6048C75.3707 64.5693 75.4471 64.5388 75.5286 64.5032C75.6049 64.4727 75.6762 64.4473 75.7526 64.4219L75.8646 64.3863L75.9715 64.3558L76.0784 64.3253L76.1955 64.2999C76.2667 64.2846 76.3329 64.2745 76.4093 64.2592L76.5111 64.244C76.5823 64.2389 76.6434 64.2287 76.7147 64.2287L76.8063 64.2237H76.8114H76.8165H76.8827H76.9031H76.9082H76.9132H76.9183H76.9234C76.9845 64.2237 77.0405 64.2287 77.0965 64.2338H77.1016L77.1831 64.244L77.2849 64.2592L77.3663 64.2745H77.3714H77.3765H77.3816H77.3867H77.3918H77.3969C77.4478 64.2846 77.4987 64.2999 77.5547 64.3151C77.6107 64.3304 77.6616 64.3507 77.7176 64.371L77.7888 64.3965H77.7939L77.8703 64.432L77.9568 64.4727H77.9619C77.9823 64.4829 78.0078 64.4981 78.0281 64.5083C78.4303 64.742 78.7612 65.113 78.9852 65.6111C79.2092 66.1041 79.3313 66.7139 79.3313 67.4356C79.3313 68.1674 79.2041 68.9399 78.975 69.7124C78.7357 70.5154 78.3845 71.3184 77.9467 72.0756C77.5089 72.8278 76.9896 73.5342 76.4093 74.1441C75.8544 74.7285 75.2486 75.2215 74.6122 75.5874C73.9861 75.9483 73.3955 76.1465 72.8559 76.2024C72.3112 76.2583 71.8276 76.1566 71.4203 75.9279L71.4102 75.9229C71.3898 75.9127 71.3745 75.9025 71.3593 75.8924L71.3542 75.8873L71.2829 75.8415L71.2065 75.7856C71.1607 75.7501 71.12 75.7145 71.0742 75.6789L71.008 75.6179C70.9673 75.5773 70.9265 75.5366 70.8858 75.4909L70.8349 75.4299L70.7738 75.3537L70.7178 75.2774L70.6771 75.2164L70.6567 75.1859V75.1809V75.1758V75.1707V75.1656C70.6262 75.1199 70.6007 75.0741 70.5753 75.0233L70.5346 74.942V74.9369V74.9318L70.4938 74.8505L70.4887 74.8403V74.8353V74.8302V74.8251V74.82C70.4633 74.759 70.4378 74.7031 70.4175 74.6472L70.3818 74.5507L70.3513 74.4643L70.3411 74.4287V74.4236V74.4185V74.4134V74.4084V74.4033V74.3982C70.3258 74.3423 70.3106 74.2915 70.2953 74.2356V74.2305V74.2254V74.2203L70.2749 74.1441L70.2647 74.0882L70.2597 74.0577L70.2546 74.0272C70.2495 74.0018 70.2444 73.9713 70.2393 73.9459L70.2342 73.9154C70.2291 73.8849 70.224 73.8595 70.2189 73.829V73.8188V73.8138V73.8087V73.8036V73.7985V73.7934V73.7883V73.7833V73.7782L70.2138 73.7528V73.7477V73.7426V73.7375V73.7274V73.7223V73.7172V73.7121V73.707V73.7019V73.6969V73.6918V73.6867V73.6816V73.6765C70.2087 73.646 70.2037 73.6105 70.2037 73.58V73.5749V73.5698V73.5647V73.5596V73.5546C70.1986 73.4986 70.1935 73.4427 70.1884 73.3818V73.3767V73.3716V73.3665V73.3614L70.1833 73.3157V73.3106V73.2801C70.1782 73.1734 70.1731 73.0616 70.1731 72.9498V72.8685V72.8583V72.8481V72.8431V72.838V72.8278C70.1782 72.6906 70.1833 72.5534 70.1935 72.4111V72.4009V72.3907L70.1986 72.3501V72.345V72.3399V72.3348V72.3298V72.3247V72.3196V72.3145V72.3094V72.3043V72.2993V72.2942V72.2891V72.284L70.2138 72.1366V72.1315V72.1214V72.1163V72.1112V72.1061V72.101L70.2189 72.0401V72.035V72.0299V72.0248V72.0197C70.2291 71.9384 70.2393 71.8622 70.2546 71.7809L70.2749 71.6538L70.2851 71.603L70.3004 71.5217L70.3157 71.4404L70.3207 71.4048L70.3462 71.2981L70.3564 71.2625L70.3666 71.2269L70.3818 71.1659V71.1558L70.392 71.1202L70.4022 71.0846L70.4175 71.0185V71.0135L70.4276 70.9779L70.4378 70.9423V70.9372L70.448 70.8966L70.5295 70.6171V70.6069V70.6018C70.784 69.7836 71.1047 69.0619 71.5272 68.3148L71.5374 68.2945L71.5425 68.2894C71.624 68.1522 71.7054 68.0201 71.792 67.8828L71.8785 67.7456L71.9651 67.6135C72.2094 67.2577 72.4538 66.9375 72.7287 66.6072L72.8305 66.4903L72.8559 66.4598L72.8814 66.4293L72.861 66.4751ZM71.1149 76.2634C71.1353 76.2735 71.1556 76.2888 71.176 76.2989L71.1862 76.304C71.6698 76.5835 72.245 76.7004 72.8814 76.6344C73.4821 76.5734 74.1337 76.3548 74.8108 75.9635C75.4827 75.5773 76.1191 75.0538 76.7045 74.4439C77.3052 73.8087 77.8499 73.0768 78.303 72.2942C78.7561 71.5115 79.1226 70.673 79.3721 69.8395C79.6113 69.0314 79.7488 68.2132 79.7488 67.4407C79.7488 66.658 79.6113 65.9821 79.3619 65.4383C79.0972 64.8589 78.7103 64.4168 78.2267 64.1373C78.1961 64.122 78.1707 64.1068 78.1401 64.0915L76.7911 63.314C75.6609 62.7549 74.5817 63.0548 73.5177 63.5681V54.4913L73.5483 54.4201C73.5585 54.3998 73.5635 54.3795 73.5686 54.3591C73.589 54.2422 73.5075 54.1304 73.3905 54.1101L64.39 52.5245C64.3188 52.5143 64.2424 52.5346 64.1915 52.5956L59.8644 57.4034H51.9636C51.8414 57.4034 51.7447 57.4999 51.7447 57.6219V58.8416V77.3713C51.7447 77.4933 51.8414 77.5898 51.9636 77.5898H60.6789C60.7451 77.5898 60.8062 77.5593 60.8469 77.5085L65.0773 72.8532L68.5594 73.4682C68.9513 74.5202 69.7557 75.4807 71.1047 76.2583L71.1149 76.2634ZM77.6056 65.2147C77.402 65.0978 77.178 65.0114 76.9387 64.9657C76.7045 64.9199 76.4551 64.9098 76.1955 64.9352C75.9409 64.9606 75.6762 65.0216 75.4064 65.113C75.1417 65.2045 74.8719 65.3265 74.597 65.4891L74.5868 65.4942C74.317 65.6518 74.0523 65.8347 73.8028 66.038C73.5381 66.2515 73.2835 66.4852 73.0443 66.7393C72.7999 66.9985 72.5658 67.2781 72.3469 67.5728C72.128 67.8727 71.9192 68.1827 71.736 68.5079L71.7309 68.5181C71.5476 68.8383 71.3796 69.1686 71.232 69.5041C71.0844 69.8446 70.9571 70.1851 70.8604 70.5256C70.7585 70.861 70.6822 71.1964 70.6313 71.5318C70.5804 71.8622 70.5549 72.1874 70.5549 72.4975C70.5549 72.8126 70.5804 73.1073 70.6364 73.3818C70.6924 73.6664 70.7687 73.9256 70.8756 74.1543C70.9825 74.3931 71.12 74.6015 71.2727 74.7844C71.4305 74.9674 71.6138 75.1199 71.8225 75.2368C72.0261 75.3536 72.2501 75.44 72.4894 75.4858C72.7236 75.5315 72.973 75.5417 73.2326 75.5163C73.4872 75.4909 73.7468 75.4299 74.0217 75.3384C74.2864 75.2469 74.5562 75.1199 74.8311 74.9623C75.106 74.8048 75.3708 74.6218 75.6304 74.4134C75.8951 74.2 76.1496 73.9662 76.3889 73.7121C76.6333 73.4529 76.8674 73.1734 77.0863 72.8786C77.3052 72.5788 77.5139 72.2688 77.6972 71.9435C77.8805 71.6233 78.0536 71.2879 78.2012 70.9474C78.3488 70.6069 78.4761 70.2664 78.5779 69.9259C78.6797 69.5904 78.7561 69.255 78.807 68.9196C78.8579 68.5893 78.8834 68.264 78.8834 67.954C78.8834 67.6389 78.8579 67.3441 78.8019 67.0697C78.7459 66.7851 78.6695 66.531 78.5626 66.2972C78.4557 66.0583 78.3183 65.8449 78.1656 65.667C77.9925 65.484 77.8092 65.3316 77.6056 65.2147ZM76.8572 65.3926C76.9489 65.4078 77.0354 65.4332 77.1169 65.4637C77.3765 65.6518 77.5852 65.9211 77.7379 66.2616C77.9161 66.658 78.0179 67.1561 78.0179 67.7405C78.0179 68.9501 77.5903 70.2918 76.9031 71.4861L76.898 71.4963C76.2056 72.6906 75.2537 73.7324 74.205 74.3423C73.6908 74.6371 73.2072 74.7997 72.7643 74.8403C72.4029 74.8759 72.0669 74.8251 71.7818 74.698C71.7156 74.6421 71.6494 74.5761 71.5883 74.51C71.4611 74.3626 71.3491 74.1847 71.2574 73.9865C71.1658 73.7883 71.0945 73.5596 71.0487 73.3157C71.0029 73.0717 70.9774 72.8024 70.9774 72.5076C70.9774 72.2129 71.0029 71.9079 71.0487 71.6081C71.0996 71.293 71.1709 70.9779 71.2676 70.6577C71.3643 70.3324 71.4865 70.0072 71.624 69.687C71.7614 69.3668 71.9243 69.0517 72.0974 68.7468L72.1025 68.7366C72.2807 68.4266 72.4792 68.1268 72.6879 67.8422C72.8967 67.5627 73.1206 67.2933 73.3497 67.0494C73.5788 66.8105 73.8181 66.5869 74.0675 66.3836C74.3068 66.1905 74.5511 66.0228 74.8006 65.8805L74.8108 65.8754C75.0653 65.728 75.3097 65.6162 75.5438 65.5349C75.7831 65.4536 76.0122 65.3976 76.2311 65.3773C76.4551 65.3468 76.6638 65.3519 76.8572 65.3926ZM78.191 66.5615C78.2623 66.7393 78.3234 66.9325 78.359 67.1459C78.4048 67.3899 78.4303 67.6592 78.4303 67.954C78.4303 68.2488 78.4048 68.5537 78.359 68.8535C78.3081 69.1686 78.2368 69.4837 78.1401 69.8039C78.0434 70.1292 77.9212 70.4544 77.7838 70.7746C77.6463 71.0948 77.4834 71.415 77.3001 71.725C77.122 72.035 76.9234 72.3348 76.7147 72.6194C76.506 72.899 76.282 73.1683 76.0529 73.4123C75.8238 73.6511 75.5846 73.8747 75.3351 74.078C75.0959 74.2711 74.8464 74.4439 74.5919 74.5913C74.3373 74.7387 74.093 74.8505 73.8588 74.9318C73.6501 75.003 73.4515 75.0538 73.2581 75.0792C73.6094 74.9928 73.981 74.8404 74.3628 74.6167C75.4624 73.9815 76.4602 72.899 77.178 71.6538L77.1831 71.6437C77.9008 70.4036 78.3437 69.006 78.3437 67.7405C78.3437 67.2984 78.2928 66.9071 78.191 66.5615ZM68.6204 69.7328V69.6464C68.6204 69.565 68.5594 69.499 68.483 69.4837L65.2198 68.9094V67.7863L68.4321 68.3504C68.5186 68.3656 68.6052 68.3047 68.6204 68.2183V68.1878V61.9265C68.6204 61.8452 68.5594 61.7791 68.483 61.7639L65.2198 61.1896V60.0664L68.4321 60.6306C68.5186 60.6458 68.6052 60.5848 68.6204 60.4984V60.4679V54.9334L69.6691 55.1164V60.7119C69.6691 60.7932 69.7302 60.8593 69.8066 60.8745L72.7185 61.3878V62.511L69.8575 62.0078C69.7709 61.9926 69.6844 62.0536 69.6691 62.14V62.1705V67.4813C69.2262 68.2183 68.8648 68.9755 68.6204 69.7328ZM69.9949 66.9731V62.3687L72.7185 62.8515V64.0509C72.0261 64.5337 71.5374 65.0571 70.9011 65.7534C70.5804 66.1447 70.2749 66.5564 69.9949 66.9731ZM73.0443 63.8374V55.6195C73.0596 55.6043 73.0748 55.5839 73.0799 55.5585L73.1868 55.2892V63.7459C73.141 63.7764 73.0952 63.8069 73.0443 63.8374ZM68.2946 71.2828C68.2641 71.6182 68.2641 71.9537 68.2946 72.284V72.9803L65.2147 72.4365V69.2449L68.2946 69.7887V71.2828ZM64.782 69.0365L63.2446 70.7238C63.2141 70.7543 63.2039 70.7949 63.2039 70.8356V74.2711L62.8679 74.6421V71.5674C62.8679 71.4759 62.7966 71.4048 62.705 71.4048C62.6541 71.4048 62.6083 71.4302 62.5777 71.4658L60.8978 73.3157V72.345L62.8272 70.2257C62.8577 70.1952 62.8679 70.1546 62.8679 70.1139V67.4305C62.8679 67.339 62.7966 67.2679 62.705 67.2679C62.6541 67.2679 62.6083 67.2933 62.5777 67.3289L60.8978 69.1788V68.7773L63.2039 66.2413V69.3922C63.2039 69.4837 63.2752 69.5549 63.3668 69.5549C63.4177 69.5549 63.4635 69.5295 63.4941 69.4939L64.782 68.076V69.0365ZM63.5297 73.9103V70.8966L64.782 69.5193V72.533L63.5297 73.9103ZM60.8927 73.7934L62.537 71.9842V74.9979L60.8927 76.8072V73.7934ZM60.8927 69.6565L62.537 67.8473V70.0478L60.8927 71.8571V69.6565ZM64.782 67.583L63.5297 68.9603V65.8093C63.5297 65.7636 63.5093 65.7229 63.4737 65.6873C63.4075 65.6263 63.3057 65.6314 63.2446 65.6975L60.8927 68.2793V66.0736L64.7769 61.7995L64.782 67.583ZM52.1825 64.7878H55.7307C55.8223 64.7878 55.8936 64.7166 55.8936 64.6252V59.0551H56.4383V64.6252C56.4383 64.7166 56.5096 64.7878 56.6012 64.7878H60.46V65.916H56.6012C56.5096 65.916 56.4383 65.9872 56.4383 66.0787V68.7722C56.4383 68.8637 56.5096 68.9348 56.6012 68.9348H60.46V69.4939H55.8936V66.0787C55.8936 65.9872 55.8223 65.916 55.7307 65.916H52.1825V64.7878ZM55.5678 59.0551V64.4574H52.1825V59.0551H55.5678ZM60.46 64.4625H56.7641V59.0551H60.46V64.4625ZM60.46 68.6045H56.7641V66.2362H60.46V68.6045ZM52.1825 66.2362H55.5678V69.6514C55.5678 69.7429 55.6391 69.8141 55.7307 69.8141H60.46V72.1722H52.1825V66.2362ZM60.8927 64.6252L64.7769 60.351V61.3217L60.8927 65.5959V64.6252ZM64.782 59.8682L60.8978 64.1423V58.9229L64.782 54.6488V59.8682ZM60.46 73.6257H52.1825V72.4975H60.46V73.6257ZM52.1825 73.951H60.46V77.1477H52.1825V73.951ZM65.2147 67.461V61.5301L68.2946 62.0739V68.0048L65.2147 67.461ZM65.2147 59.7463V54.349L68.2946 54.8877V60.285L65.2147 59.7463ZM69.9949 55.1875L72.7185 55.6703V61.0676L69.9949 60.5848V55.1875ZM72.749 55.2333L65.0467 53.8763H65.0417C65.0315 53.8763 65.0213 53.8712 65.0111 53.8712H65.006H65.0009C64.9551 53.8712 64.9093 53.8916 64.8737 53.917L64.8686 53.9221H64.8635L64.8533 53.9272V53.9322V53.9373V53.9424L60.6076 58.6129H52.2079V57.8252H59.9866C60.0527 57.8252 60.1138 57.7947 60.1546 57.7439L64.4613 52.9615L73.0748 54.4811L72.749 55.2333Z" fill="white"/>
<path d="M70.5283 70.119L68.9654 69.2195L69.0723 69.0264L70.6403 69.9259V69.931L70.5283 70.119Z" fill="white"/>
<path d="M70.0159 71.2578L68.6006 70.4446L68.7126 70.2515L70.1279 71.0697L70.0159 71.2578Z" fill="white"/>
<path d="M69.9027 72.6299L68.5944 71.8777L68.7064 71.6846L70.0096 72.4367V72.4418L69.9027 72.6299Z" fill="white"/>
<path d="M69.9386 74.0881L68.5895 73.3106L68.6964 73.1174L70.0455 73.895V73.9001L69.9386 74.0881Z" fill="white"/>
<path d="M77.4314 71.6389L77.0394 71.4102L77.1514 71.217L77.5434 71.4457L77.4314 71.6389Z" fill="white"/>
<path d="M76.9384 72.7873L76.4344 72.4976L76.5464 72.3044L77.0453 72.5941V72.5992L76.9384 72.7873Z" fill="white"/>
<path d="M76.0677 73.7225L75.5993 73.4531L75.7113 73.26L76.1746 73.5294V73.5345L76.0677 73.7225Z" fill="white"/>
<path d="M75.1865 74.6526L74.5705 74.2969L74.6825 74.1038L75.2985 74.4595V74.4646L75.1865 74.6526Z" fill="white"/>
</svg>
