<svg width="17" height="18" viewBox="0 0 17 18" fill="none" xmlns="http://www.w3.org/2000/svg">
<g clip-path="url(#clip0)">
<path d="M14.4039 1.67206H12.9183V0.88174C12.9183 0.59077 12.687 0.354858 12.4016 0.354858C12.1162 0.354858 11.8848 0.59077 11.8848 0.88174V1.67206H4.65059V0.88174C4.65059 0.59077 4.41926 0.354858 4.13386 0.354858C3.84846 0.354858 3.61713 0.59077 3.61713 0.88174V1.67206H2.13152C0.956181 1.67206 0 2.64702 0 3.84545V15.0417C0 16.2401 0.956181 17.2151 2.13152 17.2151H14.4039C15.5793 17.2151 16.5354 16.2401 16.5354 15.0417V3.84545C16.5354 2.64702 15.5793 1.67206 14.4039 1.67206ZM2.13152 2.72583H3.61713V3.25271C3.61713 3.54368 3.84846 3.77959 4.13386 3.77959C4.41926 3.77959 4.65059 3.54368 4.65059 3.25271V2.72583H11.8848V3.25271C11.8848 3.54368 12.1162 3.77959 12.4016 3.77959C12.687 3.77959 12.9183 3.54368 12.9183 3.25271V2.72583H14.4039C15.0094 2.72583 15.502 3.22808 15.502 3.84545V5.09679H1.03346V3.84545C1.03346 3.22808 1.52604 2.72583 2.13152 2.72583ZM14.4039 16.1613H2.13152C1.52604 16.1613 1.03346 15.6591 1.03346 15.0417V6.15056H15.502V15.0417C15.502 15.6591 15.0094 16.1613 14.4039 16.1613Z" fill="#63015F"/>
</g>
<defs>
<clipPath id="clip0">
<rect width="16.5354" height="16.8602" fill="white" transform="translate(0 0.354858)"/>
</clipPath>
</defs>
</svg>
