<svg width="12" height="12" viewBox="0 0 12 12" fill="none" xmlns="http://www.w3.org/2000/svg">
<g clip-path="url(#clip0)">
<path d="M2.35213 8.01498L4.49558 8.01498L4.49558 9.70933C4.49558 10.5222 4.70589 11.1123 5.12226 11.4624C5.77655 12.0158 6.66665 11.7048 6.70488 11.6901C6.85571 11.6363 6.9598 11.4722 6.9598 11.2886L6.9598 9.24412C6.9598 7.73096 8.50419 7.20453 8.57005 7.18495C8.5743 7.1825 8.57854 7.1825 8.58067 7.18005L8.75699 7.11639C8.95667 7.3343 9.22434 7.46652 9.5175 7.46652L10.1867 7.46652C10.7985 7.46897 11.2956 6.89603 11.2956 6.19086L11.2956 1.7934C11.2956 1.08823 10.7985 0.515288 10.1867 0.515288L9.5175 0.515288C9.23496 0.515288 8.97579 0.637711 8.78036 0.840935C8.49994 0.456524 8.07933 0.209227 7.60985 0.209227L3.26772 0.209227C2.26079 0.209227 1.59162 0.845832 1.47478 1.91092L0.935202 5.81625L0.905461 6.02681C0.892715 6.12475 0.884218 6.22514 0.884218 6.32553C0.886342 7.25595 1.54488 8.01498 2.35213 8.01498ZM9.13724 1.79095C9.13724 1.54855 9.30719 1.35267 9.5175 1.35267L10.1867 1.35267C10.397 1.35267 10.5669 1.54855 10.5669 1.79095L10.5669 6.19086C10.5669 6.43326 10.397 6.62914 10.1867 6.62914L9.5175 6.62914C9.30719 6.62914 9.13724 6.43326 9.13724 6.19086L9.13724 1.79095ZM1.62561 6.15658L2.19493 2.03334C2.19493 2.02845 2.19705 2.02355 2.19705 2.01865C2.22255 1.7787 2.29902 1.04661 3.26772 1.04661L7.60985 1.04661C8.04959 1.04661 8.4086 1.4604 8.4086 1.96724L8.4086 6.19086C8.4086 6.24718 8.41285 6.30349 8.41922 6.35981L8.36611 6.3794C8.21103 6.43081 6.23116 7.13108 6.23116 9.24657L6.23116 10.9434C6.02085 10.9678 5.74469 10.9507 5.55137 10.7842C5.33469 10.5981 5.22423 10.2382 5.22423 9.70933L5.22423 7.59384C5.22423 7.36124 5.06065 7.1727 4.85884 7.1727L2.35213 7.1727C1.94426 7.1727 1.61499 6.79074 1.61499 6.32308C1.61499 6.26921 1.61924 6.2129 1.62561 6.15658Z" fill="#5E5E5E"/>
</g>
<defs>
<clipPath id="clip0">
<rect width="10.4113" height="12" fill="white" transform="translate(11.2956 12) rotate(-180)"/>
</clipPath>
</defs>
</svg>
