<svg xmlns="http://www.w3.org/2000/svg" width="346" height="346" xmlns:v="https://vecta.io/nano"><path d="M282.514 75.265h-46.586v-3.281c0-22.708-18.475-41.183-41.183-41.183h-43.49c-22.708 0-41.183 18.475-41.183 41.183v3.281H63.486C28.479 75.265 0 103.745 0 138.752v31.77c0 9.749 3.568 18.674 9.457 25.559v87.265c0 16.788 13.658 30.445 30.445 30.445h266.195c16.787 0 30.445-13.658 30.445-30.445v-87.265c5.889-6.885 9.457-15.811 9.457-25.559v-31.77H346c0-35.007-28.479-63.487-63.486-63.487zM151.255 48.801h43.49c12.783 0 23.183 10.4 23.183 23.183v3.281h-89.855v-3.281h-.001c0-12.782 10.399-23.183 23.183-23.183zm167.286 234.545a12.46 12.46 0 0 1-12.443 12.445H39.902c-6.862 0-12.445-5.583-12.445-12.445v-75.292c3.764 1.199 7.77 1.851 11.926 1.851h30.663v2.089c0 12.971 10.553 23.523 23.523 23.523h8.954c12.971 0 23.522-10.552 23.522-23.523v-2.089h93.908v2.089c0 12.971 10.552 23.523 23.522 23.523h8.954c12.971 0 23.523-10.552 23.523-23.523v-2.089h30.663c4.156 0 8.162-.652 11.926-1.851v75.292zm-210.496-91.442H88.046v-2.865a5.53 5.53 0 0 1 5.523-5.523h8.954a5.53 5.53 0 0 1 5.522 5.523v2.865zm.001 18v2.089a5.53 5.53 0 0 1-5.522 5.523H93.57a5.53 5.53 0 0 1-5.523-5.523v-2.089h19.999zm149.907-18h-19.999v-2.865a5.53 5.53 0 0 1 5.522-5.523h8.954a5.53 5.53 0 0 1 5.523 5.523v2.865zm.001 18v2.089a5.53 5.53 0 0 1-5.523 5.523h-8.954a5.53 5.53 0 0 1-5.522-5.523v-2.089h19.999zM328 170.521c0 11.791-9.593 21.383-21.383 21.383h-30.663v-2.865c0-12.971-10.553-23.523-23.523-23.523h-8.954c-12.971 0-23.522 10.552-23.522 23.523v2.865h-93.908v-2.865c0-12.971-10.552-23.523-23.522-23.523h-8.954c-12.971 0-23.523 10.552-23.523 23.523v2.865H39.383c-11.79 0-21.383-9.592-21.383-21.383v-31.77c0-25.081 20.405-45.486 45.486-45.486h219.028c25.081 0 45.486 20.405 45.486 45.486v31.77z" fill="#615ba3"/></svg>