<svg width="25" height="24" viewBox="0 0 25 24" fill="none" xmlns="http://www.w3.org/2000/svg">
<g clip-path="url(#clip0)">
<path d="M24.0098 6.31078L18.6628 0.986293C17.9798 0.300053 16.9645 0.067222 16.0477 0.379706L12.7312 1.50097C11.8882 1.78895 11.2237 2.45068 10.9406 3.2901L8.2948 11.1145C8.22096 11.335 8.27634 11.5801 8.44247 11.7455L8.95933 12.2602L0.468072 20.7034C0.357316 20.8137 0.289632 20.9669 0.289632 21.1201L0.246561 23.1053C0.240407 23.4484 0.517296 23.7302 0.861869 23.7364L4.88599 23.7547C5.18749 23.7547 5.44592 23.5342 5.49515 23.2339L5.82126 21.2916L7.69795 21.0282C8.00561 20.9853 8.23327 20.7218 8.22712 20.4093L8.19635 18.7182L8.95318 17.9646L10.0423 17.6031C10.1346 17.5725 10.2146 17.5234 10.2822 17.456L12.2389 15.5076L12.9896 16.2551C13.1496 16.4144 13.3834 16.4757 13.6049 16.4083L21.6347 13.9758C22.5146 13.7062 23.216 13.0322 23.5114 12.1622L24.6189 8.91481C24.9328 8.00187 24.6989 6.99089 24.0098 6.31078ZM9.50696 16.4941L8.41786 16.8556C8.32557 16.8862 8.24558 16.9352 8.17789 17.0026L7.13187 18.0442C7.01496 18.1607 6.94727 18.32 6.95343 18.4915L6.97804 19.9008L5.19364 20.152C4.92906 20.1887 4.71986 20.3971 4.67063 20.6605L4.35682 22.5293L1.48333 22.5232L1.50794 21.408L9.82692 13.1242L11.359 14.6498L9.50696 16.4941ZM23.4499 8.51655L22.3423 11.7823C22.17 12.2786 21.7762 12.6646 21.2717 12.8178L13.5926 15.14L9.5808 11.139L12.1097 3.67611C12.2758 3.19819 12.6512 2.81831 13.1311 2.65287L16.4476 1.53161C16.9214 1.3723 17.4444 1.48872 17.7952 1.84409L23.1422 7.16858C23.4929 7.52395 23.616 8.05088 23.4499 8.51655Z" fill="black"/>
<path d="M16.8721 0.245086C17.5366 0.245086 18.1827 0.502425 18.6626 0.986469L24.0097 6.31095C24.6988 6.99106 24.9326 8.00204 24.6188 8.91499L23.5113 12.1624C23.2159 13.0324 22.5145 13.7064 21.6346 13.976L13.6048 16.4085C13.5433 16.4269 13.4817 16.433 13.4264 16.433C13.2664 16.433 13.1064 16.3717 12.9895 16.2553L12.2388 15.5078L10.2821 17.4562C10.2144 17.5236 10.1345 17.5726 10.0422 17.6033L8.95306 17.9648L8.19623 18.7184L8.227 20.4095C8.23315 20.722 8.00549 20.9854 7.69783 21.0283L5.82114 21.2918L5.49503 23.2341C5.4458 23.5343 5.18737 23.7549 4.88587 23.7549L0.86175 23.7365C0.517177 23.7304 0.240288 23.4486 0.246441 23.1054L0.289513 21.1202C0.289513 20.9671 0.357197 20.8139 0.467952 20.7036L8.95922 12.2604L8.44236 11.7457C8.27622 11.5803 8.22084 11.3352 8.29468 11.1146L10.9405 3.29027C11.2236 2.45086 11.8881 1.78912 12.7311 1.50115L16.0476 0.379883C16.3183 0.287975 16.5952 0.245086 16.8721 0.245086ZM13.5925 15.1402L21.2715 12.818C21.7761 12.6648 22.1699 12.2788 22.3422 11.7825L23.4497 8.51672C23.6159 8.05106 23.4928 7.52413 23.1421 7.16875L17.7951 1.84427C17.5489 1.59306 17.2167 1.46439 16.8721 1.46439C16.7306 1.46439 16.5829 1.48889 16.4475 1.53178L13.131 2.65305C12.6511 2.81848 12.2757 3.19837 12.1096 3.67628L9.58068 11.1391L13.5925 15.1402ZM4.3567 22.5295L4.67051 20.6607C4.71974 20.3972 4.92894 20.1889 5.19352 20.1522L6.97792 19.9009L6.95331 18.4917C6.94715 18.3201 7.01484 18.1608 7.13175 18.0444L8.17777 17.0028C8.24546 16.9354 8.32545 16.8864 8.41774 16.8558L9.50684 16.4943L11.3589 14.65L9.8268 13.1243L1.50782 21.4082L1.48321 22.5234L4.3567 22.5295ZM16.8721 0C16.5644 0 16.2629 0.0490171 15.9676 0.147051L12.6511 1.26832C11.7404 1.5808 11.0143 2.30993 10.7067 3.21675L8.06086 11.0411C7.95626 11.3536 8.03625 11.6906 8.27007 11.9234L8.61464 12.2665L0.295666 20.532C0.135686 20.6913 0.0433892 20.9058 0.0433892 21.1202L0.000317537 23.0993C-0.00583555 23.5772 0.375656 23.9694 0.855597 23.9816L4.87972 24C5.30428 24 5.66116 23.6936 5.735 23.2709L6.03034 21.5063L7.7286 21.2673C8.15931 21.206 8.47927 20.8323 8.46697 20.4034L8.4362 18.8164L9.07612 18.1792L10.1098 17.8361C10.2391 17.7932 10.3498 17.7258 10.4483 17.6278L12.2327 15.8509L12.811 16.4269C12.9772 16.5923 13.1925 16.6781 13.4202 16.6781C13.5063 16.6781 13.5925 16.6658 13.6725 16.6413L21.7084 14.215C22.6683 13.9209 23.4251 13.1856 23.7451 12.2481L24.8526 9.00077C25.0188 8.51059 25.0495 7.98366 24.9326 7.47511C24.8157 6.96656 24.5573 6.50702 24.1881 6.13939L18.8411 0.814909C18.3119 0.287975 17.6166 0 16.8721 0ZM9.86372 11.0779L12.3434 3.75594C12.4849 3.35154 12.811 3.02681 13.211 2.88588L16.5275 1.76462C16.6383 1.72785 16.7552 1.70947 16.8721 1.70947C17.1551 1.70947 17.4197 1.81976 17.6166 2.01583L22.9636 7.34031C23.2467 7.62829 23.3451 8.05719 23.2159 8.43094L22.1084 11.6967C21.9607 12.1195 21.6223 12.4503 21.1977 12.579L13.6602 14.8644L9.86372 11.0779ZM1.75395 21.5124L9.8268 13.4736L11.0082 14.65L9.37147 16.2798L8.33775 16.6229C8.20854 16.6658 8.09778 16.7332 7.99933 16.8312L6.95331 17.8729C6.78717 18.0383 6.69488 18.265 6.70103 18.4978L6.71949 19.6865L5.15661 19.9132C4.78742 19.9622 4.49823 20.2502 4.42439 20.6178L4.1475 22.2844L1.73549 22.2783L1.75395 21.5124Z" fill="black"/>
<path d="M20.0328 7.43209L17.5347 4.94447C16.7901 4.20308 15.5903 4.20308 14.8458 4.94447C14.1013 5.68585 14.1013 6.88065 14.8458 7.62203L17.3439 10.1097C18.0884 10.851 19.2883 10.851 20.0328 10.1097C20.7773 9.36827 20.7773 8.17347 20.0328 7.43209ZM19.1591 9.2396C18.9006 9.49694 18.4761 9.50306 18.2115 9.2396L15.7134 6.75198C15.4488 6.49463 15.4488 6.07186 15.7134 5.80839C15.9718 5.54493 16.3963 5.54493 16.6609 5.80839L19.1591 8.29602C19.4236 8.55336 19.4236 8.97613 19.1591 9.2396Z" fill="black"/>
<path d="M16.1941 4.39279C16.6802 4.39279 17.1663 4.57661 17.5417 4.95036L20.0398 7.43798C20.7843 8.17936 20.7843 9.37415 20.0398 10.1155C19.6645 10.4893 19.1784 10.6731 18.6923 10.6731C18.2062 10.6731 17.7201 10.4893 17.3448 10.1155L14.8466 7.62792C14.1021 6.88654 14.1021 5.69174 14.8466 4.95036C15.222 4.57661 15.7081 4.39279 16.1941 4.39279ZM18.6861 9.43543C18.8584 9.43543 19.0307 9.36803 19.1599 9.23936C19.4245 8.97589 19.4245 8.55312 19.1599 8.29578L16.6618 5.80816C16.5326 5.67949 16.3603 5.61209 16.188 5.61209C16.0157 5.61209 15.8434 5.67949 15.7142 5.80816C15.4496 6.07163 15.4496 6.4944 15.7142 6.75174L18.2124 9.23936C18.3416 9.37415 18.5139 9.43543 18.6861 9.43543ZM16.1941 4.14771C15.6219 4.14771 15.0804 4.36828 14.6743 4.77267C14.2682 5.17706 14.0467 5.71625 14.0467 6.28608C14.0467 6.8559 14.2682 7.39509 14.6743 7.79948L17.1725 10.2871C17.5786 10.6915 18.1201 10.9121 18.6923 10.9121C19.2645 10.9121 19.806 10.6915 20.2121 10.2871C21.0489 9.45381 21.0489 8.09971 20.2121 7.26029L17.714 4.77267C17.3017 4.36828 16.7664 4.14771 16.1941 4.14771ZM18.6861 9.19034C18.5754 9.19034 18.4646 9.14745 18.3846 9.0678L15.8865 6.58018C15.8065 6.50053 15.7634 6.39636 15.7573 6.28608C15.7573 6.16966 15.8003 6.0655 15.8865 5.98585C15.9665 5.90619 16.0711 5.85718 16.1818 5.85718C16.2926 5.85718 16.4033 5.90007 16.4833 5.98585L18.9815 8.47346C19.0615 8.55312 19.1045 8.65728 19.1107 8.76757C19.1107 8.88398 19.0676 8.98814 18.9815 9.0678C18.9076 9.14745 18.7969 9.19034 18.6861 9.19034Z" fill="black"/>
</g>
<defs>
<clipPath id="clip0">
<rect width="25" height="24" fill="white"/>
</clipPath>
</defs>
</svg>
