<svg width="26" height="24" viewBox="0 0 26 24" fill="none" xmlns="http://www.w3.org/2000/svg">
<path d="M12.5049 15C14.2315 15 15.6312 13.6569 15.6312 12C15.6312 10.3431 14.2315 9 12.5049 9C10.7783 9 9.37868 10.3431 9.37868 12C9.37868 13.6569 10.7783 15 12.5049 15Z" stroke="black" stroke-width="2" stroke-linecap="round" stroke-linejoin="round"/>
<path d="M20.2163 15C20.0776 15.3016 20.0362 15.6362 20.0975 15.9606C20.1588 16.285 20.32 16.5843 20.5602 16.82L20.6227 16.88C20.8165 17.0657 20.9702 17.2863 21.0751 17.5291C21.18 17.7719 21.234 18.0322 21.234 18.295C21.234 18.5578 21.18 18.8181 21.0751 19.0609C20.9702 19.3037 20.8165 19.5243 20.6227 19.71C20.4292 19.896 20.1993 20.0435 19.9463 20.1441C19.6933 20.2448 19.4221 20.2966 19.1482 20.2966C18.8743 20.2966 18.6031 20.2448 18.3501 20.1441C18.0971 20.0435 17.8672 19.896 17.6736 19.71L17.6111 19.65C17.3655 19.4195 17.0536 19.2648 16.7155 19.206C16.3775 19.1472 16.0288 19.1869 15.7145 19.32C15.4063 19.4468 15.1434 19.6572 14.9583 19.9255C14.7731 20.1938 14.6738 20.5082 14.6724 20.83V21C14.6724 21.5304 14.4529 22.0391 14.062 22.4142C13.6711 22.7893 13.141 23 12.5883 23C12.0355 23 11.5054 22.7893 11.1146 22.4142C10.7237 22.0391 10.5041 21.5304 10.5041 21V20.91C10.4961 20.579 10.3844 20.258 10.1837 19.9887C9.98298 19.7194 9.70248 19.5143 9.37867 19.4C9.06436 19.2669 8.71571 19.2272 8.37766 19.286C8.03961 19.3448 7.72768 19.4995 7.48208 19.73L7.41956 19.79C7.226 19.976 6.99614 20.1235 6.74312 20.2241C6.49011 20.3248 6.2189 20.3766 5.94501 20.3766C5.67112 20.3766 5.39992 20.3248 5.1469 20.2241C4.89389 20.1235 4.66403 19.976 4.47047 19.79C4.27669 19.6043 4.12297 19.3837 4.01808 19.1409C3.9132 18.8981 3.85921 18.6378 3.85921 18.375C3.85921 18.1122 3.9132 17.8519 4.01808 17.6091C4.12297 17.3663 4.27669 17.1457 4.47047 16.96L4.53299 16.9C4.77323 16.6643 4.93439 16.365 4.99568 16.0406C5.05698 15.7162 5.0156 15.3816 4.87688 15.08C4.74478 14.7842 4.52544 14.532 4.24586 14.3543C3.96628 14.1766 3.63867 14.0813 3.30334 14.08H3.12618C2.57343 14.08 2.04332 13.8693 1.65246 13.4942C1.2616 13.1191 1.04202 12.6104 1.04202 12.08C1.04202 11.5496 1.2616 11.0409 1.65246 10.6658C2.04332 10.2907 2.57343 10.08 3.12618 10.08H3.21997C3.56489 10.0723 3.89941 9.96512 4.18004 9.77251C4.46067 9.5799 4.67442 9.31074 4.79351 9C4.93223 8.69838 4.97361 8.36381 4.91232 8.03941C4.85102 7.71502 4.68987 7.41568 4.44963 7.18L4.3871 7.12C4.19332 6.93425 4.0396 6.71368 3.93472 6.47088C3.82983 6.22808 3.77585 5.96783 3.77585 5.705C3.77585 5.44217 3.82983 5.18192 3.93472 4.93912C4.0396 4.69632 4.19332 4.47575 4.3871 4.29C4.58067 4.10405 4.81052 3.95653 5.06354 3.85588C5.31655 3.75523 5.58776 3.70343 5.86165 3.70343C6.13554 3.70343 6.40674 3.75523 6.65976 3.85588C6.91277 3.95653 7.14263 4.10405 7.33619 4.29L7.39872 4.35C7.64431 4.58054 7.95625 4.73519 8.29429 4.794C8.63234 4.85282 8.981 4.81312 9.2953 4.68H9.37867C9.68689 4.55324 9.94975 4.34276 10.1349 4.07447C10.3201 3.80618 10.4194 3.49179 10.4208 3.17V3C10.4208 2.46957 10.6403 1.96086 11.0312 1.58579C11.422 1.21071 11.9522 1 12.5049 1C13.0577 1 13.5878 1.21071 13.9786 1.58579C14.3695 1.96086 14.5891 2.46957 14.5891 3V3.09C14.5904 3.41179 14.6898 3.72618 14.8749 3.99447C15.0601 4.26276 15.3229 4.47324 15.6312 4.6C15.9455 4.73312 16.2941 4.77282 16.6322 4.714C16.9702 4.65519 17.2821 4.50054 17.5277 4.27L17.5903 4.21C17.7838 4.02405 18.0137 3.87653 18.2667 3.77588C18.5197 3.67523 18.7909 3.62343 19.0648 3.62343C19.3387 3.62343 19.6099 3.67523 19.8629 3.77588C20.1159 3.87653 20.3458 4.02405 20.5394 4.21C20.7331 4.39575 20.8869 4.61632 20.9917 4.85912C21.0966 5.10192 21.1506 5.36217 21.1506 5.625C21.1506 5.88783 21.0966 6.14808 20.9917 6.39088C20.8869 6.63368 20.7331 6.85425 20.5394 7.04L20.4768 7.1C20.2366 7.33568 20.0754 7.63502 20.0141 7.95941C19.9529 8.28381 19.9942 8.61838 20.1329 8.92V9C20.265 9.29577 20.4844 9.54802 20.764 9.72569C21.0435 9.90337 21.3712 9.99872 21.7065 10H21.8836C22.4364 10 22.9665 10.2107 23.3574 10.5858C23.7482 10.9609 23.9678 11.4696 23.9678 12C23.9678 12.5304 23.7482 13.0391 23.3574 13.4142C22.9665 13.7893 22.4364 14 21.8836 14H21.7899C21.4545 14.0013 21.1269 14.0966 20.8473 14.2743C20.5677 14.452 20.3484 14.7042 20.2163 15V15Z" stroke="black" stroke-width="2" stroke-linecap="round" stroke-linejoin="round"/>
</svg>
