<svg width="26" height="24" viewBox="0 0 26 24" fill="none" xmlns="http://www.w3.org/2000/svg">
<path d="M16.6733 3H1.04205V16H16.6733V3Z" stroke="black" stroke-width="2" stroke-linecap="round" stroke-linejoin="round"/>
<path d="M16.6733 8H20.8416L23.9678 11V16H16.6733V8Z" stroke="black" stroke-width="2" stroke-linecap="round" stroke-linejoin="round"/>
<path d="M5.73148 21C7.1703 21 8.33669 19.8807 8.33669 18.5C8.33669 17.1193 7.1703 16 5.73148 16C4.29267 16 3.12628 17.1193 3.12628 18.5C3.12628 19.8807 4.29267 21 5.73148 21Z" stroke="black" stroke-width="2" stroke-linecap="round" stroke-linejoin="round"/>
<path d="M19.2785 21C20.7173 21 21.8837 19.8807 21.8837 18.5C21.8837 17.1193 20.7173 16 19.2785 16C17.8397 16 16.6733 17.1193 16.6733 18.5C16.6733 19.8807 17.8397 21 19.2785 21Z" stroke="black" stroke-width="2" stroke-linecap="round" stroke-linejoin="round"/>
</svg>
