<svg width="72" height="72" viewBox="0 0 72 72" fill="none" xmlns="http://www.w3.org/2000/svg">
<path d="M2.40005 62.6209C0.966825 63.1276 0.00634721 64.48 4.55411e-05 66.0001V69.6001C4.55411e-05 70.9256 1.07456 72.0001 2.40005 72.0001H69.6001C70.9255 72.0001 72 70.9256 72 69.6001V66.0001C71.9937 64.48 71.0333 63.1276 69.6001 62.6209V18.9829C70.1017 18.8125 70.5568 18.5278 70.9296 18.1513C71.6184 17.4818 72.0049 16.5607 72 15.6001C72 13.6119 70.3883 12.0001 68.4 12.0001H55.2V7.20013C55.2 5.2119 53.5883 3.60013 51.6 3.60013H35.9652C35.7876 3.39493 35.6052 3.19213 35.406 3.00013C32.04 -0.383871 27.132 -0.979072 24.468 1.67173C23.9266 2.22052 23.5074 2.87773 23.238 3.60013H20.4C18.4118 3.60013 16.8 5.2119 16.8 7.20013V12.0001H3.60005C2.64954 11.9924 1.73663 12.3709 1.07045 13.0489C0.381647 13.7184 -0.00482807 14.6396 4.55411e-05 15.6001C0.00634721 17.1203 0.966825 18.4726 2.40005 18.9793V62.6209ZM2.40005 66.0001C2.40005 65.3374 2.9373 64.8001 3.60005 64.8001H22.8V69.6001H2.40005V66.0001ZM25.2 69.6001V64.8001H46.8V69.6001H25.2ZM43.2 62.4001H28.8V42.0001C28.8 40.6747 29.8746 39.6001 31.2 39.6001H40.8C42.1255 39.6001 43.2 40.6747 43.2 42.0001V62.4001ZM49.2 69.6001V64.8001H68.4C69.0628 64.8001 69.6001 65.3374 69.6001 66.0001V69.6001H49.2ZM67.2001 62.4001H45.6V42.0001C45.6 39.3492 43.451 37.2001 40.8 37.2001H31.2C28.5491 37.2001 26.4 39.3492 26.4 42.0001V62.4001H4.80005V19.2001H16.6584L13.326 25.8637C13.3188 25.8781 13.3176 25.8937 13.3104 25.9081C13.3032 25.9225 13.2936 25.9609 13.2828 25.9873C13.2401 26.1029 13.2154 26.2243 13.2096 26.3473C13.2096 26.3641 13.2 26.3773 13.2 26.3941V29.9941C13.1912 31.9958 14.4305 33.7909 16.3053 34.4921C18.1801 35.1933 20.2933 34.6519 21.6 33.1357C22.4999 34.1882 23.8153 34.7942 25.2 34.7942C26.5848 34.7942 27.9002 34.1882 28.8 33.1357C29.6999 34.1882 31.0153 34.7942 32.4 34.7942C33.7848 34.7942 35.1002 34.1882 36 33.1357C36.8999 34.1882 38.2153 34.7942 39.6 34.7942C40.9848 34.7942 42.3002 34.1882 43.2 33.1357C44.0999 34.1882 45.4153 34.7942 46.8 34.7942C48.1848 34.7942 49.5002 34.1882 50.4 33.1357C51.7061 34.6511 53.8178 35.1927 55.692 34.4931C57.5662 33.7935 58.8064 32.0007 58.8 30.0001V26.4001C58.8 26.3833 58.7916 26.3701 58.7904 26.3533C58.7847 26.2303 58.76 26.1089 58.7172 25.9933C58.7064 25.9669 58.7005 25.9393 58.6896 25.9141C58.6788 25.8889 58.6812 25.8841 58.674 25.8697L55.3416 19.2001H67.2001V62.4001ZM53.2584 20.4001L55.6584 25.2001H16.3416L18.7416 20.4001H53.2584ZM49.2 30.0001C49.2 31.3256 48.1255 32.4001 46.8 32.4001C45.4746 32.4001 44.4 31.3256 44.4 30.0001V27.6001H49.2V30.0001ZM42 30.0001C42 31.3256 40.9255 32.4001 39.6 32.4001C38.2746 32.4001 37.2 31.3256 37.2 30.0001V27.6001H42V30.0001ZM34.8 30.0001C34.8 31.3256 33.7255 32.4001 32.4 32.4001C31.0746 32.4001 30 31.3256 30 30.0001V27.6001H34.8V30.0001ZM27.6 30.0001C27.6 31.3256 26.5255 32.4001 25.2 32.4001C23.8746 32.4001 22.8 31.3256 22.8 30.0001V27.6001H27.6V30.0001ZM20.4 30.0001C20.4 31.3256 19.3255 32.4001 18 32.4001C16.6746 32.4001 15.6 31.3256 15.6 30.0001V27.6001H20.4V30.0001ZM51.6 27.6001H56.4V30.0001C56.4 31.3256 55.3255 32.4001 54 32.4001C52.6746 32.4001 51.6 31.3256 51.6 30.0001V27.6001ZM68.4 14.4001C69.0628 14.4001 69.6001 14.9374 69.6001 15.6001C69.6009 15.9238 69.468 16.2334 69.2328 16.4557C69.0131 16.6783 68.7128 16.8025 68.4 16.8001H55.2V14.4001H68.4ZM25.29 5.05813C25.8095 5.26997 26.356 5.4085 26.9136 5.46973C28.2728 5.52156 29.3622 6.61249 29.412 7.97173C29.4974 9.14576 30.0097 10.2479 30.852 11.0701C31.6722 11.912 32.7723 12.4243 33.9444 12.5101C34.1592 12.5401 34.3464 12.5737 34.5252 12.6145C32.706 13.8145 29.7132 13.1425 27.4932 10.9129C25.8458 9.43889 25.0231 7.25256 25.29 5.05813ZM33.7092 4.69813C35.3539 6.17137 36.1755 8.35492 35.91 10.5469C35.3906 10.3351 34.8441 10.1966 34.2864 10.1353C32.9255 10.0833 31.8355 8.98964 31.788 7.62853C31.7027 6.4545 31.1904 5.35234 30.348 4.53013C29.5279 3.68824 28.4278 3.17596 27.2556 3.09013C27.0312 3.05893 26.8368 3.02293 26.6556 2.97973C27.2821 2.57515 28.0148 2.36628 28.7604 2.37973C30.6472 2.4817 32.4211 3.31097 33.7092 4.69333V4.69813ZM19.2 7.20013C19.2 6.53739 19.7373 6.00013 20.4 6.00013H22.8192C22.918 8.50277 23.9851 10.8692 25.7952 12.6001C27.54 14.4285 29.9329 15.4989 32.4588 15.5809C34.0475 15.6218 35.5863 15.025 36.732 13.9237C38.6628 11.9857 38.8608 8.85493 37.524 5.99533H51.6C52.2628 5.99533 52.8 6.53259 52.8 7.19533V17.9953H19.2V7.20013ZM2.76725 14.7445C2.98695 14.522 3.28733 14.3978 3.60005 14.4001H16.8V16.8001H3.60005C2.9373 16.8001 2.40005 16.2629 2.40005 15.6001C2.39924 15.2765 2.53211 14.9669 2.76725 14.7445Z" fill="#615BA3"/>
<path d="M19.2 37.2001H12C9.34908 37.2001 7.20004 39.3491 7.20004 42.0001V52.8001C7.20004 54.1256 8.27456 55.2001 9.60004 55.2001H21.6C22.9255 55.2001 24 54.1256 24 52.8001V42.0001C24 39.3491 21.851 37.2001 19.2 37.2001ZM12 39.6001H19.2C20.5255 39.6001 21.6 40.6746 21.6 42.0001V48.0001H9.60004V42.0001C9.60004 40.6746 10.6746 39.6001 12 39.6001ZM9.60004 52.8001V50.4001H21.6V52.8001H9.60004Z" fill="#615BA3"/>
<path d="M60.0001 37.2001H52.8001C50.1491 37.2001 48.0001 39.3491 48.0001 42.0001V52.8001C48.0001 54.1256 49.0746 55.2001 50.4001 55.2001H62.4001C63.7256 55.2001 64.8001 54.1256 64.8001 52.8001V42.0001C64.8001 39.3491 62.651 37.2001 60.0001 37.2001ZM52.8001 39.6001H60.0001C61.3256 39.6001 62.4001 40.6746 62.4001 42.0001V48.0001H50.4001V42.0001C50.4001 40.6746 51.4746 39.6001 52.8001 39.6001ZM50.4001 52.8001V50.4001H62.4001V52.8001H50.4001Z" fill="#615BA3"/>
<path d="M39.6 48.0001C38.9373 48.0001 38.4 48.5374 38.4 49.2001V52.8001C38.4 53.4629 38.9373 54.0001 39.6 54.0001C40.2628 54.0001 40.8 53.4629 40.8 52.8001V49.2001C40.8 48.5374 40.2628 48.0001 39.6 48.0001Z" fill="#615BA3"/>
<path d="M42 10.8001H49.2001C49.8628 10.8001 50.4001 10.2629 50.4001 9.60015C50.4001 8.93741 49.8628 8.40015 49.2001 8.40015H42C41.3373 8.40015 40.8 8.93741 40.8 9.60015C40.8 10.2629 41.3373 10.8001 42 10.8001Z" fill="#615BA3"/>
<path d="M46.8001 13.2002H44.4001C43.7373 13.2002 43.2001 13.7375 43.2001 14.4002C43.2001 15.0629 43.7373 15.6002 44.4001 15.6002H46.8001C47.4628 15.6002 48.0001 15.0629 48.0001 14.4002C48.0001 13.7375 47.4628 13.2002 46.8001 13.2002Z" fill="#615BA3"/>
</svg>
