<svg width="72" height="72" viewBox="0 0 72 72" fill="none" xmlns="http://www.w3.org/2000/svg">
<g clip-path="url(#clip0)">
<path d="M17.1383 53.3305C15.6018 52.4538 13.872 53.0482 12.8767 54.3314C12.4378 54.7159 12.0802 55.2152 11.8407 55.8316C11.1381 57.6361 11.8352 59.5257 13.693 60.2052C15.5568 60.8864 17.5409 59.8575 18.3094 58.0832C19.0087 56.4704 18.7873 54.2715 17.1383 53.3305ZM16.1319 58.7918C14.6779 59.7636 12.5438 58.8188 12.6822 56.9802C12.7421 56.1842 13.1266 55.4558 13.6902 54.906C14.5592 54.2023 15.8073 53.881 16.7252 54.6896C17.9326 55.7541 17.3305 57.9909 16.1319 58.7918Z" fill="#615BA3"/>
<path d="M50.9766 53.3305C49.4402 52.4538 47.7104 53.0482 46.7155 54.3314C46.2766 54.7159 45.919 55.2152 45.6795 55.8316C44.977 57.6361 45.674 59.5257 47.5318 60.2052C49.3957 60.8864 51.3798 59.8575 52.1483 58.0832C52.8476 56.4704 52.6262 54.2715 50.9766 53.3305ZM49.9708 58.7918C48.5168 59.7636 46.3827 58.8188 46.5211 56.9802C46.581 56.1842 46.9655 55.4558 47.5285 54.906C48.3976 54.2023 49.6456 53.881 50.5635 54.6896C51.7715 55.7541 51.1694 57.9909 49.9708 58.7918Z" fill="#615BA3"/>
<path d="M71.3397 54.2296C70.9887 53.9785 70.5283 53.883 70.046 53.8528C70.3306 51.4478 70.3026 49.0122 70.085 46.6029C69.8988 44.5363 69.7543 42.2276 68.5107 40.4807C68.1789 40.0144 67.7757 39.604 67.3659 39.2052C66.2102 38.0786 64.6759 37.1332 63.6965 35.8599C62.7555 34.6377 62.2738 33.1402 61.7211 31.7202C60.3446 28.1887 59.1223 24.5709 57.242 21.2635C56.8668 20.6037 56.4889 19.7501 55.744 19.4408C54.9492 19.1112 53.8456 19.326 53.009 19.3507C50.9644 19.4112 48.9199 19.4716 46.8753 19.532C45.8207 19.5633 44.7627 19.5875 43.7107 19.6809C42.9181 19.7512 41.8716 19.738 41.2784 20.3626C40.768 20.8987 40.7439 21.6771 40.712 22.3731C40.7065 22.4939 40.7016 22.6148 40.6966 22.7362C39.9699 22.6977 39.2162 22.779 38.4834 22.8263C38.172 21.6238 38.2813 20.328 38.2824 19.0981C38.2835 17.7182 38.2846 16.3388 38.2857 14.959L38.289 10.6721C38.2901 9.71738 38.6565 7.99857 37.7029 7.37894C37.2629 7.09274 36.6641 7.12625 36.1648 7.09989C35.4314 7.06033 34.6981 7.02738 33.9642 6.99936C32.5453 6.94608 31.1259 6.91477 29.7059 6.89938C28.3354 6.884 26.9643 6.88895 25.5938 6.91367C24.3424 6.93674 22.9153 6.79996 21.6903 7.07187C20.5285 7.3295 20.3906 8.40726 20.3494 9.42239C19.5414 9.29935 18.6317 9.39603 17.8874 9.39328C16.6201 9.38944 15.3534 9.40262 14.0861 9.42185C12.8189 9.44052 11.5516 9.45975 10.2843 9.47843C9.42684 9.49106 8.09585 9.26145 7.48336 10.036C6.92086 10.7484 7.11587 12.0619 7.10598 12.9078C7.0917 14.1394 7.07852 15.3715 7.06478 16.6031C7.03896 18.9448 6.99062 21.2865 7.07852 23.6277C7.01589 23.625 6.95272 23.6233 6.8901 23.6211C5.88101 23.5799 4.29513 23.3899 4.0018 24.6764C3.71176 25.9458 3.82821 27.4229 3.83261 28.7188C3.8381 30.3228 3.90018 31.924 3.94687 33.5269C3.99081 35.015 3.87546 36.5383 3.99795 38.0226C3.76889 38.0291 3.53982 38.0341 3.31131 38.0418C2.14291 38.0808 0.530673 38.0495 0.0923185 39.4228C-0.261441 40.5296 0.446078 41.6991 1.45462 42.1529C1.87759 42.3429 2.33572 42.4418 2.80923 42.4863C2.62466 43.1664 2.71091 44.0442 2.69772 44.6484C2.67355 45.7608 2.67026 46.8759 2.68564 47.9883C2.70157 49.1012 2.72739 50.2141 2.76419 51.3264C2.78671 52.0142 2.65268 52.9909 2.88229 53.7198C2.86526 53.7237 2.84824 53.7253 2.83176 53.7297C1.50626 54.0335 1.54251 55.7468 1.62875 56.8273C1.67325 57.386 1.70236 58.0523 2.12863 58.4698C2.49667 58.8307 3.02347 58.9125 3.51401 58.9471C4.28799 59.0015 5.09494 58.9872 5.86508 58.9004C6.1694 58.8658 6.49185 58.8482 6.78134 58.768C7.00656 60.0446 7.53555 61.2575 8.42379 62.2353C9.88717 63.847 12.0833 64.6935 14.2059 64.9385C16.4575 65.1989 18.9426 64.8072 20.5769 63.1219C21.8024 61.8579 22.7252 60.1776 23.1136 58.4286C23.4778 58.4928 23.8629 58.4901 24.2298 58.5104C25.0126 58.5533 25.7986 58.556 26.5825 58.5708C28.1997 58.6021 29.8169 58.6104 31.4346 58.6087C34.4822 58.606 37.5304 58.5818 40.5774 58.5132C40.7746 59.8831 41.3152 61.1922 42.2627 62.2359C43.7256 63.847 45.9223 64.6935 48.0448 64.9385C50.2965 65.1989 52.781 64.8072 54.4158 63.1219C55.5238 61.9793 56.3834 60.4956 56.8251 58.9295C59.0251 59.1905 61.3037 59.1608 63.507 59.1668C64.7182 59.1707 65.9289 59.152 67.139 59.1119C67.7686 59.091 68.3981 59.0647 69.0265 59.0317C69.5544 59.0048 70.1449 59.0372 70.658 58.8905C71.5418 58.6373 71.7989 57.7326 71.9143 56.9234C72.0373 56.061 72.1477 54.8086 71.3397 54.2296ZM68.3624 44.9264C68.5024 46.2848 68.5563 47.6306 68.5568 48.9748C68.0339 48.9193 67.4582 49.0017 66.9704 49.0105C66.3272 49.0215 65.6553 49.0083 65.0088 49.0935C65.0242 48.6573 65.0451 48.2217 65.0747 47.7872C65.1077 47.3049 65.1505 46.8237 65.2027 46.3436C65.2609 45.8075 65.2598 45.1505 65.5147 44.6621C66.0124 43.708 67.2846 43.7404 68.23 43.82C68.2849 44.1936 68.3256 44.5655 68.3624 44.9264ZM68.5469 50.0097C68.5233 51.2929 68.4585 52.5772 68.3794 53.8725C68.3569 53.8725 68.3338 53.8725 68.3118 53.8725C67.2621 53.8582 66.2123 53.8533 65.1621 53.8539C65.0242 52.5327 64.9715 51.199 64.9901 49.8686C65.6422 49.9603 66.3211 49.9504 66.9704 49.9658C67.4533 49.9768 68.0262 50.0603 68.5469 50.0097ZM37.3584 24.4253C37.5875 24.4215 37.8166 24.4204 38.0462 24.4143C38.8899 24.3918 39.7793 24.4237 40.6296 24.3221C40.6126 24.7472 40.5961 25.1724 40.5796 25.5976C40.4879 27.9426 40.3989 30.2876 40.3621 32.6349C40.3379 34.2125 40.2704 35.8083 40.311 37.3952C40.0737 37.3073 39.8254 37.2661 39.5727 37.2502C39.3168 37.2343 39.0569 37.2436 38.8009 37.2557C36.0302 37.3859 33.2759 37.3914 30.5107 37.4249C29.9993 33.0265 30.2267 28.6133 30.3393 24.2007C30.8716 24.3435 31.4808 24.3314 31.9922 24.3594C32.6821 24.3968 33.3748 24.411 34.0669 24.4204C34.0428 24.6676 34.0285 24.9164 34.0109 25.1664C33.9703 25.7316 33.8549 26.377 33.9011 26.9439C33.978 27.8822 34.7113 27.6734 35.4325 27.6284C36.0868 27.5872 37.2068 28.0305 37.4452 27.1411C37.6759 26.2804 37.4079 25.3361 37.3584 24.4253ZM34.7432 24.4292C34.8602 24.4308 34.9766 24.4319 35.0931 24.4336C35.4908 24.4385 35.8874 24.4385 36.2845 24.4374C36.2807 24.6621 36.2917 24.8895 36.3153 25.1257C36.3603 25.5822 36.5098 26.1557 36.4631 26.649C36.3334 26.6325 36.2016 26.6067 36.1423 26.6039C35.8583 26.5918 35.5737 26.6023 35.2908 26.6297C35.1936 26.6391 34.9684 26.6363 34.8277 26.6709C34.8261 26.6253 34.825 26.5797 34.8228 26.5341C34.7981 25.8453 34.8135 25.1268 34.7432 24.4292ZM28.7842 9.44437C28.7946 9.10489 28.8116 8.76376 28.7985 8.42539C29.3467 8.42703 29.8949 8.43088 30.4431 8.43912C30.4739 8.67368 30.503 8.90878 30.5255 9.14499C30.5596 9.50864 30.7123 10.2013 30.6035 10.5529C30.587 10.6051 30.581 10.6397 30.5799 10.6633C30.5585 10.6715 30.5294 10.6869 30.4904 10.7111C30.3228 10.8149 29.9718 10.7918 29.7664 10.8199C29.4104 10.8687 29.0286 10.9462 28.6584 10.9649C28.6238 10.521 28.7748 9.7377 28.7842 9.44437ZM21.971 10.1563C21.9913 9.77396 22.015 9.39163 22.0336 9.00931C22.0518 8.62973 22.0001 8.60941 22.3638 8.56326C23.1323 8.46604 23.9392 8.4968 24.7127 8.47592C25.8393 8.44516 26.9665 8.42813 28.0937 8.42484C27.858 9.27902 27.7729 10.2442 27.7009 11.0654C27.6059 12.147 28.5079 12.052 29.3302 11.9613C30.102 11.8767 31.4813 11.9806 31.689 11.0094C31.8521 10.2436 31.7411 9.30374 31.5978 8.46109C32.3377 8.47867 33.0776 8.50229 33.8176 8.5325C34.6003 8.56491 35.3831 8.60336 36.1648 8.64841C36.351 8.65939 36.5372 8.67038 36.7229 8.68192C36.7245 8.733 36.7273 8.80386 36.7333 8.89835C36.7163 9.29111 36.7295 9.68771 36.7273 10.081C36.7196 11.5592 36.7119 13.0374 36.7048 14.5157C36.6965 16.0922 36.6888 17.6693 36.6806 19.2458C36.6745 20.4554 36.5845 21.7002 36.8031 22.8966C36.184 22.9202 35.5649 22.9444 34.9459 22.9674C33.9615 23.0037 32.976 23.013 31.9922 23.0515C31.4808 23.0718 30.8903 23.046 30.3635 23.1685C30.4069 21.0454 30.4085 18.9223 30.2728 16.8019C30.2333 16.1812 30.2635 15.433 29.9449 14.8727C29.5818 14.2344 28.9303 14.1037 28.2568 14.007C26.6754 13.7801 25.0554 13.8477 23.463 13.8466C22.9131 13.846 22.3638 13.8482 21.8139 13.8521C22.0177 12.6524 21.9078 11.3456 21.971 10.1563ZM17.5265 25.2487C17.4507 24.7307 17.3941 24.0754 16.9832 23.6964C16.5427 23.2904 15.7951 23.3553 15.243 23.3657C14.6788 23.3761 14.1163 23.4157 13.5533 23.4618C13.7258 22.4527 13.6357 21.347 13.6632 20.367C13.684 19.6375 13.711 18.9074 13.7439 18.1779C13.7615 17.7885 13.7813 17.3996 13.8021 17.0107C13.8142 16.7799 13.7203 16.1438 13.8851 15.9593C14.0367 15.789 14.6975 15.8296 14.9052 15.8055C15.2897 15.7599 15.6748 15.7198 16.0604 15.6841C16.8311 15.6132 17.604 15.561 18.3768 15.522C18.557 15.5132 18.7372 15.5072 18.9168 15.4995C18.8037 16.4558 18.83 17.5006 18.8905 18.3944C18.9663 19.5045 20.1517 19.1898 20.9438 19.1458C21.6101 19.109 23.1081 19.3579 23.2679 18.4356C23.3613 17.8945 23.1943 17.209 23.1509 16.6668C23.118 16.2509 23.0889 15.8346 23.0537 15.4187C24.4462 15.4127 25.853 15.3819 27.2417 15.4814C27.574 15.5055 27.9064 15.5385 28.2343 15.5984C28.61 15.667 28.5958 15.706 28.6315 16.0812C28.704 16.8464 28.7298 17.6193 28.7545 18.3872C28.849 21.375 28.7155 24.3633 28.6249 27.3493C28.5233 30.7188 28.487 34.0944 28.871 37.4485C28.8314 37.4491 28.7919 37.4496 28.7523 37.4502C25.5147 37.5106 22.2781 37.6441 19.0404 37.7155C18.5922 37.7259 18.1439 37.7347 17.6957 37.7446C17.694 37.7309 17.6924 37.7177 17.6902 37.7045C17.6232 34.9096 17.565 32.1234 17.649 29.3269C17.6902 27.9629 17.7265 26.6039 17.5265 25.2487ZM21.9287 15.4259C21.9639 15.8401 22.0051 16.2537 22.0419 16.6673C22.082 17.1106 22.177 17.5924 22.1885 18.0511C21.8068 18.1115 21.1904 18.0505 20.9438 18.0659C20.5944 18.0873 20.2302 18.1395 19.8743 18.151C19.8605 17.8852 19.916 17.3655 19.9138 17.2447C19.9083 16.9574 19.9067 16.6701 19.8962 16.3828C19.8853 16.0779 19.8776 15.7703 19.8534 15.4654C20.545 15.4451 21.2366 15.4325 21.9287 15.4259ZM14.9634 10.9099C15.0947 10.9072 15.226 10.9023 15.3578 10.8984C15.349 11.3098 15.4451 11.7383 15.5594 12.1157C15.583 12.1877 15.6072 12.2591 15.6314 12.3305C15.4012 12.3772 15.0348 12.4431 14.9909 12.4497C14.5877 12.5096 14.1735 12.5469 13.7637 12.5475C13.6417 12.2673 13.684 11.7125 13.6648 11.4724C13.6505 11.2945 13.6286 11.1176 13.606 10.9402C14.0587 10.9303 14.5108 10.9198 14.9634 10.9099ZM8.58639 17.4556C8.60122 16.3663 8.61605 15.2765 8.63088 14.1872C8.63747 13.6703 8.64352 13.1534 8.65176 12.637C8.65615 12.3656 8.66054 12.0948 8.67043 11.8235C8.67483 11.707 8.64736 11.228 8.6968 11.0566C8.83578 11.0467 8.9753 11.0407 9.11483 11.0412C9.35818 11.0335 9.60207 11.0302 9.84597 11.0248L11.4544 10.9885C12.0333 10.9753 12.6129 10.9627 13.1918 10.9495C13.1479 11.195 13.1045 11.4411 13.0721 11.6894C13.0199 12.0948 12.8952 12.6134 13.0408 13.0116C13.2924 13.7005 14.3537 13.461 14.9074 13.4038C15.4759 13.3451 16.5657 13.372 16.6871 12.631C16.7492 12.2503 16.5465 11.8317 16.4724 11.4637C16.4312 11.2588 16.4262 11.0627 16.4383 10.8676C17.0189 10.849 17.5996 10.8275 18.1802 10.8039C18.819 10.7776 19.5952 10.8182 20.2972 10.7034C20.2478 11.7411 20.2077 12.8661 20.4368 13.8708C19.7018 13.885 18.9668 13.9059 18.2324 13.9422C17.4106 13.9823 16.5899 14.0383 15.7714 14.1169C14.9953 14.1905 14.1169 14.1987 13.3726 14.4459C12.6343 14.6903 12.3184 15.2759 12.2509 16.018C12.1635 16.9749 12.1635 17.9472 12.1405 18.9074C12.1168 19.8797 12.0905 20.8548 12.1026 21.8271C12.1097 22.4121 12.102 23.0053 12.1998 23.5766C11.8142 23.6074 11.4274 23.6343 11.0407 23.6502C10.2464 23.6821 9.45321 23.6837 8.66 23.6711C8.55398 21.5996 8.55837 19.5298 8.58639 17.4556ZM10.1596 26.6308C10.136 26.1397 10.1234 25.6382 10.0613 25.1466C10.5837 25.1438 11.1066 25.1345 11.6296 25.118C11.6334 25.5536 11.7049 26.0019 11.7296 26.4166C11.7417 26.6165 11.9108 27.424 11.7999 27.5746C11.684 27.7317 11.2121 27.7393 10.96 27.7773C10.7902 27.8031 10.4639 27.9201 10.309 27.8393C10.1909 27.7773 10.1525 27.6059 10.136 27.4878C10.0965 27.2016 10.1734 26.9165 10.1596 26.6308ZM5.26028 34.9826C5.30752 33.7708 5.32455 32.5541 5.30807 31.3412C5.29214 30.1272 5.27291 28.9132 5.29763 27.6992C5.31027 27.0692 5.33389 26.4386 5.37509 25.8091C5.38937 25.586 5.35916 25.1757 5.50473 25.0938C5.66348 25.0049 6.17599 25.0922 6.36605 25.0966C7.38119 25.1202 8.38754 25.1416 9.39278 25.1455C9.2615 26.0941 9.24776 27.1472 9.31203 28.0569C9.3796 29.0083 10.2261 28.8594 10.9375 28.7616C11.8361 28.638 12.7826 28.6902 12.8013 27.574C12.8112 26.9983 12.7464 26.4133 12.7194 25.8376C12.7068 25.5772 12.7046 25.3229 12.6843 25.073C13.0051 25.0554 13.3259 25.0345 13.6478 25.0092C14.2268 24.9631 14.8063 24.9208 15.3875 24.923C15.5308 24.9236 15.6803 24.9406 15.8225 24.9318C15.8445 24.9329 15.8659 24.934 15.8879 24.9356C15.8945 25.0219 15.9093 25.1109 15.9093 25.1048C15.9049 25.3081 15.9818 25.5399 16.0043 25.7426C16.1389 26.9791 16.073 28.2304 16.0351 29.4702C15.9511 32.2339 15.9236 35.0172 16.0758 37.7798C13.5522 37.8341 11.0286 37.8863 8.50509 37.9341C7.32131 37.9566 6.13754 37.9726 4.95431 37.9984C5.18887 37.0173 5.22128 35.9901 5.26028 34.9826ZM1.9144 40.7054C1.50186 40.4044 1.34641 39.8457 1.93088 39.6908C2.49393 39.542 3.18057 39.632 3.7568 39.6194C4.54837 39.6024 5.33938 39.5727 6.13095 39.548C7.66409 39.5002 9.19723 39.4524 10.7309 39.4046C13.7478 39.3102 16.7652 39.2267 19.7825 39.1426C25.1038 38.9937 30.4739 38.9992 35.7885 38.5515C36.2549 38.5592 36.7212 38.5675 37.1887 38.5741C37.8347 38.5829 38.5032 38.5417 39.1465 38.6065C39.9051 38.6828 40.0204 39.2893 39.5057 39.8139C39.0443 40.2841 38.3049 40.3835 37.682 40.4439C36.9157 40.5186 36.1434 40.5576 35.3743 40.6043C29.3654 40.9663 23.3449 40.9576 17.3276 40.9367C14.3168 40.9262 11.3066 40.9136 8.29635 40.9438C6.77639 40.9586 5.25698 40.9922 3.73703 41.0081C3.1597 41.0141 2.40988 41.0669 1.9144 40.7054ZM6.733 56.0841C6.67037 56.5526 6.64511 57.0278 6.65664 57.5019C6.08975 57.4326 5.42837 57.5612 4.92685 57.5628C4.44619 57.565 3.89194 57.6051 3.42062 57.5013C3.33218 57.4815 3.19211 57.4436 3.17068 57.4134C3.09103 57.303 3.10312 56.6861 3.09323 56.5444C3.074 56.267 2.9191 55.3562 3.1196 55.1354C3.40469 54.8201 4.40829 55.0069 4.77084 55.0266C5.50582 55.0667 6.22158 55.1063 6.94009 55.0321C6.8511 55.3782 6.78079 55.7298 6.733 56.0841ZM4.2446 52.7777C4.21383 52.246 4.18582 51.7137 4.16 51.182C4.13638 50.7024 4.11661 50.2234 4.09738 49.7439C4.31546 49.784 4.53683 49.8136 4.75766 49.8609C5.58163 50.035 5.59591 50.881 5.62832 51.5786C5.65634 52.1883 5.59536 52.7799 5.50637 53.382C5.48935 53.4984 5.47726 53.6045 5.47451 53.7044C5.07516 53.6781 4.67471 53.6407 4.27701 53.6253C4.30557 53.3584 4.26217 53.0782 4.2446 52.7777ZM20.5472 60.7203C19.4821 62.4507 18.0802 63.3735 16.0329 63.5246C14.151 63.6641 12.2031 63.2362 10.6051 62.2161C8.98739 61.1834 8.10629 59.5129 8.00576 57.6073C7.8547 54.7597 9.36367 52.2202 11.6389 50.7881C12.4799 50.3635 13.4011 50.0987 14.3443 50.0257C17.8572 49.7527 21.0333 52.0911 21.6964 55.5727C22.0408 57.3805 21.4942 59.1817 20.5472 60.7203ZM40.5719 56.0841C40.5258 56.4263 40.5016 56.7724 40.4945 57.1184C37.4749 57.1904 34.4553 57.2569 31.4346 57.2876C29.8663 57.3036 28.298 57.3134 26.7292 57.331C25.9453 57.3398 25.1603 57.3321 24.377 57.3568C24.0211 57.3684 23.642 57.3568 23.2767 57.3991C23.285 57.3156 23.2943 57.2321 23.2998 57.1487C23.3328 56.6345 23.3135 56.1291 23.2493 55.6347C26.087 55.7468 28.9561 55.5545 31.7917 55.5155C34.7536 55.4749 37.716 55.459 40.6785 55.465C40.6362 55.6699 40.6 55.8764 40.5719 56.0841ZM54.3861 60.7203C53.321 62.4507 51.9192 63.3735 49.8719 63.5246C47.9899 63.6641 46.0415 63.2362 44.4441 62.2161C42.8258 61.1834 41.9452 59.5129 41.8442 57.6073C41.6936 54.7597 43.2026 52.2202 45.4779 50.7881C46.3189 50.3635 47.2401 50.0987 48.1833 50.0257C51.6961 49.7527 54.8717 52.0911 55.5353 55.5727C55.8797 57.3805 55.3332 59.1817 54.3861 60.7203ZM56.74 54.1346C55.7501 51.2072 53.0903 48.966 49.907 48.5887C47.5927 48.314 45.2812 49.0034 43.5459 50.5673C43.3092 50.781 43.0741 51.0172 42.8478 51.2726C42.0458 52.1059 41.4377 53.1106 41.0405 54.1961C37.9572 54.2071 34.8739 54.2417 31.7917 54.3026C28.8924 54.3598 25.9365 54.3065 23.0471 54.6201C22.1995 51.4577 19.4255 48.9864 16.0681 48.5881C13.7538 48.3134 11.4423 49.0028 9.70699 50.5673C9.47024 50.7804 9.23513 51.0172 9.00881 51.2726C8.35513 51.9516 7.83108 52.7453 7.44381 53.6028C7.40591 53.6056 7.368 53.6105 7.3279 53.6193C7.06149 53.6808 6.79287 53.7116 6.52371 53.7248C6.49844 53.4759 6.56271 53.2188 6.58084 52.9678C6.6105 52.5514 6.6061 52.1328 6.57095 51.717C6.52096 51.1161 6.46438 50.4135 6.18643 49.8691C5.83541 49.183 4.87411 48.9463 4.07101 49.049C4.05673 48.6469 4.0419 48.2448 4.02926 47.8427C3.99521 46.7781 3.96335 45.713 3.93423 44.6479C3.91775 44.0529 4.004 43.1916 3.83536 42.5138C4.55056 42.4956 5.26907 42.4209 5.92825 42.4094C9.38235 42.3495 12.837 42.3693 16.2911 42.3885C23.2877 42.427 30.3096 42.5193 37.2942 42.0205C38.7773 41.9145 40.4352 41.6349 41.1619 40.1577C41.358 39.7584 41.4294 39.2744 41.3657 38.8191C41.5426 37.3518 41.592 35.8692 41.6651 34.3938C41.7623 32.4388 41.8612 30.4843 41.9458 28.5287C42.0298 26.5742 42.1216 24.6198 42.221 22.6659C42.2369 22.3588 42.1754 21.8243 42.3347 21.5524C42.5182 21.2393 43.0829 21.2574 43.4256 21.2135C44.4726 21.0783 45.5295 21.0536 46.5837 21.0256C48.4821 20.9745 50.3805 20.9256 52.279 20.8756C52.7168 20.8641 53.1551 20.8526 53.5935 20.841C54.0159 20.8295 54.5438 20.7284 54.9635 20.8075C55.5765 20.9229 56.0319 22.216 56.3049 22.7334C57.9732 25.8997 59.0987 29.3115 60.4116 32.631C61.0801 34.3235 61.7124 36.1197 63.0049 37.4496C64.1354 38.6114 65.679 39.2365 66.7754 40.4038C67.4401 41.1119 68.0081 42.16 68.0976 43.1383C67.707 43.2603 67.1357 43.0971 66.7007 43.1455C66.2343 43.1971 65.7828 43.3372 65.3977 43.6113C64.5408 44.221 64.4589 45.262 64.3244 46.2238C63.9684 48.7628 63.9096 51.2984 64.0382 53.8533C61.6173 53.8582 59.1454 53.8308 56.74 54.1346ZM70.5047 56.44C70.486 56.6773 70.4893 57.114 70.3471 57.3195C70.1828 57.5568 70.0713 57.5096 69.7521 57.5315C69.1248 57.5744 68.4937 57.5909 67.8652 57.6123C66.6068 57.654 65.3472 57.6727 64.0882 57.6678C61.7618 57.659 59.4382 57.4321 57.1173 57.3827C57.1245 57.3047 57.1333 57.2267 57.1382 57.1487C57.1833 56.4626 57.1355 55.7907 57.0086 55.1431C59.2772 55.2815 61.5778 55.1788 63.8454 55.2002C65.1357 55.2118 66.426 55.2354 67.7164 55.2694C68.4113 55.2876 69.1056 55.3068 69.8005 55.3337C70.0647 55.3441 70.3322 55.2815 70.4992 55.5342C70.6118 55.7056 70.5206 56.2384 70.5047 56.44Z" fill="#615BA3"/>
<path d="M57.0222 27.4404C56.5025 26.3011 55.9862 25.1459 55.3715 24.0539C54.8551 23.1365 54.336 22.2829 53.1775 22.3164C52.0531 22.3482 50.9204 22.4647 49.7954 22.5652C48.8484 22.5894 47.9074 22.6636 47.0054 22.7723C46.1424 22.8756 45.0586 22.9443 44.4187 23.6089C43.8359 24.2143 43.7914 25.125 43.6925 25.9133C43.3959 28.2781 43.3041 30.6578 43.1959 33.0368C43.1399 34.269 43.0773 35.5011 43.0284 36.7337C42.9993 37.4588 43.0773 38.2597 43.8606 38.5514C44.2973 38.7135 44.8104 38.6503 45.2646 38.6399C45.9018 38.625 46.5391 38.6047 47.1763 38.5816C48.4018 38.5372 49.6268 38.4806 50.8512 38.4174C53.3231 38.2894 55.8351 38.2488 58.2939 37.9538C59.0453 37.8637 59.8847 37.8208 59.8825 36.8782C59.8797 35.8158 59.5996 34.6963 59.3392 33.6735C58.791 31.5213 57.9412 29.458 57.0222 27.4404ZM57.2903 36.9634C56.6629 37.0177 56.034 37.0556 55.4056 37.0979C54.1817 37.1803 52.9573 37.2572 51.7328 37.3281C50.5084 37.399 49.284 37.4643 48.0585 37.5187C47.4707 37.5451 46.8824 37.5687 46.2941 37.5896C45.7722 37.6077 44.9394 37.7972 44.4434 37.6418C43.7914 37.4374 44.0298 36.4948 44.0479 35.9944C44.0715 35.3539 44.0946 34.7128 44.1182 34.0723C44.1644 32.8127 44.2056 31.5537 44.2594 30.2947C44.3006 29.3334 44.3401 28.3677 44.4352 27.4096C44.5214 26.5417 44.4846 25.5694 44.8494 24.7603C45.3756 23.5913 47.4191 23.9094 48.4737 23.844C49.4301 23.7847 50.3854 23.7105 51.3412 23.6397C51.8191 23.6045 52.297 23.5677 52.7749 23.5337C53.3692 23.4908 53.6708 23.5754 54.0021 24.0841C54.5107 24.8663 54.8985 25.7276 55.2979 26.5686C56.0917 28.2397 56.8678 29.9211 57.4891 31.6647C57.7912 32.5122 58.0582 33.373 58.2735 34.2464C58.3807 34.6826 58.4746 35.121 58.5542 35.5632C58.6086 35.8669 58.7773 36.4261 58.7696 36.8106C58.3373 36.9623 57.6907 36.9288 57.2903 36.9634Z" fill="#615BA3"/>
<path d="M48.3554 40.1401C47.9307 39.9314 47.5001 39.9457 47.0342 39.9363C46.5349 39.9264 46.0312 39.9056 45.533 39.9352C44.8117 39.9781 44.8436 40.9487 45.533 41.0333C45.9938 41.0899 46.4635 41.1009 46.9266 41.1223C47.3627 41.1426 47.8264 41.2113 48.2372 41.0415C48.5877 40.8971 48.7783 40.3478 48.3554 40.1401Z" fill="#615BA3"/>
</g>
<defs>
<clipPath id="clip0">
<rect width="72" height="72" fill="white"/>
</clipPath>
</defs>
</svg>
