<svg width="72" height="73" viewBox="0 0 72 73" fill="none" xmlns="http://www.w3.org/2000/svg">
<g clip-path="url(#clip0)">
<path d="M36.0009 44.4756C31.8669 44.4756 28.5009 41.1096 28.5009 36.9756C28.5009 32.8416 31.8669 29.4756 36.0009 29.4756C40.1349 29.4756 43.5009 32.8416 43.5009 36.9756C43.5009 41.1096 40.1349 44.4756 36.0009 44.4756ZM36.0009 32.4756C33.5199 32.4756 31.5009 34.4946 31.5009 36.9756C31.5009 39.4566 33.5199 41.4756 36.0009 41.4756C38.4819 41.4756 40.5009 39.4566 40.5009 36.9756C40.5009 34.4946 38.4819 32.4756 36.0009 32.4756Z" fill="#615BA3"/>
<path d="M36.0009 57.9756C24.4209 57.9756 15.0009 48.5556 15.0009 36.9756C15.0009 25.3956 24.4209 15.9756 36.0009 15.9756C47.5809 15.9756 57.0009 25.3956 57.0009 36.9756C57.0009 48.5556 47.5809 57.9756 36.0009 57.9756ZM36.0009 18.9756C26.0739 18.9756 18.0009 27.0486 18.0009 36.9756C18.0009 46.9026 26.0739 54.9756 36.0009 54.9756C45.9279 54.9756 54.0009 46.9026 54.0009 36.9756C54.0009 27.0486 45.9279 18.9756 36.0009 18.9756Z" fill="#615BA3"/>
<path d="M55.5009 38.4756H42.0009C41.1729 38.4756 40.5009 37.8036 40.5009 36.9756C40.5009 36.1476 41.1729 35.4756 42.0009 35.4756H55.5009C56.3289 35.4756 57.0009 36.1476 57.0009 36.9756C57.0009 37.8036 56.3289 38.4756 55.5009 38.4756Z" fill="#615BA3"/>
<path d="M33.0009 33.2855C32.4819 33.2855 31.9779 33.0155 31.6989 32.5355L24.9489 20.8355C24.5379 20.1185 24.7839 19.2005 25.5009 18.7865C26.2149 18.3725 27.1329 18.6185 27.5499 19.3355L34.2999 31.0355C34.7139 31.7525 34.4679 32.6705 33.7509 33.0845C33.5139 33.2225 33.2559 33.2855 33.0009 33.2855Z" fill="#615BA3"/>
<path d="M26.2509 55.3657C25.9959 55.3657 25.7379 55.3027 25.5009 55.1647C24.7839 54.7507 24.5379 53.8327 24.9519 53.1157L31.7019 41.4157C32.1159 40.6987 33.0339 40.4497 33.7509 40.8667C34.4679 41.2807 34.7139 42.1987 34.2999 42.9157L27.5499 54.6157C27.2709 55.0957 26.7669 55.3657 26.2509 55.3657Z" fill="#615BA3"/>
<path d="M38.3919 72.9756H33.6069C32.0589 72.9756 30.7749 71.8146 30.6219 70.2726L30.2319 66.3846C28.8849 66.1236 27.5619 65.7696 26.2839 65.3346L24.0069 68.5026C23.1069 69.7566 21.4179 70.1286 20.0709 69.3486L15.9309 66.9576C14.5929 66.1836 14.0589 64.5366 14.6949 63.1266L16.2969 59.5776C15.2679 58.6806 14.2959 57.7086 13.3989 56.6796L9.85295 58.2816C8.44895 58.9206 6.79295 58.3866 6.02195 57.0456L3.62795 52.9056C2.85395 51.5646 3.21995 49.8726 4.47395 48.9696L7.64195 46.6926C7.20395 45.4146 6.85295 44.0916 6.59195 42.7446L2.70095 42.3516C1.16195 42.1986 0.000946045 40.9146 0.000946045 39.3666V34.5816C0.000946045 33.0336 1.16195 31.7496 2.70395 31.5966L6.59195 31.2066C6.85295 29.8596 7.20695 28.5366 7.64195 27.2586L4.47395 24.9816C3.21995 24.0816 2.85395 22.3896 3.62795 21.0456L6.01895 16.9056C6.78995 15.5676 8.43695 15.0366 9.84995 15.6696L13.3989 17.2716C14.2959 16.2426 15.2679 15.2706 16.2969 14.3736L14.6949 10.8276C14.0589 9.41459 14.5899 7.76759 15.9309 6.99359L20.0709 4.60259C21.4149 3.82859 23.1069 4.19459 24.0069 5.44859L26.2839 8.61659C27.5619 8.17859 28.8849 7.82759 30.2319 7.56659L30.6219 3.67859C30.7779 2.13659 32.062 0.975586 33.6099 0.975586H38.395C39.943 0.975586 41.227 2.13659 41.38 3.67859L41.77 7.56659C43.117 7.82759 44.4399 8.18159 45.7179 8.61659L47.9949 5.44859C48.8979 4.19459 50.5899 3.82559 51.931 4.60259L56.074 6.99359C57.4119 7.76759 57.946 9.41459 57.31 10.8246L55.708 14.3736C56.7369 15.2706 57.709 16.2426 58.6059 17.2716L62.1519 15.6696C63.5619 15.0366 65.212 15.5646 65.9829 16.9056L68.374 21.0486C69.1479 22.3896 68.782 24.0816 67.528 24.9846L64.3599 27.2616C64.798 28.5396 65.1489 29.8626 65.41 31.2096L69.298 31.5996C70.837 31.7526 71.998 33.0366 71.998 34.5846V39.3696C71.998 40.9176 70.837 42.2016 69.295 42.3546L65.407 42.7446C65.146 44.0916 64.7919 45.4146 64.3569 46.6926L67.5249 48.9696C68.779 49.8726 69.145 51.5646 68.371 52.9056L65.9799 57.0486C65.209 58.3866 63.562 58.9176 62.1489 58.2846L58.6 56.6826C57.703 57.7116 56.7309 58.6836 55.702 59.5806L57.304 63.1266C57.9399 64.5396 57.4089 66.1866 56.0679 66.9576L51.925 69.3486C50.581 70.1226 48.889 69.7566 47.9889 68.5026L45.712 65.3346C44.434 65.7726 43.1109 66.1236 41.7639 66.3846L41.374 70.2726C41.2239 71.8146 39.9399 72.9756 38.3919 72.9756ZM25.7319 62.0376C25.9149 62.0376 26.0979 62.0706 26.275 62.1396C28.0449 62.8266 29.9199 63.3246 31.8459 63.6216C32.5209 63.7266 33.04 64.2756 33.1089 64.9536L33.6099 69.9756H38.395L38.896 64.9536C38.965 64.2726 39.4839 63.7266 40.1589 63.6216C42.0849 63.3216 43.9599 62.8236 45.7299 62.1396C46.366 61.8876 47.0919 62.1066 47.4879 62.6616L50.428 66.7506L54.571 64.3596L52.5039 59.7756C52.2219 59.1516 52.396 58.4196 52.93 57.9906C54.43 56.7816 55.8069 55.4046 57.0159 53.9046C57.4449 53.3736 58.183 53.1936 58.801 53.4786L63.382 55.5456L65.7729 51.4026L61.684 48.4626C61.129 48.0636 60.9159 47.3406 61.1619 46.7046C61.8489 44.9346 62.347 43.0596 62.644 41.1336C62.749 40.4586 63.298 39.9396 63.976 39.8706L69.001 39.3666V34.5816L63.979 34.0806C63.298 34.0116 62.7519 33.4926 62.6469 32.8176C62.347 30.8916 61.849 29.0166 61.165 27.2466C60.919 26.6106 61.135 25.8846 61.687 25.4886L65.7759 22.5486L63.382 18.4056L58.801 20.4726C58.183 20.7546 57.4449 20.5806 57.0159 20.0466C55.8069 18.5466 54.43 17.1696 52.93 15.9606C52.3989 15.5316 52.2249 14.7996 52.5039 14.1756L54.571 9.59459L50.431 7.20059L47.4909 11.2896C47.0949 11.8476 46.3689 12.0576 45.733 11.8116C43.963 11.1246 42.091 10.6266 40.1619 10.3296C39.4869 10.2246 38.9679 9.67559 38.8989 8.99759L38.3919 3.97559H33.6069L33.1059 8.99759C33.0369 9.67859 32.5179 10.2246 31.8429 10.3296C29.9139 10.6296 28.0419 11.1276 26.2719 11.8116C25.6329 12.0546 24.9069 11.8416 24.5139 11.2896L21.5739 7.20059L17.4309 9.59459L19.4979 14.1756C19.7799 14.7996 19.6059 15.5316 19.0719 15.9606C17.5719 17.1696 16.1949 18.5466 14.9859 20.0466C14.5569 20.5776 13.8189 20.7516 13.2009 20.4726L8.61995 18.4026L6.22595 22.5456L10.3149 25.4856C10.8699 25.8846 11.0829 26.6076 10.8369 27.2436C10.1499 29.0136 9.65195 30.8856 9.35495 32.8146C9.24995 33.4896 8.70095 34.0086 8.02295 34.0776L3.00095 34.5846V39.3696L8.02295 39.8706C8.70395 39.9396 9.24995 40.4586 9.35495 41.1336C9.65495 43.0626 10.1529 44.9346 10.8369 46.7046C11.0829 47.3406 10.8669 48.0666 10.3149 48.4626L6.22595 51.4026L8.61695 55.5456L13.2009 53.4786C13.8189 53.1936 14.5569 53.3706 14.9859 53.9046C16.1949 55.4046 17.5719 56.7816 19.0719 57.9906C19.6029 58.4196 19.7769 59.1516 19.4979 59.7756L17.4309 64.3566L21.5739 66.7476L24.5139 62.6586C24.8019 62.2596 25.2579 62.0376 25.7319 62.0376Z" fill="#615BA3"/>
</g>
<defs>
<clipPath id="clip0">
<rect width="72" height="72" fill="white" transform="translate(0.000946045 0.975586)"/>
</clipPath>
</defs>
</svg>
