<svg width="24" height="24" viewBox="0 0 24 24" fill="none" xmlns="http://www.w3.org/2000/svg">
<path d="M23.6949 5.02698L23.699 5.02373L23.3898 4.66292V1.62712C23.3898 0.728491 22.6613 0 21.7627 0H2.23729C1.33866 0 0.610172 0.728491 0.610172 1.62712V4.66292L0.301019 5.02373L0.305087 5.02698C0.240714 5.09888 0.204612 5.19163 0.203392 5.28814V5.69491C0.203392 6.48539 0.492816 7.24856 1.01695 7.84027V23.5932C1.01695 23.8179 1.19909 24 1.42373 24H22.5763C22.8009 24 22.9831 23.8179 22.9831 23.5932V7.84027C23.5072 7.24856 23.7966 6.48539 23.7966 5.69491V5.28814C23.7954 5.19163 23.7593 5.09888 23.6949 5.02698ZM1.42373 1.62712C1.42373 1.17778 1.78795 0.813559 2.23729 0.813559H21.7627C22.2121 0.813559 22.5763 1.17778 22.5763 1.62712V3.7139L21.2583 2.17586C21.1809 2.08566 21.068 2.0338 20.9492 2.0339H3.05085C2.93202 2.0338 2.81909 2.08566 2.7417 2.17586L1.42373 3.7139V1.62712ZM17.2881 5.69491C17.2881 7.04288 16.1954 8.13559 14.8475 8.13559C13.4995 8.13559 12.4068 7.04288 12.4068 5.69491H17.2881ZM12.4068 4.88136V2.84746H16.2065L17.0782 4.88136H12.4068ZM17.0913 2.84746H20.762L22.5051 4.88136H17.963L17.0913 2.84746ZM11.5932 5.69491C11.5932 7.04288 10.5005 8.13559 9.15254 8.13559C7.80458 8.13559 6.71187 7.04288 6.71187 5.69491H11.5932ZM6.03702 4.88136H1.49492L3.23797 2.84746H6.90875L6.03702 4.88136ZM6.92176 4.88136L7.79349 2.84746H11.5932V4.88136H6.92176ZM1.01695 5.69491H5.89831C5.89831 7.04288 4.8056 8.13559 3.45763 8.13559C2.10966 8.13559 1.01695 7.04288 1.01695 5.69491ZM7.93221 23.1864H3.86441V13.8305H7.93221V23.1864ZM22.1695 23.1864H8.74576V21.9661H22.1695V23.1864ZM22.1695 21.1525H8.74576V20.339H22.1695V21.1525ZM22.1695 19.5254H8.74576V13.4237C8.74576 13.1991 8.56363 13.0169 8.33899 13.0169H3.45763C3.23299 13.0169 3.05085 13.1991 3.05085 13.4237V23.1864H1.83051V8.50902C3.37882 9.41008 5.36446 8.88539 6.26553 7.33708C6.279 7.31395 6.29217 7.29061 6.30509 7.26712C7.17193 8.83973 9.14949 9.41186 10.7221 8.54502C11.2603 8.24837 11.7034 7.80529 12 7.26712C12.8668 8.83973 14.8444 9.41186 16.417 8.54502C16.9552 8.24837 17.3983 7.80529 17.6949 7.26712C18.5573 8.83729 20.5294 9.411 22.0995 8.54858C22.123 8.53566 22.1464 8.52249 22.1695 8.50902V19.5254ZM20.5424 8.13559C19.195 8.13427 18.103 7.04232 18.1017 5.69491H22.9831C22.9817 7.04232 21.8898 8.13427 20.5424 8.13559Z" fill="black"/>
<path d="M5.49152 17.4915H4.67796V18.305H5.49152V17.4915Z" fill="black"/>
<path d="M20.5424 10.1694H10.3729C10.1482 10.1694 9.9661 10.3516 9.9661 10.5762V17.8982C9.9661 18.1229 10.1482 18.305 10.3729 18.305H20.5424C20.767 18.305 20.9492 18.1229 20.9492 17.8982V10.5762C20.9492 10.3516 20.767 10.1694 20.5424 10.1694ZM20.1356 17.4915H10.7797V10.983H20.1356V17.4915Z" fill="black"/>
<path d="M3.86441 10.9832H3.05085V11.7967H3.86441V10.9832Z" fill="black"/>
<path d="M5.49152 10.9832H4.67796V11.7967H5.49152V10.9832Z" fill="black"/>
<path d="M7.11864 10.9832H6.30509V11.7967H7.11864V10.9832Z" fill="black"/>
<path d="M8.74576 10.9832H7.93221V11.7967H8.74576V10.9832Z" fill="black"/>
<path d="M16.4081 12.5117L13.5317 15.3884L14.1071 15.9637L16.9834 13.087L16.4081 12.5117Z" fill="black"/>
<path d="M16.9798 14.2361L15.254 15.9619L15.8292 16.5372L17.555 14.8114L16.9798 14.2361Z" fill="black"/>
<path d="M14.6779 11.9348L12.952 13.6606L13.5273 14.2359L15.2531 12.5101L14.6779 11.9348Z" fill="black"/>
</svg>
