<svg width="25" height="25" viewBox="0 0 25 25" fill="none" xmlns="http://www.w3.org/2000/svg">
<path d="M16.5717 12.6283L24.9999 17.9564V7.0752L16.5717 12.6283Z" fill="white"/>
<path d="M0 7.0752V17.9564L8.42813 12.6283L0 7.0752Z" fill="white"/>
<path d="M23.4376 3.90625H1.56259C0.782904 3.90625 0.164154 4.4875 0.0469666 5.23594L12.5001 13.4406L24.9532 5.23594C24.836 4.4875 24.2173 3.90625 23.4376 3.90625Z" fill="white"/>
<path d="M15.1404 13.5719L12.9294 15.0281C12.7982 15.1141 12.6497 15.1562 12.4997 15.1562C12.3497 15.1562 12.2013 15.1141 12.0701 15.0281L9.85912 13.5703L0.0497437 19.775C0.170056 20.5172 0.785681 21.0937 1.56224 21.0937H23.4372C24.2138 21.0937 24.8294 20.5172 24.9497 19.775L15.1404 13.5719Z" fill="white"/>
</svg>
