<svg width="68" height="68" viewBox="0 0 68 68" fill="none" xmlns="http://www.w3.org/2000/svg">
<g clip-path="url(#clip0)">
<path d="M7.93366 30.6001H5.66699V39.6668H7.93366V30.6001Z" fill="white"/>
<path d="M13.5997 30.6001H11.333V39.6668H13.5997V30.6001Z" fill="white"/>
<path d="M19.2667 30.6001H17V39.6668H19.2667V30.6001Z" fill="white"/>
<path d="M24.9337 30.6001H22.667V39.6668H24.9337V30.6001Z" fill="white"/>
<path d="M30.5997 30.6001H28.333V39.6668H30.5997V30.6001Z" fill="white"/>
<path d="M35.1339 49.8667C35.1338 49.8667 35.1335 49.8667 35.1333 49.8667H1.13333C0.507592 49.8666 0.000141696 50.3737 2.96715e-08 50.9995C2.96715e-08 50.9996 2.96715e-08 50.9999 2.96715e-08 51V66.8667C-0.000141637 67.4924 0.507025 67.9999 1.13277 68C1.13291 68 1.13319 68 1.13333 68H35.1333C35.7591 68.0002 36.2665 67.493 36.2667 66.8673C36.2667 66.8671 36.2667 66.8668 36.2667 66.8667V51C36.2668 50.3743 35.7596 49.8668 35.1339 49.8667ZM34 65.7334H2.26667V52.1334H34V65.7334Z" fill="white"/>
<path d="M7.93366 54.3999H5.66699V63.4666H7.93366V54.3999Z" fill="white"/>
<path d="M13.5997 54.3999H11.333V63.4666H13.5997V54.3999Z" fill="white"/>
<path d="M19.2667 54.3999H17V63.4666H19.2667V54.3999Z" fill="white"/>
<path d="M24.9337 54.3999H22.667V63.4666H24.9337V54.3999Z" fill="white"/>
<path d="M30.5997 54.3999H28.333V63.4666H30.5997V54.3999Z" fill="white"/>
<path d="M66.8672 29.4667C66.8671 29.4667 66.8668 29.4667 66.8667 29.4667H62.3333V10.4543C64.8302 8.58259 65.3369 5.04121 63.4652 2.54433C61.5935 0.0474582 58.0522 -0.459283 55.5553 1.41242C54.2403 2.39813 53.4197 3.90745 53.3073 5.54696L22.6667 2.37731V1.13333C22.6668 0.507592 22.1596 0.000141696 21.5339 2.96715e-08C21.5338 2.96715e-08 21.5335 2.96715e-08 21.5333 2.96715e-08H14.7333C14.1076 -0.000141637 13.6001 0.507025 13.6 1.13277C13.6 1.13291 13.6 1.13319 13.6 1.13333V6.8C13.5999 7.42574 14.107 7.93319 14.7328 7.93333C14.7329 7.93333 14.7332 7.93333 14.7333 7.93333H17V11.3333C16.9999 11.9591 17.507 12.4665 18.1328 12.4667C18.1329 12.4667 18.1332 12.4667 18.1333 12.4667H18.7C20.2649 12.4667 21.5333 13.7352 21.5333 15.3C21.5333 16.8648 20.2649 18.1333 18.7 18.1333C17.1351 18.1333 15.8667 16.8648 15.8667 15.3H13.6C13.6054 16.8593 14.3276 18.3295 15.5585 19.2869L1.99878 26.0667H1.13333C0.507592 26.0665 0.000141696 26.5737 2.96715e-08 27.1994C2.96715e-08 27.1996 2.96715e-08 27.1999 2.96715e-08 27.2V43.0667C-0.000141637 43.6924 0.507025 44.1999 1.13277 44.2C1.13291 44.2 1.13319 44.2 1.13333 44.2H35.1333C35.7591 44.2001 36.2665 43.693 36.2667 43.0672C36.2667 43.0671 36.2667 43.0668 36.2667 43.0667V27.2C36.2668 26.5743 35.7596 26.0668 35.1339 26.0667C35.1338 26.0667 35.1335 26.0667 35.1333 26.0667H33.1533L21.2809 19.6738C23.7051 18.2576 24.5221 15.1445 23.1058 12.7203C22.293 11.3289 20.8686 10.4053 19.2667 10.2309V7.93333H21.5333C22.1591 7.93348 22.6665 7.42631 22.6667 6.80057C22.6667 6.80043 22.6667 6.80014 22.6667 6.8V4.65715L53.6213 7.85938C53.9937 8.89143 54.658 9.79299 55.5333 10.4544V29.4667H45.3333C44.7076 29.4665 44.2001 29.9737 44.2 30.5994C44.2 30.5996 44.2 30.5999 44.2 30.6V46.4667H41.9333C41.3076 46.4665 40.8001 46.9737 40.8 47.5994C40.8 47.5996 40.8 47.5999 40.8 47.6V66.8667C40.7999 67.4924 41.307 67.9999 41.9328 68C41.9329 68 41.9332 68 41.9333 68H66.8667C67.4924 68.0001 67.9999 67.493 68 66.8672C68 66.8671 68 66.8668 68 66.8667V30.6C68.0001 29.9743 67.493 29.4668 66.8672 29.4667ZM34 28.3333V41.9333H2.26667V28.3333H34ZM28.3706 26.0667H7.06803L18.1141 20.5439L28.3706 26.0667ZM20.4 5.66667H15.8667V2.26667H20.4V5.66667ZM58.9333 2.55C60.8111 2.55 62.3333 4.07221 62.3333 5.95C62.3333 7.82779 60.8111 9.35 58.9333 9.35C57.0555 9.35 55.5333 7.82779 55.5333 5.95C55.5353 4.07306 57.0564 2.55198 58.9333 2.55ZM61.2 36.4199L64.9751 39.5659L61.2 42.0825V36.4199ZM64.9751 49.7659L61.2 52.2825V46.6201L64.9751 49.7659ZM64.9751 59.9659L61.2 62.4825V56.8201L64.9751 59.9659ZM58.9333 65.7333H43.0667V48.7333H58.9333V65.7333ZM58.9333 46.4667H46.4667V31.7333H58.9333V46.4667ZM60.0667 29.4667H57.8V11.5021C58.5479 11.6548 59.3188 11.6548 60.0667 11.5021V29.4667ZM65.7333 65.7333H61.2V65.2065L65.7333 62.1843V65.7333ZM65.7333 57.6466L61.9582 54.5006L65.7333 51.9842V57.6466ZM65.7333 47.4466L61.9582 44.3006L65.7333 41.7842V47.4466ZM65.7333 37.2466L61.2 33.4688V31.7333H65.7333V37.2466Z" fill="white"/>
<path d="M58.9334 4.25C57.9946 4.25 57.2334 5.01117 57.2334 5.95C57.2344 6.8884 57.995 7.64901 58.9334 7.65C59.8722 7.65 60.6334 6.88882 60.6334 5.95C60.6334 5.01117 59.8722 4.25 58.9334 4.25ZM58.9334 6.51667C58.6205 6.51667 58.3667 6.26294 58.3667 5.95C58.3672 5.6372 58.6206 5.38376 58.9334 5.38333C59.2463 5.38333 59.5001 5.63706 59.5001 5.95C59.5001 6.26294 59.2463 6.51667 58.9334 6.51667Z" fill="white"/>
</g>
<defs>
<clipPath id="clip0">
<rect width="68" height="68" fill="white"/>
</clipPath>
</defs>
</svg>
