<svg width="11" height="12" viewBox="0 0 11 12" fill="none" xmlns="http://www.w3.org/2000/svg">
<path d="M9.12312 3.98502H6.97967V2.29067C6.97967 1.47778 6.76936 0.887692 6.35299 0.537559C5.6987 -0.0157974 4.8086 0.29516 4.77037 0.30985C4.61954 0.363717 4.51545 0.527765 4.51545 0.711401V2.75588C4.51545 4.26904 2.97106 4.79547 2.9052 4.81505C2.90096 4.8175 2.89671 4.8175 2.89458 4.81995L2.71826 4.88361C2.51858 4.6657 2.25091 4.53348 1.95775 4.53348H1.28859C0.676781 4.53103 0.179688 5.10397 0.179688 5.80914V10.2066C0.179688 10.9118 0.676781 11.4847 1.28859 11.4847H1.95775C2.24029 11.4847 2.49946 11.3623 2.6949 11.1591C2.97531 11.5435 3.39592 11.7908 3.8654 11.7908H8.20753C9.21447 11.7908 9.88363 11.1542 10.0005 10.0891L10.54 6.18375L10.5698 5.97319C10.5825 5.87525 10.591 5.77486 10.591 5.67447C10.5889 4.74405 9.93037 3.98502 9.12312 3.98502ZM2.33801 10.2091C2.33801 10.4515 2.16806 10.6473 1.95775 10.6473H1.28859C1.07828 10.6473 0.908333 10.4515 0.908333 10.2091V5.80914C0.908333 5.56674 1.07828 5.37086 1.28859 5.37086H1.95775C2.16806 5.37086 2.33801 5.56674 2.33801 5.80914V10.2091ZM9.84964 5.84342L9.28032 9.96666C9.28032 9.97155 9.2782 9.97645 9.2782 9.98135C9.2527 10.2213 9.17623 10.9534 8.20753 10.9534H3.8654C3.42567 10.9534 3.06665 10.5396 3.06665 10.0328V5.80914C3.06665 5.75282 3.0624 5.69651 3.05603 5.64019L3.10914 5.6206C3.26422 5.56919 5.24409 4.86892 5.24409 2.75343V1.05664C5.4544 1.03215 5.73056 1.04929 5.92388 1.21579C6.14056 1.40187 6.25103 1.7618 6.25103 2.29067V4.40616C6.25103 4.63876 6.4146 4.8273 6.61641 4.8273H9.12312C9.53099 4.8273 9.86026 5.20926 9.86026 5.67692C9.86026 5.73079 9.85602 5.7871 9.84964 5.84342Z" fill="#87029C"/>
</svg>
