<svg xmlns="http://www.w3.org/2000/svg" width="392.954" height="315.088" viewBox="0 0 103.969 83.367" xmlns:v="https://vecta.io/nano"><defs><clipPath id="A"><path d="M627.48 1634.04C627.48 566.95 1174.81 23.58 2265.61-.03h12694.9c169.27 3.69 325.48 19.96 468.5 48.62-402.69 1563.46-2038.25 2719.5-3452.24 3160.66l-7238.35-19.76c-598.59 0-897.81 314.96-897.81 945.01v10328.46c39.38 1075-488.26 1606.5-1578.96 1598.72-1090.8-19.76-1634.17-563.13-1634.17-1622.33V1634.05zm15921.4-509.33c33.09 153.94 49.74 323.69 49.74 509.33v12805.3c0 1059.2-543.37 1602.57-1634.14 1622.33-1090.7 7.78-1618.37-523.71-1578.96-1598.72V3947.36c1785.45-705.5 2728.5-1761.02 3163.36-2822.66zm18000.21 7990.61c-190.99 1931.68-909.45 3517.23-2153.15 4760.93-1460.95 1460.84-3402.13 2189.35-5815.97 2189.35-2401.93 0-4347.18-732.47-5839.48-2201.2-1468.76-1468.76-2205.09-3409.94-2205.09-5831.6 0-2390.16 736.33-4315.64 2205.09-5784.47C22248.6 763.87 24193.78 23.59 26579.97 23.59c2402 0 4339.33 740.28 5815.97 2224.74 1155.97 1156.03 1858.15 2594.95 2104.84 4320.72-374.95 1524.96-1947.14 2686.95-3367.35 3200.41 169.37-517.69 254.46-1092.66 254.46-1724.92 0-1496.27-504.06-2693.34-1512.07-3587.2-882.01-815.06-1984.56-1220.66-3307.63-1220.66-1413.61 0-2579.15 456.76-3492.67 1370.27-885.97 901.77-1327.03 2047.66-1327.03 3437.59 0 2039.77 826.9 3461.2 2480.7 4268.44 704.86 358.3 1484.56 539.41 2339 539.41 1664.15 0 2943.21-572.81 3831.72-1718.42 2027.15-403.6 3336.29-1152.38 4149.18-2018.66z"/></clipPath></defs><g transform="matrix(.002956 0 0 .002956 .00003 .000089)" fill-rule="evenodd" image-rendering="optimizeQuality" shape-rendering="geometricPrecision" text-rendering="geometricPrecision"><g fill="#fff"><path d="M2447.3 28206.06c-27.41 0-51.36-10.29-71.9-30.82-20.54-20.54-30.82-44.53-30.82-71.9v-4451.82c0-27.37 10.29-51.39 30.82-71.93 20.54-20.54 44.49-30.82 71.9-30.82h89.05c59.34 0 93.58 31.97 102.72 95.92l27.41 219.14h47.94c146.13-136.96 299.06-232.88 458.89-287.66 159.8-54.78 303.62-82.18 431.48-82.18 210.01 0 404.08 41.11 582.15 123.26 178.1 82.22 331.03 197.49 458.89 345.92 127.82 148.36 227.13 325.31 297.94 530.79 70.75 205.47 106.14 431.45 106.14 678.03 0 246.55-35.39 472.56-106.14 678.06-70.81 205.47-170.12 382.36-297.94 530.79-127.86 148.4-280.79 263.67-458.89 345.85-178.07 82.22-372.14 123.29-582.15 123.29-59.38 0-121.02-2.27-184.94-6.83-63.91-4.57-132.43-15.97-205.47-34.24-73.05-18.27-152.93-45.71-239.71-82.22-86.75-36.51-182.6-86.75-287.66-150.66v1527.33c0 27.37-10.29 51.36-30.82 71.9-20.54 20.54-44.49 30.82-71.9 30.82H2447.3zm239.71-2013.59c146.13 109.59 300.21 191.77 462.31 246.55 162.06 54.78 313.91 82.22 455.47 82.22 159.8 0 305.93-32.01 438.32-95.92 132.43-63.91 246.55-155.2 342.47-273.95 95.85-118.69 170.05-261.4 222.59-428.03 52.51-166.67 78.73-350.45 78.73-551.36 0-200.87-26.22-383.54-78.73-547.91-52.54-164.36-126.74-305.93-222.59-424.61-95.92-118.76-210.04-211.19-342.47-277.4-132.39-66.21-278.52-99.3-438.32-99.3-118.72 0-226.01 14.82-321.93 44.49-95.89 29.71-181.48 66.25-256.83 109.62-75.31 43.34-140.38 92.43-195.19 147.21-54.81 54.81-102.75 107.32-143.83 157.53v1910.87zm5190.15-2698.49c223.74 0 426.92 41.11 609.58 123.26 182.6 82.22 339.02 197.49 469.11 345.92 130.16 148.36 230.58 325.31 301.36 530.79 70.78 205.47 106.17 431.45 106.17 678.03 0 246.55-35.39 472.56-106.17 678.06-70.78 205.47-171.2 382.36-301.36 530.79-130.09 148.4-286.51 263.67-469.11 345.85-182.67 82.22-385.84 123.29-609.58 123.29-219.18 0-420.05-41.07-602.68-123.29-182.67-82.18-339.02-197.45-469.17-345.85-130.16-148.43-230.58-325.31-301.36-530.79-70.75-205.51-106.17-431.52-106.17-678.06 0-246.58 35.42-472.56 106.17-678.03 70.78-205.47 171.2-382.42 301.36-530.79 130.16-148.43 286.51-263.7 469.17-345.92 182.64-82.15 383.51-123.26 602.68-123.26zm0 3027.25c164.4 0 315.03-30.86 452.02-92.5 136.96-61.61 255.72-150.63 356.14-267.08 100.49-116.42 178.1-257.98 232.88-424.61 54.78-166.67 82.18-355.02 82.18-565.06 0-205.44-27.41-391.53-82.18-558.19-54.78-166.63-132.39-308.19-232.88-424.61-100.42-116.46-219.18-206.62-356.14-270.54-136.99-63.95-287.62-95.89-452.02-95.89s-315.06 31.94-452.05 95.89c-136.96 63.91-254.53 154.08-352.68 270.54-98.15 116.42-174.68 257.98-229.46 424.61-54.78 166.67-82.18 352.75-82.18 558.19 0 210.04 27.41 398.39 82.18 565.06 54.78 166.63 131.31 308.19 229.46 424.61 98.15 116.46 215.72 205.47 352.68 267.08 136.99 61.65 287.66 92.5 452.05 92.5zm3738.2 328.73c-191.8 0-364.15-20.54-517.12-61.61-152.96-41.14-304.81-100.49-455.47-178.1-36.51-22.84-54.78-52.51-54.78-89.02 0-13.7 4.57-29.67 13.7-47.98l75.31-130.12c22.84-36.51 50.24-54.78 82.18-54.78 9.14 0 27.41 4.57 54.84 13.7 109.55 63.91 221.41 116.42 335.56 157.5 114.16 41.14 251.15 61.68 410.91 61.68 95.92 0 187.24-10.29 273.95-30.86 86.78-20.54 162.13-54.78 226.04-102.72 63.95-47.94 115.31-109.55 154.11-184.94 38.81-75.31 58.19-165.48 58.19-270.54 0-73.05-20.54-140.38-61.61-202.06-41.11-61.61-93.65-117.54-157.56-167.75-63.91-50.24-138.08-98.15-222.59-143.86-84.45-45.64-170.05-89.02-256.83-130.09-104.99-54.81-210.01-111.85-315.03-171.23s-199.79-125.56-284.24-198.64c-84.45-73.05-152.93-156.38-205.47-250-52.51-93.58-78.77-199.72-78.77-318.48 0-136.96 25.1-259.1 75.35-366.39 50.21-107.32 118.72-197.49 205.47-270.54 86.78-73.05 186.05-127.86 297.91-164.4 111.89-36.51 227.16-54.78 345.92-54.78 132.39 0 268.23 20.54 407.46 61.65 139.29 41.07 275.1 93.62 407.53 157.53 41.11 22.84 61.65 52.51 61.65 89.02 0 13.7-4.57 29.67-13.7 47.94l-61.61 123.29c-22.84 36.54-52.54 54.81-89.08 54.81-13.67 0-29.67-4.57-47.91-13.7-118.72-63.91-230.61-111.85-335.6-143.86-105.05-31.94-205.47-47.91-301.36-47.91-159.83 0-297.91 44.49-414.36 133.54-116.42 89.05-174.65 211.19-174.65 366.42 0 77.65 19.39 147.28 58.23 208.89 38.81 61.65 92.43 117.57 160.91 167.82 68.48 50.21 147.28 99.3 236.3 147.24 89.08 47.91 181.52 94.77 277.4 140.41 118.72 59.34 229.43 119.84 332.15 181.52 102.75 61.61 192.92 127.82 270.57 198.57 77.61 70.81 138.11 150.7 181.48 239.71 43.37 89.02 65.03 190.65 65.03 304.78 0 159.83-27.37 299.06-82.15 417.81-54.81 118.69-128.97 216.87-222.59 294.49-93.62 77.61-202.02 134.73-325.35 171.23-123.26 36.51-253.38 54.78-390.34 54.78zm2916.27-157.53c0 27.41-10.29 51.36-30.82 71.93-20.54 20.54-44.56 30.82-71.93 30.82h-136.96c-27.41 0-51.36-10.29-71.93-30.82-20.57-20.57-30.79-44.53-30.79-71.93v-3040.92c0-27.37 10.22-51.39 30.79-71.93s44.53-30.82 71.93-30.82h136.96c27.37 0 51.39 10.29 71.93 30.82 20.54 20.54 30.82 44.56 30.82 71.93zm89.02-3979.23c0 77.61-23.99 138.14-71.9 181.52-47.94 43.37-110.77 65.06-188.35 65.06-77.61 0-140.41-21.69-188.35-65.06s-71.93-103.9-71.93-181.52c0-77.58 23.99-136.99 71.93-178.07 47.94-41.07 110.74-61.65 188.35-61.65 77.58 0 140.41 20.57 188.35 61.65 47.91 41.07 71.9 100.49 71.9 178.07zm3382 3897.05v13.7c0 22.84-5.68 43.37-17.12 61.65-11.4 18.24-28.52 31.94-51.36 41.07-127.86 45.68-255.68 77.65-383.54 95.92-127.82 18.24-242.01 27.37-342.43 27.37-273.95 0-485.14-67.33-633.54-202.06-148.4-134.66-222.59-345.85-222.59-633.5v-2157.42h-232.84c-27.41 0-51.36-10.29-71.93-30.82-20.54-20.54-30.79-44.53-30.79-71.9v-102.75c0-27.37 10.25-51.39 30.79-71.93 20.57-20.54 44.53-30.82 71.93-30.82h232.84v-397.21c0-45.64 22.84-77.65 68.48-95.89l136.99-54.81c9.14-4.57 20.57-6.83 34.24-6.83 27.41 0 51.36 9.14 71.93 27.37 20.54 18.27 30.79 43.37 30.79 75.35v452.02h828.73c27.41 0 51.36 10.29 71.93 30.82 20.57 20.54 30.82 44.56 30.82 71.93v102.75c0 27.37-10.25 51.36-30.82 71.9s-44.53 30.82-71.93 30.82h-828.73v2109.44c0 164.4 46.83 297.97 140.44 400.69 93.58 102.72 240.86 154.11 441.73 154.11 73.08 0 159.8-7.98 260.25-23.95 100.45-16.04 198.64-39.99 294.49-71.96 9.17-4.57 20.54-6.83 34.27-6.83 45.68 0 77.61 25.1 95.89 75.31l41.07 116.46zm1710.91 82.18c0 27.41-10.29 51.36-30.82 71.93-20.54 20.54-44.56 30.82-71.93 30.82h-136.96c-27.41 0-51.36-10.29-71.93-30.82-20.57-20.57-30.79-44.53-30.79-71.93v-3040.92c0-27.37 10.22-51.39 30.79-71.93s44.53-30.82 71.93-30.82h136.96c27.37 0 51.39 10.29 71.93 30.82 20.54 20.54 30.82 44.56 30.82 71.93zm89.02-3979.23c0 77.61-23.99 138.14-71.9 181.52-47.94 43.37-110.77 65.06-188.35 65.06-77.61 0-140.41-21.69-188.35-65.06s-71.93-103.9-71.93-181.52c0-77.58 23.99-136.99 71.93-178.07 47.94-41.07 110.74-61.65 188.35-61.65 77.58 0 140.41 20.57 188.35 61.65 47.91 41.07 71.9 100.49 71.9 178.07zm3649.12 904.04c18.27-45.64 50.21-68.48 95.92-68.48h164.33c68.48 0 102.72 31.97 102.72 95.92 0 18.27-2.23 31.97-6.8 41.07l-486.29 1287.61-195.19 520.53-184.94 496.55-157.5 428.03-113.04 308.19c-18.27 45.68-50.21 68.51-95.89 68.51h-184.9c-45.68 0-77.61-22.84-95.89-68.51l-499.96-1349.23-195.22-530.79-184.94-493.13-154.08-404.08c-45.64-116.46-77.65-204.32-95.89-263.7-4.57-9.1-6.87-22.8-6.87-41.07 0-63.95 34.24-95.92 102.75-95.92h157.53c45.68 0 77.61 22.84 95.89 68.48l951.98 2657.41h41.07l945.18-2657.41zm1888.94 2958.77c0 91.32-26.26 159.8-78.77 205.47-52.48 45.68-122.11 68.48-208.89 68.48-86.75 0-156.35-22.8-208.86-68.48-52.54-45.68-78.8-114.16-78.8-205.47 0-82.22 26.26-147.28 78.8-195.19 52.51-47.94 122.11-71.93 208.86-71.93 86.78 0 156.41 23.99 208.89 71.93 52.51 47.91 78.77 112.97 78.77 195.19zm3840.89 47.94c18.27 18.27 27.41 43.37 27.41 75.31 0 63.91-34.24 95.92-102.72 95.92h-198.64c-9.14 0-22.8-4.57-41.07-13.7-18.27-9.14-31.97-18.3-41.07-27.37l-671.23-808.22-263.67-318.48-246.58-301.32c-75.31-93.58-140.38-178.1-195.15-253.42l-123.32-174.65h-41.07v1794.41c0 27.41-10.29 51.36-30.82 71.93-20.54 20.54-44.49 30.82-71.9 30.82h-136.99c-27.41 0-51.36-10.29-71.9-30.82-20.54-20.57-30.82-44.53-30.82-71.93v-4451.79c0-27.41 10.29-51.36 30.82-71.93 20.54-20.54 44.49-30.79 71.9-30.79h136.99c27.41 0 51.36 10.25 71.9 30.79 20.54 20.57 30.82 44.53 30.82 71.93v2493.01h41.07c45.68-45.64 123.32-117.61 232.88-215.76l359.55-318.44 386.99-332.21 308.19-263.67c13.7-9.14 31.97-20.57 54.78-34.24 22.84-13.7 50.28-20.57 82.22-20.57h130.12c31.94 0 57.04 10.29 75.31 30.82 18.27 20.54 27.44 44.56 27.44 71.93 0 31.97-11.47 57.08-34.27 75.35l-1267.08 1116.35 623.29 746.54 253.42 304.78 246.55 291.07 215.76 253.42 160.91 184.94zm1752.02-136.99h1794.41c27.41 0 51.36 10.32 71.9 30.86s30.82 44.49 30.82 71.9v102.72c0 27.41-10.29 51.36-30.82 71.93-20.54 20.54-44.49 30.82-71.9 30.82h-2191.65c-31.94 0-58.23-11.4-78.77-34.24-20.57-22.87-30.82-50.24-30.82-82.22 0-18.27 6.83-38.81 20.54-61.61l1767.04-2760.13h-1623.18c-27.41 0-51.36-10.29-71.96-30.82-20.54-20.54-30.79-44.53-30.79-71.9v-102.75c0-27.37 10.25-51.39 30.79-71.93 20.6-20.54 44.56-30.82 71.96-30.82h2040.96c31.97 0 58.23 11.44 78.77 34.24 20.54 22.84 30.82 50.28 30.82 82.22 0 22.84-6.87 43.37-20.54 61.65l-1787.58 2760.1z" fill-rule="nonzero"/><rect x="-.01" y="19555.07" width="35176.621" height="89.99" rx="158.49" ry="45.01"/><path d="M627.48 1634.04C627.48 566.95 1174.81 23.58 2265.61-.03h12694.9c169.27 3.69 325.48 19.96 468.5 48.62-402.69 1563.46-2038.25 2719.5-3452.24 3160.66l-7238.35-19.76c-598.59 0-897.81 314.96-897.81 945.01v10328.46c39.38 1075-488.26 1606.5-1578.96 1598.72-1090.8-19.76-1634.17-563.13-1634.17-1622.33V1634.05zm15921.4-509.33c33.09 153.94 49.74 323.69 49.74 509.33v12805.3c0 1059.2-543.37 1602.57-1634.14 1622.33-1090.7 7.78-1618.37-523.71-1578.96-1598.72V3947.36c1785.45-705.5 2728.5-1761.02 3163.36-2822.66zm18000.21 7990.61c-190.99 1931.68-909.45 3517.23-2153.15 4760.93-1460.95 1460.84-3402.13 2189.35-5815.97 2189.35-2401.93 0-4347.18-732.47-5839.48-2201.2-1468.76-1468.76-2205.09-3409.94-2205.09-5831.6 0-2390.16 736.33-4315.64 2205.09-5784.47C22248.6 763.87 24193.78 23.59 26579.97 23.59c2402 0 4339.33 740.28 5815.97 2224.74 1155.97 1156.03 1858.15 2594.95 2104.84 4320.72-374.95 1524.96-1947.14 2686.95-3367.35 3200.41 169.37-517.69 254.46-1092.66 254.46-1724.92 0-1496.27-504.06-2693.34-1512.07-3587.2-882.01-815.06-1984.56-1220.66-3307.63-1220.66-1413.61 0-2579.15 456.76-3492.67 1370.27-885.97 901.77-1327.03 2047.66-1327.03 3437.59 0 2039.77 826.9 3461.2 2480.7 4268.44 704.86 358.3 1484.56 539.41 2339 539.41 1664.15 0 2943.21-572.81 3831.72-1718.42 2027.15-403.6 3336.29-1152.38 4149.18-2018.66z"/></g><g clip-path="url(#A)"><path d="M16835.86 6736.01c8055.3 5788.7 10829.94 5756.66 20720.19-73.96v16344.59l-20720.19 73.96z" fill="#f0d02d"/></g></g></svg>