<svg width="30" height="30" viewBox="0 0 30 30" fill="none" xmlns="http://www.w3.org/2000/svg">
<path d="M11.3072 12.3951C12.4455 12.3951 13.3682 11.4723 13.3682 10.334C13.3682 9.19572 12.4455 8.27295 11.3072 8.27295C10.1689 8.27295 9.24609 9.19572 9.24609 10.334C9.24609 11.4723 10.1689 12.3951 11.3072 12.3951Z" fill="#101010"/>
<path d="M28.2252 17.9201C27.2519 17.004 26.021 16.4029 24.6756 16.2311V5.75403C24.6756 4.63762 24.2176 3.63571 23.5019 2.89144C22.7576 2.14716 21.7557 1.71777 20.6393 1.71777H4.03626C2.91985 1.71777 1.91794 2.17579 1.17366 2.89144C0.429389 3.63571 0 4.63762 0 5.75403V18.9506V20.1815V22.8437C0 23.9601 0.458015 24.962 1.17366 25.7063C1.91794 26.4506 2.91985 26.88 4.03626 26.88H20.0954C21.1546 27.7388 22.4714 28.2827 23.9313 28.2827C25.6202 28.2827 27.1374 27.5956 28.2252 26.5078C29.313 25.4201 30 23.9029 30 22.214C30 20.525 29.313 19.0078 28.2252 17.9201ZM1.51718 5.75403C1.51718 5.06701 1.80344 4.43724 2.26145 4.00785C2.71947 3.54983 3.34924 3.26357 4.03626 3.26357H20.6393C21.3263 3.26357 21.9561 3.54983 22.4141 4.00785C22.8721 4.46586 23.1584 5.09564 23.1584 5.78266V14.714L18.9218 10.4773C18.6355 10.1911 18.1489 10.1624 17.834 10.4773L11.4504 16.8895L7.12786 12.5384C6.8416 12.2521 6.35496 12.2235 6.04008 12.5384L1.51718 17.1185V5.75403ZM4.00763 25.4201V25.3628C3.32061 25.3628 2.69084 25.0766 2.23282 24.6185C1.80344 24.1605 1.51718 23.5308 1.51718 22.8437V20.1815V19.2941L6.58397 14.1987L10.9065 18.5212C11.1927 18.8075 11.6794 18.8075 11.9943 18.5212L18.3779 12.109L22.5573 16.317C22.4714 16.3456 22.3855 16.3743 22.2996 16.4029C22.1851 16.4315 22.0706 16.4601 21.9275 16.5174C21.813 16.546 21.6985 16.6033 21.584 16.6319C21.4981 16.6605 21.4408 16.6891 21.355 16.7464C21.2405 16.8037 21.1546 16.8323 21.0687 16.8895C20.9256 16.9754 20.7824 17.0613 20.6393 17.1472C20.5534 17.2044 20.4962 17.233 20.4103 17.2903C20.3531 17.3189 20.3244 17.3475 20.2672 17.3762C20.0095 17.5479 19.7805 17.7483 19.5802 17.9773C18.4924 19.0651 17.8053 20.5823 17.8053 22.2712C17.8053 22.7006 17.8626 23.1014 17.9485 23.5307C17.9771 23.6453 18.0057 23.7311 18.0344 23.8456C18.1202 24.1319 18.2061 24.4182 18.3206 24.7044V24.733C18.4351 24.962 18.5496 25.2197 18.6927 25.4201H4.00763ZM27.1088 25.4201C26.2786 26.2502 25.1622 26.7369 23.9027 26.7369C22.7004 26.7369 21.584 26.2502 20.7824 25.4773C20.6679 25.3628 20.5534 25.2197 20.4389 25.1052C20.3531 25.0193 20.2672 24.9048 20.1813 24.8189C20.0668 24.6758 19.9809 24.504 19.895 24.3323C19.8378 24.2178 19.7805 24.1319 19.7233 24.0174C19.666 23.8743 19.6088 23.7025 19.5802 23.5307C19.5515 23.4162 19.4943 23.2731 19.4656 23.1586C19.4084 22.8724 19.3798 22.5575 19.3798 22.2426C19.3798 20.983 19.895 19.8666 20.6966 19.0365C21.4981 18.2063 22.6431 17.7197 23.9027 17.7197C25.1622 17.7197 26.2786 18.2349 27.1088 19.0365C27.9389 19.8666 28.4256 20.983 28.4256 22.2426C28.4256 23.4735 27.9103 24.5899 27.1088 25.4201Z" fill="#101010"/>
<path d="M24.4464 19.1509C24.3892 19.0936 24.3033 19.0364 24.1888 18.9791C24.1029 18.9505 24.017 18.9219 23.9312 18.9219C23.9025 18.9219 23.9025 18.9219 23.9025 18.9219C23.8739 18.9219 23.8739 18.9219 23.8739 18.9219C23.788 18.9219 23.7022 18.9505 23.6163 18.9791C23.5304 19.0078 23.4445 19.065 23.3586 19.1509L21.5838 20.9257C21.2976 21.212 21.2976 21.6986 21.5838 22.0135C21.8701 22.2997 22.3567 22.2997 22.6716 22.0135L23.1296 21.5555V24.7043C23.1296 25.1337 23.4731 25.4772 23.9025 25.4772C24.3319 25.4772 24.6754 25.1337 24.6754 24.7043V21.5555L25.1335 22.0135C25.4197 22.2997 25.9064 22.2997 26.2212 22.0135C26.5075 21.7272 26.5075 21.2406 26.2212 20.9257L24.4464 19.1509Z" fill="#101010"/>
</svg>
