<svg width="87" height="63" viewBox="0 0 87 63" fill="none" xmlns="http://www.w3.org/2000/svg">
<path d="M69.9219 49.5781C70.747 49.5781 71.5536 49.8228 72.2397 50.2812C72.9257 50.7396 73.4604 51.3912 73.7762 52.1535C74.092 52.9158 74.1746 53.7546 74.0136 54.5639C73.8526 55.3732 73.4553 56.1165 72.8719 56.7C72.2884 57.2834 71.545 57.6807 70.7358 57.8417C69.9265 58.0027 69.0877 57.9201 68.3254 57.6043C67.5631 57.2885 66.9115 56.7538 66.4531 56.0678C65.9947 55.3817 65.75 54.5751 65.75 53.75C65.7513 52.6439 66.1913 51.5836 66.9734 50.8015C67.7555 50.0194 68.8158 49.5794 69.9219 49.5781ZM69.9219 55.1406C70.1969 55.1406 70.4658 55.0591 70.6945 54.9063C70.9232 54.7535 71.1014 54.5363 71.2067 54.2822C71.3119 54.0281 71.3395 53.7485 71.2858 53.4787C71.2321 53.2089 71.0997 52.9612 70.9052 52.7667C70.7107 52.5722 70.4629 52.4398 70.1932 52.3861C69.9234 52.3324 69.6438 52.36 69.3897 52.4652C69.1356 52.5705 68.9184 52.7487 68.7656 52.9774C68.6128 53.2061 68.5313 53.475 68.5313 53.75C68.5317 54.1187 68.6783 54.4722 68.939 54.7329C69.1997 54.9936 69.5532 55.1402 69.9219 55.1406Z" fill="#615BA3"/>
<path d="M15.6875 49.5781C16.5126 49.5781 17.3192 49.8228 18.0053 50.2812C18.6913 50.7396 19.226 51.3912 19.5418 52.1535C19.8576 52.9158 19.9402 53.7546 19.7792 54.5639C19.6182 55.3732 19.2209 56.1165 18.6375 56.7C18.054 57.2834 17.3107 57.6807 16.5014 57.8417C15.6921 58.0027 14.8533 57.9201 14.091 57.6043C13.3287 57.2885 12.6771 56.7538 12.2187 56.0678C11.7603 55.3817 11.5156 54.5751 11.5156 53.75C11.5169 52.6439 11.9569 51.5836 12.739 50.8015C13.5211 50.0194 14.5814 49.5794 15.6875 49.5781ZM15.6875 55.1406C15.9625 55.1406 16.2314 55.0591 16.4601 54.9063C16.6888 54.7535 16.867 54.5363 16.9723 54.2822C17.0775 54.0281 17.1051 53.7485 17.0514 53.4787C16.9977 53.2089 16.8653 52.9612 16.6708 52.7667C16.4763 52.5722 16.2286 52.4398 15.9588 52.3861C15.689 52.3324 15.4094 52.36 15.1553 52.4652C14.9012 52.5705 14.684 52.7487 14.5312 52.9774C14.3784 53.2061 14.2969 53.475 14.2969 53.75C14.2973 54.1187 14.4439 54.4722 14.7046 54.7329C14.9653 54.9936 15.3188 55.1402 15.6875 55.1406Z" fill="#615BA3"/>
<path d="M5.25781 0.90625H55.3203C56.6107 0.907676 57.8479 1.42093 58.7604 2.33339C59.6728 3.24586 60.1861 4.48302 60.1875 5.77344V13.4219H74.0938C74.3389 13.4221 74.5797 13.4869 74.7919 13.6099C75.004 13.7329 75.1799 13.9097 75.3019 14.1224L86.4269 33.5912C86.5466 33.8014 86.6095 34.0393 86.6094 34.2812V50.2734C86.6079 51.5639 86.0947 52.801 85.1822 53.7135C84.2698 54.6259 83.0326 55.1392 81.7422 55.1406H78.1474C77.8191 57.0847 76.8128 58.8497 75.3071 60.1224C73.8014 61.3952 71.8935 62.0936 69.9219 62.0936C67.9503 62.0936 66.0424 61.3952 64.5366 60.1224C63.0309 58.8497 62.0246 57.0847 61.6963 55.1406H23.913C23.5847 57.0847 22.5785 58.8497 21.0727 60.1224C19.567 61.3952 17.6591 62.0936 15.6875 62.0936C13.7159 62.0936 11.808 61.3952 10.3023 60.1224C8.79652 58.8497 7.79025 57.0847 7.46195 55.1406H5.25781C3.96739 55.1392 2.73023 54.6259 1.81777 53.7135C0.905304 52.801 0.392052 51.5639 0.390625 50.2734V5.77344C0.392052 4.48302 0.905304 3.24586 1.81777 2.33339C2.73023 1.42093 3.96739 0.907676 5.25781 0.90625ZM75.6704 20.375H65.75V32.8906H82.8217L75.6704 20.375ZM83.8281 39.8438H81.0469C80.6781 39.8438 80.3243 39.9903 80.0636 40.2511C79.8028 40.5118 79.6562 40.8656 79.6562 41.2344C79.6562 41.6032 79.8028 41.9569 80.0636 42.2177C80.3243 42.4785 80.6781 42.625 81.0469 42.625H83.8281V39.8438ZM69.9219 59.3125C71.022 59.3125 72.0975 58.9863 73.0122 58.375C73.927 57.7638 74.6399 56.8951 75.061 55.8787C75.482 54.8623 75.5921 53.7438 75.3775 52.6648C75.1629 51.5858 74.6331 50.5947 73.8552 49.8167C73.0772 49.0388 72.0861 48.509 71.0071 48.2944C69.928 48.0798 68.8096 48.1899 67.7932 48.6109C66.7768 49.0319 65.908 49.7449 65.2968 50.6596C64.6856 51.5744 64.3594 52.6498 64.3594 53.75C64.3613 55.2247 64.948 56.6384 65.9907 57.6811C67.0335 58.7239 68.4472 59.3106 69.9219 59.3125ZM60.1875 52.3594H61.6963C62.0246 50.4153 63.0309 48.6503 64.5366 47.3776C66.0424 46.1048 67.9503 45.4064 69.9219 45.4064C71.8935 45.4064 73.8014 46.1048 75.3071 47.3776C76.8128 48.6503 77.8191 50.4153 78.1474 52.3594H81.7422C82.2953 52.3589 82.8256 52.139 83.2167 51.7479C83.6077 51.3568 83.8277 50.8265 83.8281 50.2734V45.4062H81.0469C79.9404 45.4062 78.8793 44.9667 78.0969 44.1843C77.3145 43.402 76.875 42.3408 76.875 41.2344C76.875 40.1279 77.3145 39.0668 78.0969 38.2844C78.8793 37.502 79.9404 37.0625 81.0469 37.0625H83.8281V35.6719H64.3594C63.9906 35.6719 63.6368 35.5254 63.3761 35.2646C63.1153 35.0038 62.9688 34.6501 62.9688 34.2812V18.9844C62.9688 18.6156 63.1153 18.2618 63.3761 18.0011C63.6368 17.7403 63.9906 17.5938 64.3594 17.5938H74.0816L73.2872 16.2031H60.1875V52.3594ZM15.6875 59.3125C16.7877 59.3125 17.8631 58.9863 18.7779 58.375C19.6926 57.7638 20.4056 56.8951 20.8266 55.8787C21.2476 54.8623 21.3577 53.7438 21.1431 52.6648C20.9285 51.5858 20.3987 50.5947 19.6208 49.8167C18.8428 49.0388 17.8517 48.509 16.7727 48.2944C15.6937 48.0798 14.5752 48.1899 13.5588 48.6109C12.5424 49.0319 11.6737 49.7449 11.0625 50.6596C10.4512 51.5744 10.125 52.6498 10.125 53.75C10.1269 55.2247 10.7136 56.6384 11.7564 57.6811C12.7991 58.7239 14.2128 59.3106 15.6875 59.3125ZM3.17188 50.2734C3.17233 50.8265 3.39225 51.3568 3.78334 51.7479C4.17443 52.139 4.70473 52.3589 5.25781 52.3594H7.46195C7.79025 50.4153 8.79652 48.6503 10.3023 47.3776C11.808 46.1048 13.7159 45.4064 15.6875 45.4064C17.6591 45.4064 19.567 46.1048 21.0727 47.3776C22.5785 48.6503 23.5847 50.4153 23.913 52.3594H57.4062V42.625H3.17188V50.2734ZM3.17188 39.8438H57.4062V5.77344C57.4058 5.22035 57.1859 4.69006 56.7948 4.29897C56.4037 3.90788 55.8734 3.68796 55.3203 3.6875H5.25781C4.70473 3.68796 4.17443 3.90788 3.78334 4.29897C3.39225 4.69006 3.17233 5.22035 3.17188 5.77344V39.8438Z" fill="#615BA3"/>
</svg>
