<svg width="26" height="26" viewBox="0 0 26 26" fill="none" xmlns="http://www.w3.org/2000/svg">
<mask id="path-1-inside-1" fill="white">
<path d="M0.0545516 2.29266L1.7216 5.20983C1.77783 5.3084 1.87195 5.37972 1.98201 5.40732L3.53728 5.79614L8.87153 11.1304L9.46093 10.5412L4.04319 5.12359C3.98988 5.07011 3.92302 5.03222 3.84981 5.01387L2.3554 4.63894L0.936078 2.1538L2.15293 0.936943L4.63911 2.35764L5.01421 3.85205C5.03238 3.92542 5.07044 3.99246 5.12376 4.04577L10.5415 9.46351L11.1307 8.87411L5.79647 3.53986L5.40766 1.98545C5.38006 1.87521 5.30874 1.78092 5.21016 1.72452L2.29283 0.0576449C2.13013 -0.0349308 1.92544 -0.00750092 1.79275 0.124677L0.125869 1.79173C-0.00819419 1.92356 -0.0373384 2.1286 0.0545516 2.29266Z"/>
</mask>
<path d="M0.0545516 2.29266L1.7216 5.20983C1.77783 5.3084 1.87195 5.37972 1.98201 5.40732L3.53728 5.79614L8.87153 11.1304L9.46093 10.5412L4.04319 5.12359C3.98988 5.07011 3.92302 5.03222 3.84981 5.01387L2.3554 4.63894L0.936078 2.1538L2.15293 0.936943L4.63911 2.35764L5.01421 3.85205C5.03238 3.92542 5.07044 3.99246 5.12376 4.04577L10.5415 9.46351L11.1307 8.87411L5.79647 3.53986L5.40766 1.98545C5.38006 1.87521 5.30874 1.78092 5.21016 1.72452L2.29283 0.0576449C2.13013 -0.0349308 1.92544 -0.00750092 1.79275 0.124677L0.125869 1.79173C-0.00819419 1.92356 -0.0373384 2.1286 0.0545516 2.29266Z" fill="black"/>
<path d="M1.7216 5.20983L10.4078 0.254944L10.4039 0.248217L1.7216 5.20983ZM1.98201 5.40732L-0.450454 15.107L-0.443346 15.1087L1.98201 5.40732ZM3.53728 5.79614L10.6084 -1.27493L8.64978 -3.2335L5.96264 -3.90529L3.53728 5.79614ZM8.87153 11.1304L1.80046 18.2015L8.8705 25.2715L15.9416 18.2025L8.87153 11.1304ZM9.46093 10.5412L16.531 17.6133L23.6042 10.5421L16.5319 3.46998L9.46093 10.5412ZM4.04319 5.12359L-3.03921 12.1833L-3.03349 12.189L-3.02776 12.1948L4.04319 5.12359ZM3.84981 5.01387L1.41634 14.7133L1.41911 14.714L3.84981 5.01387ZM2.3554 4.63894L-6.32817 9.59833L-4.21363 13.3008L-0.0780705 14.3383L2.3554 4.63894ZM0.936078 2.1538L-6.13499 -4.91727L-11.5346 0.482294L-7.7475 7.11319L0.936078 2.1538ZM2.15293 0.936943L7.11439 -7.74545L0.48276 -11.535L-4.91813 -6.13412L2.15293 0.936943ZM4.63911 2.35764L14.3382 -0.0768815L13.3007 -4.21034L9.60056 -6.32476L4.63911 2.35764ZM5.01421 3.85205L14.7209 1.44804L14.7172 1.43278L14.7133 1.41753L5.01421 3.85205ZM5.12376 4.04577L12.1948 -3.0253L12.1948 -3.0253L5.12376 4.04577ZM10.5415 9.46351L3.47043 16.5346L10.5425 23.6067L17.6136 16.5335L10.5415 9.46351ZM11.1307 8.87411L18.2028 15.9441L25.2718 8.87308L18.2018 1.80304L11.1307 8.87411ZM5.79647 3.53986L-3.90464 5.96648L-3.23267 8.65285L-1.27459 10.6109L5.79647 3.53986ZM5.40766 1.98545L15.1088 -0.441165L15.1082 -0.443456L5.40766 1.98545ZM5.21016 1.72452L10.1764 -6.95512L10.1712 -6.95813L5.21016 1.72452ZM2.29283 0.0576449L7.25383 -8.62501L7.24613 -8.62941L7.23842 -8.63379L2.29283 0.0576449ZM1.79275 0.124677L-5.26458 -6.96011L-5.27164 -6.95308L-5.27869 -6.94603L1.79275 0.124677ZM0.125869 1.79173L7.13742 8.92181L7.16749 8.89225L7.1973 8.86243L0.125869 1.79173ZM-8.62775 7.25427L-6.96071 10.1714L10.4039 0.248217L8.73686 -2.66895L-8.62775 7.25427ZM-6.96455 10.1647C-5.55535 12.6351 -3.20024 14.4174 -0.450453 15.107L4.41448 -4.29232C6.94414 -3.65794 9.11101 -2.01829 10.4077 0.254946L-6.96455 10.1647ZM-0.443346 15.1087L1.11193 15.4976L5.96264 -3.90529L4.40737 -4.2941L-0.443346 15.1087ZM-3.53378 12.8672L1.80046 18.2015L15.9426 4.05932L10.6084 -1.27493L-3.53378 12.8672ZM15.9416 18.2025L16.531 17.6133L2.39089 3.46906L1.80149 4.05829L15.9416 18.2025ZM16.5319 3.46998L11.1142 -1.94759L-3.02776 12.1948L2.38997 17.6123L16.5319 3.46998ZM11.1256 -1.93612C9.78712 -3.2789 8.11099 -4.22752 6.28052 -4.68621L1.41911 14.714C-0.264959 14.292 -1.80736 13.4191 -3.03921 12.1833L11.1256 -1.93612ZM6.28328 -4.68552L4.78887 -5.06045L-0.0780705 14.3383L1.41634 14.7133L6.28328 -4.68552ZM11.039 -0.320447L9.61965 -2.80559L-7.7475 7.11319L-6.32817 9.59833L11.039 -0.320447ZM8.00715 9.22487L9.224 8.00801L-4.91813 -6.13412L-6.13499 -4.91727L8.00715 9.22487ZM-2.80852 9.61934L-0.322347 11.04L9.60056 -6.32476L7.11439 -7.74545L-2.80852 9.61934ZM-5.06002 4.79216L-4.68492 6.28657L14.7133 1.41753L14.3382 -0.0768815L-5.06002 4.79216ZM-4.69253 6.25606C-4.23349 8.10955 -3.27757 9.78658 -1.94731 11.1168L12.1948 -3.0253C13.4185 -1.80167 14.2982 -0.258698 14.7209 1.44804L-4.69253 6.25606ZM-1.94731 11.1168L3.47043 16.5346L17.6126 2.39244L12.1948 -3.0253L-1.94731 11.1168ZM17.6136 16.5335L18.2028 15.9441L4.05862 1.80407L3.4694 2.39347L17.6136 16.5335ZM18.2018 1.80304L12.8675 -3.5312L-1.27459 10.6109L4.05965 15.9452L18.2018 1.80304ZM15.4976 1.11325L15.1088 -0.441165L-4.29345 4.41206L-3.90464 5.96648L15.4976 1.11325ZM15.1082 -0.443456C14.4207 -3.1892 12.6433 -5.54362 10.1764 -6.95512L0.243895 10.4042C-2.02586 9.10547 -3.66058 6.93963 -4.29288 4.41435L15.1082 -0.443456ZM10.1712 -6.95813L7.25383 -8.62501L-2.66818 8.7403L0.249157 10.4072L10.1712 -6.95813ZM7.23842 -8.63379C3.16594 -10.9511 -1.94893 -10.2629 -5.26458 -6.96011L8.85007 7.20946C5.79981 10.2479 1.09433 10.8813 -2.65277 8.74908L7.23842 -8.63379ZM-5.27869 -6.94603L-6.94556 -5.27898L7.1973 8.86243L8.86418 7.19538L-5.27869 -6.94603ZM-6.88569 -5.33836C-10.2376 -2.04214 -10.9632 3.08526 -8.6702 7.17925L8.7793 -2.59393C10.8885 1.17194 10.2212 5.88926 7.13742 8.92181L-6.88569 -5.33836Z" fill="black" mask="url(#path-1-inside-1)"/>
<mask id="path-3-inside-2" fill="white">
<path d="M17.3809 8.21301L8.21263 17.3814L7.62323 16.792L16.7917 7.62378L17.3809 8.21301Z"/>
</mask>
<path d="M17.3809 8.21301L8.21263 17.3814L7.62323 16.792L16.7917 7.62378L17.3809 8.21301Z" fill="black"/>
<path d="M17.3809 8.21301L24.452 15.284L31.523 8.21294L24.4519 1.14194L17.3809 8.21301ZM8.21263 17.3814L1.14156 24.4525L8.21269 31.5236L15.2838 24.4524L8.21263 17.3814ZM7.62323 16.792L0.552231 9.72089L-6.51898 16.792L0.552165 23.8631L7.62323 16.792ZM16.7917 7.62378L23.8627 0.552709L16.7917 -6.51828L9.72066 0.552643L16.7917 7.62378ZM10.3098 1.142L1.1415 10.3104L15.2838 24.4524L24.452 15.284L10.3098 1.142ZM15.2837 10.3104L14.6943 9.72096L0.552165 23.8631L1.14156 24.4525L15.2837 10.3104ZM14.6942 23.8632L23.8627 14.6949L9.72066 0.552643L0.552231 9.72089L14.6942 23.8632ZM9.72059 14.6948L10.3098 15.2841L24.4519 1.14194L23.8627 0.552709L9.72059 14.6948Z" fill="black" mask="url(#path-3-inside-2)"/>
<mask id="path-5-inside-3" fill="white">
<path d="M6.60797 17.7058C6.53254 17.5803 6.3971 17.5037 6.2507 17.5037H3.75029C3.60406 17.5037 3.46845 17.5803 3.39319 17.7058L2.14291 19.7894C2.06353 19.9214 2.06353 20.0865 2.14291 20.2187L3.39319 22.3023C3.46845 22.4277 3.60406 22.5045 3.75029 22.5045H6.2507C6.3971 22.5045 6.53254 22.4277 6.60797 22.3023L7.85808 20.2187C7.93746 20.0865 7.93746 19.9214 7.85808 19.7894L6.60797 17.7058ZM6.01497 21.6709H3.98619L2.98603 20.0041L3.98619 18.337H6.01497L7.01513 20.0041L6.01497 21.6709Z"/>
</mask>
<path d="M6.60797 17.7058C6.53254 17.5803 6.3971 17.5037 6.2507 17.5037H3.75029C3.60406 17.5037 3.46845 17.5803 3.39319 17.7058L2.14291 19.7894C2.06353 19.9214 2.06353 20.0865 2.14291 20.2187L3.39319 22.3023C3.46845 22.4277 3.60406 22.5045 3.75029 22.5045H6.2507C6.3971 22.5045 6.53254 22.4277 6.60797 22.3023L7.85808 20.2187C7.93746 20.0865 7.93746 19.9214 7.85808 19.7894L6.60797 17.7058ZM6.01497 21.6709H3.98619L2.98603 20.0041L3.98619 18.337H6.01497L7.01513 20.0041L6.01497 21.6709Z" fill="black"/>
<path d="M6.60797 17.7058L15.183 12.561L15.1788 12.5539L6.60797 17.7058ZM3.39319 17.7058L11.9679 22.8511L11.9692 22.849L3.39319 17.7058ZM2.14291 19.7894L10.7129 24.9426L10.7177 24.9347L2.14291 19.7894ZM2.14291 20.2187L10.7177 15.0734L10.7159 15.0705L2.14291 20.2187ZM3.39319 22.3023L-5.18155 27.4476L-5.17967 27.4507L3.39319 22.3023ZM6.60797 22.3023L15.1757 27.4594L15.1793 27.4532L15.183 27.4471L6.60797 22.3023ZM7.85808 20.2187L-0.714886 15.0705L-0.716973 15.074L7.85808 20.2187ZM7.85808 19.7894L-0.716977 24.9342L-0.711933 24.9426L7.85808 19.7894ZM6.01497 21.6709V31.6709H11.6768L14.5898 26.816L6.01497 21.6709ZM3.98619 21.6709L-4.58866 26.816L-1.67562 31.6709H3.98619V21.6709ZM2.98603 20.0041L-5.58906 14.8594L-8.67582 20.0043L-5.58882 25.1491L2.98603 20.0041ZM3.98619 18.337V8.33702H-1.67592L-4.5889 13.1923L3.98619 18.337ZM6.01497 18.337L14.5901 13.1923L11.6771 8.33702H6.01497V18.337ZM7.01513 20.0041L15.59 25.1491L18.677 20.0043L15.5902 14.8594L7.01513 20.0041ZM15.1788 12.5539C13.2958 9.42132 9.90806 7.50366 6.2507 7.50366V27.5037C2.88615 27.5037 -0.230695 25.7393 -1.96283 22.8576L15.1788 12.5539ZM6.2507 7.50366H3.75029V27.5037H6.2507V7.50366ZM3.75029 7.50366C0.0972213 7.50366 -3.29717 9.41845 -5.18277 12.5626L11.9692 22.849C10.2341 25.7421 7.1109 27.5037 3.75029 27.5037V7.50366ZM-5.18155 12.5605L-6.43184 14.6442L10.7177 24.9347L11.9679 22.8511L-5.18155 12.5605ZM-6.42711 14.6363C-8.41437 17.9412 -8.41091 22.0684 -6.43006 25.3669L10.7159 15.0705C12.538 18.1047 12.5414 21.9016 10.7129 24.9426L-6.42711 14.6363ZM-6.43184 25.364L-5.18155 27.4476L11.9679 17.1571L10.7177 15.0734L-6.43184 25.364ZM-5.17967 27.4507C-3.29781 30.5843 0.0907104 32.5045 3.75029 32.5045V12.5045C7.11741 12.5045 10.2347 14.271 11.9661 17.1539L-5.17967 27.4507ZM3.75029 32.5045H6.2507V12.5045H3.75029V32.5045ZM6.2507 32.5045C9.91456 32.5045 13.2964 30.5815 15.1757 27.4594L-1.95972 17.1453C-0.231346 14.2739 2.87965 12.5045 6.2507 12.5045V32.5045ZM15.183 27.4471L16.4331 25.3635L-0.716973 15.074L-1.96709 17.1576L15.183 27.4471ZM16.4311 25.3669C18.4119 22.0684 18.4154 17.9412 16.4281 14.6363L-0.711933 24.9426C-2.54044 21.9016 -2.53698 18.1047 -0.714885 15.0705L16.4311 25.3669ZM16.4331 14.6447L15.183 12.561L-1.96709 22.8505L-0.716973 24.9342L16.4331 14.6447ZM6.01497 11.6709H3.98619V31.6709H6.01497V11.6709ZM12.561 16.5259L11.5609 14.859L-5.58882 25.1491L-4.58866 26.816L12.561 16.5259ZM11.5611 25.1488L12.5613 23.4817L-4.5889 13.1923L-5.58906 14.8594L11.5611 25.1488ZM3.98619 28.337H6.01497V8.33702H3.98619V28.337ZM-2.56012 23.4817L-1.55996 25.1488L15.5902 14.8594L14.5901 13.1923L-2.56012 23.4817ZM-1.55972 14.859L-2.55988 16.5259L14.5898 26.816L15.59 25.1491L-1.55972 14.859Z" fill="black" mask="url(#path-5-inside-3)"/>
<mask id="path-7-inside-4" fill="white">
<path d="M20.0036 10.0026C22.756 10.0119 24.9949 7.78801 25.0042 5.03559C25.0056 4.6166 24.9541 4.19933 24.8511 3.79319C24.7955 3.56981 24.5694 3.43386 24.346 3.48941C24.2727 3.50775 24.2058 3.54564 24.1523 3.59896L21.5581 6.19142L19.4999 5.5055L18.8134 3.44775L21.4076 0.853058C21.5703 0.690194 21.5701 0.426353 21.4073 0.26366C21.3536 0.21 21.2861 0.171941 21.2122 0.153769C18.5429 -0.522205 15.8313 1.09358 15.1553 3.76268C15.0526 4.16761 15.0014 4.58386 15.0028 5.00165C15.0038 5.32978 15.0376 5.65688 15.1041 5.97815L5.9773 15.1047C5.65603 15.0384 5.32893 15.0046 5.00097 15.0034C2.23896 15.0034 0 17.2424 0 20.0044C0 22.7662 2.23896 25.0052 5.00097 25.0052C7.76282 25.0052 10.0018 22.7662 10.0018 20.0044C10.0007 19.6763 9.9668 19.3492 9.90046 19.0279L12.0854 16.8429L13.041 17.7985C13.2039 17.9612 13.4675 17.9612 13.6304 17.7985L13.8387 17.5901C14.0214 17.4085 14.3168 17.4085 14.4996 17.5901C14.6822 17.7721 14.6825 18.0677 14.5004 18.2503C14.5003 18.2504 14.4999 18.2508 14.4996 18.2511L14.2913 18.4594C14.1286 18.6221 14.1286 18.8859 14.2913 19.0486L19.2626 24.02C20.5702 25.3395 22.6997 25.3491 24.0193 24.0416C25.3387 22.734 25.3483 20.6043 24.0407 19.2849C24.0337 19.2777 24.0265 19.2705 24.0193 19.2633L19.048 14.2921C18.8853 14.1294 18.6214 14.1294 18.4587 14.2921L18.2504 14.5004C18.0675 14.6822 17.7723 14.6822 17.5894 14.5004C17.407 14.3184 17.4065 14.0228 17.5885 13.8404C17.5889 13.8401 17.5892 13.8399 17.5894 13.8395L17.7979 13.6311C17.9605 13.4684 17.9605 13.2045 17.7979 13.0418L16.8423 12.0863L19.0272 9.9013C19.3485 9.96765 19.6756 10.0016 20.0036 10.0026ZM21.6409 24.1718C21.3382 24.1713 21.038 24.1166 20.7546 24.0102L24.0093 20.7553C24.5005 22.0618 23.8396 23.519 22.5331 24.0102C22.248 24.1173 21.9458 24.1722 21.6409 24.1718ZM16.9198 13.3407C16.4582 13.8911 16.5306 14.7116 17.0811 15.173C17.5649 15.5784 18.27 15.5781 18.7533 15.1718L23.4301 19.8527C23.4808 19.9036 23.5283 19.9573 23.5742 20.0118L20.0111 23.5749C19.9564 23.5291 19.9027 23.4816 19.8518 23.4307L15.1714 18.75C15.633 18.1995 15.5606 17.379 15.0101 16.9177C14.5263 16.5121 13.821 16.5126 13.3378 16.9187L12.671 16.252L16.2529 12.6755L16.9198 13.3407ZM18.6026 9.14921L9.14871 18.6012C9.04499 18.7047 9.00333 18.8551 9.03865 18.9972C9.61039 21.2425 8.25364 23.5262 6.00816 24.0978C3.76286 24.6695 1.47915 23.3128 0.907413 21.0673C0.335844 18.822 1.69259 16.5383 3.93807 15.9666C4.6173 15.7937 5.32893 15.7937 6.00816 15.9666C6.15028 16.0014 6.30029 15.9597 6.40418 15.8567L15.8558 6.40451C15.9594 6.30097 16.001 6.15062 15.9654 6.00867C15.3976 3.78959 16.7361 1.5304 18.9552 0.962435C19.3746 0.855287 19.8083 0.814142 20.2403 0.841058L18.042 3.04024C17.9304 3.15168 17.8913 3.31677 17.9412 3.46644L18.7745 5.96701C18.8162 6.0913 18.9139 6.18902 19.0384 6.23034L21.5389 7.06386C21.6884 7.11375 21.8535 7.07483 21.9651 6.9634L24.1635 4.76507C24.1684 4.84461 24.171 4.9233 24.171 5.00165C24.1827 7.29153 22.3359 9.15727 20.0461 9.1691C19.6921 9.17081 19.3392 9.12727 18.9964 9.03949C18.8542 9.00401 18.7039 9.04549 18.6003 9.14904H18.6026V9.14921Z"/>
</mask>
<path d="M20.0036 10.0026C22.756 10.0119 24.9949 7.78801 25.0042 5.03559C25.0056 4.6166 24.9541 4.19933 24.8511 3.79319C24.7955 3.56981 24.5694 3.43386 24.346 3.48941C24.2727 3.50775 24.2058 3.54564 24.1523 3.59896L21.5581 6.19142L19.4999 5.5055L18.8134 3.44775L21.4076 0.853058C21.5703 0.690194 21.5701 0.426353 21.4073 0.26366C21.3536 0.21 21.2861 0.171941 21.2122 0.153769C18.5429 -0.522205 15.8313 1.09358 15.1553 3.76268C15.0526 4.16761 15.0014 4.58386 15.0028 5.00165C15.0038 5.32978 15.0376 5.65688 15.1041 5.97815L5.9773 15.1047C5.65603 15.0384 5.32893 15.0046 5.00097 15.0034C2.23896 15.0034 0 17.2424 0 20.0044C0 22.7662 2.23896 25.0052 5.00097 25.0052C7.76282 25.0052 10.0018 22.7662 10.0018 20.0044C10.0007 19.6763 9.9668 19.3492 9.90046 19.0279L12.0854 16.8429L13.041 17.7985C13.2039 17.9612 13.4675 17.9612 13.6304 17.7985L13.8387 17.5901C14.0214 17.4085 14.3168 17.4085 14.4996 17.5901C14.6822 17.7721 14.6825 18.0677 14.5004 18.2503C14.5003 18.2504 14.4999 18.2508 14.4996 18.2511L14.2913 18.4594C14.1286 18.6221 14.1286 18.8859 14.2913 19.0486L19.2626 24.02C20.5702 25.3395 22.6997 25.3491 24.0193 24.0416C25.3387 22.734 25.3483 20.6043 24.0407 19.2849C24.0337 19.2777 24.0265 19.2705 24.0193 19.2633L19.048 14.2921C18.8853 14.1294 18.6214 14.1294 18.4587 14.2921L18.2504 14.5004C18.0675 14.6822 17.7723 14.6822 17.5894 14.5004C17.407 14.3184 17.4065 14.0228 17.5885 13.8404C17.5889 13.8401 17.5892 13.8399 17.5894 13.8395L17.7979 13.6311C17.9605 13.4684 17.9605 13.2045 17.7979 13.0418L16.8423 12.0863L19.0272 9.9013C19.3485 9.96765 19.6756 10.0016 20.0036 10.0026ZM21.6409 24.1718C21.3382 24.1713 21.038 24.1166 20.7546 24.0102L24.0093 20.7553C24.5005 22.0618 23.8396 23.519 22.5331 24.0102C22.248 24.1173 21.9458 24.1722 21.6409 24.1718ZM16.9198 13.3407C16.4582 13.8911 16.5306 14.7116 17.0811 15.173C17.5649 15.5784 18.27 15.5781 18.7533 15.1718L23.4301 19.8527C23.4808 19.9036 23.5283 19.9573 23.5742 20.0118L20.0111 23.5749C19.9564 23.5291 19.9027 23.4816 19.8518 23.4307L15.1714 18.75C15.633 18.1995 15.5606 17.379 15.0101 16.9177C14.5263 16.5121 13.821 16.5126 13.3378 16.9187L12.671 16.252L16.2529 12.6755L16.9198 13.3407ZM18.6026 9.14921L9.14871 18.6012C9.04499 18.7047 9.00333 18.8551 9.03865 18.9972C9.61039 21.2425 8.25364 23.5262 6.00816 24.0978C3.76286 24.6695 1.47915 23.3128 0.907413 21.0673C0.335844 18.822 1.69259 16.5383 3.93807 15.9666C4.6173 15.7937 5.32893 15.7937 6.00816 15.9666C6.15028 16.0014 6.30029 15.9597 6.40418 15.8567L15.8558 6.40451C15.9594 6.30097 16.001 6.15062 15.9654 6.00867C15.3976 3.78959 16.7361 1.5304 18.9552 0.962435C19.3746 0.855287 19.8083 0.814142 20.2403 0.841058L18.042 3.04024C17.9304 3.15168 17.8913 3.31677 17.9412 3.46644L18.7745 5.96701C18.8162 6.0913 18.9139 6.18902 19.0384 6.23034L21.5389 7.06386C21.6884 7.11375 21.8535 7.07483 21.9651 6.9634L24.1635 4.76507C24.1684 4.84461 24.171 4.9233 24.171 5.00165C24.1827 7.29153 22.3359 9.15727 20.0461 9.1691C19.6921 9.17081 19.3392 9.12727 18.9964 9.03949C18.8542 9.00401 18.7039 9.04549 18.6003 9.14904H18.6026V9.14921Z" fill="black"/>
<path d="M25.0042 5.03559L35.0041 5.06923L35.0041 5.06833L25.0042 5.03559ZM24.8511 3.79319L15.1466 6.20628L15.1523 6.22927L15.1581 6.25223L24.8511 3.79319ZM24.346 3.48941L21.933 -6.21508L21.9207 -6.21202L24.346 3.48941ZM24.1523 3.59896L17.0926 -3.48346L17.0836 -3.47445L24.1523 3.59896ZM21.5581 6.19142L18.3966 15.6785L24.2572 17.6316L28.6269 13.2648L21.5581 6.19142ZM19.4999 5.5055L10.0138 8.66991L11.5957 13.4121L16.3383 14.9926L19.4999 5.5055ZM18.8134 3.44775L11.7417 -3.62262L7.37133 0.74859L9.32732 6.61216L18.8134 3.44775ZM21.4076 0.853058L28.4794 7.92343L28.4824 7.9204L21.4076 0.853058ZM21.4073 0.26366L14.3362 7.33473L14.3399 7.33845L21.4073 0.26366ZM21.2122 0.153769L18.7572 9.84775L18.7906 9.85619L18.8239 9.8644L21.2122 0.153769ZM15.1553 3.76268L24.8485 6.22085L24.8493 6.21776L15.1553 3.76268ZM15.0028 5.00165L25.0027 4.9703L25.0027 4.96882L15.0028 5.00165ZM15.1041 5.97815L22.1751 13.0493L25.9903 9.23414L24.8964 3.95071L15.1041 5.97815ZM5.9773 15.1047L3.95488 24.8981L9.23551 25.9886L13.0483 22.1759L5.9773 15.1047ZM5.00097 15.0034L5.03757 5.00349L5.01927 5.00343H5.00097V15.0034ZM10.0018 20.0044H20.0018V19.9887L20.0017 19.9731L10.0018 20.0044ZM9.90046 19.0279L2.82939 11.9568L-0.983414 15.7696L0.107103 21.0503L9.90046 19.0279ZM12.0854 16.8429L19.1565 9.77187L12.0854 2.7008L5.01435 9.77187L12.0854 16.8429ZM13.041 17.7985L5.96993 24.8696L5.97366 24.8733L13.041 17.7985ZM13.6304 17.7985L20.6977 24.8733L20.7044 24.8667L13.6304 17.7985ZM13.8387 17.5901L6.79096 10.4957L6.77782 10.5088L6.76472 10.5219L13.8387 17.5901ZM14.4996 17.5901L21.5607 10.509L21.554 10.5024L21.5473 10.4957L14.4996 17.5901ZM14.5004 18.2503L21.5715 25.3213L21.5815 25.3113L14.5004 18.2503ZM14.4996 18.2511L21.5707 25.3222L21.5711 25.3217L14.4996 18.2511ZM14.2913 18.4594L7.22022 11.3883L14.2913 18.4594ZM14.2913 19.0486L7.22022 26.1197H7.22022L14.2913 19.0486ZM19.2626 24.02L26.3659 16.9813L26.3498 16.965L26.3337 16.9489L19.2626 24.02ZM24.0193 24.0416L31.058 31.1448L31.0584 31.1444L24.0193 24.0416ZM24.0407 19.2849L16.885 26.2703L16.9113 26.2972L16.9379 26.324L24.0407 19.2849ZM24.0193 19.2633L31.0904 12.1922L31.0902 12.1921L24.0193 19.2633ZM19.048 14.2921L11.9769 21.3632L11.977 21.3633L19.048 14.2921ZM18.4587 14.2921L25.5298 21.3632L18.4587 14.2921ZM18.2504 14.5004L25.2982 21.5947L25.3099 21.5831L25.3215 21.5715L18.2504 14.5004ZM17.5894 14.5004L10.525 21.5781L10.5333 21.5864L10.5416 21.5947L17.5894 14.5004ZM17.5885 13.8404L10.5175 6.76933L10.5108 6.77599L17.5885 13.8404ZM17.5894 13.8395L10.5183 6.76848L9.37121 7.91558L8.64557 9.36649L17.5894 13.8395ZM17.7979 13.6311L24.8689 20.7021L24.8689 20.7021L17.7979 13.6311ZM17.7979 13.0418L24.8689 5.97078L24.8689 5.97078L17.7979 13.0418ZM16.8423 12.0863L9.7712 5.01519L2.70013 12.0863L9.7712 19.1573L16.8423 12.0863ZM19.0272 9.9013L21.0496 0.10795L15.769 -0.982566L11.9562 2.83024L19.0272 9.9013ZM21.6409 24.1718L21.624 34.1718L21.6297 34.1718L21.6409 24.1718ZM20.7546 24.0102L13.6834 16.9393L2.70976 27.9135L17.2378 33.3714L20.7546 24.0102ZM24.0093 20.7553L33.3698 17.2364L27.9096 2.71229L16.9381 13.6844L24.0093 20.7553ZM22.5331 24.0102L26.0511 33.3709L26.052 33.3706L22.5331 24.0102ZM16.9198 13.3407L24.583 19.7652L30.4751 12.7372L23.9817 6.2605L16.9198 13.3407ZM17.0811 15.173L23.5043 7.5086L23.5043 7.5086L17.0811 15.173ZM18.7533 15.1718L25.8274 8.10382L19.3418 1.61247L12.3181 7.51746L18.7533 15.1718ZM23.4301 19.8527L30.513 12.7935L30.5042 12.7847L23.4301 19.8527ZM23.5742 20.0118L30.6453 27.0828L37.1387 20.5894L31.2208 13.5674L23.5742 20.0118ZM20.0111 23.5749L13.5927 31.2433L20.6108 37.1174L27.0822 30.646L20.0111 23.5749ZM19.8518 23.4307L12.7805 30.5015L12.7808 30.5018L19.8518 23.4307ZM15.1714 18.75L7.50824 12.3254L1.62394 19.3442L8.10012 25.8208L15.1714 18.75ZM15.0101 16.9177L8.58534 24.5807L8.58694 24.5821L15.0101 16.9177ZM13.3378 16.9187L6.26669 23.9898L12.751 30.4741L19.7713 24.5744L13.3378 16.9187ZM12.671 16.252L5.60523 9.17568L-1.47635 16.2467L5.59998 23.3231L12.671 16.252ZM16.2529 12.6755L23.3148 5.59533L16.249 -1.45232L9.18705 5.59917L16.2529 12.6755ZM18.6026 9.14921L25.6729 16.221L28.6026 13.2919V9.14921H18.6026ZM9.14871 18.6012L16.2139 25.6781L16.2191 25.673L9.14871 18.6012ZM9.03865 18.9972L-0.666212 21.4088L-0.659242 21.4368L-0.65211 21.4648L9.03865 18.9972ZM6.00816 24.0978L3.5414 14.4068L3.54052 14.407L6.00816 24.0978ZM0.907413 21.0673L-8.78352 23.5343L-8.78339 23.5348L0.907413 21.0673ZM3.93807 15.9666L1.47244 6.27529L1.47061 6.27575L3.93807 15.9666ZM6.00816 15.9666L3.54254 25.6578L3.58607 25.6689L3.6297 25.6796L6.00816 15.9666ZM6.40418 15.8567L13.4459 22.957L13.4607 22.9423L13.4754 22.9275L6.40418 15.8567ZM15.8558 6.40451L8.78475 -0.666551L8.78456 -0.666361L15.8558 6.40451ZM15.9654 6.00867L25.664 3.57229L25.6587 3.55104L25.6533 3.52981L15.9654 6.00867ZM18.9552 0.962435L16.4796 -8.72628L16.4757 -8.72528L18.9552 0.962435ZM20.2403 0.841058L27.3128 7.91075L42.9791 -7.76167L20.8621 -9.13959L20.2403 0.841058ZM18.042 3.04024L25.1076 10.1167L25.1144 10.1099L18.042 3.04024ZM17.9412 3.46644L27.4282 0.304744L27.428 0.30416L17.9412 3.46644ZM18.7745 5.96701L9.2875 9.1287L9.29021 9.13684L9.29294 9.14497L18.7745 5.96701ZM19.0384 6.23034L22.2006 -3.25651L22.1889 -3.26041L19.0384 6.23034ZM21.5389 7.06386L24.7045 -2.42189L24.7012 -2.42297L21.5389 7.06386ZM21.9651 6.9634L29.0308 14.0399L29.0362 14.0345L21.9651 6.9634ZM24.1635 4.76507L34.144 4.14128L32.7617 -17.9753L17.0924 -2.306L24.1635 4.76507ZM24.171 5.00165H14.171V5.0271L14.1711 5.05256L24.171 5.00165ZM20.0461 9.1691L20.0945 19.169L20.0977 19.169L20.0461 9.1691ZM18.9964 9.03949L21.4764 -0.648101L21.4477 -0.655445L21.419 -0.66262L18.9964 9.03949ZM18.6003 9.14904L11.5293 2.07797L-5.54179 19.149H18.6003V9.14904ZM18.6026 9.14904H28.6026V-0.850959H18.6026V9.14904ZM19.9699 20.0026C28.2449 20.0304 34.9763 13.3447 35.0041 5.06923L15.0042 5.00196C15.0136 2.23136 17.267 -0.00663755 20.0372 0.00267988L19.9699 20.0026ZM35.0041 5.06833C35.0083 3.80883 34.8536 2.55438 34.544 1.33416L15.1581 6.25223C15.0547 5.84428 15.0029 5.42438 15.0042 5.00286L35.0041 5.06833ZM34.5556 1.38011C33.1663 -4.20714 27.5117 -7.60228 21.933 -6.21508L26.7591 13.1939C21.6271 14.47 16.4248 11.3468 15.1466 6.20628L34.5556 1.38011ZM21.9207 -6.21202C20.0876 -5.75374 18.421 -4.80758 17.0926 -3.48345L31.212 10.6814C29.9906 11.8989 28.4577 12.7692 26.7714 13.1908L21.9207 -6.21202ZM17.0836 -3.47445L14.4894 -0.881985L28.6269 13.2648L31.221 10.6724L17.0836 -3.47445ZM24.7197 -3.29565L22.6614 -3.98157L16.3383 14.9926L18.3966 15.6785L24.7197 -3.29565ZM28.986 2.34109L28.2996 0.283338L9.32732 6.61216L10.0138 8.66991L28.986 2.34109ZM25.8852 10.5181L28.4794 7.92343L14.3358 -6.21731L11.7417 -3.62262L25.8852 10.5181ZM28.4824 7.9204C32.5493 3.84922 32.5438 -2.74627 28.4746 -6.81113L14.3399 7.33845C10.5965 3.59897 10.5913 -2.46883 14.3328 -6.21428L28.4824 7.9204ZM28.4783 -6.80741C27.1313 -8.15445 25.4433 -9.10362 23.6004 -9.55686L18.8239 9.8644C17.1288 9.4475 15.5759 8.57445 14.3362 7.33473L28.4783 -6.80741ZM23.6671 -9.54021C15.644 -11.572 7.49324 -6.71523 5.46138 1.30759L24.8493 6.21776C24.1694 8.9024 21.4418 10.5276 18.7572 9.84775L23.6671 -9.54021ZM5.46217 1.30451C5.15298 2.5237 4.99868 3.77688 5.0028 5.03448L25.0027 4.96882C25.0041 5.39084 24.9523 5.81152 24.8485 6.22085L5.46217 1.30451ZM5.0028 5.033C5.00591 6.02659 5.10822 7.02255 5.31175 8.00559L24.8964 3.95071C24.9669 4.29121 25.0016 4.63297 25.0027 4.9703L5.0028 5.033ZM8.03307 -1.09298L-1.0937 8.03361L13.0483 22.1759L22.1751 13.0493L8.03307 -1.09298ZM7.99973 5.31139C7.0201 5.10909 6.02762 5.00711 5.03757 5.00349L4.96438 25.0034C4.63025 25.0021 4.29196 24.9677 3.95488 24.8981L7.99973 5.31139ZM5.00097 5.00343C-3.28389 5.00343 -10 11.7195 -10 20.0044H10C10 22.7652 7.76181 25.0034 5.00097 25.0034V5.00343ZM-10 20.0044C-10 28.2893 -3.28366 35.0052 5.00097 35.0052V15.0052C7.76158 15.0052 10 17.2432 10 20.0044H-10ZM5.00097 35.0052C13.2857 35.0052 20.0018 28.2891 20.0018 20.0044H0.00177636C0.00177636 17.2434 2.23997 15.0052 5.00097 15.0052V35.0052ZM20.0017 19.9731C19.9986 18.976 19.8954 17.9819 19.6938 17.0055L0.107103 21.0503C0.0381617 20.7165 0.00289387 20.3766 0.0018255 20.0357L20.0017 19.9731ZM16.9715 26.099L19.1565 23.914L5.01435 9.77187L2.82939 11.9568L16.9715 26.099ZM5.01435 23.914L5.96993 24.8696L20.1121 10.7275L19.1565 9.77187L5.01435 23.914ZM5.97366 24.8733C10.0409 28.9363 16.6305 28.9363 20.6977 24.8733L6.56306 10.7237C10.3046 6.98615 16.3668 6.98615 20.1083 10.7237L5.97366 24.8733ZM20.7044 24.8667L20.9127 24.6582L6.76472 10.5219L6.55643 10.7304L20.7044 24.8667ZM20.8864 24.6844C17.1693 28.3771 11.1689 28.3771 7.45185 24.6844L21.5473 10.4957C17.4647 6.43995 10.8736 6.43995 6.79096 10.4957L20.8864 24.6844ZM7.4385 24.6711C3.70826 20.9514 3.7038 14.9153 7.41941 11.1892L21.5815 25.3113C25.6612 21.2201 25.6561 14.5929 21.5607 10.509L7.4385 24.6711ZM7.42937 11.1792C7.4299 11.1787 7.42866 11.1799 7.42806 11.1805L21.5711 25.3217L21.5715 25.3213L7.42937 11.1792ZM7.42852 11.18L7.22022 11.3883L21.3624 25.5305L21.5707 25.3222L7.42852 11.18ZM7.22022 11.3883C3.15228 15.4563 3.15228 22.0518 7.22022 26.1197L21.3624 11.9776C25.1049 15.7201 25.1049 21.7879 21.3624 25.5305L7.22022 11.3883ZM7.22022 26.1197L12.1915 31.091L26.3337 16.9489L21.3624 11.9776L7.22022 26.1197ZM12.1593 31.0586C17.3547 36.3017 25.8159 36.3393 31.058 31.1448L16.9806 16.9383C19.5836 14.3589 23.7856 14.3773 26.3659 16.9813L12.1593 31.0586ZM31.0584 31.1444C36.3006 25.9493 36.3388 17.4879 31.1435 12.2457L16.9379 26.324C14.3578 23.7206 14.3768 19.5188 16.9801 16.9387L31.0584 31.1444ZM31.1964 12.2995C31.1652 12.2675 31.1392 12.2412 31.1222 12.2241C31.1063 12.2082 31.0922 12.194 31.0904 12.1922L16.9482 26.3343C16.9536 26.3397 16.9466 26.3328 16.9379 26.324C16.9281 26.3141 16.9092 26.295 16.885 26.2703L31.1964 12.2995ZM31.0902 12.1921L26.1189 7.22095L11.977 21.3633L16.9483 26.3345L31.0902 12.1921ZM26.119 7.22107C22.0511 3.15313 15.4556 3.15313 11.3877 7.22107L25.5298 21.3632C21.7873 25.1058 15.7194 25.1058 11.9769 21.3632L26.119 7.22107ZM11.3877 7.22107L11.1794 7.42936L25.3215 21.5715L25.5298 21.3632L11.3877 7.22107ZM11.2027 7.40613C14.9196 3.71359 20.9202 3.71359 24.6371 7.40613L10.5416 21.5947C14.6244 25.6507 21.2154 25.6507 25.2982 21.5947L11.2027 7.40613ZM24.6538 7.42271C28.3737 11.1356 28.3923 17.1717 24.6662 20.9048L10.5108 6.77599C6.42059 10.8739 6.44025 17.5011 10.525 21.5781L24.6538 7.42271ZM24.6596 20.9115C24.3689 21.2022 24.1228 21.4116 24.0151 21.5019C23.9708 21.5391 23.9221 21.579 23.9462 21.5592C23.9499 21.5561 24.016 21.5019 24.0971 21.4324C24.3798 21.19 25.6209 20.1367 26.5332 18.3126L8.64557 9.36649C9.55769 7.54273 10.7985 6.48966 11.0809 6.24755C11.1619 6.17812 11.228 6.12395 11.2316 6.12095C11.2556 6.1012 11.2068 6.14121 11.1624 6.17844C11.0546 6.26889 10.8083 6.47847 10.5175 6.76933L24.6596 20.9115ZM24.6605 20.9106L24.8689 20.7021L10.7268 6.56001L10.5183 6.76848L24.6605 20.9106ZM24.8689 20.7021C28.9369 16.6342 28.9369 10.0387 24.8689 5.97078L10.7268 20.1129C6.98423 16.3704 6.98423 10.3026 10.7268 6.56001L24.8689 20.7021ZM24.8689 5.97078L23.9133 5.01519L9.7712 19.1573L10.7268 20.1129L24.8689 5.97078ZM23.9133 19.1573L26.0983 16.9724L11.9562 2.83024L9.7712 5.01519L23.9133 19.1573ZM17.0048 19.6947C17.981 19.8963 18.9751 19.9994 19.9722 20.0026L20.0349 0.0026725C20.3761 0.00374244 20.716 0.0390444 21.0496 0.10795L17.0048 19.6947ZM21.6579 14.1719C22.5483 14.1734 23.4336 14.3342 24.2714 14.649L17.2378 33.3714C18.6424 33.8991 20.1281 34.1693 21.624 34.1718L21.6579 14.1719ZM27.8259 31.0811L31.0806 27.8262L16.9381 13.6844L13.6834 16.9393L27.8259 31.0811ZM14.6489 24.2742C13.1967 20.4113 15.1509 16.1021 19.0142 14.6498L26.052 33.3706C32.5284 30.9359 35.8043 23.7123 33.3698 17.2364L14.6489 24.2742ZM19.0151 14.6494C19.8564 14.3333 20.7496 14.1708 21.6522 14.1719L21.6297 34.1718C23.1419 34.1735 24.6396 33.9014 26.0511 33.3709L19.0151 14.6494ZM9.25655 6.91608C5.24554 11.7004 5.87494 18.829 10.6579 22.8374L23.5043 7.5086C27.1862 10.5943 27.6709 16.0819 24.583 19.7652L9.25655 6.91608ZM10.6579 22.8374C14.8604 26.3593 20.9878 26.3577 25.1884 22.8261L12.3181 7.51746C15.5522 4.7985 20.2694 4.79758 23.5043 7.5086L10.6579 22.8374ZM11.6791 22.2397L16.3559 26.9206L30.5042 12.7847L25.8274 8.10382L11.6791 22.2397ZM16.3471 26.9118C16.1281 26.6921 15.9784 26.5163 15.9276 26.4561L31.2208 13.5674C31.0782 13.3982 30.8335 13.1151 30.513 12.7935L16.3471 26.9118ZM16.5032 12.9407L12.94 16.5038L27.0822 30.646L30.6453 27.0828L16.5032 12.9407ZM26.4295 15.9065C26.5089 15.9729 26.6946 16.1314 26.9229 16.3597L12.7808 30.5018C13.1109 30.8319 13.404 31.0853 13.5927 31.2433L26.4295 15.9065ZM26.9232 16.3599L22.2428 11.6792L8.10012 25.8208L12.7805 30.5015L26.9232 16.3599ZM22.8346 25.1746C26.8457 20.3903 26.2163 13.2617 21.4333 9.25331L8.58694 24.5821C4.90495 21.4964 4.42025 16.0087 7.50824 12.3254L22.8346 25.1746ZM21.4349 9.25465C17.2303 5.72946 11.1027 5.73476 6.90418 9.26306L19.7713 24.5744C16.5394 27.2904 11.8224 27.2947 8.58534 24.5807L21.4349 9.25465ZM20.4088 9.84765L19.7421 9.18093L5.59998 23.3231L6.26669 23.9898L20.4088 9.84765ZM19.7369 23.3283L23.3187 19.7518L9.18705 5.59917L5.60523 9.17568L19.7369 23.3283ZM9.1909 19.7557L9.85779 20.4208L23.9817 6.2605L23.3148 5.59533L9.1909 19.7557ZM11.5322 2.07744L2.07835 11.5294L16.2191 25.673L25.6729 16.221L11.5322 2.07744ZM2.08349 11.5243C-0.509654 14.1131 -1.54639 17.8667 -0.666212 21.4088L18.7435 16.5856C19.5531 19.8435 18.5996 23.2963 16.2139 25.6781L2.08349 11.5243ZM-0.65211 21.4648C-1.44325 18.358 0.434156 15.1977 3.5414 14.4068L8.47493 33.7888C16.0731 31.8547 20.664 24.1271 18.7294 16.5296L-0.65211 21.4648ZM3.54052 14.407C6.64761 13.6158 9.80726 15.4934 10.5982 18.5998L-8.78339 23.5348C-6.84896 31.1321 0.878108 35.7232 8.4758 33.7885L3.54052 14.407ZM10.5983 18.6004C11.3892 21.7069 9.512 24.8664 6.40553 25.6574L1.47061 6.27575C-6.12682 8.2102 -10.7175 15.9371 -8.78352 23.5343L10.5983 18.6004ZM6.40369 25.6578C5.46494 25.8967 4.48129 25.8967 3.54254 25.6578L8.47379 6.27529C6.17658 5.69084 3.76965 5.69084 1.47244 6.27529L6.40369 25.6578ZM3.6297 25.6796C7.1553 26.5429 10.8726 25.509 13.4459 22.957L-0.637535 8.75637C1.72797 6.41038 5.14527 5.45981 8.38662 6.25353L3.6297 25.6796ZM13.4754 22.9275L22.9271 13.4754L8.78456 -0.666361L-0.667078 8.78579L13.4754 22.9275ZM22.9269 13.4756C25.5124 10.89 26.5581 7.13135 25.664 3.57229L6.2667 8.44505C5.44396 5.16988 6.4063 1.71189 8.78475 -0.666551L22.9269 13.4756ZM25.6533 3.52981C26.4545 6.66127 24.5655 9.84885 21.4348 10.6501L16.4757 -8.72528C8.90682 -6.78804 4.34063 0.917916 6.27747 8.48752L25.6533 3.52981ZM21.4309 10.6511C20.8432 10.8013 20.2319 10.8599 19.6185 10.8217L20.8621 -9.13959C19.3846 -9.23164 17.9059 -9.09073 16.4796 -8.72628L21.4309 10.6511ZM13.1679 -6.22863L10.9695 -4.02945L25.1144 10.1099L27.3128 7.91075L13.1679 -6.22863ZM10.9763 -4.03626C8.18362 -1.24782 7.20525 2.88144 8.45434 6.62871L27.428 0.30416C28.5773 3.75211 27.6771 7.55118 25.1076 10.1167L10.9763 -4.03626ZM8.45414 6.62813L9.2875 9.1287L28.2616 2.80532L27.4282 0.304744L8.45414 6.62813ZM9.29294 9.14497C10.3309 12.2419 12.7671 14.6851 15.8879 15.7211L22.1889 -3.26041C25.0607 -2.30709 27.3014 -0.0592861 28.2561 2.78904L9.29294 9.14497ZM15.8761 15.7172L18.3767 16.5507L24.7012 -2.42297L22.2006 -3.2565L15.8761 15.7172ZM18.3734 16.5496C22.1177 17.7992 26.2424 16.824 29.0308 14.0399L14.8995 -0.113102C17.4647 -2.67434 21.2591 -3.57166 24.7045 -2.42189L18.3734 16.5496ZM29.0362 14.0345L31.2345 11.8361L17.0924 -2.306L14.8941 -0.10767L29.0362 14.0345ZM14.1829 5.38885C14.1757 5.27236 14.171 5.14272 14.171 5.00165H34.171C34.171 4.70388 34.1612 4.41687 34.144 4.14128L14.1829 5.38885ZM14.1711 5.05256C14.1547 1.81992 16.7618 -0.814068 19.9944 -0.830767L20.0977 19.169C27.9101 19.1286 34.2106 12.7631 34.1709 4.95074L14.1711 5.05256ZM19.9976 -0.830784C20.4956 -0.833195 20.9925 -0.77197 21.4764 -0.648101L16.5163 18.7271C17.6859 19.0265 18.8885 19.1748 20.0945 19.169L19.9976 -0.830784ZM21.419 -0.66262C17.8795 -1.54641 14.123 -0.515715 11.5293 2.07797L25.6714 16.2201C23.2848 18.6067 19.829 19.5544 16.5738 18.7416L21.419 -0.66262ZM18.6003 19.149H18.6026V-0.850959H18.6003V19.149ZM8.60257 9.14904V9.14921H28.6026V9.14904H8.60257Z" fill="black" mask="url(#path-7-inside-4)"/>
<mask id="path-9-inside-5" fill="white">
<path d="M21.5485 20.9595L20.9591 21.5489L16.7919 17.3816L17.3811 16.7922L21.5485 20.9595Z"/>
</mask>
<path d="M21.5485 20.9595L20.9591 21.5489L16.7919 17.3816L17.3811 16.7922L21.5485 20.9595Z" fill="black"/>
<path d="M21.5485 20.9595L28.6196 28.0306L35.6908 20.9594L28.6195 13.8883L21.5485 20.9595ZM20.9591 21.5489L13.8881 28.62L20.9591 35.691L28.0302 28.62L20.9591 21.5489ZM16.7919 17.3816L9.71978 10.3116L2.65076 17.3827L9.7208 24.4527L16.7919 17.3816ZM17.3811 16.7922L24.452 9.72102L17.3799 2.64922L10.309 9.7222L17.3811 16.7922ZM14.4775 13.8884L13.8881 14.4778L28.0302 28.62L28.6196 28.0306L14.4775 13.8884ZM28.0302 14.4778L23.8629 10.3106L9.7208 24.4527L13.8881 28.62L28.0302 14.4778ZM23.864 24.4517L24.4532 23.8623L10.309 9.7222L9.71978 10.3116L23.864 24.4517ZM10.3102 23.8635L14.4776 28.0307L28.6195 13.8883L24.452 9.72102L10.3102 23.8635Z" fill="black" mask="url(#path-9-inside-5)"/>
</svg>
