<svg width="400" height="402" viewBox="0 0 400 402" fill="none" xmlns="http://www.w3.org/2000/svg">
<g opacity="0.1">
<path d="M396.01 182.925L392.387 180.806L381.266 186.352L381.641 227.291L376.456 239.94L368.833 248.913L363.211 253.025L360.774 251.094L360.399 242.308L355.901 234.83L348.904 229.596L339.844 228.848L337.096 229.409L344.905 235.204L351.028 239.005L356.026 247.168L357.463 261.313L350.028 281.689L341.531 293.029L333.16 300.756L325.35 305.305L318.977 306.8L305.045 302.75L291.675 294.276L277.243 302.625L276.494 311.162L274.932 315.088L227.512 342.006L218.328 337.458L205.958 343.066L199.96 340.635L199.023 347.054L197.149 359.765L192.963 371.604L181.655 386.621L173.596 393.85L162.412 399.645C175.782 398.336 201.522 394.473 214.955 391.108C218.391 390.235 221.702 389.114 224.514 387.431L242.882 376.838L326.849 328.485C340.844 326.117 352.402 323.998 356.838 322.877C360.274 322.004 363.585 320.883 366.397 319.2L439.931 276.828L531.896 223.801C535.082 221.932 536.957 218.754 536.957 215.077C536.957 211.401 535.082 208.223 531.896 206.354C500.97 188.657 442.243 155.071 407.131 135.132C405.944 134.446 404.757 133.761 403.695 133.138L403.945 178.937L396.01 182.925Z" fill="#193F63" fill-opacity="0.102"/>
<path d="M308.981 306.737L290.863 296.331L278.93 303.248C278.868 306.862 278.743 309.728 278.431 311.224C278.431 312.345 278.056 313.467 277.431 314.464C276.869 315.461 275.994 316.396 275.057 316.894L228.824 343.501C228.137 343.875 227.45 344.124 226.763 344.124C226.263 344.124 225.763 344 225.326 343.813L225.138 343.751L217.766 339.513C214.767 341.196 211.644 342.878 209.02 344.561C207.957 345.246 206.458 346.118 204.709 345.682C204.084 345.558 203.584 345.246 203.084 344.872L200.773 343.501C200.898 344.623 200.96 345.869 200.96 347.115C200.96 351.602 200.21 356.338 198.773 361.011C197.337 365.871 195.212 370.669 192.588 375.218C189.964 379.767 186.841 384.004 183.342 387.68C179.968 391.232 176.22 394.285 172.346 396.529L172.221 396.591C170.784 397.401 169.347 398.086 167.91 398.647C163.662 400.329 159.226 400.953 155.228 400.143C153.291 399.706 151.417 398.959 149.73 397.837L141.42 393.039L127.488 401.077C126.864 401.451 126.114 401.451 125.489 401.077L1.66144 329.793C1.03668 329.419 0.661802 328.733 0.661802 328.048V312.096C-0.0879107 311.286 -0.212834 310.04 0.34945 309.043C0.599355 308.544 1.03669 308.233 1.47402 307.984L15.0313 300.195C14.9064 282.872 14.594 262.434 16.0934 242.432L4.91018 236.014C4.28542 235.64 3.91059 234.954 3.91059 234.269V208.036C3.91059 206.914 4.78525 206.042 5.90982 206.042C6.15972 206.042 6.34714 206.104 6.53457 206.166L9.72086 204.297C10.1582 204.048 10.658 204.048 11.0329 204.297L20.7166 209.905C23.5905 197.443 27.8389 185.977 34.0865 176.693C34.149 176.568 34.2115 176.506 34.274 176.381C35.5235 174.637 36.8354 173.017 38.3349 171.521C39.8968 170.026 41.5836 168.655 43.5828 167.471C63.6377 155.818 85.7542 141.985 106.121 131.455C106.684 131.205 107.059 131.018 107.683 130.956C108.371 130.831 109.058 130.956 109.87 131.205C110.057 131.268 110.245 131.392 110.432 131.455L113.119 133.012V107.839C113.119 107.402 113.244 106.966 113.494 106.53C113.806 106.031 114.243 105.595 114.806 105.408L126.051 98.741C126.864 98.3048 127.863 98.2425 128.738 98.741L131.112 100.112L146.543 91.139V88.7712C146.481 87.7742 146.918 86.8395 147.855 86.2786L154.54 82.3531C155.353 81.8546 156.352 81.8546 157.227 82.3531L159.601 83.7239L174.97 74.8133V72.1962C174.97 71.2616 175.47 70.3892 176.282 69.8907L182.967 65.9651C183.779 65.5289 184.779 65.4666 185.653 65.9651L188.028 67.3359L203.397 58.4253V56.0575C203.334 55.0606 203.772 54.1258 204.709 53.565L211.394 49.6395C212.206 49.2033 213.205 49.141 214.08 49.6395L216.454 51.0103L231.823 42.0997V39.7318C231.761 38.7348 232.198 37.8002 233.135 37.2394L239.82 33.3137C240.632 32.8775 241.632 32.8152 242.507 33.3137L244.818 34.6223L260.188 25.6494V23.0323C260.188 22.0977 260.687 21.2253 261.499 20.7268L268.184 16.8012C268.997 16.365 269.996 16.3027 270.871 16.8012L273.182 18.1098L288.614 9.13686V6.76899C288.552 5.772 288.989 4.83732 289.926 4.27651L296.611 0.350892C297.423 -0.08529 298.423 -0.147602 299.298 0.350892L403.695 60.4816C404.507 60.9178 405.069 61.7902 405.069 62.7872L405.194 178.874C405.257 179.871 404.82 180.806 403.882 181.366L397.198 185.292C396.385 185.728 395.386 185.79 394.511 185.292L392.199 183.983L382.391 189.654V226.044C382.391 228.412 382.016 230.904 381.266 233.397V233.521C380.516 236.014 379.392 238.568 378.017 240.936L377.955 241.061C376.58 243.429 374.894 245.672 373.082 247.666C371.27 249.598 369.271 251.218 367.209 252.402L366.584 252.775C365.022 253.71 362.461 255.268 360.774 254.707C360.087 254.458 359.524 254.022 359.15 253.399L359.087 253.274C359.025 253.149 358.962 252.962 358.9 252.838C358.962 253.772 359.025 254.707 359.025 255.642C359.025 260.128 358.275 264.864 356.838 269.537C355.401 274.398 353.277 279.196 350.653 283.744C348.029 288.293 344.905 292.53 341.406 296.207C338.033 299.758 334.347 302.812 330.411 305.055C326.412 307.36 322.601 308.607 319.04 308.981C315.291 309.105 311.855 308.42 308.981 306.737ZM163.287 380.452V356.213C162.912 356.711 162.6 357.272 162.287 357.833C159.726 362.319 158.102 367.304 158.102 371.791C158.102 374.221 158.601 376.215 159.414 377.71C159.976 378.645 160.663 379.393 161.538 379.891C162.1 380.078 162.662 380.327 163.287 380.452ZM165.661 352.973V380.452C167.098 380.265 168.66 379.704 170.284 378.77C172.534 377.461 174.72 375.592 176.594 373.411V345.62C175.282 345.869 173.783 346.368 172.284 347.302C169.91 348.611 167.66 350.605 165.661 352.973ZM179.031 345.495V370.233C179.468 369.548 179.906 368.862 180.343 368.177C182.905 363.69 184.529 358.705 184.529 354.219C184.529 351.789 184.029 349.795 183.217 348.362C182.655 347.365 181.905 346.679 181.093 346.181C180.406 345.807 179.718 345.62 179.031 345.495ZM322.788 288.916V262.683C321.976 263.805 321.164 264.926 320.477 266.173C319.165 268.478 318.103 270.908 317.353 273.338C316.666 275.644 316.291 277.949 316.291 280.13C316.291 282.187 316.666 283.931 317.291 285.365C317.915 286.673 318.728 287.67 319.79 288.231C320.602 288.667 321.601 288.916 322.788 288.916ZM325.163 259.879V288.542C326.225 288.231 327.349 287.795 328.474 287.109C330.348 285.988 332.16 284.554 333.847 282.81C334.659 281.937 335.409 281.065 336.096 280.13V253.835C335.908 253.835 335.659 253.835 335.471 253.897C333.972 254.022 332.285 254.645 330.473 255.642C328.599 256.639 326.787 258.134 325.163 259.879ZM338.47 254.146V276.516L338.657 276.205C339.907 273.961 340.907 271.594 341.594 269.288C342.281 267.045 342.593 264.802 342.593 262.621C342.593 260.564 342.219 258.82 341.594 257.449C341.032 256.14 340.157 255.143 339.095 254.583L338.907 254.458C338.845 254.333 338.657 254.271 338.47 254.146ZM348.529 200.994L362.586 176.693L362.523 141.549L348.466 165.851L348.529 200.994ZM365.21 172.144L366.772 169.402L366.709 134.259L365.147 137L365.21 172.144ZM369.458 164.791L371.582 161.177L371.52 126.034L369.396 129.648L369.458 164.791ZM376.893 152.017L390.95 127.716L390.887 92.5722L376.83 116.874L376.893 152.017ZM393.574 123.105L395.261 120.239L395.198 85.0948L393.511 87.9611L393.574 123.105ZM397.885 115.69L399.884 112.2L399.822 77.0565L397.822 80.546L397.885 115.69ZM399.946 116.936L397.947 120.426L398.01 155.569L400.009 152.08L399.946 116.936ZM395.261 124.974L393.574 127.841L393.636 162.984L395.323 160.118L395.261 124.974ZM390.95 132.452L376.893 156.753L376.955 186.787L381.454 184.17L391.075 167.595L390.95 132.452ZM371.582 165.913L369.458 169.527V195.137L371.582 193.891V191.336V165.913ZM366.834 174.138L365.272 176.88V195.013L365.397 195.075L366.834 195.885V174.138ZM362.586 181.429L350.715 201.867L362.586 194.95V181.429ZM309.544 228.412L310.106 227.477L310.043 192.333L308.419 195.137L308.482 227.726L308.606 227.788L309.544 228.412ZM312.73 222.928L314.854 219.314L314.792 184.17L312.667 187.784L312.73 222.928ZM320.102 210.154L334.159 185.853L334.097 150.709L320.04 175.01L320.102 210.154ZM336.846 181.242L338.408 178.5L338.345 143.356L336.783 146.098L336.846 181.242ZM341.094 173.951L343.218 170.337L343.156 135.193L341.031 138.807L341.094 173.951ZM348.466 161.177L362.523 136.876L362.461 101.732L348.404 126.034L348.466 161.177ZM365.21 132.265L366.772 129.523L366.709 94.3792L365.147 97.1209L365.21 132.265ZM369.396 124.974L371.52 121.36L371.457 86.2164L369.333 89.8305L369.396 124.974ZM376.83 112.138L390.887 87.8364V70.95L376.83 79.1128V112.138ZM393.574 83.2877L395.261 80.4214V66.9621L294.112 8.76301V10.6947L392.887 67.5229C393.012 67.5852 393.074 67.6475 393.137 67.7098C393.262 67.8344 393.324 67.8968 393.386 68.0214C393.449 68.0837 393.449 68.146 393.449 68.2083V68.2706L393.511 68.3952C393.511 68.4575 393.511 68.5821 393.511 68.6444L393.574 83.2877ZM397.885 75.8103L399.884 72.3209V64.2826L298.11 5.7097L296.111 6.89364L397.198 65.0927C397.635 65.342 397.885 65.7782 397.885 66.2767V75.8103ZM343.156 175.01L341.031 178.625L341.094 211.587L343.218 210.341V207.786L343.156 175.01ZM338.408 183.236L336.846 185.977V211.4L336.971 211.463L338.408 212.273V183.236ZM334.159 190.588L320.102 214.89V219.626L334.159 211.463V190.588ZM314.792 224.05L312.667 227.664V227.975L314.729 226.729V224.237L314.792 224.05ZM277.243 244.239L277.306 244.114L277.243 208.97L263.186 233.272V252.339L277.243 244.239ZM279.992 239.565L281.617 236.761L281.554 201.618L279.93 204.422L279.992 239.565ZM284.241 232.15L286.365 228.536L286.302 193.392L284.178 197.007L284.241 232.15ZM291.675 219.376L305.733 195.075L305.67 159.931L291.613 184.233L291.675 219.376ZM308.419 190.464L310.043 187.66L309.981 152.516L308.357 155.32L308.419 190.464ZM312.667 183.111L314.792 179.497L314.729 144.353L312.605 147.967L312.667 183.111ZM320.04 170.275L334.097 145.973L334.034 110.829L319.977 135.131L320.04 170.275ZM336.783 141.425L338.345 138.683L338.283 103.539L336.721 106.281L336.783 141.425ZM341.031 134.072L343.156 130.458L343.093 98.6787L340.969 99.9249L341.031 134.072ZM348.404 121.298L362.461 96.9963V87.4626L348.404 95.6254V121.298ZM365.147 92.3853L366.709 89.6435V83.2877L265.623 25.0886V27.0203L364.398 83.8485C364.523 83.9108 364.585 83.9731 364.648 84.0354C364.772 84.16 364.835 84.2224 364.897 84.347C364.96 84.4093 364.96 84.4716 364.96 84.5339V84.5963L365.022 84.7209C365.022 84.7832 365.022 84.9078 365.022 84.9702L365.147 92.3853ZM369.396 85.0948L370.833 82.6646L369.396 83.4746V85.0948ZM305.733 199.748L291.675 224.05V235.951L305.733 227.788V199.748ZM286.365 233.21L284.241 236.824V244.301L286.302 243.055V240.562L286.365 233.21ZM281.617 241.435L280.055 244.176L280.18 244.239L281.679 245.111L281.617 241.435ZM242.569 264.241L242.632 264.178L248.879 253.336L248.817 218.192L234.76 242.494V268.727L242.569 264.241ZM251.566 248.725L253.19 245.921L253.128 210.777L251.503 213.581L251.566 248.725ZM255.814 241.372L257.938 237.758L257.876 202.615L255.752 206.229L255.814 241.372ZM263.249 228.599L277.306 204.297L277.243 169.153L263.186 193.455L263.249 228.599ZM279.93 199.686L281.554 196.882L281.492 161.738L279.867 164.542L279.93 199.686ZM284.241 192.271L286.365 188.657L286.302 153.513L284.178 157.127L284.241 192.271ZM291.613 179.497L305.67 155.195L305.608 120.239L305.42 120.301L291.488 144.291L291.613 179.497ZM308.357 150.647L309.981 147.843L309.918 116.251L208.77 58.0515V59.9208L307.544 116.749C307.669 116.811 307.732 116.874 307.794 116.936C307.919 116.998 307.982 117.123 308.044 117.248C308.107 117.31 308.107 117.372 308.107 117.434V117.497L308.169 117.621C308.169 117.684 308.169 117.808 308.169 117.871L308.357 150.647ZM312.605 143.232L314.729 139.618V115.129L312.605 116.375V143.232ZM320.04 130.458L334.097 106.156V103.913L320.04 112.076V130.458ZM336.721 101.545L337.908 99.5511L237.259 41.6012V43.5328L336.033 100.361H336.096H336.158H336.221L336.283 100.423V100.486V100.548L336.721 101.545ZM257.938 242.432L255.814 246.046V260.689L257.876 259.443V257.137H257.938V256.888V242.432ZM253.19 250.657L251.566 253.461V260.564L251.691 260.627L253.19 261.499V250.657ZM248.879 258.072L246.693 261.873L248.879 260.627V258.072ZM223.077 258.01L229.449 246.98L229.387 211.837L223.014 222.866L223.077 258.01ZM234.76 237.758L248.817 213.457L248.754 178.313L234.697 202.615L234.76 237.758ZM251.503 208.908L253.128 206.104L253.065 170.96L251.441 173.764L251.503 208.908ZM255.752 201.493L257.876 197.879L257.813 162.735L255.689 166.349L255.752 201.493ZM263.186 188.719L277.243 164.418V136.626L270.808 140.365L263.124 153.575L263.186 188.719ZM279.867 159.806L281.492 157.002V132.576L180.343 74.3772V76.2465L279.118 133.075C279.368 133.199 279.555 133.386 279.68 133.573C279.805 133.823 279.867 134.072 279.867 134.321V159.806ZM284.178 152.454L286.302 148.84V131.517L284.178 132.763V152.454ZM291.613 139.618L301.422 122.731L291.613 128.401V139.618ZM304.046 118.12L304.171 117.871L207.458 62.2263L193.401 70.3892L290.176 126.096H290.238L304.046 118.12ZM229.449 251.654L223.077 262.683V279.632L229.449 275.893L229.512 273.338L229.449 251.654ZM223.077 218.13L229.449 207.101L229.387 171.957L223.014 182.924L223.077 218.13ZM234.76 197.941L248.817 173.64V153.014L236.134 160.367L234.76 162.797V197.941ZM251.441 169.029L253.065 166.225V148.964L151.916 90.7651V92.6345L250.691 149.463C250.816 149.525 250.879 149.587 250.941 149.65C251.066 149.712 251.128 149.837 251.191 149.961C251.253 150.023 251.253 150.086 251.253 150.148V150.21L251.316 150.335C251.316 150.397 251.316 150.522 251.316 150.584L251.441 169.029ZM255.752 161.676L257.876 158.062V147.905L255.752 149.151V161.676ZM263.124 148.84L266.685 142.733L263.124 144.789V148.84ZM223.014 178.251L229.387 167.284V164.293L223.014 167.969V178.251ZM400.009 156.753L398.01 160.243V178.687L400.071 177.503L400.009 156.753ZM395.323 164.854L393.636 167.72V178.562L393.761 178.625L395.261 179.497L395.323 164.854ZM391.012 172.269L385.515 181.74L391.012 178.562V172.269ZM227.325 285.489V283.371L223.077 285.863V287.919L227.325 285.489ZM230.012 281.688V283.869L242.569 276.641V270.347L234.76 274.896L234.697 277.451C234.697 278.323 234.197 279.196 233.385 279.694L230.012 281.688ZM245.318 268.79V275.083L257.876 267.855V265.674L255.189 267.232C254.377 267.668 253.378 267.73 252.503 267.232L250.191 265.923L245.318 268.79ZM260.625 264.054V266.297L267.747 262.185L268.247 261.998C268.372 261.935 268.497 261.873 268.622 261.873L269.059 261.748C269.247 261.686 269.371 261.686 269.559 261.686H269.871C270.121 261.686 270.309 261.748 270.558 261.811L270.933 261.935L271.246 262.122L273.182 263.244V252.775L263.249 258.57V260.876C263.311 261.811 262.811 262.808 261.937 263.306L260.625 264.054ZM275.931 251.155V264.802L276.619 265.238L276.744 265.3C277.181 265.549 277.556 265.923 277.806 266.422C278.056 266.92 278.243 267.481 278.306 268.166V268.416C278.306 273.961 278.868 287.919 278.868 298.575L288.427 293.029V247.978L283.616 250.844C282.804 251.28 281.804 251.342 280.93 250.844L278.618 249.535L275.931 251.155ZM291.238 246.108V291.471L293.487 290.162C293.862 289.976 294.174 289.602 294.424 289.103C294.674 288.667 294.862 288.169 294.862 287.795V287.545C294.924 282.436 295.861 277.077 297.486 271.718C299.048 266.671 301.172 261.624 303.858 256.888V235.079L291.738 242.12V244.426C291.675 245.049 291.551 245.672 291.238 246.108ZM306.482 233.521V252.402C309.044 248.414 311.98 244.675 315.166 241.372C316.416 240.064 317.728 238.755 319.102 237.571V230.343C319.04 230.406 318.915 230.468 318.853 230.53L312.168 234.456C311.355 234.892 310.356 234.954 309.481 234.456L307.169 233.147L306.482 233.521ZM321.789 224.798V235.266C323.726 233.77 325.725 232.4 327.724 231.216L327.849 231.153C330.036 229.907 332.222 228.91 334.347 228.162V217.445L321.789 224.798ZM337.096 217.694V227.415C338.345 227.103 339.532 226.916 340.719 226.791C343.968 226.48 346.967 226.792 349.653 227.788V208.659L348.529 209.344V211.712C348.591 212.709 348.154 213.644 347.217 214.204L340.532 218.13C339.72 218.566 338.72 218.629 337.845 218.13L337.096 217.694ZM352.402 207.101V229.035C355.651 230.904 358.275 233.833 360.024 237.696C361.649 241.185 362.586 245.547 362.711 250.532C363.211 250.221 364.023 249.66 364.648 249.286L364.96 249.099V200.994L363.96 200.434L352.402 207.101ZM367.646 202.054V247.23C368.583 246.482 369.458 245.672 370.27 244.8C371.895 243.117 373.332 241.123 374.581 238.942L374.644 238.818C375.831 236.699 376.83 234.518 377.518 232.275V232.213C378.142 230.094 378.455 227.975 378.455 225.981V191.959L376.83 192.894V195.262C376.893 196.259 376.455 197.193 375.518 197.754L368.833 201.68C368.583 201.867 368.084 202.054 367.646 202.054ZM155.665 287.421V254.832C155.353 255.642 155.103 256.452 154.915 257.324L149.292 283.744L155.665 287.421ZM158.039 250.657V287.047L169.035 281.252V243.117L161.975 247.167C160.538 247.915 159.164 249.161 158.039 250.657ZM169.035 293.34V284.243L159.164 289.477L160.975 290.536C161.163 290.661 161.35 290.786 161.475 291.035C161.6 291.222 161.663 291.471 161.663 291.72V297.702L169.035 293.34ZM171.409 241.684V279.943L182.405 274.148V235.391L171.409 241.684ZM171.409 282.934V291.97L182.405 285.676V277.139L171.409 282.934ZM184.716 233.957V272.84L195.712 267.045V227.664L184.716 233.957ZM184.716 275.893V284.305L195.712 278.012V270.098L184.716 275.893ZM198.086 226.293V265.799L202.147 263.618V223.925L198.086 226.293ZM198.086 268.79V276.579L200.773 275.021C201.148 274.834 201.46 274.46 201.71 273.961C201.96 273.525 202.147 273.027 202.147 272.653V266.609L198.086 268.79ZM119.616 304.806V288.916L118.304 288.293C118.054 288.168 117.867 287.982 117.742 287.732L109.058 272.217L108.683 272.03V300.942L119.179 306.987L119.616 304.806ZM119.616 285.614V242.619L108.62 236.325V268.914L110.557 270.036C110.807 270.16 110.995 270.347 111.12 270.597L119.616 285.614ZM121.99 243.99V287.047L123.24 287.67L131.424 249.411L121.99 243.99ZM121.99 290.038V293.652L122.678 290.349L121.99 290.038ZM106.309 299.509V270.597L95.3131 264.428V293.216L106.309 299.509ZM106.309 267.606V234.954L95.3131 228.661V261.437L106.309 267.606ZM92.939 291.845V263.119L85.1919 258.757L82.0057 259.568V285.551L92.939 291.845ZM92.939 260.066V227.29L81.9432 220.997V256.826L85.0045 256.078C85.3169 256.016 85.6918 256.016 86.0042 256.203L92.939 260.066ZM79.6316 284.118V260.128L72.3843 261.935C72.0095 261.998 71.6346 261.935 71.3222 261.748L68.6358 260.191V277.825L79.6316 284.118ZM79.6316 257.387V219.563L68.6358 213.27V257.075L72.2594 259.194L79.6316 257.387ZM66.2617 276.454V258.757L55.2659 252.277V270.098L66.2617 276.454ZM66.2617 255.704V211.899L55.2659 205.606V249.224L66.2617 255.704ZM52.8918 268.79V250.906L41.8961 244.426V262.434L52.8918 268.79ZM52.8918 247.853V204.235L41.8961 197.941V241.372L52.8918 247.853ZM39.5844 261.125V243.055L32.2122 238.693L28.776 254.832L39.5844 261.125ZM39.5844 239.939V204.11L32.7745 235.951L39.5844 239.939ZM227.388 307.859L237.446 290.474L228.887 295.397L228.575 295.646L228.325 295.895L228.137 296.144L227.887 296.581L227.7 296.892L227.575 297.266L227.512 297.578V297.951V307.859H227.388ZM242.132 287.795L227.388 313.28V335.463V338.329L263.936 275.208L242.132 287.795ZM268.622 272.528L230.886 337.706L252.69 325.182L274.37 287.67V269.226L268.622 272.528ZM274.37 293.091L257.376 322.44L272.995 313.467C273.307 313.28 273.682 312.906 273.932 312.47C274.182 312.034 274.37 311.598 274.37 311.162V293.091ZM201.585 339.389C201.397 335.65 200.648 332.472 199.461 329.855C198.086 326.802 196.087 324.559 193.588 323.125C191.151 321.692 188.152 321.131 184.841 321.443C183.904 321.505 183.029 321.692 182.03 321.941L191.839 327.549L191.964 327.612C194.338 328.983 196.274 330.977 197.774 333.594L197.836 333.718C198.648 335.089 199.273 336.647 199.773 338.329L201.585 339.389ZM267.685 23.2815L368.146 81.1068L370.145 79.9229L272.12 23.4685C272.058 23.4062 271.933 23.3439 271.871 23.2815L269.684 22.0353L267.685 23.2815ZM375.456 76.8696L389.575 68.7068L292.737 12.9379L278.68 21.1007L375.456 76.8696ZM239.32 39.7318L339.782 97.5571L341.781 96.3732L243.694 39.9188C243.631 39.8565 243.506 39.7942 243.444 39.7942L241.257 38.548L239.32 39.7318ZM347.092 93.3199L361.211 85.1571L264.373 29.4504L264.186 29.5127L250.254 37.6132L347.092 93.3199ZM210.831 56.1198L311.355 114.007L313.355 112.823L215.142 56.3067L215.017 56.2445L212.768 54.9359L210.831 56.1198ZM318.665 109.77L332.785 101.607L235.947 45.9007L221.89 54.0635L318.665 109.77ZM182.405 72.5078L282.929 130.395L284.928 129.211L186.778 72.6947L186.653 72.6325L184.404 71.3239L182.405 72.5078ZM153.978 88.8957L254.502 146.783L256.501 145.599L158.289 89.0827L155.915 87.7119L153.978 88.8957ZM261.812 142.484L275.931 134.321L179.093 78.6143L178.906 78.6766L164.974 86.7772L261.812 142.484ZM221.64 165.664L228.012 161.925L129.862 105.408L129.737 105.284L127.488 103.975L121.178 107.714L221.64 165.664ZM233.385 158.872L247.505 150.709L150.667 94.94L136.61 103.103L233.385 158.872ZM194.4 292.966L212.081 282.81C212.706 282.436 213.518 282.685 213.893 283.308C214.018 283.495 214.08 283.744 214.08 283.994V290.038C214.08 290.599 213.768 291.035 213.268 291.222L195.65 301.379C195.025 301.752 194.213 301.503 193.838 300.88C193.713 300.693 193.65 300.444 193.65 300.195V294.15C193.65 293.652 193.963 293.153 194.4 292.966ZM211.394 286.237L196.337 294.898V297.889L211.394 289.228V286.237ZM221.765 337.208L223.389 338.142V297.889C223.389 297.64 223.389 297.328 223.452 297.079V296.954C223.514 296.518 223.701 296.02 223.889 295.584V295.521C224.014 295.272 224.139 295.023 224.264 294.774C224.389 294.587 224.514 294.4 224.576 294.213L224.639 294.15C224.701 294.088 224.764 293.964 224.826 293.901C225.138 293.527 225.451 293.216 225.763 292.904L225.826 292.842L225.888 292.78L225.951 292.717L226.013 292.655L226.076 292.593C226.2 292.468 226.388 292.343 226.513 292.281C238.633 283.931 256.939 274.709 270.246 267.107L270.871 266.733L269.434 265.923L223.264 292.53L223.014 292.717V335.027C223.139 335.775 222.639 336.647 221.765 337.208ZM177.032 323.624C175.907 324.122 174.845 324.683 173.658 325.369C169.597 327.674 165.724 330.914 162.1 334.653C159.851 336.959 157.789 339.513 155.852 342.255C160.038 337.083 164.911 332.597 170.222 329.543L170.347 329.481C173.908 327.425 177.344 326.241 180.53 325.742L177.032 323.624ZM139.796 363.69C140.483 361.198 141.295 358.768 142.233 356.338C143.67 352.661 145.419 348.985 147.481 345.495L147.606 345.308C150.667 340.074 154.29 335.214 158.289 330.977C162.225 326.864 166.473 323.375 171.034 320.758C175.72 318.078 180.156 316.583 184.279 316.146C188.777 315.71 192.838 316.52 196.212 318.514C199.648 320.508 202.397 323.562 204.271 327.674C205.771 330.977 206.708 335.027 206.895 339.576L217.766 333.344L217.641 200.434L156.665 235.577C155.228 236.388 153.853 237.447 152.604 238.631C151.229 239.939 149.98 241.435 148.918 242.993C147.793 244.613 146.793 246.357 146.044 248.164C145.294 249.909 144.669 251.778 144.294 253.586C143.045 259.443 141.42 266.297 139.671 273.401C137.547 282.187 135.36 291.346 133.611 299.945C133.923 299.758 134.298 299.634 134.673 299.634C134.923 299.634 135.11 299.696 135.298 299.759L138.484 297.889C138.859 297.64 139.359 297.64 139.734 297.827V286.112C139.734 284.991 140.608 284.118 141.733 284.118C141.983 284.118 142.17 284.181 142.358 284.243L145.419 282.498L150.979 256.514C151.542 253.835 152.729 251.218 154.228 249.037C155.79 246.794 157.727 244.862 159.913 243.616L200.773 220.124C201.397 219.75 201.96 219.563 202.585 219.563H202.834C203.397 219.563 203.959 219.688 204.459 220C204.896 220.249 205.271 220.56 205.521 220.997L205.646 221.183C205.958 221.744 206.146 222.43 206.146 223.24V272.653C206.146 273.775 205.771 274.958 205.146 275.955C204.521 277.015 203.709 277.887 202.772 278.448L161.538 302.126V317.767C161.538 318.327 161.225 318.764 160.725 318.951L157.664 320.695C157.477 321.63 156.665 322.315 155.727 322.315C155.29 322.315 154.915 322.191 154.54 321.941L133.673 309.915C133.049 309.541 132.674 308.856 132.674 308.171V304.806C131.862 309.168 131.237 313.342 130.799 317.206L130.737 318.265V319.262V367.616L137.484 363.753C138.234 363.441 139.046 363.379 139.796 363.69ZM125.364 367.74V319.387L125.427 318.14L125.552 316.832C126.988 303.871 130.924 287.483 134.548 272.217C136.172 265.362 137.797 258.757 139.109 252.526C139.546 250.345 140.296 248.164 141.233 246.046C141.795 244.8 142.42 243.553 143.107 242.369L37.3978 181.491C31.9623 190.9 28.2763 201.618 25.7148 212.896V221.807C25.7148 221.931 25.7147 222.056 25.6522 222.18L21.9037 239.939V241.746C21.9037 242.307 21.6538 242.868 21.2789 243.242C19.7795 262.932 20.2168 282.934 20.4043 300.818C20.4043 300.942 20.4043 301.067 20.4043 301.192V306.862L125.364 367.74ZM146.044 238.008C146.918 236.886 147.918 235.764 148.98 234.767C150.542 233.272 152.229 231.963 154.041 230.904L213.33 196.757L108.371 136.315L46.3943 172.02C44.77 172.954 43.3954 174.076 42.1459 175.26C41.5212 175.883 40.9589 176.506 40.3966 177.191L146.044 238.008ZM118.554 136.066L217.704 193.143V169.527L118.554 112.45V136.066ZM9.28353 207.537L19.9669 213.706L20.2168 212.522L10.4705 206.914L9.28353 207.537ZM7.97154 211.4V233.023L16.5307 237.945C16.9056 233.77 17.4054 229.658 17.9677 225.545V217.133L7.97154 211.4ZM139.796 300.942L139.234 300.631L138.047 301.316L139.796 302.313V300.942ZM145.106 285.801L156.415 292.343L157.602 291.658L146.294 285.115L145.106 285.801ZM157.727 294.587V317.767L158.914 317.081V293.901L157.727 294.587ZM143.795 289.602V305.74C143.795 306.052 143.732 306.426 143.545 306.737C142.982 307.672 141.795 307.984 140.796 307.485L136.735 305.117V307.111L153.791 316.956V295.334L143.795 289.602ZM268.372 292.032C267.435 292.593 266.498 292.842 265.623 292.842C264.936 292.842 264.248 292.655 263.686 292.343L263.624 292.281C263.124 291.97 262.624 291.471 262.312 290.91L262.249 290.848C261.812 290.1 261.624 289.165 261.624 288.106C261.624 286.361 262.249 284.367 263.249 282.685L263.311 282.623C264.311 280.94 265.685 279.507 267.185 278.635L267.247 278.572C268.184 278.012 269.122 277.762 269.996 277.762C270.683 277.762 271.371 277.949 271.933 278.261L271.995 278.323C272.495 278.635 272.995 279.133 273.307 279.694C273.745 280.442 273.995 281.439 273.995 282.56C273.995 284.305 273.37 286.299 272.37 287.982C271.371 289.664 269.996 291.159 268.497 292.032H268.372ZM265.623 290.162C266.06 290.162 266.498 290.038 267.06 289.726L267.122 289.664C268.247 289.041 269.309 287.857 270.059 286.548C270.808 285.24 271.308 283.744 271.308 282.436C271.308 281.75 271.183 281.252 270.996 280.878C270.871 280.691 270.746 280.566 270.621 280.442H270.558C270.371 280.38 270.184 280.317 269.934 280.317C269.496 280.317 269.059 280.442 268.497 280.753L268.434 280.816C267.31 281.439 266.31 282.56 265.56 283.869L265.498 283.931C264.748 285.24 264.248 286.735 264.248 288.044C264.248 288.667 264.373 289.166 264.561 289.539V289.602C264.686 289.789 264.811 289.913 264.936 290.038H264.998C265.186 290.1 265.435 290.162 265.623 290.162ZM112.432 348.611C113.494 349.234 114.493 349.545 115.368 349.545C115.868 349.545 116.305 349.421 116.68 349.234L116.742 349.172C117.055 348.985 117.367 348.673 117.555 348.237C117.992 347.489 118.179 346.492 118.179 345.246C118.179 342.816 117.305 340.074 115.868 337.582L115.805 337.457C114.368 335.027 112.494 332.971 110.37 331.724L110.307 331.662C109.245 331.101 108.308 330.79 107.496 330.79C106.996 330.79 106.559 330.914 106.184 331.101C105.809 331.288 105.497 331.662 105.247 332.036L105.184 332.098C104.809 332.784 104.56 333.781 104.56 335.027C104.56 337.457 105.434 340.199 106.871 342.691C108.371 345.246 110.307 347.427 112.432 348.611ZM115.368 353.533C113.868 353.533 112.182 353.035 110.432 352.038C107.683 350.48 105.247 347.801 103.497 344.748C101.748 341.694 100.624 338.267 100.624 335.089C100.624 333.158 100.998 331.537 101.748 330.229L101.811 330.104C102.435 329.045 103.248 328.235 104.185 327.674C105.184 327.113 106.246 326.802 107.496 326.802C108.995 326.802 110.62 327.238 112.307 328.235L112.432 328.297C115.118 329.855 117.555 332.472 119.304 335.463L119.366 335.588C121.116 338.641 122.24 342.068 122.24 345.246C122.24 347.24 121.803 348.922 121.053 350.231C120.491 351.228 119.679 352.038 118.804 352.536L118.679 352.599C117.679 353.222 116.617 353.533 115.368 353.533ZM95.3131 338.142V314.963L91.5021 312.782V335.962L95.3131 338.142ZM97.9995 314.215V340.448C97.9995 340.697 97.9371 340.884 97.8121 341.133C97.4373 341.757 96.6251 342.006 96.0004 341.632L89.5652 337.956C89.1279 337.706 88.878 337.27 88.878 336.772V310.538C88.878 310.289 88.9406 310.102 89.0655 309.853C89.4404 309.23 90.2525 308.981 90.8773 309.354L97.3123 313.031C97.6872 313.28 97.9995 313.716 97.9995 314.215ZM53.6415 314.152V290.973L49.8304 288.792V311.972L53.6415 314.152ZM56.328 290.225V316.458C56.328 316.707 56.2655 316.894 56.1406 317.143C55.7657 317.767 54.9535 318.016 54.3287 317.642L47.8937 313.966C47.4564 313.716 47.2065 313.28 47.2065 312.782V286.548C47.2065 286.299 47.2689 286.112 47.3939 285.863C47.7687 285.24 48.581 284.991 49.2057 285.365L55.6408 289.041C56.0156 289.29 56.328 289.726 56.328 290.225ZM81.4434 306.987V330.167L85.2545 332.347V309.168L81.4434 306.987ZM78.8194 330.914V304.681C78.8194 304.432 78.8819 304.245 79.0069 303.996C79.3817 303.373 80.1939 303.123 80.8186 303.497L87.2537 307.174C87.691 307.423 87.9409 307.859 87.9409 308.357V334.591C87.9409 334.84 87.8784 335.027 87.7535 335.276C87.3786 335.899 86.5665 336.148 85.9417 335.775L79.5066 332.098C79.0693 331.849 78.8194 331.413 78.8194 330.914ZM74.7584 326.303V303.123L70.9474 300.942V324.122L74.7584 326.303ZM77.3824 302.376V328.609C77.3824 328.858 77.32 329.045 77.195 329.294C76.8201 329.917 76.008 330.167 75.3832 329.793L68.9482 326.116C68.5109 325.867 68.261 325.431 68.261 324.932V298.699C68.261 298.45 68.3234 298.263 68.4484 298.014C68.8232 297.391 69.6354 297.141 70.2601 297.515L76.6952 301.192C77.07 301.441 77.3824 301.877 77.3824 302.376ZM60.3889 294.898V318.078L64.2 320.259V297.079L60.3889 294.898ZM57.7025 318.265V292.966C57.7025 292.53 57.8899 292.094 58.2648 291.783C58.5771 291.533 58.952 291.471 59.3268 291.471C59.6392 291.471 59.8891 291.596 60.2015 291.72L66.1367 295.147C66.574 295.397 66.8239 295.833 66.8239 296.331V322.565C66.8239 322.814 66.7615 323.001 66.6365 323.25C66.2617 323.873 65.4495 324.122 64.8248 323.748L58.827 320.321C58.5146 320.134 58.2648 319.885 58.0773 319.574L58.0149 319.449C57.8275 319.013 57.7025 318.639 57.7025 318.265ZM4.66027 314.526V326.864L124.489 395.843V383.505L4.66027 314.526ZM148.105 372.102V388.054C148.105 388.49 147.98 388.864 147.731 389.238C147.918 389.674 148.168 390.11 148.418 390.547C149.417 392.291 150.667 393.6 152.104 394.597L152.854 395.033C153.853 395.594 154.978 396.03 156.102 396.279C159.289 396.965 162.912 396.404 166.473 394.971C167.785 394.472 169.035 393.849 170.284 393.164L170.409 393.101C173.97 391.045 177.407 388.241 180.53 385.001C183.779 381.574 186.716 377.586 189.215 373.286C191.651 369.049 193.65 364.5 195.025 359.952C196.337 355.59 197.024 351.29 197.024 347.178C197.024 342.504 196.087 338.641 194.463 335.775L194.4 335.65C193.276 333.656 191.776 332.161 190.027 331.101L189.902 331.039C188.153 330.042 186.028 329.481 183.717 329.481C180.343 329.481 176.532 330.603 172.471 332.908L172.346 332.971C166.411 336.398 161.038 341.694 156.665 347.863C152.291 354.094 148.98 361.136 147.231 367.927L147.481 368.052C148.73 368.8 149.167 370.42 148.48 371.666C148.293 371.853 148.168 371.978 148.105 372.102ZM128.488 383.505V395.843L144.044 386.87V374.533L128.488 383.505ZM15.0938 306.239L7.97154 310.351L126.489 378.583L140.733 370.358L138.734 369.236L129.3 374.657C128.488 375.093 127.488 375.156 126.676 374.657L16.5932 311.286C15.781 310.912 15.2188 310.164 15.0938 309.23V308.918V308.856V306.239ZM34.3989 303.871C35.461 304.432 36.3982 304.743 37.2104 304.743C37.7102 304.743 38.1474 304.619 38.5223 304.432C38.8971 304.245 39.2096 303.871 39.4595 303.497C39.8968 302.749 40.0842 301.752 40.0842 300.506C40.0842 298.076 39.2096 295.334 37.7726 292.842L37.7102 292.717C36.2732 290.287 34.3989 288.231 32.2747 286.985L32.2122 286.922C31.1501 286.362 30.213 286.05 29.4008 286.05C28.901 286.05 28.4637 286.174 28.0888 286.361C27.7139 286.548 27.4016 286.922 27.1517 287.296L27.0892 287.358C26.7143 288.044 26.4645 289.041 26.4645 290.287C26.4645 292.717 27.3391 295.459 28.776 297.951C30.213 300.444 32.1498 302.562 34.274 303.809L34.3989 303.871ZM37.2728 308.731C35.7734 308.731 34.149 308.295 32.4621 307.298L32.3372 307.236C29.5883 305.678 27.1517 302.999 25.4024 299.945C23.653 296.892 22.5284 293.465 22.5284 290.287C22.5284 288.355 22.9658 286.735 23.653 285.427L23.7155 285.302C24.3403 284.243 25.1525 283.433 26.0896 282.872C27.0892 282.311 28.1513 282 29.4008 282C30.9003 282 32.5246 282.436 34.2114 283.433L34.3364 283.495C37.0229 285.053 39.4595 287.67 41.2088 290.661L41.2713 290.786C43.0206 293.839 44.1452 297.266 44.1452 300.444C44.1452 302.438 43.7078 304.12 42.9581 305.429C42.3334 306.488 41.5212 307.298 40.584 307.859C39.5844 308.42 38.4598 308.731 37.2728 308.731ZM40.6466 192.52L134.611 246.669C135.36 247.043 135.86 247.978 135.673 248.85L122.553 310.414C122.49 310.601 122.428 310.788 122.303 310.975C121.74 311.909 120.553 312.283 119.554 311.722L25.5898 257.573C24.8401 257.2 24.3403 256.265 24.5277 255.393L37.6476 193.829C37.7101 193.642 37.7726 193.455 37.8976 193.268C38.4599 192.333 39.6469 192.022 40.6466 192.52ZM155.977 379.642C154.79 377.586 154.103 374.906 154.103 371.791C154.103 366.619 155.915 360.886 158.851 355.839C161.788 350.792 165.849 346.43 170.347 343.813C173.096 342.255 175.72 341.445 178.094 341.445C179.906 341.445 181.593 341.881 183.029 342.754C184.466 343.626 185.716 344.81 186.591 346.368C187.778 348.424 188.465 351.103 188.465 354.219C188.465 359.391 186.653 365.123 183.717 370.108C180.78 375.156 176.719 379.58 172.284 382.135C169.535 383.692 166.911 384.502 164.474 384.502C162.662 384.502 160.975 384.066 159.539 383.194C158.102 382.446 156.914 381.2 155.977 379.642ZM294.799 294.026L301.672 298.014C300.485 294.961 299.797 291.346 299.797 287.234C299.797 282.747 300.547 278.012 301.984 273.338C303.421 268.478 305.545 263.68 308.169 259.131C310.793 254.583 313.917 250.345 317.416 246.669C320.789 243.117 324.475 240.064 328.411 237.821C331.973 235.764 335.471 234.518 338.72 234.02L335.346 232.088C333.597 232.711 331.723 233.584 329.848 234.643L329.723 234.705C325.6 237.073 321.601 240.313 318.04 244.114C314.229 248.102 310.856 252.713 307.982 257.573C305.108 262.496 302.796 267.668 301.234 272.902C299.735 277.887 298.86 282.872 298.798 287.608V287.857C298.798 288.979 298.423 290.162 297.861 291.159C297.236 292.219 296.424 293.091 295.486 293.652L294.799 294.026ZM341.031 230.717L350.028 235.889L350.215 236.014C353.027 237.696 355.276 240.251 356.838 243.678C357.713 245.61 358.337 247.728 358.712 250.096C358.587 245.859 357.775 242.307 356.401 239.378C354.964 236.263 352.84 233.895 350.278 232.4C347.716 230.966 344.593 230.343 341.094 230.717H341.031ZM310.668 303.186L310.918 303.31C313.105 304.556 315.729 305.055 318.665 304.806C321.664 304.494 324.913 303.373 328.411 301.379C331.973 299.322 335.346 296.518 338.532 293.278C341.781 289.851 344.718 285.863 347.217 281.564C349.653 277.326 351.652 272.778 353.027 268.229C354.339 263.867 355.026 259.567 355.026 255.455C355.026 251.467 354.339 248.04 353.089 245.36C351.902 242.681 350.153 240.687 348.029 239.441L347.779 239.316L347.654 239.254C345.53 238.07 342.968 237.634 340.157 237.883C337.158 238.195 333.909 239.316 330.411 241.31C326.849 243.366 323.413 246.17 320.289 249.411C317.041 252.838 314.104 256.826 311.605 261.063L311.543 261.125C309.106 265.362 307.107 269.911 305.733 274.46C304.421 278.822 303.733 283.121 303.733 287.234C303.733 291.222 304.421 294.649 305.67 297.391C306.982 299.945 308.606 301.877 310.668 303.186ZM313.542 272.154C314.354 269.413 315.541 266.733 317.041 264.178C318.54 261.624 320.289 259.194 322.226 257.137C324.163 255.143 326.225 253.399 328.474 252.09C330.785 250.781 333.035 250.034 335.096 249.847C337.283 249.66 339.345 250.034 341.031 250.968L341.469 251.218C343.156 252.215 344.468 253.773 345.342 255.766C346.217 257.636 346.654 259.941 346.654 262.621C346.654 265.113 346.217 267.73 345.467 270.41C344.718 273.089 343.531 275.706 342.156 278.199C342.094 278.323 342.031 278.448 341.969 278.572C340.469 281.127 338.72 283.495 336.783 285.614C334.846 287.608 332.722 289.352 330.536 290.661C328.224 291.97 325.975 292.717 323.913 292.966C321.601 293.216 319.54 292.78 317.79 291.72C316.041 290.723 314.604 289.103 313.667 287.047C312.792 285.178 312.355 282.872 312.355 280.193C312.293 277.513 312.73 274.834 313.542 272.154Z" fill="#3D6680"/>
</g>
</svg>
