<svg width="330" height="371" viewBox="0 0 330 371" fill="none" xmlns="http://www.w3.org/2000/svg">
<g opacity="0.1">
<path d="M365.316 169.439L361.982 167.488L351.751 172.595L352.096 210.294L347.325 221.943L340.313 230.206L335.14 233.993L332.898 232.214L332.553 224.123L328.415 217.238L321.978 212.417L313.643 211.729L311.114 212.245L318.299 217.582L323.932 221.082L328.53 228.599L329.852 241.625L323.012 260.388L315.195 270.832L307.493 277.947L300.308 282.136L294.446 283.513L281.628 279.783L269.328 271.979L256.05 279.669L255.361 287.53L253.924 291.145L210.298 315.934L201.848 311.745L190.468 316.909L184.95 314.671L184.088 320.582L182.363 332.287L178.512 343.19L168.109 357.019L160.694 363.675L150.406 369.012C162.706 367.807 186.387 364.249 198.745 361.15C201.906 360.347 204.952 359.314 207.539 357.765L224.437 348.01L301.688 303.482C314.563 301.301 325.196 299.35 329.277 298.318C332.439 297.514 335.485 296.481 338.071 294.932L405.723 255.913L490.331 207.081C493.262 205.36 494.986 202.433 494.986 199.048C494.986 195.662 493.262 192.736 490.331 191.014C461.879 174.718 407.85 143.789 375.547 125.427C374.455 124.796 373.363 124.165 372.386 123.591L372.616 165.766L365.316 169.439Z" fill="#193F63" fill-opacity="0.102"/>
<path d="M285.249 283.455L268.58 273.873L257.602 280.242C257.545 283.57 257.43 286.21 257.142 287.587C257.142 288.62 256.798 289.653 256.223 290.571C255.705 291.489 254.901 292.35 254.039 292.809L211.505 317.31C210.873 317.655 210.24 317.884 209.608 317.884C209.148 317.884 208.688 317.77 208.286 317.597L208.114 317.54L201.331 313.638C198.572 315.187 195.698 316.737 193.284 318.286C192.307 318.917 190.928 319.72 189.318 319.319C188.744 319.204 188.284 318.917 187.824 318.573L185.697 317.31C185.812 318.343 185.87 319.491 185.87 320.639C185.87 324.77 185.18 329.131 183.858 333.435C182.536 337.91 180.582 342.329 178.168 346.518C175.754 350.707 172.88 354.608 169.661 357.994C166.557 361.265 163.108 364.076 159.545 366.142L159.43 366.199C158.108 366.945 156.786 367.577 155.464 368.093C151.555 369.642 147.474 370.216 143.796 369.47C142.014 369.069 140.29 368.38 138.738 367.347L131.093 362.929L118.276 370.331C117.701 370.675 117.011 370.675 116.436 370.331L2.51486 304.686C1.94008 304.342 1.59519 303.711 1.59519 303.08V288.39C0.90545 287.644 0.790521 286.497 1.30782 285.578C1.53773 285.119 1.94008 284.832 2.34243 284.603L14.8151 277.43C14.7002 261.478 14.4128 242.657 15.7923 224.238L5.50369 218.327C4.92891 217.983 4.58407 217.352 4.58407 216.721V192.563C4.58407 191.53 5.38876 190.727 6.42336 190.727C6.65327 190.727 6.8257 190.784 6.99813 190.842L9.92952 189.12C10.3319 188.891 10.7917 188.891 11.1366 189.12L20.0456 194.285C22.6896 182.808 26.5982 172.25 32.346 163.7C32.4034 163.585 32.4609 163.528 32.5184 163.413C33.6679 161.807 34.8749 160.315 36.2544 158.937C37.6914 157.56 39.2432 156.298 41.0825 155.208C59.533 144.477 79.8802 131.739 98.6181 122.041C99.1354 121.812 99.4802 121.639 100.055 121.582C100.687 121.467 101.319 121.582 102.067 121.812C102.239 121.869 102.412 121.984 102.584 122.041L105.056 123.476V100.294C105.056 99.8919 105.171 99.4902 105.4 99.0885C105.688 98.6295 106.09 98.2278 106.608 98.0557L116.954 91.9158C117.701 91.5141 118.62 91.4568 119.425 91.9158L121.609 93.1782L135.806 84.9153V82.7348C135.749 81.8167 136.151 80.9559 137.013 80.4395L143.164 76.8245C143.911 76.3655 144.83 76.3655 145.635 76.8245L147.819 78.0869L161.959 69.8813V67.4713C161.959 66.6106 162.419 65.8073 163.166 65.3482L169.316 61.7332C170.063 61.3315 170.983 61.2741 171.788 61.7332L173.972 62.9956L188.111 54.79V52.6095C188.054 51.6914 188.456 50.8306 189.318 50.3142L195.468 46.6992C196.216 46.2976 197.135 46.2402 197.94 46.6992L200.124 47.9616L214.264 39.756V37.5755C214.206 36.6574 214.609 35.7967 215.471 35.2803L221.621 31.6652C222.368 31.2635 223.288 31.2062 224.093 31.6652L226.219 32.8703L240.359 24.6073V22.1973C240.359 21.3366 240.819 20.5333 241.566 20.0742L247.716 16.4592C248.463 16.0575 249.383 16.0001 250.188 16.4592L252.314 17.6642L266.511 9.40125V7.22072C266.454 6.30262 266.856 5.44189 267.718 4.92545L273.868 1.31043C274.616 0.908763 275.535 0.851381 276.34 1.31043L372.386 56.6836C373.133 57.0852 373.65 57.8886 373.65 58.8067L373.765 165.708C373.823 166.627 373.42 167.487 372.558 168.004L366.408 171.619C365.661 172.02 364.741 172.078 363.937 171.619L361.81 170.414L352.786 175.636V209.146C352.786 211.327 352.441 213.622 351.751 215.917V216.032C351.061 218.327 350.027 220.68 348.762 222.86L348.705 222.975C347.44 225.156 345.888 227.221 344.222 229.058C342.555 230.837 340.715 232.328 338.819 233.419L338.244 233.763C336.807 234.624 334.45 236.058 332.898 235.542C332.266 235.312 331.749 234.911 331.404 234.337L331.346 234.222C331.289 234.107 331.232 233.935 331.174 233.82C331.232 234.681 331.289 235.542 331.289 236.403C331.289 240.534 330.599 244.895 329.277 249.199C327.955 253.674 326.001 258.093 323.587 262.282C321.173 266.47 318.299 270.372 315.08 273.758C311.976 277.029 308.585 279.84 304.964 281.906C301.285 284.029 297.779 285.177 294.503 285.521C291.054 285.636 287.893 285.005 285.249 283.455ZM151.21 351.338V329.016C150.866 329.475 150.578 329.992 150.291 330.508C147.934 334.64 146.44 339.23 146.44 343.362C146.44 345.6 146.9 347.436 147.647 348.813C148.164 349.674 148.796 350.362 149.601 350.821C150.118 350.993 150.636 351.223 151.21 351.338ZM153.395 326.032V351.338C154.717 351.166 156.154 350.649 157.648 349.788C159.717 348.583 161.729 346.862 163.453 344.854V319.261C162.246 319.491 160.867 319.95 159.487 320.811C157.303 322.016 155.234 323.852 153.395 326.032ZM165.695 319.147V341.927C166.097 341.296 166.5 340.665 166.902 340.034C169.259 335.902 170.753 331.312 170.753 327.18C170.753 324.942 170.293 323.106 169.546 321.786C169.029 320.868 168.339 320.237 167.592 319.778C166.959 319.434 166.327 319.261 165.695 319.147ZM297.952 267.044V242.887C297.205 243.92 296.457 244.952 295.825 246.1C294.618 248.223 293.641 250.461 292.951 252.699C292.319 254.822 291.974 256.945 291.974 258.953C291.974 260.847 292.319 262.454 292.894 263.774C293.469 264.979 294.216 265.897 295.193 266.413C295.94 266.815 296.86 267.044 297.952 267.044ZM300.136 240.304V266.7C301.113 266.413 302.148 266.011 303.182 265.38C304.907 264.347 306.573 263.028 308.125 261.421C308.873 260.618 309.562 259.814 310.195 258.953V234.738C310.022 234.738 309.792 234.738 309.62 234.796C308.24 234.911 306.688 235.484 305.022 236.403C303.297 237.321 301.63 238.698 300.136 240.304ZM312.379 235.025V255.625L312.551 255.338C313.701 253.273 314.62 251.092 315.253 248.969C315.885 246.903 316.172 244.838 316.172 242.829C316.172 240.936 315.827 239.329 315.253 238.067C314.735 236.862 313.931 235.943 312.953 235.427L312.781 235.312C312.724 235.198 312.551 235.14 312.379 235.025ZM321.633 186.079L334.565 163.7L334.508 131.337L321.575 153.716L321.633 186.079ZM336.979 159.511L338.416 156.987L338.359 124.623L336.922 127.148L336.979 159.511ZM340.888 152.74L342.842 149.412L342.785 117.049L340.83 120.377L340.888 152.74ZM347.728 140.977L360.66 118.598L360.603 86.2351L347.67 108.614L347.728 140.977ZM363.074 114.352L364.626 111.713L364.569 79.3493L363.017 81.9888L363.074 114.352ZM367.04 107.524L368.88 104.31L368.822 71.9471L366.983 75.1604L367.04 107.524ZM368.937 108.671L367.098 111.885L367.155 144.248L368.995 141.034L368.937 108.671ZM364.626 116.073L363.074 118.713L363.132 151.076L364.684 148.437L364.626 116.073ZM360.66 122.959L347.728 145.338L347.785 172.996L351.924 170.586L360.775 155.322L360.66 122.959ZM342.842 153.773L340.888 157.101V180.685L342.842 179.537V177.185V153.773ZM338.474 161.347L337.037 163.872V180.57L337.152 180.628L338.474 181.374V161.347ZM334.565 168.061L323.644 186.882L334.565 180.513V168.061ZM285.766 211.327L286.284 210.466L286.226 178.103L284.732 180.685L284.789 210.696L284.904 210.753L285.766 211.327ZM288.698 206.277L290.652 202.949L290.595 170.586L288.64 173.914L288.698 206.277ZM295.48 194.514L308.413 172.135L308.355 139.772L295.423 162.151L295.48 194.514ZM310.884 167.889L312.321 165.364L312.264 133.001L310.827 135.526L310.884 167.889ZM314.793 161.175L316.747 157.847L316.69 125.484L314.735 128.812L314.793 161.175ZM321.575 149.412L334.508 127.033L334.45 94.6702L321.518 117.049L321.575 149.412ZM336.979 122.787L338.416 120.262L338.359 87.8991L336.922 90.4239L336.979 122.787ZM340.83 116.073L342.785 112.745L342.727 80.3822L340.773 83.7103L340.83 116.073ZM347.67 104.253L360.603 81.8741V66.3237L347.67 73.8407V104.253ZM363.074 77.6852L364.626 75.0457V62.6513L271.569 9.05697V10.8358L362.442 63.1677C362.557 63.2251 362.615 63.2825 362.672 63.3398C362.787 63.4546 362.844 63.512 362.902 63.6268C362.959 63.6842 362.959 63.7415 362.959 63.7989V63.8563L363.017 63.971C363.017 64.0284 363.017 64.1432 363.017 64.2005L363.074 77.6852ZM367.04 70.7995L368.88 67.5861V60.1838L275.248 6.24525L273.409 7.33551L366.408 60.9298C366.81 61.1594 367.04 61.561 367.04 62.0201V70.7995ZM316.69 162.151L314.735 165.479L314.793 195.834L316.747 194.686V192.333L316.69 162.151ZM312.321 169.725L310.884 172.25V195.662L310.999 195.719L312.321 196.465V169.725ZM308.413 176.496L295.48 198.875V203.236L308.413 195.719V176.496ZM290.595 207.31L288.64 210.638V210.925L290.537 209.778V207.482L290.595 207.31ZM256.05 225.902L256.108 225.787L256.05 193.424L243.118 215.803V233.361L256.05 225.902ZM258.579 221.598L260.074 219.016L260.016 186.653L258.522 189.235L258.579 221.598ZM262.488 214.77L264.442 211.442L264.385 179.078L262.43 182.406L262.488 214.77ZM269.328 203.006L282.26 180.628L282.203 148.265L269.27 170.643L269.328 203.006ZM284.732 176.381L286.226 173.799L286.169 141.436L284.674 144.018L284.732 176.381ZM288.64 169.61L290.595 166.282L290.537 133.919L288.583 137.247L288.64 169.61ZM295.423 157.79L308.355 135.411L308.298 103.048L295.365 125.427L295.423 157.79ZM310.827 131.222L312.264 128.697L312.206 96.3342L310.769 98.859L310.827 131.222ZM314.735 124.451L316.69 121.123L316.632 91.8585L314.678 93.0061L314.735 124.451ZM321.518 112.688L334.45 90.3091V81.5298L321.518 89.0467V112.688ZM336.922 86.063L338.359 83.5382V77.6852L245.359 24.0909V25.8697L336.232 78.2016C336.347 78.259 336.405 78.3164 336.462 78.3738C336.577 78.4885 336.634 78.5459 336.692 78.6607C336.749 78.7181 336.749 78.7755 336.749 78.8328V78.8903L336.807 79.005C336.807 79.0624 336.807 79.1772 336.807 79.2346L336.922 86.063ZM340.83 79.3493L342.152 77.1114L340.83 77.8574V79.3493ZM282.26 184.931L269.328 207.31V218.27L282.26 210.753V184.931ZM264.442 215.745L262.488 219.073V225.959L264.385 224.811V222.516L264.442 215.745ZM260.074 223.32L258.637 225.844L258.752 225.902L260.131 226.705L260.074 223.32ZM224.15 244.321L224.207 244.264L229.955 234.279L229.898 201.916L216.965 224.295V248.453L224.15 244.321ZM232.427 230.033L233.921 227.451L233.864 195.088L232.369 197.67L232.427 230.033ZM236.335 223.262L238.29 219.934L238.232 187.571L236.278 190.899L236.335 223.262ZM243.175 211.499L256.108 189.12L256.05 156.757L243.118 179.136L243.175 211.499ZM258.522 184.874L260.016 182.292L259.959 149.929L258.464 152.511L258.522 184.874ZM262.488 178.046L264.442 174.717L264.385 142.354L262.43 145.682L262.488 178.046ZM269.27 166.282L282.203 143.904L282.145 111.713L281.973 111.77L269.155 133.862L269.27 166.282ZM284.674 139.715L286.169 137.132L286.111 108.04L193.054 54.4457V56.1672L283.927 108.499C284.042 108.556 284.1 108.614 284.157 108.671C284.272 108.729 284.329 108.843 284.387 108.958C284.444 109.016 284.444 109.073 284.444 109.13V109.188L284.502 109.302C284.502 109.36 284.502 109.475 284.502 109.532L284.674 139.715ZM288.583 132.886L290.537 129.558V107.007L288.583 108.155V132.886ZM295.423 121.123L308.355 98.7442V96.6785L295.423 104.195V121.123ZM310.769 94.4981L311.861 92.6618L219.264 39.297V41.0758L310.137 93.4078H310.195H310.252H310.31L310.367 93.4651V93.5225V93.5799L310.769 94.4981ZM238.29 224.238L236.335 227.566V241.05L238.232 239.903V237.78H238.29V237.55V224.238ZM233.921 231.812L232.427 234.394V240.936L232.542 240.993L233.921 241.796V231.812ZM229.955 238.64L227.944 242.141L229.955 240.993V238.64ZM206.217 238.583L212.08 228.426L212.022 196.063L206.159 206.22L206.217 238.583ZM216.965 219.934L229.898 197.555L229.84 165.192L216.908 187.571L216.965 219.934ZM232.369 193.366L233.864 190.784L233.806 158.421L232.312 161.003L232.369 193.366ZM236.278 186.538L238.232 183.21L238.175 150.847L236.22 154.175L236.278 186.538ZM243.118 174.775L256.05 152.396V126.804L250.13 130.247L243.06 142.412L243.118 174.775ZM258.464 148.15L259.959 145.568V123.074L166.902 69.4797V71.2011L257.775 123.533C258.005 123.648 258.177 123.82 258.292 123.992C258.407 124.222 258.464 124.451 258.464 124.681V148.15ZM262.43 141.379L264.385 138.051V122.099L262.43 123.246V141.379ZM269.27 129.558L278.294 114.008L269.27 119.229V129.558ZM280.708 109.761L280.823 109.532L191.847 58.2902L178.915 65.8073L267.948 117.106H268.006L280.708 109.761ZM212.08 232.73L206.217 242.887V258.494L212.08 255.052L212.137 252.699L212.08 232.73ZM206.217 201.859L212.08 191.702L212.022 159.339L206.159 169.438L206.217 201.859ZM216.965 183.267L229.898 160.888V141.895L218.23 148.666L216.965 150.904V183.267ZM232.312 156.642L233.806 154.06V138.165L140.749 84.571V86.2924L231.622 138.624C231.737 138.682 231.795 138.739 231.852 138.797C231.967 138.854 232.025 138.969 232.082 139.083C232.139 139.141 232.139 139.198 232.139 139.256V139.313L232.197 139.428C232.197 139.485 232.197 139.6 232.197 139.657L232.312 156.642ZM236.278 149.871L238.232 146.543V137.19L236.278 138.338V149.871ZM243.06 138.051L246.337 132.427L243.06 134.321V138.051ZM206.159 165.135L212.022 155.035V152.281L206.159 155.667V165.135ZM368.995 145.338L367.155 148.551V165.536L369.052 164.446L368.995 145.338ZM364.684 152.798L363.132 155.437V165.422L363.247 165.479L364.626 166.282L364.684 152.798ZM360.718 159.626L355.66 168.348L360.718 165.422V159.626ZM210.125 263.888V261.937L206.217 264.233V266.126L210.125 263.888ZM212.597 260.388V262.396L224.15 255.74V249.945L216.965 254.133L216.908 256.486C216.908 257.289 216.448 258.093 215.701 258.552L212.597 260.388ZM226.679 248.51V254.306L238.232 247.649V245.641L235.761 247.076C235.013 247.477 234.094 247.535 233.289 247.076L231.162 245.87L226.679 248.51ZM240.761 244.149V246.215L247.314 242.428L247.773 242.255C247.888 242.198 248.003 242.141 248.118 242.141L248.521 242.026C248.693 241.969 248.808 241.969 248.981 241.969H249.268C249.498 241.969 249.67 242.026 249.9 242.083L250.245 242.198L250.532 242.37L252.314 243.403V233.763L243.175 239.099V241.223C243.233 242.083 242.773 243.001 241.968 243.46L240.761 244.149ZM254.843 232.271V244.838L255.476 245.239L255.59 245.297C255.993 245.526 256.338 245.87 256.568 246.33C256.798 246.789 256.97 247.305 257.027 247.936V248.166C257.027 253.273 257.545 266.126 257.545 275.938L266.339 270.831V229.345L261.913 231.984C261.166 232.386 260.246 232.443 259.441 231.984L257.315 230.779L254.843 232.271ZM268.925 227.623V269.397L270.995 268.192C271.339 268.02 271.627 267.675 271.857 267.216C272.087 266.815 272.259 266.356 272.259 266.011V265.782C272.317 261.077 273.179 256.142 274.673 251.207C276.11 246.559 278.064 241.911 280.536 237.55V217.467L269.385 223.951V226.074C269.328 226.648 269.213 227.221 268.925 227.623ZM282.95 216.032V233.419C285.307 229.746 288.008 226.303 290.939 223.262C292.089 222.057 293.296 220.852 294.561 219.762V213.106C294.503 213.163 294.388 213.22 294.331 213.278L288.181 216.893C287.433 217.294 286.514 217.352 285.709 216.893L283.582 215.688L282.95 216.032ZM297.032 207.999V217.639C298.814 216.262 300.653 214.999 302.493 213.909L302.607 213.852C304.619 212.704 306.631 211.786 308.585 211.097V201.228L297.032 207.999ZM311.114 201.457V210.409C312.264 210.122 313.356 209.95 314.448 209.835C317.437 209.548 320.196 209.835 322.667 210.753V193.137L321.633 193.768V195.949C321.69 196.867 321.288 197.727 320.426 198.244L314.276 201.859C313.528 202.26 312.609 202.318 311.804 201.859L311.114 201.457ZM325.196 191.702V211.901C328.185 213.622 330.599 216.319 332.209 219.877C333.703 223.09 334.565 227.107 334.68 231.697C335.14 231.41 335.887 230.894 336.462 230.55L336.749 230.377V186.079L335.83 185.562L325.196 191.702ZM339.221 187.054V228.656C340.083 227.967 340.888 227.221 341.635 226.418C343.129 224.869 344.451 223.033 345.601 221.024L345.659 220.91C346.751 218.959 347.67 216.95 348.303 214.884V214.827C348.877 212.876 349.165 210.925 349.165 209.089V177.759L347.67 178.619V180.8C347.728 181.718 347.325 182.579 346.463 183.095L340.313 186.71C340.083 186.882 339.623 187.054 339.221 187.054ZM144.198 265.667V235.657C143.911 236.402 143.681 237.149 143.508 237.952L138.335 262.282L144.198 265.667ZM146.382 231.812V265.323L156.498 259.986V224.869L150.003 228.599C148.681 229.287 147.417 230.435 146.382 231.812ZM156.498 271.118V262.741L147.417 267.561L149.084 268.536C149.256 268.651 149.429 268.766 149.544 268.995C149.659 269.167 149.716 269.397 149.716 269.626V275.135L156.498 271.118ZM158.683 223.549V258.781L168.799 253.445V217.754L158.683 223.549ZM158.683 261.536V269.856L168.799 264.06V256.199L158.683 261.536ZM170.925 216.434V252.24L181.042 246.903V210.638L170.925 216.434ZM170.925 255.052V262.798L181.042 257.002V249.715L170.925 255.052ZM183.226 209.376V245.756L186.962 243.747V207.195L183.226 209.376ZM183.226 248.51V255.683L185.697 254.248C186.042 254.076 186.33 253.732 186.559 253.273C186.789 252.871 186.962 252.412 186.962 252.068V246.502L183.226 248.51ZM111.033 281.677V267.044L109.826 266.47C109.596 266.356 109.424 266.184 109.309 265.954L101.32 251.666L100.975 251.494V278.119L110.631 283.685L111.033 281.677ZM111.033 264.003V224.41L100.917 218.614V248.625L102.699 249.658C102.929 249.772 103.101 249.945 103.216 250.174L111.033 264.003ZM113.217 225.672V265.323L114.367 265.897L121.897 230.664L113.217 225.672ZM113.217 268.077V271.405L113.85 268.364L113.217 268.077ZM98.7905 276.799V250.174L88.6744 244.493V271.004L98.7905 276.799ZM98.7905 247.42V217.352L88.6744 211.556V241.739L98.7905 247.42ZM86.4902 269.741V243.288L79.3629 239.272L76.4316 240.018V263.946L86.4902 269.741ZM86.4902 240.477V210.294L76.3741 204.498V237.493L79.1905 236.804C79.4779 236.747 79.8228 236.747 80.1102 236.919L86.4902 240.477ZM74.2474 262.626V240.534L67.5799 242.198C67.235 242.255 66.8902 242.198 66.6028 242.026L64.1313 240.591V256.83L74.2474 262.626ZM74.2474 238.009V203.179L64.1313 197.383V237.722L67.465 239.673L74.2474 238.009ZM61.9471 255.568V239.272L51.831 233.304V249.715L61.9471 255.568ZM61.9471 236.46V196.121L51.831 190.325V230.492L61.9471 236.46ZM49.6468 248.51V232.041L39.5307 226.074V242.657L49.6468 248.51ZM49.6468 229.23V189.063L39.5307 183.267V223.262L49.6468 229.23ZM37.404 241.452V224.811L30.6216 220.795L27.4603 235.657L37.404 241.452ZM37.404 221.942V188.948L31.1389 218.27L37.404 221.942ZM210.183 284.488L219.437 268.479L211.562 273.012L211.275 273.241L211.045 273.471L210.873 273.701L210.643 274.102L210.47 274.389L210.355 274.733L210.298 275.02V275.365V284.488H210.183ZM223.748 266.011L210.183 289.48V309.908V312.548L243.807 254.42L223.748 266.011ZM248.118 251.953L213.402 311.974L233.461 300.44L253.406 265.897V248.912L248.118 251.953ZM253.406 270.889L237.772 297.916L252.142 289.653C252.429 289.48 252.774 289.136 253.004 288.734C253.234 288.333 253.406 287.931 253.406 287.529V270.889ZM186.444 313.523C186.272 310.08 185.582 307.154 184.49 304.744C183.226 301.932 181.386 299.867 179.087 298.547C176.846 297.227 174.087 296.71 171.04 296.997C170.178 297.055 169.373 297.227 168.454 297.456L177.478 302.621L177.593 302.678C179.777 303.941 181.559 305.777 182.938 308.187L182.996 308.302C183.743 309.564 184.318 310.999 184.778 312.548L186.444 313.523ZM247.256 22.4268L339.681 75.6768L341.52 74.5867L251.337 22.5989C251.28 22.5415 251.165 22.4842 251.107 22.4268L249.095 21.2792L247.256 22.4268ZM346.406 71.7749L359.396 64.258L270.305 12.9015L257.372 20.4185L346.406 71.7749ZM221.161 37.5755L313.586 90.8256L315.425 89.7354L225.185 37.7477C225.127 37.6904 225.012 37.6329 224.955 37.6329L222.943 36.4853L221.161 37.5755ZM320.311 86.9237L333.301 79.4067L244.21 28.1076L244.037 28.1649L231.22 35.6246L320.311 86.9237ZM194.951 52.6669L287.433 105.974L289.273 104.884L198.917 52.839L198.802 52.7817L196.733 51.5766L194.951 52.6669ZM294.158 102.072L307.148 94.5554L218.057 43.2563L205.125 50.7733L294.158 102.072ZM168.799 67.7582L261.281 121.066L263.12 119.975L172.822 67.9304L172.707 67.873L170.638 66.668L168.799 67.7582ZM142.646 82.8495L235.128 136.157L236.968 135.067L146.612 83.0218L144.428 81.7594L142.646 82.8495ZM241.853 132.198L254.843 124.681L165.752 73.3816L165.58 73.439L152.762 80.8986L241.853 132.198ZM204.895 153.544L210.758 150.101L120.46 98.0557L120.345 97.9409L118.276 96.7359L112.47 100.179L204.895 153.544ZM215.701 147.289L228.691 139.772L139.6 88.4155L126.667 95.9326L215.701 147.289ZM179.835 270.774L196.101 261.421C196.676 261.077 197.423 261.306 197.768 261.88C197.883 262.052 197.94 262.282 197.94 262.511V268.077C197.94 268.594 197.653 268.995 197.193 269.167L180.984 278.521C180.409 278.865 179.662 278.635 179.317 278.061C179.202 277.889 179.145 277.66 179.145 277.43V271.864C179.145 271.405 179.432 270.946 179.835 270.774ZM195.468 264.577L181.616 272.553V275.307L195.468 267.331V264.577ZM205.01 311.515L206.504 312.376V275.307C206.504 275.078 206.504 274.791 206.562 274.561V274.447C206.619 274.045 206.792 273.586 206.964 273.184V273.127C207.079 272.897 207.194 272.668 207.309 272.438C207.424 272.266 207.539 272.094 207.596 271.922L207.654 271.864C207.711 271.807 207.769 271.692 207.826 271.635C208.114 271.29 208.401 271.004 208.688 270.717L208.746 270.659L208.803 270.602L208.861 270.545L208.918 270.487L208.976 270.43C209.091 270.315 209.263 270.2 209.378 270.143C220.529 262.454 237.37 253.961 249.613 246.961L250.188 246.616L248.866 245.87L206.389 270.372L206.159 270.545V309.507C206.274 310.195 205.815 310.998 205.01 311.515ZM163.856 299.006C162.821 299.465 161.844 299.981 160.752 300.612C157.016 302.736 153.452 305.719 150.118 309.162C148.049 311.285 146.152 313.638 144.371 316.163C148.222 311.4 152.705 307.269 157.59 304.457L157.705 304.4C160.982 302.506 164.143 301.416 167.074 300.957L163.856 299.006ZM129.599 335.902C130.231 333.607 130.978 331.369 131.84 329.131C133.162 325.746 134.772 322.36 136.668 319.147L136.783 318.975C139.6 314.154 142.934 309.679 146.612 305.777C150.233 301.99 154.142 298.776 158.338 296.366C162.649 293.899 166.729 292.522 170.523 292.12C174.661 291.718 178.398 292.464 181.501 294.3C184.663 296.137 187.192 298.948 188.916 302.736C190.295 305.777 191.158 309.507 191.33 313.695L201.331 307.957L201.216 185.562L145.118 217.926C143.796 218.672 142.531 219.647 141.382 220.737C140.117 221.942 138.968 223.32 137.99 224.754C136.956 226.246 136.036 227.853 135.347 229.517C134.657 231.123 134.082 232.845 133.737 234.509C132.588 239.903 131.093 246.215 129.484 252.756C127.529 260.847 125.518 269.282 123.908 277.201C124.196 277.029 124.541 276.914 124.885 276.914C125.115 276.914 125.288 276.971 125.46 277.029L128.392 275.307C128.737 275.078 129.196 275.078 129.541 275.25V264.462C129.541 263.429 130.346 262.626 131.381 262.626C131.61 262.626 131.783 262.683 131.955 262.741L134.772 261.134L139.887 237.206C140.405 234.738 141.497 232.328 142.876 230.32C144.313 228.254 146.095 226.475 148.107 225.328L185.697 203.695C186.272 203.351 186.789 203.179 187.364 203.179H187.594C188.111 203.179 188.629 203.293 189.088 203.58C189.491 203.81 189.836 204.097 190.066 204.498L190.18 204.671C190.468 205.187 190.64 205.818 190.64 206.564V252.068C190.64 253.101 190.295 254.191 189.721 255.109C189.146 256.084 188.399 256.888 187.537 257.404L149.601 279.209V293.612C149.601 294.128 149.314 294.53 148.854 294.702L146.037 296.309C145.865 297.17 145.118 297.801 144.256 297.801C143.853 297.801 143.508 297.686 143.164 297.456L123.966 286.382C123.391 286.038 123.046 285.406 123.046 284.775V281.677C122.299 285.693 121.724 289.538 121.322 293.095L121.264 294.071V294.989V339.517L127.472 335.959C128.162 335.673 128.909 335.615 129.599 335.902ZM116.321 339.632V295.104L116.379 293.956L116.494 292.751C117.816 280.816 121.437 265.725 124.771 251.666C126.265 245.354 127.759 239.272 128.966 233.533C129.369 231.525 130.059 229.517 130.921 227.566C131.438 226.418 132.013 225.27 132.645 224.18L35.3923 168.118C30.3917 176.783 27.0005 186.653 24.6439 197.039V205.244C24.6439 205.359 24.6439 205.474 24.5864 205.589L21.1377 221.942V223.606C21.1377 224.123 20.9078 224.639 20.5629 224.984C19.1835 243.116 19.5858 261.536 19.7583 278.004C19.7583 278.119 19.7583 278.234 19.7583 278.348V283.57L116.321 339.632ZM135.347 220.164C136.151 219.131 137.071 218.098 138.048 217.18C139.485 215.803 141.037 214.598 142.704 213.622L197.25 182.177L100.687 126.517L43.6691 159.397C42.1747 160.257 40.9101 161.29 39.7606 162.38C39.1858 162.954 38.6685 163.528 38.1512 164.159L135.347 220.164ZM110.056 126.287L201.274 178.849V157.101L110.056 104.54V126.287ZM9.52718 192.104L19.3559 197.785L19.5858 196.695L10.6192 191.53L9.52718 192.104ZM8.32015 195.662V215.573L16.1946 220.106C16.5395 216.262 16.9993 212.474 17.5166 208.687V200.941L8.32015 195.662ZM129.599 278.119L129.081 277.832L127.989 278.463L129.599 279.381V278.119ZM134.484 264.175L144.888 270.2L145.98 269.569L135.576 263.544L134.484 264.175ZM146.095 272.266V293.612L147.187 292.981V271.635L146.095 272.266ZM133.277 267.675V282.537C133.277 282.824 133.22 283.168 133.047 283.455C132.53 284.316 131.438 284.603 130.518 284.144L126.782 281.963V283.8L142.474 292.866V272.955L133.277 267.675ZM247.888 269.913C247.026 270.43 246.164 270.659 245.359 270.659C244.727 270.659 244.095 270.487 243.578 270.2L243.52 270.143C243.06 269.856 242.6 269.397 242.313 268.88L242.256 268.823C241.853 268.134 241.681 267.274 241.681 266.298C241.681 264.692 242.256 262.855 243.175 261.306L243.233 261.249C244.152 259.699 245.417 258.38 246.796 257.576L246.854 257.519C247.716 257.002 248.578 256.773 249.383 256.773C250.015 256.773 250.647 256.945 251.165 257.232L251.222 257.289C251.682 257.576 252.142 258.035 252.429 258.552C252.832 259.24 253.061 260.158 253.061 261.191C253.061 262.798 252.487 264.634 251.567 266.184C250.647 267.733 249.383 269.11 248.003 269.913H247.888ZM245.359 268.192C245.762 268.192 246.164 268.077 246.681 267.79L246.739 267.733C247.774 267.159 248.751 266.069 249.44 264.864C250.13 263.659 250.59 262.282 250.59 261.077C250.59 260.445 250.475 259.986 250.303 259.642C250.188 259.47 250.073 259.355 249.958 259.24H249.9C249.728 259.183 249.555 259.126 249.325 259.126C248.923 259.126 248.521 259.24 248.003 259.527L247.946 259.585C246.911 260.158 245.992 261.191 245.302 262.396L245.244 262.454C244.555 263.659 244.095 265.036 244.095 266.241C244.095 266.815 244.21 267.274 244.382 267.618V267.675C244.497 267.848 244.612 267.962 244.727 268.077H244.785C244.957 268.135 245.187 268.192 245.359 268.192ZM104.423 322.016C105.4 322.59 106.32 322.876 107.125 322.876C107.585 322.876 107.987 322.762 108.332 322.59L108.389 322.532C108.677 322.36 108.964 322.073 109.137 321.671C109.539 320.983 109.711 320.065 109.711 318.917C109.711 316.679 108.907 314.154 107.585 311.859L107.527 311.745C106.205 309.507 104.481 307.613 102.527 306.465L102.469 306.408C101.492 305.892 100.63 305.605 99.8826 305.605C99.4228 305.605 99.0204 305.719 98.6755 305.892C98.3307 306.064 98.0433 306.408 97.8134 306.752L97.7559 306.81C97.411 307.441 97.1811 308.359 97.1811 309.507C97.1811 311.744 97.9858 314.269 99.3078 316.565C100.687 318.917 102.469 320.926 104.423 322.016ZM107.125 326.549C105.745 326.549 104.193 326.09 102.584 325.172C100.055 323.737 97.8134 321.27 96.204 318.458C94.5946 315.646 93.56 312.49 93.56 309.564C93.56 307.785 93.9049 306.293 94.5946 305.088L94.6521 304.973C95.2269 303.998 95.9741 303.252 96.8363 302.736C97.7559 302.219 98.733 301.932 99.8826 301.932C101.262 301.932 102.756 302.334 104.308 303.252L104.423 303.309C106.895 304.744 109.137 307.154 110.746 309.908L110.803 310.023C112.413 312.835 113.447 315.991 113.447 318.917C113.447 320.753 113.045 322.303 112.355 323.508C111.838 324.426 111.091 325.172 110.286 325.631L110.171 325.688C109.251 326.262 108.274 326.549 107.125 326.549ZM88.6744 312.376V291.03L85.1682 289.021V310.367L88.6744 312.376ZM91.1459 290.341V314.499C91.1459 314.728 91.0884 314.9 90.9735 315.13C90.6286 315.704 89.8814 315.933 89.3067 315.589L83.3864 312.203C82.984 311.974 82.7541 311.572 82.7541 311.113V286.956C82.7541 286.726 82.8116 286.554 82.9266 286.324C83.2715 285.751 84.0186 285.521 84.5934 285.865L90.5137 289.251C90.8585 289.48 91.1459 289.882 91.1459 290.341ZM50.3365 290.284V268.938L46.8303 266.929V288.275L50.3365 290.284ZM52.8081 268.249V292.407C52.8081 292.636 52.7506 292.809 52.6357 293.038C52.2908 293.612 51.5435 293.841 50.9688 293.497L45.0485 290.112C44.6462 289.882 44.4163 289.48 44.4163 289.021V264.864C44.4163 264.634 44.4737 264.462 44.5887 264.233C44.9336 263.659 45.6808 263.429 46.2556 263.774L52.1758 267.159C52.5207 267.389 52.8081 267.79 52.8081 268.249ZM75.9143 283.685V305.031L79.4204 307.039V285.693L75.9143 283.685ZM73.5002 305.719V281.562C73.5002 281.332 73.5577 281.16 73.6726 280.931C74.0175 280.357 74.7647 280.127 75.3395 280.471L81.2597 283.857C81.662 284.087 81.892 284.488 81.892 284.947V309.105C81.892 309.334 81.8345 309.507 81.7195 309.736C81.3747 310.31 80.6275 310.539 80.0527 310.195L74.1324 306.81C73.73 306.58 73.5002 306.178 73.5002 305.719ZM69.7641 301.473V280.127L66.2579 278.119V299.465L69.7641 301.473ZM72.1782 279.439V303.596C72.1782 303.826 72.1207 303.998 72.0057 304.227C71.6609 304.801 70.9137 305.031 70.3389 304.686L64.4187 301.301C64.0163 301.072 63.7864 300.67 63.7864 300.211V276.053C63.7864 275.824 63.8439 275.652 63.9588 275.422C64.3037 274.848 65.0509 274.619 65.6257 274.963L71.5459 278.348C71.8908 278.578 72.1782 278.98 72.1782 279.439ZM56.5441 272.553V293.899L60.0503 295.907V274.561L56.5441 272.553ZM54.0726 294.071V270.774C54.0726 270.372 54.245 269.971 54.5899 269.684C54.8773 269.454 55.2222 269.397 55.567 269.397C55.8544 269.397 56.0843 269.512 56.3717 269.626L61.8321 272.782C62.2344 273.012 62.4644 273.414 62.4644 273.873V298.03C62.4644 298.26 62.4069 298.432 62.2919 298.661C61.9471 299.235 61.1999 299.465 60.6251 299.12L55.1072 295.965C54.8198 295.792 54.5899 295.563 54.4175 295.276L54.36 295.161C54.1876 294.759 54.0726 294.415 54.0726 294.071ZM5.27377 290.628V301.99L115.517 365.511V354.149L5.27377 290.628ZM137.243 343.649V358.338C137.243 358.74 137.128 359.084 136.898 359.429C137.071 359.83 137.301 360.232 137.531 360.633C138.45 362.24 139.6 363.445 140.922 364.363L141.612 364.765C142.531 365.281 143.566 365.683 144.6 365.913C147.532 366.544 150.866 366.027 154.142 364.708C155.349 364.249 156.498 363.675 157.648 363.043L157.763 362.986C161.039 361.093 164.2 358.51 167.074 355.527C170.063 352.371 172.765 348.698 175.064 344.739C177.305 340.837 179.145 336.648 180.409 332.459C181.616 328.442 182.249 324.483 182.249 320.696C182.249 316.392 181.386 312.835 179.892 310.195L179.835 310.08C178.8 308.244 177.42 306.867 175.811 305.892L175.696 305.834C174.087 304.916 172.132 304.4 170.006 304.4C166.902 304.4 163.396 305.432 159.66 307.556L159.545 307.613C154.084 310.769 149.141 315.646 145.118 321.327C141.094 327.065 138.048 333.549 136.439 339.804L136.668 339.919C137.818 340.607 138.22 342.099 137.588 343.247C137.416 343.419 137.301 343.534 137.243 343.649ZM119.195 354.149V365.511L133.507 357.248V345.886L119.195 354.149ZM14.8726 282.996L8.32015 286.784L117.356 349.616L130.461 342.042L128.622 341.009L119.942 346.001C119.195 346.403 118.276 346.46 117.528 346.001L16.2521 287.644C15.5049 287.3 14.9876 286.611 14.8726 285.751V285.464V285.406V282.996ZM32.6334 280.816C33.6105 281.332 34.4726 281.619 35.2199 281.619C35.6797 281.619 36.082 281.504 36.4268 281.332C36.7717 281.16 37.0592 280.816 37.2891 280.471C37.6914 279.783 37.8638 278.865 37.8638 277.717C37.8638 275.479 37.0591 272.955 35.7371 270.659L35.6797 270.545C34.3577 268.307 32.6333 266.413 30.679 265.265L30.6216 265.208C29.6445 264.692 28.7823 264.405 28.0351 264.405C27.5753 264.405 27.1729 264.519 26.828 264.692C26.4832 264.864 26.1958 265.208 25.9659 265.552L25.9084 265.61C25.5635 266.241 25.3336 267.159 25.3336 268.307C25.3336 270.545 26.1383 273.069 27.4603 275.365C28.7823 277.66 30.5641 279.611 32.5184 280.758L32.6334 280.816ZM35.2773 285.292C33.8978 285.292 32.4034 284.89 30.8515 283.972L30.7366 283.914C28.2075 282.48 25.9659 280.012 24.3565 277.201C22.7471 274.389 21.7125 271.233 21.7125 268.307C21.7125 266.528 22.1148 265.036 22.7471 263.831L22.8046 263.716C23.3794 262.741 24.1266 261.995 24.9888 261.478C25.9084 260.962 26.8855 260.675 28.0351 260.675C29.4146 260.675 30.9089 261.077 32.4608 261.995L32.5758 262.052C35.0474 263.487 37.2891 265.897 38.8984 268.651L38.9559 268.766C40.5653 271.577 41.5999 274.733 41.5999 277.66C41.5999 279.496 41.1976 281.045 40.5078 282.25C39.933 283.226 39.1858 283.972 38.3236 284.488C37.404 285.005 36.3694 285.292 35.2773 285.292ZM38.3812 178.275L124.828 228.14C125.518 228.484 125.978 229.345 125.805 230.148L113.735 286.841C113.677 287.013 113.62 287.185 113.505 287.357C112.988 288.218 111.895 288.562 110.976 288.046L24.5289 238.181C23.8392 237.837 23.3794 236.976 23.5518 236.173L35.6222 179.48C35.6796 179.308 35.7372 179.136 35.8521 178.964C36.3694 178.103 37.4615 177.816 38.3812 178.275ZM144.485 350.592C143.393 348.698 142.761 346.231 142.761 343.362C142.761 338.599 144.428 333.32 147.13 328.672C149.831 324.024 153.567 320.007 157.705 317.597C160.234 316.163 162.649 315.417 164.833 315.417C166.5 315.417 168.051 315.819 169.373 316.622C170.695 317.425 171.845 318.515 172.65 319.95C173.742 321.844 174.374 324.311 174.374 327.18C174.374 331.943 172.707 337.222 170.006 341.812C167.304 346.46 163.568 350.534 159.487 352.887C156.958 354.322 154.544 355.067 152.303 355.067C150.636 355.067 149.084 354.666 147.762 353.863C146.44 353.174 145.348 352.026 144.485 350.592ZM272.202 271.75L278.524 275.422C277.432 272.61 276.8 269.282 276.8 265.495C276.8 261.363 277.49 257.002 278.812 252.699C280.134 248.223 282.088 243.805 284.502 239.616C286.916 235.427 289.79 231.525 293.009 228.14C296.112 224.869 299.504 222.057 303.125 219.991C306.401 218.098 309.62 216.95 312.609 216.491L309.505 214.712C307.895 215.286 306.171 216.089 304.447 217.065L304.332 217.122C300.538 219.303 296.86 222.287 293.583 225.787C290.077 229.459 286.973 233.706 284.329 238.181C281.685 242.714 279.559 247.477 278.122 252.297C276.742 256.888 275.938 261.478 275.88 265.839V266.069C275.88 267.102 275.535 268.192 275.018 269.11C274.443 270.085 273.696 270.889 272.834 271.405L272.202 271.75ZM314.735 213.45L323.012 218.213L323.185 218.327C325.771 219.877 327.84 222.229 329.277 225.385C330.082 227.164 330.657 229.115 331.002 231.296C330.887 227.394 330.139 224.123 328.875 221.426C327.553 218.557 325.599 216.376 323.242 214.999C320.886 213.679 318.012 213.106 314.793 213.45H314.735ZM286.801 280.185L287.031 280.299C289.043 281.447 291.457 281.906 294.158 281.677C296.917 281.39 299.906 280.357 303.125 278.521C306.401 276.627 309.505 274.045 312.436 271.061C315.425 267.905 318.127 264.233 320.426 260.273C322.667 256.371 324.507 252.182 325.771 247.994C326.978 243.977 327.61 240.018 327.61 236.23C327.61 232.558 326.978 229.402 325.829 226.935C324.737 224.467 323.127 222.631 321.173 221.483L320.943 221.369L320.828 221.311C318.874 220.221 316.517 219.819 313.931 220.049C311.172 220.336 308.183 221.369 304.964 223.205C301.688 225.098 298.527 227.681 295.653 230.664C292.664 233.82 289.962 237.493 287.663 241.395L287.606 241.452C285.364 245.354 283.525 249.543 282.26 253.732C281.053 257.748 280.421 261.708 280.421 265.495C280.421 269.167 281.053 272.323 282.203 274.848C283.41 277.201 284.904 278.98 286.801 280.185ZM289.445 251.609C290.192 249.084 291.284 246.616 292.664 244.264C294.043 241.911 295.653 239.673 297.434 237.78C299.216 235.943 301.113 234.337 303.182 233.132C305.309 231.927 307.378 231.238 309.275 231.066C311.287 230.894 313.183 231.238 314.735 232.099L315.138 232.328C316.69 233.247 317.897 234.681 318.701 236.517C319.506 238.239 319.908 240.362 319.908 242.829C319.908 245.124 319.506 247.535 318.816 250.002C318.127 252.469 317.034 254.879 315.77 257.175C315.712 257.289 315.655 257.404 315.598 257.519C314.218 259.872 312.609 262.052 310.827 264.003C309.045 265.839 307.091 267.446 305.079 268.651C302.952 269.856 300.883 270.544 298.986 270.774C296.86 271.004 294.963 270.602 293.354 269.626C291.744 268.708 290.422 267.216 289.56 265.323C288.755 263.601 288.353 261.478 288.353 259.011C288.295 256.543 288.698 254.076 289.445 251.609Z" fill="#3D6680"/>
</g>
</svg>
